<?xml version="1.0" encoding="utf-8" standalone="no"?>
<!DOCTYPE svg PUBLIC "-//W3C//DTD SVG 1.1//EN"
  "http://www.w3.org/Graphics/SVG/1.1/DTD/svg11.dtd">
<svg xmlns:xlink="http://www.w3.org/1999/xlink" width="251.34766pt" height="170.527286pt" viewBox="0 0 251.34766 170.527286" xmlns="http://www.w3.org/2000/svg" version="1.1">
 <metadata>
  <rdf:RDF xmlns:dc="http://purl.org/dc/elements/1.1/" xmlns:cc="http://creativecommons.org/ns#" xmlns:rdf="http://www.w3.org/1999/02/22-rdf-syntax-ns#">
   <cc:Work>
    <dc:type rdf:resource="http://purl.org/dc/dcmitype/StillImage"/>
    <dc:date>2023-01-17T13:26:51.097123</dc:date>
    <dc:format>image/svg+xml</dc:format>
    <dc:creator>
     <cc:Agent>
      <dc:title>Matplotlib v3.5.2, https://matplotlib.org/</dc:title>
     </cc:Agent>
    </dc:creator>
   </cc:Work>
  </rdf:RDF>
 </metadata>
 <defs>
  <style type="text/css">*{stroke-linejoin: round; stroke-linecap: butt}</style>
 </defs>
 <g id="figure_1">
  <g id="patch_1">
   <path d="M 0 170.527286 
L 251.34766 170.527286 
L 251.34766 0 
L 0 0 
L 0 170.527286 
z
" style="fill: none"/>
  </g>
  <g id="axes_1">
   <g id="patch_2">
    <path d="M 25.437012 140.10897 
L 247.74766 140.10897 
L 247.74766 3.6 
L 25.437012 3.6 
L 25.437012 140.10897 
z
" style="fill: none"/>
   </g>
   <g id="matplotlib.axis_1">
    <g id="xtick_1">
     <g id="line2d_1">
      <defs>
       <path id="mfa4f8cf474" d="M 0 0 
L 0 2 
" style="stroke: #000000; stroke-width: 0.8"/>
      </defs>
      <g>
       <use xlink:href="#mfa4f8cf474" x="35.44089" y="140.10897" style="stroke: #000000; stroke-width: 0.8"/>
      </g>
     </g>
     <g id="text_1">
      <!-- $\mathdefault{−2}$ -->
      <g transform="translate(29.075851 151.027468)scale(0.1 -0.1)">
       <defs>
        <path id="CMSY10-0" d="M 4218 1472 
C 4326 1472 4442 1472 4442 1600 
C 4442 1728 4326 1728 4218 1728 
L 755 1728 
C 646 1728 531 1728 531 1600 
C 531 1472 646 1472 755 1472 
L 4218 1472 
z
" transform="scale(0.015625)"/>
        <path id="CMR17-32" d="M 2669 990 
L 2554 990 
C 2490 537 2438 460 2413 422 
C 2381 371 1920 371 1830 371 
L 602 371 
C 832 620 1280 1073 1824 1596 
C 2214 1966 2669 2400 2669 3033 
C 2669 3788 2067 4224 1395 4224 
C 691 4224 262 3603 262 3027 
C 262 2777 448 2745 525 2745 
C 589 2745 781 2783 781 3007 
C 781 3206 614 3264 525 3264 
C 486 3264 448 3257 422 3244 
C 544 3788 915 4057 1306 4057 
C 1862 4057 2227 3616 2227 3033 
C 2227 2477 1901 1998 1536 1583 
L 262 147 
L 262 0 
L 2515 0 
L 2669 990 
z
" transform="scale(0.015625)"/>
       </defs>
       <use xlink:href="#CMSY10-0" transform="scale(0.996264)"/>
       <use xlink:href="#CMR17-32" transform="translate(77.487468 0)scale(0.996264)"/>
      </g>
     </g>
    </g>
    <g id="xtick_2">
     <g id="line2d_2">
      <g>
       <use xlink:href="#mfa4f8cf474" x="85.991325" y="140.10897" style="stroke: #000000; stroke-width: 0.8"/>
      </g>
     </g>
     <g id="text_2">
      <!-- $\mathdefault{−1}$ -->
      <g transform="translate(79.626286 151.027468)scale(0.1 -0.1)">
       <defs>
        <path id="CMR17-31" d="M 1702 4083 
C 1702 4217 1696 4224 1606 4224 
C 1357 3927 979 3833 621 3820 
C 602 3820 570 3820 563 3808 
C 557 3795 557 3782 557 3648 
C 755 3648 1088 3686 1344 3839 
L 1344 467 
C 1344 243 1331 166 781 166 
L 589 166 
L 589 0 
C 896 6 1216 12 1523 12 
C 1830 12 2150 6 2458 0 
L 2458 166 
L 2266 166 
C 1715 166 1702 236 1702 467 
L 1702 4083 
z
" transform="scale(0.015625)"/>
       </defs>
       <use xlink:href="#CMSY10-0" transform="scale(0.996264)"/>
       <use xlink:href="#CMR17-31" transform="translate(77.487468 0)scale(0.996264)"/>
      </g>
     </g>
    </g>
    <g id="xtick_3">
     <g id="line2d_3">
      <g>
       <use xlink:href="#mfa4f8cf474" x="136.54176" y="140.10897" style="stroke: #000000; stroke-width: 0.8"/>
      </g>
     </g>
     <g id="text_3">
      <!-- $\mathdefault{0}$ -->
      <g transform="translate(134.051093 151.027468)scale(0.1 -0.1)">
       <defs>
        <path id="CMR17-30" d="M 2688 2038 
C 2688 2430 2682 3099 2413 3613 
C 2176 4063 1798 4224 1466 4224 
C 1158 4224 768 4082 525 3620 
C 269 3137 243 2539 243 2038 
C 243 1671 250 1112 448 623 
C 723 -39 1216 -128 1466 -128 
C 1760 -128 2208 -7 2470 604 
C 2662 1048 2688 1568 2688 2038 
z
M 1466 -26 
C 1056 -26 813 328 723 816 
C 653 1196 653 1749 653 2109 
C 653 2604 653 3015 736 3407 
C 858 3954 1216 4121 1466 4121 
C 1728 4121 2067 3947 2189 3420 
C 2272 3054 2278 2623 2278 2109 
C 2278 1691 2278 1176 2202 797 
C 2067 96 1690 -26 1466 -26 
z
" transform="scale(0.015625)"/>
       </defs>
       <use xlink:href="#CMR17-30" transform="scale(0.996264)"/>
      </g>
     </g>
    </g>
    <g id="xtick_4">
     <g id="line2d_4">
      <g>
       <use xlink:href="#mfa4f8cf474" x="187.092196" y="140.10897" style="stroke: #000000; stroke-width: 0.8"/>
      </g>
     </g>
     <g id="text_4">
      <!-- $\mathdefault{1}$ -->
      <g transform="translate(184.601528 151.027468)scale(0.1 -0.1)">
       <use xlink:href="#CMR17-31" transform="scale(0.996264)"/>
      </g>
     </g>
    </g>
    <g id="xtick_5">
     <g id="line2d_5">
      <g>
       <use xlink:href="#mfa4f8cf474" x="237.642631" y="140.10897" style="stroke: #000000; stroke-width: 0.8"/>
      </g>
     </g>
     <g id="text_5">
      <!-- $\mathdefault{2}$ -->
      <g transform="translate(235.151963 151.027468)scale(0.1 -0.1)">
       <use xlink:href="#CMR17-32" transform="scale(0.996264)"/>
      </g>
     </g>
    </g>
    <g id="text_6">
     <!-- $V/J$ -->
     <g transform="translate(127.880218 164.436626)scale(0.1 -0.1)">
      <defs>
       <path id="CMMI12-56" d="M 3962 3644 
C 4179 3987 4378 4140 4704 4166 
C 4768 4172 4819 4172 4819 4287 
C 4819 4313 4806 4352 4749 4352 
C 4634 4352 4358 4339 4243 4339 
C 4058 4339 3866 4352 3686 4352 
C 3635 4352 3571 4352 3571 4230 
C 3571 4172 3629 4166 3654 4166 
C 3891 4146 3917 4032 3917 3956 
C 3917 3860 3827 3714 3821 3708 
L 1811 540 
L 1363 3968 
C 1363 4153 1696 4166 1766 4166 
C 1862 4166 1920 4166 1920 4287 
C 1920 4352 1850 4352 1830 4352 
C 1722 4352 1594 4339 1485 4339 
L 1126 4339 
C 659 4339 467 4352 461 4352 
C 422 4352 346 4352 346 4236 
C 346 4166 390 4166 493 4166 
C 819 4166 838 4108 858 3949 
L 1370 25 
C 1389 -109 1389 -128 1478 -128 
C 1555 -128 1587 -109 1651 -7 
L 3962 3644 
z
" transform="scale(0.015625)"/>
       <path id="CMMI12-3d" d="M 2746 4563 
C 2746 4569 2784 4665 2784 4678 
C 2784 4755 2720 4800 2669 4800 
C 2637 4800 2579 4800 2528 4659 
L 384 -1364 
C 384 -1370 346 -1466 346 -1479 
C 346 -1556 410 -1600 461 -1600 
C 499 -1600 557 -1594 602 -1460 
L 2746 4563 
z
" transform="scale(0.015625)"/>
       <path id="CMMI12-4a" d="M 3418 3911 
C 3469 4102 3482 4166 3795 4166 
C 3898 4166 3962 4166 3962 4281 
C 3962 4352 3904 4352 3878 4352 
C 3770 4352 3648 4339 3533 4339 
L 3181 4339 
C 2912 4339 2630 4352 2362 4352 
C 2304 4352 2227 4352 2227 4236 
C 2227 4172 2278 4172 2278 4166 
L 2438 4166 
C 2950 4166 2950 4115 2950 4019 
C 2950 4013 2950 3968 2925 3866 
L 2189 953 
C 2022 304 1594 0 1286 0 
C 1069 0 762 99 685 428 
C 710 422 742 415 768 415 
C 979 415 1146 601 1146 787 
C 1146 889 1082 1024 890 1024 
C 774 1024 506 959 506 543 
C 506 149 838 -128 1299 -128 
C 1882 -128 2509 304 2662 908 
L 3418 3911 
z
" transform="scale(0.015625)"/>
      </defs>
      <use xlink:href="#CMMI12-56" transform="scale(0.996264)"/>
      <use xlink:href="#CMMI12-3d" transform="translate(67.70845 0)scale(0.996264)"/>
      <use xlink:href="#CMMI12-4a" transform="translate(116.483369 0)scale(0.996264)"/>
     </g>
    </g>
   </g>
   <g id="matplotlib.axis_2">
    <g id="ytick_1">
     <g id="line2d_6">
      <defs>
       <path id="m17bccd0740" d="M 0 0 
L -2 0 
" style="stroke: #000000; stroke-width: 0.8"/>
      </defs>
      <g>
       <use xlink:href="#m17bccd0740" x="25.437012" y="133.904017" style="stroke: #000000; stroke-width: 0.8"/>
      </g>
     </g>
     <g id="text_7">
      <!-- $\mathdefault{0}$ -->
      <g transform="translate(16.455677 137.363266)scale(0.1 -0.1)">
       <use xlink:href="#CMR17-30" transform="scale(0.996264)"/>
      </g>
     </g>
    </g>
    <g id="ytick_2">
     <g id="line2d_7">
      <g>
       <use xlink:href="#m17bccd0740" x="25.437012" y="103.94725" style="stroke: #000000; stroke-width: 0.8"/>
      </g>
     </g>
     <g id="text_8">
      <!-- $\mathdefault{2}$ -->
      <g transform="translate(16.455677 107.406499)scale(0.1 -0.1)">
       <use xlink:href="#CMR17-32" transform="scale(0.996264)"/>
      </g>
     </g>
    </g>
    <g id="ytick_3">
     <g id="line2d_8">
      <g>
       <use xlink:href="#m17bccd0740" x="25.437012" y="73.990484" style="stroke: #000000; stroke-width: 0.8"/>
      </g>
     </g>
     <g id="text_9">
      <!-- $\mathdefault{4}$ -->
      <g transform="translate(16.455677 77.449733)scale(0.1 -0.1)">
       <defs>
        <path id="CMR17-34" d="M 2150 4147 
C 2150 4281 2144 4288 2029 4288 
L 128 1254 
L 128 1088 
L 1779 1088 
L 1779 460 
C 1779 230 1766 166 1318 166 
L 1197 166 
L 1197 0 
C 1402 12 1747 12 1965 12 
C 2182 12 2528 12 2733 0 
L 2733 166 
L 2611 166 
C 2163 166 2150 230 2150 460 
L 2150 1088 
L 2803 1088 
L 2803 1254 
L 2150 1254 
L 2150 4147 
z
M 1798 3723 
L 1798 1254 
L 256 1254 
L 1798 3723 
z
" transform="scale(0.015625)"/>
       </defs>
       <use xlink:href="#CMR17-34" transform="scale(0.996264)"/>
      </g>
     </g>
    </g>
    <g id="ytick_4">
     <g id="line2d_9">
      <g>
       <use xlink:href="#m17bccd0740" x="25.437012" y="44.033717" style="stroke: #000000; stroke-width: 0.8"/>
      </g>
     </g>
     <g id="text_10">
      <!-- $\mathdefault{6}$ -->
      <g transform="translate(16.455677 47.492966)scale(0.1 -0.1)">
       <defs>
        <path id="CMR17-36" d="M 678 2198 
C 678 3712 1395 4076 1811 4076 
C 1946 4076 2272 4049 2400 3782 
C 2298 3782 2106 3782 2106 3558 
C 2106 3385 2246 3328 2336 3328 
C 2394 3328 2566 3353 2566 3571 
C 2566 3987 2246 4224 1805 4224 
C 1043 4224 243 3411 243 2011 
C 243 257 966 -128 1478 -128 
C 2099 -128 2688 431 2688 1295 
C 2688 2101 2170 2688 1517 2688 
C 1126 2688 838 2430 678 1979 
L 678 2198 
z
M 1478 25 
C 691 25 691 1212 691 1450 
C 691 1914 909 2585 1504 2585 
C 1613 2585 1926 2585 2138 2140 
C 2253 1889 2253 1624 2253 1302 
C 2253 954 2253 696 2118 438 
C 1978 173 1773 25 1478 25 
z
" transform="scale(0.015625)"/>
       </defs>
       <use xlink:href="#CMR17-36" transform="scale(0.996264)"/>
      </g>
     </g>
    </g>
    <g id="ytick_5">
     <g id="line2d_10">
      <g>
       <use xlink:href="#m17bccd0740" x="25.437012" y="14.076951" style="stroke: #000000; stroke-width: 0.8"/>
      </g>
     </g>
     <g id="text_11">
      <!-- $\mathdefault{8}$ -->
      <g transform="translate(16.455677 17.5362)scale(0.1 -0.1)">
       <defs>
        <path id="CMR17-38" d="M 1741 2289 
C 2144 2494 2554 2803 2554 3298 
C 2554 3884 1990 4224 1472 4224 
C 890 4224 378 3800 378 3215 
C 378 3054 416 2777 666 2533 
C 730 2469 998 2276 1171 2154 
C 883 2006 211 1652 211 945 
C 211 282 838 -128 1459 -128 
C 2144 -128 2720 366 2720 1022 
C 2720 1607 2330 1877 2074 2051 
L 1741 2289 
z
M 902 2855 
C 851 2887 595 3086 595 3388 
C 595 3781 998 4076 1459 4076 
C 1965 4076 2336 3716 2336 3298 
C 2336 2700 1670 2359 1638 2359 
C 1632 2359 1626 2359 1574 2398 
L 902 2855 
z
M 2080 1536 
C 2176 1466 2483 1253 2483 861 
C 2483 385 2010 25 1472 25 
C 890 25 448 443 448 951 
C 448 1459 838 1884 1280 2083 
L 2080 1536 
z
" transform="scale(0.015625)"/>
       </defs>
       <use xlink:href="#CMR17-38" transform="scale(0.996264)"/>
      </g>
     </g>
    </g>
    <g id="text_12">
     <!-- $g$ -->
     <g transform="translate(10.518498 74.230417)rotate(-90)scale(0.1 -0.1)">
      <defs>
       <path id="CMMI12-67" d="M 2163 811 
C 2138 708 2125 683 2042 587 
C 1779 249 1510 128 1312 128 
C 1101 128 902 293 902 734 
C 902 1072 1094 1787 1235 2075 
C 1421 2432 1709 2687 1978 2687 
C 2400 2687 2483 2164 2483 2126 
L 2464 2036 
L 2163 811 
z
M 2560 2394 
C 2477 2579 2298 2816 1978 2816 
C 1280 2816 486 1941 486 989 
C 486 325 890 0 1299 0 
C 1638 0 1939 268 2054 396 
L 1914 -176 
C 1824 -520 1786 -677 1555 -896 
C 1293 -1152 1050 -1152 909 -1152 
C 717 -1152 557 -1140 397 -1090 
C 602 -1034 653 -858 653 -789 
C 653 -689 576 -589 435 -589 
C 282 -589 115 -714 115 -921 
C 115 -1178 378 -1280 922 -1280 
C 1747 -1280 2176 -758 2259 -420 
L 2970 2426 
C 2989 2502 2989 2515 2989 2528 
C 2989 2617 2918 2688 2822 2688 
C 2669 2688 2579 2560 2560 2388 
L 2560 2394 
z
" transform="scale(0.015625)"/>
      </defs>
      <use xlink:href="#CMMI12-67" transform="scale(0.996264)"/>
     </g>
    </g>
   </g>
   <g id="line2d_11">
    <path d="M 35.542041 9.804953 
L 35.744344 65.310185 
L 36.047799 87.477129 
L 36.452404 99.508825 
L 36.958162 107.071 
L 37.463919 111.562049 
L 38.070828 115.116571 
L 38.778888 117.952283 
L 39.588099 120.242962 
L 40.498462 122.11821 
L 41.509977 123.673047 
L 42.622643 124.977289 
L 43.937611 126.163571 
L 45.454883 127.218375 
L 47.174458 128.144582 
L 49.298638 129.027072 
L 51.827424 129.828755 
L 54.963119 130.578469 
L 58.806874 131.260359 
L 63.662143 131.88642 
L 69.832382 132.448084 
L 77.823346 132.941469 
L 88.343096 133.355805 
L 102.301996 133.671772 
L 121.217316 133.86511 
L 146.505178 133.890104 
L 177.558672 133.694809 
L 207.094894 133.297069 
L 226.111366 132.841857 
L 234.81039 132.444365 
L 237.339177 132.169111 
L 237.642631 132.031719 
L 237.642631 132.031719 
" clip-path="url(#p030bb88767)" style="fill: none; stroke: #0b2456; stroke-width: 0.75; stroke-linecap: round"/>
   </g>
   <g id="patch_3">
    <path d="M 25.437012 140.10897 
L 25.437012 3.6 
" style="fill: none; stroke: #000000; stroke-width: 0.8; stroke-linejoin: miter; stroke-linecap: square"/>
   </g>
   <g id="patch_4">
    <path d="M 247.74766 140.10897 
L 247.74766 3.6 
" style="fill: none; stroke: #000000; stroke-width: 0.8; stroke-linejoin: miter; stroke-linecap: square"/>
   </g>
   <g id="patch_5">
    <path d="M 25.437012 140.10897 
L 247.74766 140.10897 
" style="fill: none; stroke: #000000; stroke-width: 0.8; stroke-linejoin: miter; stroke-linecap: square"/>
   </g>
   <g id="patch_6">
    <path d="M 25.437012 3.6 
L 247.74766 3.6 
" style="fill: none; stroke: #000000; stroke-width: 0.8; stroke-linejoin: miter; stroke-linecap: square"/>
   </g>
   <g id="legend_1">
    <g id="PathCollection_1">
     <defs>
      <path id="mfa8c2d02d1" d="M 1.581139 0 
L -1.581139 -1.581139 
L -1.581139 1.581139 
z
" style="stroke: #1a896f"/>
     </defs>
     <g>
      <use xlink:href="#mfa8c2d02d1" x="166.121642" y="17.44698" style="fill: #1a896f; stroke: #1a896f"/>
     </g>
    </g>
    <g id="text_13">
     <!-- $V/J=-1.65$ -->
     <g transform="translate(181.621642 20.07198)scale(0.1 -0.1)">
      <defs>
       <path id="CMR17-3d" d="M 4115 2048 
C 4211 2048 4307 2048 4307 2156 
C 4307 2272 4198 2272 4090 2272 
L 512 2272 
C 403 2272 294 2272 294 2156 
C 294 2048 390 2048 486 2048 
L 4115 2048 
z
M 4090 927 
C 4198 927 4307 927 4307 1043 
C 4307 1152 4211 1152 4115 1152 
L 486 1152 
C 390 1152 294 1152 294 1043 
C 294 927 403 927 512 927 
L 4090 927 
z
" transform="scale(0.015625)"/>
       <path id="CMMI12-3a" d="M 1178 307 
C 1178 492 1024 620 870 620 
C 685 620 557 467 557 313 
C 557 128 710 0 864 0 
C 1050 0 1178 153 1178 307 
z
" transform="scale(0.015625)"/>
       <path id="CMR17-35" d="M 730 3750 
C 794 3724 1056 3641 1325 3641 
C 1920 3641 2246 3961 2432 4140 
C 2432 4191 2432 4224 2394 4224 
C 2387 4224 2374 4224 2323 4198 
C 2099 4102 1837 4032 1517 4032 
C 1325 4032 1037 4055 723 4191 
C 653 4224 640 4224 634 4224 
C 602 4224 595 4217 595 4090 
L 595 2231 
C 595 2113 595 2080 659 2080 
C 691 2080 704 2093 736 2139 
C 941 2435 1222 2560 1542 2560 
C 1766 2560 2246 2415 2246 1293 
C 2246 1087 2246 716 2054 422 
C 1894 159 1645 25 1370 25 
C 947 25 518 319 403 812 
C 429 806 480 793 506 793 
C 589 793 749 838 749 1036 
C 749 1209 627 1280 506 1280 
C 358 1280 262 1190 262 1011 
C 262 454 704 -128 1382 -128 
C 2042 -128 2669 441 2669 1267 
C 2669 2054 2170 2662 1549 2662 
C 1222 2662 947 2540 730 2304 
L 730 3750 
z
" transform="scale(0.015625)"/>
      </defs>
      <use xlink:href="#CMMI12-56" transform="scale(0.996264)"/>
      <use xlink:href="#CMMI12-3d" transform="translate(67.70845 0)scale(0.996264)"/>
      <use xlink:href="#CMMI12-4a" transform="translate(116.483369 0)scale(0.996264)"/>
      <use xlink:href="#CMR17-3d" transform="translate(207.300048 0)scale(0.996264)"/>
      <use xlink:href="#CMSY10-0" transform="translate(306.688845 0)scale(0.996264)"/>
      <use xlink:href="#CMR17-31" transform="translate(384.176313 0)scale(0.996264)"/>
      <use xlink:href="#CMMI12-3a" transform="translate(429.86679 0)scale(0.996264)"/>
      <use xlink:href="#CMR17-36" transform="translate(456.963967 0)scale(0.996264)"/>
      <use xlink:href="#CMR17-35" transform="translate(502.654444 0)scale(0.996264)"/>
     </g>
    </g>
    <g id="PathCollection_2">
     <defs>
      <path id="m11bd354f43" d="M 0 1.581139 
C 0.419323 1.581139 0.821528 1.41454 1.118034 1.118034 
C 1.41454 0.821528 1.581139 0.419323 1.581139 0 
C 1.581139 -0.419323 1.41454 -0.821528 1.118034 -1.118034 
C 0.821528 -1.41454 0.419323 -1.581139 0 -1.581139 
C -0.419323 -1.581139 -0.821528 -1.41454 -1.118034 -1.118034 
C -1.41454 -0.821528 -1.581139 -0.419323 -1.581139 0 
C -1.581139 0.419323 -1.41454 0.821528 -1.118034 1.118034 
C -0.821528 1.41454 -0.419323 1.581139 0 1.581139 
z
" style="stroke: #bdd73c"/>
     </defs>
     <g>
      <use xlink:href="#m11bd354f43" x="166.121642" y="32.40962" style="fill: #bdd73c; stroke: #bdd73c"/>
     </g>
    </g>
    <g id="text_14">
     <!-- $V/J=-1.00$ -->
     <g transform="translate(181.621642 35.03462)scale(0.1 -0.1)">
      <use xlink:href="#CMMI12-56" transform="scale(0.996264)"/>
      <use xlink:href="#CMMI12-3d" transform="translate(67.70845 0)scale(0.996264)"/>
      <use xlink:href="#CMMI12-4a" transform="translate(116.483369 0)scale(0.996264)"/>
      <use xlink:href="#CMR17-3d" transform="translate(207.300048 0)scale(0.996264)"/>
      <use xlink:href="#CMSY10-0" transform="translate(306.688845 0)scale(0.996264)"/>
      <use xlink:href="#CMR17-31" transform="translate(384.176313 0)scale(0.996264)"/>
      <use xlink:href="#CMMI12-3a" transform="translate(429.86679 0)scale(0.996264)"/>
      <use xlink:href="#CMR17-30" transform="translate(456.963967 0)scale(0.996264)"/>
      <use xlink:href="#CMR17-30" transform="translate(502.654444 0)scale(0.996264)"/>
     </g>
    </g>
    <g id="PathCollection_3">
     <defs>
      <path id="m3ae9091cf9" d="M -1.581139 1.581139 
L 1.581139 1.581139 
L 1.581139 -1.581139 
L -1.581139 -1.581139 
z
" style="stroke: #ff9f1c"/>
     </defs>
     <g>
      <use xlink:href="#m3ae9091cf9" x="166.121642" y="47.37226" style="fill: #ff9f1c; stroke: #ff9f1c"/>
     </g>
    </g>
    <g id="text_15">
     <!-- $V/J=\phantom{-}1.65$ -->
     <g transform="translate(181.621642 49.99726)scale(0.1 -0.1)">
      <use xlink:href="#CMMI12-56" transform="scale(0.996264)"/>
      <use xlink:href="#CMMI12-3d" transform="translate(67.70845 0)scale(0.996264)"/>
      <use xlink:href="#CMMI12-4a" transform="translate(116.483369 0)scale(0.996264)"/>
      <use xlink:href="#CMR17-3d" transform="translate(207.300048 0)scale(0.996264)"/>
      <use xlink:href="#CMR17-31" transform="translate(384.176313 0)scale(0.996264)"/>
      <use xlink:href="#CMMI12-3a" transform="translate(429.86679 0)scale(0.996264)"/>
      <use xlink:href="#CMR17-36" transform="translate(456.963967 0)scale(0.996264)"/>
      <use xlink:href="#CMR17-35" transform="translate(502.654444 0)scale(0.996264)"/>
     </g>
    </g>
    <g id="PathCollection_4">
     <defs>
      <path id="m7f0f993e32" d="M 0 2.236068 
L 2.236068 0 
L 0 -2.236068 
L -2.236068 0 
z
" style="stroke: #e71d36"/>
     </defs>
     <g>
      <use xlink:href="#m7f0f993e32" x="166.121642" y="62.3349" style="fill: #e71d36; stroke: #e71d36"/>
     </g>
    </g>
    <g id="text_16">
     <!-- $V/J=\phantom{-}1.75$ -->
     <g transform="translate(181.621642 64.9599)scale(0.1 -0.1)">
      <defs>
       <path id="CMR17-37" d="M 2886 3955 
L 2886 4096 
L 1382 4096 
C 634 4096 621 4166 595 4288 
L 480 4288 
L 294 3104 
L 410 3104 
C 429 3226 474 3552 550 3673 
C 589 3724 1062 3724 1171 3724 
L 2579 3724 
L 1869 2670 
C 1395 1961 1069 1003 1069 166 
C 1069 89 1069 -128 1299 -128 
C 1530 -128 1530 89 1530 172 
L 1530 466 
C 1530 1514 1709 2204 2003 2644 
L 2886 3955 
z
" transform="scale(0.015625)"/>
      </defs>
      <use xlink:href="#CMMI12-56" transform="scale(0.996264)"/>
      <use xlink:href="#CMMI12-3d" transform="translate(67.70845 0)scale(0.996264)"/>
      <use xlink:href="#CMMI12-4a" transform="translate(116.483369 0)scale(0.996264)"/>
      <use xlink:href="#CMR17-3d" transform="translate(207.300048 0)scale(0.996264)"/>
      <use xlink:href="#CMR17-31" transform="translate(384.176313 0)scale(0.996264)"/>
      <use xlink:href="#CMMI12-3a" transform="translate(429.86679 0)scale(0.996264)"/>
      <use xlink:href="#CMR17-37" transform="translate(456.963967 0)scale(0.996264)"/>
      <use xlink:href="#CMR17-35" transform="translate(502.654444 0)scale(0.996264)"/>
     </g>
    </g>
   </g>
   <g id="PathCollection_5">
    <g clip-path="url(#p030bb88767)">
     <use xlink:href="#mfa8c2d02d1" x="53.133542" y="130.167831" style="fill: #1a896f; stroke: #1a896f"/>
    </g>
   </g>
   <g id="PathCollection_6">
    <g clip-path="url(#p030bb88767)">
     <use xlink:href="#m11bd354f43" x="85.991325" y="133.279917" style="fill: #bdd73c; stroke: #bdd73c"/>
    </g>
   </g>
   <g id="PathCollection_7">
    <g clip-path="url(#p030bb88767)">
     <use xlink:href="#m3ae9091cf9" x="219.949979" y="133.020926" style="fill: #ff9f1c; stroke: #ff9f1c"/>
    </g>
   </g>
   <g id="PathCollection_8">
    <g clip-path="url(#p030bb88767)">
     <use xlink:href="#m7f0f993e32" x="225.005022" y="132.877524" style="fill: #e71d36; stroke: #e71d36"/>
    </g>
   </g>
  </g>
 </g>
 <defs>
  <clipPath id="p030bb88767">
   <rect x="25.437012" y="3.6" width="222.310648" height="136.50897"/>
  </clipPath>
 </defs>
</svg>
