<?xml version="1.0" encoding="UTF-8"?>
<svg xmlns="http://www.w3.org/2000/svg" xmlns:xlink="http://www.w3.org/1999/xlink" width="391.867pt" height="62.1396pt" viewBox="0 0 391.867 62.1396" version="1.1">
<defs>
<clipPath id="clip2">
  <path d="M 268 27 L 391.867188 27 L 391.867188 28 L 268 28 Z M 268 27 "/>
</clipPath>
<clipPath id="clip3">
  <path d="M 260 19 L 391.867188 19 L 391.867188 36 L 260 36 Z M 260 19 "/>
</clipPath>
<clipPath id="clip4">
  <path d="M 379 15 L 391.867188 15 L 391.867188 40 L 379 40 Z M 379 15 "/>
</clipPath>
<filter id="alpha" filterUnits="objectBoundingBox" x="0%" y="0%" width="100%" height="100%">
  <feColorMatrix type="matrix" in="SourceGraphic" values="0 0 0 0 1 0 0 0 0 1 0 0 0 0 1 0 0 0 1 0"/>
</filter>
<mask id="mask0">
  <g filter="url(#alpha)">
<rect x="0" y="0" width="392" height="63" style="fill:rgb(0%,0%,0%);fill-opacity:0.733337;stroke:none;"/>
  </g>
</mask>
<clipPath id="clip6">
  <path d="M 0.742188 0.265625 L 11.382813 0.265625 L 11.382813 10.902344 L 0.742188 10.902344 Z M 0.742188 0.265625 "/>
</clipPath>
<clipPath id="clip5">
  <rect width="12" height="11"/>
</clipPath>
<g id="surface7" clip-path="url(#clip5)">
<g clip-path="url(#clip6)" clip-rule="nonzero">
<path style="fill:none;stroke-width:0.972;stroke-linecap:butt;stroke-linejoin:miter;stroke:rgb(4.299927%,26.298523%,34.899902%);stroke-opacity:1;stroke-miterlimit:4;" d="M 0.0005375 -0.0000375 C 0.0005375 -2.668006 -2.163525 -4.832069 -4.831494 -4.832069 C -7.503369 -4.832069 -9.667431 -2.668006 -9.667431 -0.0000375 C -9.667431 2.671838 -7.503369 4.8359 -4.831494 4.8359 C -2.163525 4.8359 0.0005375 2.671838 0.0005375 -0.0000375 Z M 0.0005375 -0.0000375 " transform="matrix(1,0,0,-1,10.8979,5.5859)"/>
</g>
</g>
<clipPath id="clip7">
  <path d="M 31.28125 0.125 L 40 0.125 L 40 8.425781 L 31.28125 8.425781 Z M 31.28125 0.125 "/>
</clipPath>
<clipPath id="clip8">
  <path d="M 40 0.125 L 43 0.125 L 43 8.425781 L 40 8.425781 Z M 40 0.125 "/>
</clipPath>
<clipPath id="clip9">
  <path d="M 43 3 L 50 3 L 50 8.425781 L 43 8.425781 Z M 43 3 "/>
</clipPath>
<clipPath id="clip10">
  <path d="M 49 3 L 54 3 L 54 8.425781 L 49 8.425781 Z M 49 3 "/>
</clipPath>
<clipPath id="clip11">
  <path d="M 54 1 L 58 1 L 58 8.425781 L 54 8.425781 Z M 54 1 "/>
</clipPath>
<clipPath id="clip12">
  <path d="M 59 3 L 64 3 L 64 8.425781 L 59 8.425781 Z M 59 3 "/>
</clipPath>
<clipPath id="clip13">
  <path d="M 64 3 L 69 3 L 69 8.425781 L 64 8.425781 Z M 64 3 "/>
</clipPath>
<clipPath id="clip14">
  <path d="M 68 3 L 74 3 L 74 8.425781 L 68 8.425781 Z M 68 3 "/>
</clipPath>
<clipPath id="clip15">
  <path d="M 74 0.125 L 80 0.125 L 80 8.425781 L 74 8.425781 Z M 74 0.125 "/>
</clipPath>
<clipPath id="clip16">
  <path d="M 84.28125 0.125 L 90 0.125 L 90 8.425781 L 84.28125 8.425781 Z M 84.28125 0.125 "/>
</clipPath>
<clipPath id="clip17">
  <path d="M 90 3 L 97 3 L 97 8.425781 L 90 8.425781 Z M 90 3 "/>
</clipPath>
<clipPath id="clip18">
  <path d="M 96 0.125 L 100 0.125 L 100 8.425781 L 96 8.425781 Z M 96 0.125 "/>
</clipPath>
<clipPath id="clip19">
  <path d="M 100 0.125 L 103 0.125 L 103 8.425781 L 100 8.425781 Z M 100 0.125 "/>
</clipPath>
<clipPath id="clip20">
  <path d="M 103 0.125 L 109.28125 0.125 L 109.28125 8.425781 L 103 8.425781 Z M 103 0.125 "/>
</clipPath>
<clipPath id="clip21">
  <path d="M 152.113281 0 L 159 0 L 159 9 L 152.113281 9 Z M 152.113281 0 "/>
</clipPath>
<clipPath id="clip22">
  <path d="M 185 2 L 191 2 L 191 10.628906 L 185 10.628906 Z M 185 2 "/>
</clipPath>
<clipPath id="clip23">
  <path d="M 196 3 L 200.113281 3 L 200.113281 9 L 196 9 Z M 196 3 "/>
</clipPath>
<clipPath id="clip24">
  <path d="M 204.113281 0 L 212 0 L 212 9 L 204.113281 9 Z M 204.113281 0 "/>
</clipPath>
<clipPath id="clip25">
  <path d="M 215 3 L 222 3 L 222 10.628906 L 215 10.628906 Z M 215 3 "/>
</clipPath>
<clipPath id="clip26">
  <path d="M 271.128906 0.347656 L 279 0.347656 L 279 9 L 271.128906 9 Z M 271.128906 0.347656 "/>
</clipPath>
<clipPath id="clip27">
  <path d="M 279 0.347656 L 286 0.347656 L 286 9 L 279 9 Z M 279 0.347656 "/>
</clipPath>
<clipPath id="clip28">
  <path d="M 296 3 L 303 3 L 303 10.976563 L 296 10.976563 Z M 296 3 "/>
</clipPath>
<clipPath id="clip29">
  <path d="M 307 0.347656 L 314 0.347656 L 314 9 L 307 9 Z M 307 0.347656 "/>
</clipPath>
<clipPath id="clip30">
  <path d="M 350.128906 3.347656 L 357 3.347656 L 357 10.976563 L 350.128906 10.976563 Z M 350.128906 3.347656 "/>
</clipPath>
<clipPath id="clip31">
  <path d="M 257.078125 42.023438 L 266 42.023438 L 266 50.640625 L 257.078125 50.640625 Z M 257.078125 42.023438 "/>
</clipPath>
<clipPath id="clip32">
  <path d="M 266 42.023438 L 272 42.023438 L 272 50 L 266 50 Z M 266 42.023438 "/>
</clipPath>
<clipPath id="clip33">
  <path d="M 195 50.183594 L 200 50.183594 L 200 62.140625 L 195 62.140625 Z M 195 50.183594 "/>
</clipPath>
<clipPath id="clip34">
  <path d="M 201 50.183594 L 208 50.183594 L 208 60 L 201 60 Z M 201 50.183594 "/>
</clipPath>
<clipPath id="clip1">
  <rect width="392" height="63"/>
</clipPath>
<g id="surface4" clip-path="url(#clip1)">
<path style="fill:none;stroke-width:1.417;stroke-linecap:butt;stroke-linejoin:miter;stroke:rgb(10.198975%,54.499817%,44.299316%);stroke-opacity:1;stroke-miterlimit:4;" d="M -0.0005375 -0.0000875 L 123.124463 -0.0000875 " transform="matrix(1,0,0,-1,1.7271,27.9296)"/>
<path style="fill:none;stroke-width:1.417;stroke-linecap:butt;stroke-linejoin:miter;stroke:rgb(10.198975%,54.499817%,44.299316%);stroke-opacity:1;stroke-miterlimit:4;" d="M 0.000000000000000888 -0.00008125 L -4.253906 -4.253988 L 0.000000000000000888 -8.503988 " transform="matrix(1,0,0,-1,5.625,23.6757)"/>
<path style="fill:none;stroke-width:1.417;stroke-linecap:butt;stroke-linejoin:miter;stroke:rgb(74.099731%,84.298706%,23.899841%);stroke-opacity:1;stroke-miterlimit:4;" d="M 0.0005375 -0.0000125 L 123.129444 -0.0000125 " transform="matrix(1,0,0,-1,134.7729,27.8203)"/>
<g clip-path="url(#clip2)" clip-rule="nonzero">
<path style=" stroke:none;fill-rule:nonzero;fill:rgb(100%,33.299255%,33.299255%);fill-opacity:1;" d="M 391.511719 27.285156 L 268.386719 27.648438 "/>
</g>
<g clip-path="url(#clip3)" clip-rule="nonzero">
<path style="fill:none;stroke-width:1.417;stroke-linecap:butt;stroke-linejoin:miter;stroke:rgb(4.299927%,26.298523%,34.498596%);stroke-opacity:1;stroke-miterlimit:4;" d="M 0.00001875 -0.00005625 L -123.124981 -0.363337 " transform="matrix(1,0,0,-1,391.5117,27.2851)"/>
</g>
<g clip-path="url(#clip4)" clip-rule="nonzero">
<path style="fill:none;stroke-width:1.417;stroke-linecap:butt;stroke-linejoin:miter;stroke:rgb(4.299927%,26.298523%,34.498596%);stroke-opacity:1;stroke-miterlimit:4;" d="M 0.00000625 -0.000075 L 4.238288 4.26555 L -0.0273375 8.503831 " transform="matrix(1,0,0,-1,387.6289,31.5468)"/>
</g>
<path style=" stroke:none;fill-rule:nonzero;fill:rgb(100%,100%,100%);fill-opacity:1;" d="M 134.488281 27.929688 C 134.488281 30.601563 132.324219 32.765625 129.65625 32.765625 C 126.988281 32.765625 124.824219 30.601563 124.824219 27.929688 C 124.824219 25.261719 126.988281 23.097656 129.65625 23.097656 C 132.324219 23.097656 134.488281 25.261719 134.488281 27.929688 "/>
<path style="fill:none;stroke-width:0.972;stroke-linecap:butt;stroke-linejoin:miter;stroke:rgb(74.099731%,84.298706%,23.899841%);stroke-opacity:1;stroke-miterlimit:4;" d="M 0.00048125 -0.0000875 C 0.00048125 -2.671962 -2.163581 -4.836025 -4.83155 -4.836025 C -7.499519 -4.836025 -9.663581 -2.671962 -9.663581 -0.0000875 C -9.663581 2.667881 -7.499519 4.831944 -4.83155 4.831944 C -2.163581 4.831944 0.00048125 2.667881 0.00048125 -0.0000875 Z M 0.00048125 -0.0000875 " transform="matrix(1,0,0,-1,134.4878,27.9296)"/>
<path style=" stroke:none;fill-rule:nonzero;fill:rgb(4.299927%,26.298523%,34.498596%);fill-opacity:1;" d="M 267.898438 27.585938 C 267.898438 30.253906 265.734375 32.417969 263.066406 32.417969 C 260.394531 32.417969 258.230469 30.253906 258.230469 27.585938 C 258.230469 24.914063 260.394531 22.75 263.066406 22.75 C 265.734375 22.75 267.898438 24.914063 267.898438 27.585938 "/>
<use xlink:href="#surface7" transform="matrix(1,0,0,1,257,22)" mask="url(#mask0)"/>
<g clip-path="url(#clip7)" clip-rule="nonzero">
<path style=" stroke:none;fill-rule:nonzero;fill:rgb(0%,0%,0%);fill-opacity:1;" d="M 39.078125 0.285156 C 39.078125 0.0664063 39.078125 0.00390625 38.953125 0.00390625 C 38.890625 0.00390625 38.875 0.0351563 38.796875 0.160156 L 38.21875 1.097656 C 37.671875 0.425781 36.859375 0.00390625 36 0.00390625 C 33.8125 0.00390625 31.921875 1.894531 31.921875 4.332031 C 31.921875 6.816406 33.84375 8.675781 36 8.675781 C 37.96875 8.675781 39.078125 6.972656 39.078125 5.660156 C 39.078125 5.519531 39.078125 5.457031 38.9375 5.457031 C 38.828125 5.457031 38.8125 5.503906 38.8125 5.597656 C 38.703125 7.488281 37.3125 8.332031 36.15625 8.332031 C 35.328125 8.332031 33.03125 7.832031 33.03125 4.332031 C 33.03125 0.878906 35.28125 0.363281 36.140625 0.363281 C 37.40625 0.363281 38.5 1.425781 38.734375 3.207031 C 38.765625 3.363281 38.765625 3.394531 38.90625 3.394531 C 39.078125 3.394531 39.078125 3.363281 39.078125 3.113281 Z M 39.078125 0.285156 "/>
</g>
<g clip-path="url(#clip8)" clip-rule="nonzero">
<path style=" stroke:none;fill-rule:nonzero;fill:rgb(0%,0%,0%);fill-opacity:1;" d="M 41.800781 0.128906 L 40.128906 0.269531 L 40.128906 0.613281 C 40.941406 0.613281 41.035156 0.691406 41.035156 1.285156 L 41.035156 7.535156 C 41.035156 8.082031 40.910156 8.082031 40.128906 8.082031 L 40.128906 8.425781 C 40.472656 8.394531 41.050781 8.394531 41.410156 8.394531 C 41.769531 8.394531 42.363281 8.394531 42.707031 8.425781 L 42.707031 8.082031 C 41.941406 8.082031 41.800781 8.082031 41.800781 7.535156 Z M 41.800781 0.128906 "/>
</g>
<g clip-path="url(#clip9)" clip-rule="nonzero">
<path style=" stroke:none;fill-rule:nonzero;fill:rgb(0%,0%,0%);fill-opacity:1;" d="M 46.628906 3.285156 L 46.628906 3.628906 C 47.441406 3.628906 47.535156 3.722656 47.535156 4.300781 L 47.535156 6.441406 C 47.535156 7.457031 46.988281 8.300781 46.097656 8.300781 C 45.113281 8.300781 45.050781 7.738281 45.050781 7.113281 L 45.050781 3.160156 L 43.363281 3.285156 L 43.363281 3.628906 C 44.285156 3.628906 44.285156 3.675781 44.285156 4.738281 L 44.285156 6.519531 C 44.285156 7.269531 44.285156 7.691406 44.644531 8.097656 C 44.925781 8.394531 45.410156 8.550781 46.019531 8.550781 C 46.222656 8.550781 46.613281 8.550781 47.019531 8.191406 C 47.363281 7.925781 47.550781 7.472656 47.550781 7.472656 L 47.550781 8.550781 L 49.222656 8.425781 L 49.222656 8.082031 C 48.410156 8.082031 48.300781 7.988281 48.300781 7.410156 L 48.300781 3.160156 Z M 46.628906 3.285156 "/>
</g>
<g clip-path="url(#clip10)" clip-rule="nonzero">
<path style=" stroke:none;fill-rule:nonzero;fill:rgb(0%,0%,0%);fill-opacity:1;" d="M 53.414063 3.363281 C 53.414063 3.160156 53.414063 3.097656 53.289063 3.097656 C 53.195313 3.097656 52.976563 3.363281 52.882813 3.472656 C 52.523438 3.160156 52.148438 3.097656 51.757813 3.097656 C 50.320313 3.097656 49.882813 3.878906 49.882813 4.535156 C 49.882813 4.675781 49.882813 5.097656 50.335938 5.503906 C 50.726563 5.847656 51.132813 5.925781 51.679688 6.035156 C 52.335938 6.160156 52.492188 6.207031 52.789063 6.441406 C 53.007813 6.613281 53.164063 6.878906 53.164063 7.222656 C 53.164063 7.738281 52.867188 8.300781 51.804688 8.300781 C 51.023438 8.300781 50.445313 7.847656 50.179688 6.660156 C 50.132813 6.441406 50.132813 6.425781 50.132813 6.410156 C 50.101563 6.363281 50.054688 6.363281 50.023438 6.363281 C 49.882813 6.363281 49.882813 6.425781 49.882813 6.644531 L 49.882813 8.269531 C 49.882813 8.488281 49.882813 8.550781 50.007813 8.550781 C 50.070313 8.550781 50.070313 8.535156 50.273438 8.285156 C 50.335938 8.191406 50.335938 8.175781 50.523438 7.988281 C 50.976563 8.550781 51.617188 8.550781 51.820313 8.550781 C 53.070313 8.550781 53.695313 7.847656 53.695313 6.910156 C 53.695313 6.269531 53.304688 5.878906 53.195313 5.769531 C 52.773438 5.394531 52.445313 5.332031 51.648438 5.191406 C 51.304688 5.113281 50.429688 4.941406 50.429688 4.222656 C 50.429688 3.863281 50.679688 3.316406 51.757813 3.316406 C 53.054688 3.316406 53.132813 4.425781 53.148438 4.785156 C 53.164063 4.894531 53.242188 4.894531 53.289063 4.894531 C 53.414063 4.894531 53.414063 4.832031 53.414063 4.613281 Z M 53.414063 3.363281 "/>
</g>
<g clip-path="url(#clip11)" clip-rule="nonzero">
<path style=" stroke:none;fill-rule:nonzero;fill:rgb(0%,0%,0%);fill-opacity:1;" d="M 56.125 3.613281 L 57.796875 3.613281 L 57.796875 3.269531 L 56.125 3.269531 L 56.125 1.082031 L 55.859375 1.082031 C 55.84375 2.191406 55.40625 3.347656 54.328125 3.378906 L 54.328125 3.613281 L 55.34375 3.613281 L 55.34375 6.941406 C 55.34375 8.269531 56.21875 8.550781 56.859375 8.550781 C 57.609375 8.550781 58 7.800781 58 6.941406 L 58 6.269531 L 57.75 6.269531 L 57.75 6.925781 C 57.75 7.785156 57.390625 8.285156 56.9375 8.285156 C 56.125 8.285156 56.125 7.175781 56.125 6.972656 Z M 56.125 3.613281 "/>
</g>
<g clip-path="url(#clip12)" clip-rule="nonzero">
<path style=" stroke:none;fill-rule:nonzero;fill:rgb(0%,0%,0%);fill-opacity:1;" d="M 63.238281 5.660156 C 63.503906 5.660156 63.519531 5.660156 63.519531 5.425781 C 63.519531 4.222656 62.878906 3.097656 61.425781 3.097656 C 60.066406 3.097656 59.019531 4.332031 59.019531 5.800781 C 59.019531 7.378906 60.238281 8.550781 61.566406 8.550781 C 62.988281 8.550781 63.519531 7.253906 63.519531 7.003906 C 63.519531 6.925781 63.472656 6.878906 63.394531 6.878906 C 63.300781 6.878906 63.269531 6.941406 63.253906 7.003906 C 62.941406 8.003906 62.144531 8.285156 61.628906 8.285156 C 61.128906 8.285156 59.925781 7.941406 59.925781 5.878906 L 59.925781 5.660156 Z M 59.941406 5.425781 C 60.035156 3.550781 61.082031 3.332031 61.425781 3.332031 C 62.707031 3.332031 62.769531 5.019531 62.785156 5.425781 Z M 59.941406 5.425781 "/>
</g>
<g clip-path="url(#clip13)" clip-rule="nonzero">
<path style=" stroke:none;fill-rule:nonzero;fill:rgb(0%,0%,0%);fill-opacity:1;" d="M 65.863281 5.644531 C 65.863281 4.488281 66.332031 3.394531 67.253906 3.394531 C 67.347656 3.394531 67.378906 3.394531 67.425781 3.410156 C 67.332031 3.457031 67.144531 3.519531 67.144531 3.847656 C 67.144531 4.191406 67.410156 4.332031 67.597656 4.332031 C 67.847656 4.332031 68.082031 4.175781 68.082031 3.847656 C 68.082031 3.488281 67.753906 3.160156 67.238281 3.160156 C 66.222656 3.160156 65.878906 4.253906 65.816406 4.488281 L 65.800781 4.488281 L 65.800781 3.160156 L 64.191406 3.285156 L 64.191406 3.628906 C 65.003906 3.628906 65.113281 3.722656 65.113281 4.300781 L 65.113281 7.535156 C 65.113281 8.082031 64.972656 8.082031 64.191406 8.082031 L 64.191406 8.425781 C 64.535156 8.394531 65.191406 8.394531 65.550781 8.394531 C 65.878906 8.394531 66.722656 8.394531 66.988281 8.425781 L 66.988281 8.082031 L 66.753906 8.082031 C 65.878906 8.082031 65.863281 7.941406 65.863281 7.519531 Z M 65.863281 5.644531 "/>
</g>
<g clip-path="url(#clip14)" clip-rule="nonzero">
<path style=" stroke:none;fill-rule:nonzero;fill:rgb(0%,0%,0%);fill-opacity:1;" d="M 72.996094 5.660156 C 73.261719 5.660156 73.277344 5.660156 73.277344 5.425781 C 73.277344 4.222656 72.636719 3.097656 71.183594 3.097656 C 69.824219 3.097656 68.777344 4.332031 68.777344 5.800781 C 68.777344 7.378906 69.996094 8.550781 71.324219 8.550781 C 72.746094 8.550781 73.277344 7.253906 73.277344 7.003906 C 73.277344 6.925781 73.230469 6.878906 73.152344 6.878906 C 73.058594 6.878906 73.027344 6.941406 73.011719 7.003906 C 72.699219 8.003906 71.902344 8.285156 71.386719 8.285156 C 70.886719 8.285156 69.683594 7.941406 69.683594 5.878906 L 69.683594 5.660156 Z M 69.699219 5.425781 C 69.792969 3.550781 70.839844 3.332031 71.183594 3.332031 C 72.464844 3.332031 72.527344 5.019531 72.542969 5.425781 Z M 69.699219 5.425781 "/>
</g>
<g clip-path="url(#clip15)" clip-rule="nonzero">
<path style=" stroke:none;fill-rule:nonzero;fill:rgb(0%,0%,0%);fill-opacity:1;" d="M 77.199219 0.269531 L 77.199219 0.613281 C 78.027344 0.613281 78.121094 0.691406 78.121094 1.285156 L 78.121094 3.925781 C 77.871094 3.566406 77.355469 3.160156 76.621094 3.160156 C 75.230469 3.160156 74.042969 4.332031 74.042969 5.863281 C 74.042969 7.378906 75.167969 8.550781 76.496094 8.550781 C 77.402344 8.550781 77.917969 7.941406 78.089844 7.722656 L 78.089844 8.550781 L 79.777344 8.425781 L 79.777344 8.082031 C 78.964844 8.082031 78.871094 7.988281 78.871094 7.410156 L 78.871094 0.128906 Z M 78.089844 7.019531 C 78.089844 7.238281 78.089844 7.285156 77.917969 7.535156 C 77.636719 7.957031 77.152344 8.300781 76.542969 8.300781 C 76.246094 8.300781 74.949219 8.191406 74.949219 5.863281 C 74.949219 5.003906 75.089844 4.535156 75.355469 4.128906 C 75.589844 3.769531 76.074219 3.394531 76.667969 3.394531 C 77.417969 3.394531 77.824219 3.925781 77.949219 4.128906 C 78.089844 4.332031 78.089844 4.347656 78.089844 4.566406 Z M 78.089844 7.019531 "/>
</g>
<g clip-path="url(#clip16)" clip-rule="nonzero">
<path style=" stroke:none;fill-rule:nonzero;fill:rgb(0%,0%,0%);fill-opacity:1;" d="M 86.503906 3.441406 C 85.894531 3.285156 85.363281 2.691406 85.363281 1.925781 C 85.363281 1.082031 86.035156 0.332031 86.957031 0.332031 C 88.925781 0.332031 89.175781 2.269531 89.253906 2.785156 C 89.285156 2.925781 89.285156 2.972656 89.394531 2.972656 C 89.535156 2.972656 89.535156 2.910156 89.535156 2.707031 L 89.535156 0.285156 C 89.535156 0.0664063 89.535156 0.00390625 89.410156 0.00390625 C 89.378906 0.00390625 89.332031 0.00390625 89.238281 0.160156 L 88.847656 0.894531 C 88.269531 0.160156 87.488281 0.00390625 86.957031 0.00390625 C 85.628906 0.00390625 84.660156 1.082031 84.660156 2.300781 C 84.660156 2.863281 84.863281 3.394531 85.316406 3.878906 C 85.722656 4.332031 86.144531 4.441406 86.988281 4.660156 C 87.410156 4.753906 88.066406 4.925781 88.238281 4.988281 C 88.800781 5.269531 89.175781 5.910156 89.175781 6.582031 C 89.175781 7.488281 88.535156 8.332031 87.550781 8.332031 C 87.003906 8.332031 86.269531 8.191406 85.675781 7.691406 C 84.988281 7.066406 84.941406 6.207031 84.925781 5.800781 C 84.910156 5.707031 84.816406 5.707031 84.800781 5.707031 C 84.660156 5.707031 84.660156 5.769531 84.660156 5.988281 L 84.660156 8.394531 C 84.660156 8.613281 84.660156 8.675781 84.785156 8.675781 C 84.863281 8.675781 84.863281 8.660156 84.957031 8.503906 C 85.003906 8.410156 85.253906 7.972656 85.347656 7.785156 C 85.769531 8.269531 86.535156 8.675781 87.550781 8.675781 C 88.894531 8.675781 89.863281 7.535156 89.863281 6.222656 C 89.863281 5.503906 89.582031 4.957031 89.269531 4.566406 C 88.832031 4.019531 88.285156 3.894531 87.816406 3.769531 Z M 86.503906 3.441406 "/>
</g>
<g clip-path="url(#clip17)" clip-rule="nonzero">
<path style=" stroke:none;fill-rule:nonzero;fill:rgb(0%,0%,0%);fill-opacity:1;" d="M 96.007813 5.863281 C 96.007813 4.332031 94.835938 3.097656 93.445313 3.097656 C 92.023438 3.097656 90.882813 4.363281 90.882813 5.863281 C 90.882813 7.394531 92.070313 8.550781 93.445313 8.550781 C 94.851563 8.550781 96.007813 7.378906 96.007813 5.863281 M 93.445313 8.285156 C 93.007813 8.285156 92.476563 8.097656 92.132813 7.503906 C 91.804688 6.972656 91.789063 6.269531 91.789063 5.753906 C 91.789063 5.300781 91.789063 4.582031 92.164063 4.035156 C 92.492188 3.519531 93.023438 3.332031 93.445313 3.332031 C 93.898438 3.332031 94.414063 3.550781 94.726563 4.019531 C 95.101563 4.566406 95.101563 5.316406 95.101563 5.753906 C 95.101563 6.175781 95.101563 6.925781 94.789063 7.488281 C 94.460938 8.050781 93.898438 8.285156 93.445313 8.285156 "/>
</g>
<g clip-path="url(#clip18)" clip-rule="nonzero">
<path style=" stroke:none;fill-rule:nonzero;fill:rgb(0%,0%,0%);fill-opacity:1;" d="M 98.441406 0.128906 L 96.769531 0.269531 L 96.769531 0.613281 C 97.582031 0.613281 97.675781 0.691406 97.675781 1.285156 L 97.675781 7.535156 C 97.675781 8.082031 97.550781 8.082031 96.769531 8.082031 L 96.769531 8.425781 C 97.113281 8.394531 97.691406 8.394531 98.050781 8.394531 C 98.410156 8.394531 99.003906 8.394531 99.347656 8.425781 L 99.347656 8.082031 C 98.582031 8.082031 98.441406 8.082031 98.441406 7.535156 Z M 98.441406 0.128906 "/>
</g>
<g clip-path="url(#clip19)" clip-rule="nonzero">
<path style=" stroke:none;fill-rule:nonzero;fill:rgb(0%,0%,0%);fill-opacity:1;" d="M 101.707031 1.066406 C 101.707031 0.753906 101.457031 0.472656 101.128906 0.472656 C 100.816406 0.472656 100.550781 0.722656 100.550781 1.050781 C 100.550781 1.410156 100.832031 1.628906 101.128906 1.628906 C 101.488281 1.628906 101.707031 1.332031 101.707031 1.066406 M 100.066406 3.285156 L 100.066406 3.628906 C 100.816406 3.628906 100.925781 3.707031 100.925781 4.285156 L 100.925781 7.535156 C 100.925781 8.082031 100.800781 8.082031 100.019531 8.082031 L 100.019531 8.425781 C 100.363281 8.394531 100.925781 8.394531 101.285156 8.394531 C 101.410156 8.394531 102.097656 8.394531 102.503906 8.425781 L 102.503906 8.082031 C 101.738281 8.082031 101.691406 8.019531 101.691406 7.550781 L 101.691406 3.160156 Z M 100.066406 3.285156 "/>
</g>
<g clip-path="url(#clip20)" clip-rule="nonzero">
<path style=" stroke:none;fill-rule:nonzero;fill:rgb(0%,0%,0%);fill-opacity:1;" d="M 106.460938 0.269531 L 106.460938 0.613281 C 107.289063 0.613281 107.382813 0.691406 107.382813 1.285156 L 107.382813 3.925781 C 107.132813 3.566406 106.617188 3.160156 105.882813 3.160156 C 104.492188 3.160156 103.304688 4.332031 103.304688 5.863281 C 103.304688 7.378906 104.429688 8.550781 105.757813 8.550781 C 106.664063 8.550781 107.179688 7.941406 107.351563 7.722656 L 107.351563 8.550781 L 109.039063 8.425781 L 109.039063 8.082031 C 108.226563 8.082031 108.132813 7.988281 108.132813 7.410156 L 108.132813 0.128906 Z M 107.351563 7.019531 C 107.351563 7.238281 107.351563 7.285156 107.179688 7.535156 C 106.898438 7.957031 106.414063 8.300781 105.804688 8.300781 C 105.507813 8.300781 104.210938 8.191406 104.210938 5.863281 C 104.210938 5.003906 104.351563 4.535156 104.617188 4.128906 C 104.851563 3.769531 105.335938 3.394531 105.929688 3.394531 C 106.679688 3.394531 107.085938 3.925781 107.210938 4.128906 C 107.351563 4.332031 107.351563 4.347656 107.351563 4.566406 Z M 107.351563 7.019531 "/>
</g>
<g clip-path="url(#clip21)" clip-rule="nonzero">
<path style=" stroke:none;fill-rule:nonzero;fill:rgb(0%,0%,0%);fill-opacity:1;" d="M 158.925781 5.238281 L 158.660156 5.238281 C 158.550781 6.441406 158.394531 7.957031 156.300781 7.957031 L 155.253906 7.957031 C 154.738281 7.957031 154.707031 7.863281 154.707031 7.472656 L 154.707031 1.050781 C 154.707031 0.628906 154.738281 0.488281 155.769531 0.488281 L 156.128906 0.488281 L 156.128906 0.144531 C 155.785156 0.160156 154.738281 0.160156 154.316406 0.160156 C 153.957031 0.160156 152.894531 0.160156 152.597656 0.144531 L 152.597656 0.488281 L 152.847656 0.488281 C 153.707031 0.488281 153.738281 0.597656 153.738281 1.050781 L 153.738281 7.394531 C 153.738281 7.832031 153.707031 7.957031 152.847656 7.957031 L 152.597656 7.957031 L 152.597656 8.300781 L 158.613281 8.300781 Z M 158.925781 5.238281 "/>
</g>
<path style=" stroke:none;fill-rule:nonzero;fill:rgb(0%,0%,0%);fill-opacity:1;" d="M 163.070313 3.160156 L 163.070313 3.503906 C 163.882813 3.503906 163.976563 3.597656 163.976563 4.175781 L 163.976563 6.316406 C 163.976563 7.332031 163.429688 8.175781 162.539063 8.175781 C 161.554688 8.175781 161.492188 7.613281 161.492188 6.988281 L 161.492188 3.035156 L 159.804688 3.160156 L 159.804688 3.503906 C 160.726563 3.503906 160.726563 3.550781 160.726563 4.613281 L 160.726563 6.394531 C 160.726563 7.144531 160.726563 7.566406 161.085938 7.972656 C 161.367188 8.269531 161.851563 8.425781 162.460938 8.425781 C 162.664063 8.425781 163.054688 8.425781 163.460938 8.066406 C 163.804688 7.800781 163.992188 7.347656 163.992188 7.347656 L 163.992188 8.425781 L 165.664063 8.300781 L 165.664063 7.957031 C 164.851563 7.957031 164.742188 7.863281 164.742188 7.285156 L 164.742188 3.035156 Z M 163.070313 3.160156 "/>
<path style=" stroke:none;fill-rule:nonzero;fill:rgb(0%,0%,0%);fill-opacity:1;" d="M 167.945313 3.488281 L 169.617188 3.488281 L 169.617188 3.144531 L 167.945313 3.144531 L 167.945313 0.957031 L 167.679688 0.957031 C 167.664063 2.066406 167.226563 3.222656 166.148438 3.253906 L 166.148438 3.488281 L 167.164063 3.488281 L 167.164063 6.816406 C 167.164063 8.144531 168.039063 8.425781 168.679688 8.425781 C 169.429688 8.425781 169.820313 7.675781 169.820313 6.816406 L 169.820313 6.144531 L 169.570313 6.144531 L 169.570313 6.800781 C 169.570313 7.660156 169.210938 8.160156 168.757813 8.160156 C 167.945313 8.160156 167.945313 7.050781 167.945313 6.847656 Z M 167.945313 3.488281 "/>
<path style=" stroke:none;fill-rule:nonzero;fill:rgb(0%,0%,0%);fill-opacity:1;" d="M 172.5 3.488281 L 174.171875 3.488281 L 174.171875 3.144531 L 172.5 3.144531 L 172.5 0.957031 L 172.234375 0.957031 C 172.21875 2.066406 171.78125 3.222656 170.703125 3.253906 L 170.703125 3.488281 L 171.71875 3.488281 L 171.71875 6.816406 C 171.71875 8.144531 172.59375 8.425781 173.234375 8.425781 C 173.984375 8.425781 174.375 7.675781 174.375 6.816406 L 174.375 6.144531 L 174.125 6.144531 L 174.125 6.800781 C 174.125 7.660156 173.765625 8.160156 173.3125 8.160156 C 172.5 8.160156 172.5 7.050781 172.5 6.847656 Z M 172.5 3.488281 "/>
<path style=" stroke:none;fill-rule:nonzero;fill:rgb(0%,0%,0%);fill-opacity:1;" d="M 177.113281 0.941406 C 177.113281 0.628906 176.863281 0.347656 176.535156 0.347656 C 176.222656 0.347656 175.957031 0.597656 175.957031 0.925781 C 175.957031 1.285156 176.238281 1.503906 176.535156 1.503906 C 176.894531 1.503906 177.113281 1.207031 177.113281 0.941406 M 175.472656 3.160156 L 175.472656 3.503906 C 176.222656 3.503906 176.332031 3.582031 176.332031 4.160156 L 176.332031 7.410156 C 176.332031 7.957031 176.207031 7.957031 175.425781 7.957031 L 175.425781 8.300781 C 175.769531 8.269531 176.332031 8.269531 176.691406 8.269531 C 176.816406 8.269531 177.503906 8.269531 177.910156 8.300781 L 177.910156 7.957031 C 177.144531 7.957031 177.097656 7.894531 177.097656 7.425781 L 177.097656 3.035156 Z M 175.472656 3.160156 "/>
<path style=" stroke:none;fill-rule:nonzero;fill:rgb(0%,0%,0%);fill-opacity:1;" d="M 183.601563 5.394531 C 183.601563 4.285156 183.601563 3.957031 183.335938 3.566406 C 182.992188 3.097656 182.429688 3.035156 182.023438 3.035156 C 180.851563 3.035156 180.398438 4.019531 180.304688 4.253906 L 180.304688 3.035156 L 178.664063 3.160156 L 178.664063 3.503906 C 179.476563 3.503906 179.585938 3.597656 179.585938 4.175781 L 179.585938 7.410156 C 179.585938 7.957031 179.445313 7.957031 178.664063 7.957031 L 178.664063 8.300781 C 178.976563 8.269531 179.632813 8.269531 179.960938 8.269531 C 180.304688 8.269531 180.960938 8.269531 181.257813 8.300781 L 181.257813 7.957031 C 180.507813 7.957031 180.351563 7.957031 180.351563 7.410156 L 180.351563 5.191406 C 180.351563 3.941406 181.179688 3.269531 181.929688 3.269531 C 182.664063 3.269531 182.835938 3.878906 182.835938 4.613281 L 182.835938 7.410156 C 182.835938 7.957031 182.695313 7.957031 181.929688 7.957031 L 181.929688 8.300781 C 182.226563 8.269531 182.882813 8.269531 183.210938 8.269531 C 183.554688 8.269531 184.210938 8.269531 184.523438 8.300781 L 184.523438 7.957031 C 183.914063 7.957031 183.617188 7.957031 183.601563 7.597656 Z M 183.601563 5.394531 "/>
<g clip-path="url(#clip22)" clip-rule="nonzero">
<path style=" stroke:none;fill-rule:nonzero;fill:rgb(0%,0%,0%);fill-opacity:1;" d="M 186.214844 6.144531 C 186.777344 6.503906 187.261719 6.503906 187.386719 6.503906 C 188.464844 6.503906 189.261719 5.691406 189.261719 4.769531 C 189.261719 4.457031 189.167969 4.003906 188.792969 3.613281 C 189.246094 3.144531 189.808594 3.144531 189.871094 3.144531 C 189.917969 3.144531 189.980469 3.144531 190.027344 3.160156 C 189.902344 3.207031 189.855469 3.332031 189.855469 3.457031 C 189.855469 3.628906 189.964844 3.769531 190.152344 3.769531 C 190.261719 3.769531 190.464844 3.707031 190.464844 3.441406 C 190.464844 3.238281 190.308594 2.894531 189.886719 2.894531 C 189.261719 2.894531 188.792969 3.285156 188.636719 3.457031 C 188.277344 3.191406 187.855469 3.035156 187.402344 3.035156 C 186.324219 3.035156 185.527344 3.847656 185.527344 4.769531 C 185.527344 5.441406 185.933594 5.878906 186.058594 5.988281 C 185.917969 6.175781 185.699219 6.519531 185.699219 6.988281 C 185.699219 7.675781 186.121094 7.972656 186.214844 8.035156 C 185.667969 8.191406 185.121094 8.628906 185.121094 9.238281 C 185.121094 10.066406 186.246094 10.753906 187.714844 10.753906 C 189.136719 10.753906 190.308594 10.113281 190.308594 9.222656 C 190.308594 8.925781 190.230469 8.222656 189.511719 7.847656 C 188.902344 7.535156 188.308594 7.535156 187.277344 7.535156 C 186.542969 7.535156 186.464844 7.535156 186.246094 7.316406 C 186.136719 7.191406 186.027344 6.957031 186.027344 6.707031 C 186.027344 6.503906 186.089844 6.300781 186.214844 6.144531 M 187.402344 6.253906 C 186.339844 6.253906 186.339844 5.050781 186.339844 4.769531 C 186.339844 4.566406 186.339844 4.066406 186.542969 3.753906 C 186.777344 3.394531 187.136719 3.285156 187.386719 3.285156 C 188.433594 3.285156 188.433594 4.488281 188.433594 4.769531 C 188.433594 4.972656 188.433594 5.472656 188.230469 5.785156 C 188.011719 6.144531 187.652344 6.253906 187.402344 6.253906 M 187.714844 10.503906 C 186.574219 10.503906 185.699219 9.910156 185.699219 9.238281 C 185.699219 9.144531 185.730469 8.675781 186.183594 8.363281 C 186.449219 8.191406 186.542969 8.191406 187.386719 8.191406 C 188.371094 8.191406 189.730469 8.191406 189.730469 9.238281 C 189.730469 9.941406 188.824219 10.503906 187.714844 10.503906 "/>
</g>
<path style=" stroke:none;fill-rule:nonzero;fill:rgb(0%,0%,0%);fill-opacity:1;" d="M 195.222656 5.535156 C 195.488281 5.535156 195.503906 5.535156 195.503906 5.300781 C 195.503906 4.097656 194.863281 2.972656 193.410156 2.972656 C 192.050781 2.972656 191.003906 4.207031 191.003906 5.675781 C 191.003906 7.253906 192.222656 8.425781 193.550781 8.425781 C 194.972656 8.425781 195.503906 7.128906 195.503906 6.878906 C 195.503906 6.800781 195.457031 6.753906 195.378906 6.753906 C 195.285156 6.753906 195.253906 6.816406 195.238281 6.878906 C 194.925781 7.878906 194.128906 8.160156 193.613281 8.160156 C 193.113281 8.160156 191.910156 7.816406 191.910156 5.753906 L 191.910156 5.535156 Z M 191.925781 5.300781 C 192.019531 3.425781 193.066406 3.207031 193.410156 3.207031 C 194.691406 3.207031 194.753906 4.894531 194.769531 5.300781 Z M 191.925781 5.300781 "/>
<g clip-path="url(#clip23)" clip-rule="nonzero">
<path style=" stroke:none;fill-rule:nonzero;fill:rgb(0%,0%,0%);fill-opacity:1;" d="M 197.847656 5.519531 C 197.847656 4.363281 198.316406 3.269531 199.238281 3.269531 C 199.332031 3.269531 199.363281 3.269531 199.410156 3.285156 C 199.316406 3.332031 199.128906 3.394531 199.128906 3.722656 C 199.128906 4.066406 199.394531 4.207031 199.582031 4.207031 C 199.832031 4.207031 200.066406 4.050781 200.066406 3.722656 C 200.066406 3.363281 199.738281 3.035156 199.222656 3.035156 C 198.207031 3.035156 197.863281 4.128906 197.800781 4.363281 L 197.785156 4.363281 L 197.785156 3.035156 L 196.175781 3.160156 L 196.175781 3.503906 C 196.988281 3.503906 197.097656 3.597656 197.097656 4.175781 L 197.097656 7.410156 C 197.097656 7.957031 196.957031 7.957031 196.175781 7.957031 L 196.175781 8.300781 C 196.519531 8.269531 197.175781 8.269531 197.535156 8.269531 C 197.863281 8.269531 198.707031 8.269531 198.972656 8.300781 L 198.972656 7.957031 L 198.738281 7.957031 C 197.863281 7.957031 197.847656 7.816406 197.847656 7.394531 Z M 197.847656 5.519531 "/>
</g>
<g clip-path="url(#clip24)" clip-rule="nonzero">
<path style=" stroke:none;fill-rule:nonzero;fill:rgb(0%,0%,0%);fill-opacity:1;" d="M 211.109375 5.238281 L 210.84375 5.238281 C 210.734375 6.441406 210.578125 7.957031 208.484375 7.957031 L 207.4375 7.957031 C 206.921875 7.957031 206.890625 7.863281 206.890625 7.472656 L 206.890625 1.050781 C 206.890625 0.628906 206.921875 0.488281 207.953125 0.488281 L 208.3125 0.488281 L 208.3125 0.144531 C 207.96875 0.160156 206.921875 0.160156 206.5 0.160156 C 206.140625 0.160156 205.078125 0.160156 204.78125 0.144531 L 204.78125 0.488281 L 205.03125 0.488281 C 205.890625 0.488281 205.921875 0.597656 205.921875 1.050781 L 205.921875 7.394531 C 205.921875 7.832031 205.890625 7.957031 205.03125 7.957031 L 204.78125 7.957031 L 204.78125 8.300781 L 210.796875 8.300781 Z M 211.109375 5.238281 "/>
</g>
<path style=" stroke:none;fill-rule:nonzero;fill:rgb(0%,0%,0%);fill-opacity:1;" d="M 213.691406 0.941406 C 213.691406 0.628906 213.441406 0.347656 213.113281 0.347656 C 212.800781 0.347656 212.535156 0.597656 212.535156 0.925781 C 212.535156 1.285156 212.816406 1.503906 213.113281 1.503906 C 213.472656 1.503906 213.691406 1.207031 213.691406 0.941406 M 212.050781 3.160156 L 212.050781 3.503906 C 212.800781 3.503906 212.910156 3.582031 212.910156 4.160156 L 212.910156 7.410156 C 212.910156 7.957031 212.785156 7.957031 212.003906 7.957031 L 212.003906 8.300781 C 212.347656 8.269531 212.910156 8.269531 213.269531 8.269531 C 213.394531 8.269531 214.082031 8.269531 214.488281 8.300781 L 214.488281 7.957031 C 213.722656 7.957031 213.675781 7.894531 213.675781 7.425781 L 213.675781 3.035156 Z M 212.050781 3.160156 "/>
<g clip-path="url(#clip25)" clip-rule="nonzero">
<path style=" stroke:none;fill-rule:nonzero;fill:rgb(0%,0%,0%);fill-opacity:1;" d="M 220.113281 3.035156 L 219.878906 3.035156 L 219.425781 4.144531 C 219.207031 3.691406 218.753906 3.035156 217.832031 3.035156 C 216.519531 3.035156 215.285156 4.160156 215.285156 5.738281 C 215.285156 7.253906 216.425781 8.425781 217.738281 8.425781 C 218.378906 8.425781 218.910156 8.128906 219.332031 7.519531 L 219.332031 9.738281 C 219.332031 10.269531 219.207031 10.269531 218.425781 10.269531 L 218.425781 10.613281 C 218.738281 10.597656 219.378906 10.597656 219.722656 10.597656 C 220.066406 10.597656 220.707031 10.597656 221.019531 10.613281 L 221.019531 10.269531 C 220.253906 10.269531 220.113281 10.269531 220.113281 9.738281 Z M 219.363281 6.691406 C 219.363281 7.082031 219.144531 7.425781 218.863281 7.707031 C 218.441406 8.144531 217.988281 8.175781 217.800781 8.175781 C 216.894531 8.175781 216.191406 7.050781 216.191406 5.738281 C 216.191406 4.300781 217.019531 3.285156 217.910156 3.285156 C 218.863281 3.285156 219.363281 4.316406 219.363281 4.941406 Z M 219.363281 6.691406 "/>
</g>
<path style=" stroke:none;fill-rule:nonzero;fill:rgb(0%,0%,0%);fill-opacity:1;" d="M 224.683594 3.160156 L 224.683594 3.503906 C 225.496094 3.503906 225.589844 3.597656 225.589844 4.175781 L 225.589844 6.316406 C 225.589844 7.332031 225.042969 8.175781 224.152344 8.175781 C 223.167969 8.175781 223.105469 7.613281 223.105469 6.988281 L 223.105469 3.035156 L 221.417969 3.160156 L 221.417969 3.503906 C 222.339844 3.503906 222.339844 3.550781 222.339844 4.613281 L 222.339844 6.394531 C 222.339844 7.144531 222.339844 7.566406 222.699219 7.972656 C 222.980469 8.269531 223.464844 8.425781 224.074219 8.425781 C 224.277344 8.425781 224.667969 8.425781 225.074219 8.066406 C 225.417969 7.800781 225.605469 7.347656 225.605469 7.347656 L 225.605469 8.425781 L 227.277344 8.300781 L 227.277344 7.957031 C 226.464844 7.957031 226.355469 7.863281 226.355469 7.285156 L 226.355469 3.035156 Z M 224.683594 3.160156 "/>
<path style=" stroke:none;fill-rule:nonzero;fill:rgb(0%,0%,0%);fill-opacity:1;" d="M 229.625 0.941406 C 229.625 0.628906 229.375 0.347656 229.046875 0.347656 C 228.734375 0.347656 228.46875 0.597656 228.46875 0.925781 C 228.46875 1.285156 228.75 1.503906 229.046875 1.503906 C 229.40625 1.503906 229.625 1.207031 229.625 0.941406 M 227.984375 3.160156 L 227.984375 3.503906 C 228.734375 3.503906 228.84375 3.582031 228.84375 4.160156 L 228.84375 7.410156 C 228.84375 7.957031 228.71875 7.957031 227.9375 7.957031 L 227.9375 8.300781 C 228.28125 8.269531 228.84375 8.269531 229.203125 8.269531 C 229.328125 8.269531 230.015625 8.269531 230.421875 8.300781 L 230.421875 7.957031 C 229.65625 7.957031 229.609375 7.894531 229.609375 7.425781 L 229.609375 3.035156 Z M 227.984375 3.160156 "/>
<path style=" stroke:none;fill-rule:nonzero;fill:rgb(0%,0%,0%);fill-opacity:1;" d="M 234.375 0.144531 L 234.375 0.488281 C 235.203125 0.488281 235.296875 0.566406 235.296875 1.160156 L 235.296875 3.800781 C 235.046875 3.441406 234.53125 3.035156 233.796875 3.035156 C 232.40625 3.035156 231.21875 4.207031 231.21875 5.738281 C 231.21875 7.253906 232.34375 8.425781 233.671875 8.425781 C 234.578125 8.425781 235.09375 7.816406 235.265625 7.597656 L 235.265625 8.425781 L 236.953125 8.300781 L 236.953125 7.957031 C 236.140625 7.957031 236.046875 7.863281 236.046875 7.285156 L 236.046875 0.00390625 Z M 235.265625 6.894531 C 235.265625 7.113281 235.265625 7.160156 235.09375 7.410156 C 234.8125 7.832031 234.328125 8.175781 233.71875 8.175781 C 233.421875 8.175781 232.125 8.066406 232.125 5.738281 C 232.125 4.878906 232.265625 4.410156 232.53125 4.003906 C 232.765625 3.644531 233.25 3.269531 233.84375 3.269531 C 234.59375 3.269531 235 3.800781 235.125 4.003906 C 235.265625 4.207031 235.265625 4.222656 235.265625 4.441406 Z M 235.265625 6.894531 "/>
<g clip-path="url(#clip26)" clip-rule="nonzero">
<path style=" stroke:none;fill-rule:nonzero;fill:rgb(0%,0%,0%);fill-opacity:1;" d="M 278.925781 0.507813 C 278.925781 0.289063 278.925781 0.226563 278.800781 0.226563 C 278.738281 0.226563 278.722656 0.257813 278.644531 0.382813 L 278.066406 1.320313 C 277.519531 0.648438 276.707031 0.226563 275.847656 0.226563 C 273.660156 0.226563 271.769531 2.117188 271.769531 4.554688 C 271.769531 7.039063 273.691406 8.898438 275.847656 8.898438 C 277.816406 8.898438 278.925781 7.195313 278.925781 5.882813 C 278.925781 5.742188 278.925781 5.679688 278.785156 5.679688 C 278.675781 5.679688 278.660156 5.726563 278.660156 5.820313 C 278.550781 7.710938 277.160156 8.554688 276.003906 8.554688 C 275.175781 8.554688 272.878906 8.054688 272.878906 4.554688 C 272.878906 1.101563 275.128906 0.585938 275.988281 0.585938 C 277.253906 0.585938 278.347656 1.648438 278.582031 3.429688 C 278.613281 3.585938 278.613281 3.617188 278.753906 3.617188 C 278.925781 3.617188 278.925781 3.585938 278.925781 3.335938 Z M 278.925781 0.507813 "/>
</g>
<g clip-path="url(#clip27)" clip-rule="nonzero">
<path style=" stroke:none;fill-rule:nonzero;fill:rgb(0%,0%,0%);fill-opacity:1;" d="M 284.894531 5.742188 C 284.894531 4.632813 284.894531 4.304688 284.628906 3.914063 C 284.285156 3.445313 283.722656 3.382813 283.316406 3.382813 C 282.285156 3.382813 281.800781 4.148438 281.644531 4.523438 L 281.628906 4.523438 L 281.628906 0.351563 L 279.957031 0.492188 L 279.957031 0.835938 C 280.769531 0.835938 280.878906 0.914063 280.878906 1.507813 L 280.878906 7.757813 C 280.878906 8.304688 280.738281 8.304688 279.957031 8.304688 L 279.957031 8.648438 C 280.269531 8.617188 280.925781 8.617188 281.253906 8.617188 C 281.597656 8.617188 282.253906 8.617188 282.550781 8.648438 L 282.550781 8.304688 C 281.800781 8.304688 281.644531 8.304688 281.644531 7.757813 L 281.644531 5.539063 C 281.644531 4.289063 282.472656 3.617188 283.222656 3.617188 C 283.957031 3.617188 284.128906 4.226563 284.128906 4.960938 L 284.128906 7.757813 C 284.128906 8.304688 283.988281 8.304688 283.222656 8.304688 L 283.222656 8.648438 C 283.519531 8.617188 284.175781 8.617188 284.503906 8.617188 C 284.847656 8.617188 285.503906 8.617188 285.816406 8.648438 L 285.816406 8.304688 C 285.207031 8.304688 284.910156 8.304688 284.894531 7.945313 Z M 284.894531 5.742188 "/>
</g>
<path style=" stroke:none;fill-rule:nonzero;fill:rgb(0%,0%,0%);fill-opacity:1;" d="M 290.695313 5.460938 C 290.695313 4.804688 290.695313 4.335938 290.179688 3.867188 C 289.757813 3.492188 289.210938 3.320313 288.695313 3.320313 C 287.710938 3.320313 286.960938 3.960938 286.960938 4.742188 C 286.960938 5.085938 287.179688 5.257813 287.460938 5.257813 C 287.742188 5.257813 287.945313 5.054688 287.945313 4.757813 C 287.945313 4.273438 287.523438 4.273438 287.335938 4.273438 C 287.617188 3.773438 288.195313 3.554688 288.664063 3.554688 C 289.210938 3.554688 289.929688 4.007813 289.929688 5.085938 L 289.929688 5.570313 C 287.523438 5.601563 286.617188 6.601563 286.617188 7.523438 C 286.617188 8.476563 287.710938 8.773438 288.445313 8.773438 C 289.226563 8.773438 289.773438 8.289063 289.992188 7.710938 C 290.039063 8.273438 290.414063 8.710938 290.929688 8.710938 C 291.179688 8.710938 291.867188 8.539063 291.867188 7.585938 L 291.867188 6.914063 L 291.601563 6.914063 L 291.601563 7.585938 C 291.601563 8.273438 291.320313 8.367188 291.148438 8.367188 C 290.695313 8.367188 290.695313 7.726563 290.695313 7.554688 Z M 289.929688 6.960938 C 289.929688 8.132813 289.054688 8.523438 288.539063 8.523438 C 287.945313 8.523438 287.460938 8.101563 287.460938 7.523438 C 287.460938 5.945313 289.492188 5.804688 289.929688 5.773438 Z M 289.929688 6.960938 "/>
<path style=" stroke:none;fill-rule:nonzero;fill:rgb(0%,0%,0%);fill-opacity:1;" d="M 293.941406 5.867188 C 293.941406 4.710938 294.410156 3.617188 295.332031 3.617188 C 295.425781 3.617188 295.457031 3.617188 295.503906 3.632813 C 295.410156 3.679688 295.222656 3.742188 295.222656 4.070313 C 295.222656 4.414063 295.488281 4.554688 295.675781 4.554688 C 295.925781 4.554688 296.160156 4.398438 296.160156 4.070313 C 296.160156 3.710938 295.832031 3.382813 295.316406 3.382813 C 294.300781 3.382813 293.957031 4.476563 293.894531 4.710938 L 293.878906 4.710938 L 293.878906 3.382813 L 292.269531 3.507813 L 292.269531 3.851563 C 293.082031 3.851563 293.191406 3.945313 293.191406 4.523438 L 293.191406 7.757813 C 293.191406 8.304688 293.050781 8.304688 292.269531 8.304688 L 292.269531 8.648438 C 292.613281 8.617188 293.269531 8.617188 293.628906 8.617188 C 293.957031 8.617188 294.800781 8.617188 295.066406 8.648438 L 295.066406 8.304688 L 294.832031 8.304688 C 293.957031 8.304688 293.941406 8.164063 293.941406 7.742188 Z M 293.941406 5.867188 "/>
<g clip-path="url(#clip28)" clip-rule="nonzero">
<path style=" stroke:none;fill-rule:nonzero;fill:rgb(0%,0%,0%);fill-opacity:1;" d="M 297.914063 6.492188 C 298.476563 6.851563 298.960938 6.851563 299.085938 6.851563 C 300.164063 6.851563 300.960938 6.039063 300.960938 5.117188 C 300.960938 4.804688 300.867188 4.351563 300.492188 3.960938 C 300.945313 3.492188 301.507813 3.492188 301.570313 3.492188 C 301.617188 3.492188 301.679688 3.492188 301.726563 3.507813 C 301.601563 3.554688 301.554688 3.679688 301.554688 3.804688 C 301.554688 3.976563 301.664063 4.117188 301.851563 4.117188 C 301.960938 4.117188 302.164063 4.054688 302.164063 3.789063 C 302.164063 3.585938 302.007813 3.242188 301.585938 3.242188 C 300.960938 3.242188 300.492188 3.632813 300.335938 3.804688 C 299.976563 3.539063 299.554688 3.382813 299.101563 3.382813 C 298.023438 3.382813 297.226563 4.195313 297.226563 5.117188 C 297.226563 5.789063 297.632813 6.226563 297.757813 6.335938 C 297.617188 6.523438 297.398438 6.867188 297.398438 7.335938 C 297.398438 8.023438 297.820313 8.320313 297.914063 8.382813 C 297.367188 8.539063 296.820313 8.976563 296.820313 9.585938 C 296.820313 10.414063 297.945313 11.101563 299.414063 11.101563 C 300.835938 11.101563 302.007813 10.460938 302.007813 9.570313 C 302.007813 9.273438 301.929688 8.570313 301.210938 8.195313 C 300.601563 7.882813 300.007813 7.882813 298.976563 7.882813 C 298.242188 7.882813 298.164063 7.882813 297.945313 7.664063 C 297.835938 7.539063 297.726563 7.304688 297.726563 7.054688 C 297.726563 6.851563 297.789063 6.648438 297.914063 6.492188 M 299.101563 6.601563 C 298.039063 6.601563 298.039063 5.398438 298.039063 5.117188 C 298.039063 4.914063 298.039063 4.414063 298.242188 4.101563 C 298.476563 3.742188 298.835938 3.632813 299.085938 3.632813 C 300.132813 3.632813 300.132813 4.835938 300.132813 5.117188 C 300.132813 5.320313 300.132813 5.820313 299.929688 6.132813 C 299.710938 6.492188 299.351563 6.601563 299.101563 6.601563 M 299.414063 10.851563 C 298.273438 10.851563 297.398438 10.257813 297.398438 9.585938 C 297.398438 9.492188 297.429688 9.023438 297.882813 8.710938 C 298.148438 8.539063 298.242188 8.539063 299.085938 8.539063 C 300.070313 8.539063 301.429688 8.539063 301.429688 9.585938 C 301.429688 10.289063 300.523438 10.851563 299.414063 10.851563 "/>
</g>
<path style=" stroke:none;fill-rule:nonzero;fill:rgb(0%,0%,0%);fill-opacity:1;" d="M 306.925781 5.882813 C 307.191406 5.882813 307.207031 5.882813 307.207031 5.648438 C 307.207031 4.445313 306.566406 3.320313 305.113281 3.320313 C 303.753906 3.320313 302.707031 4.554688 302.707031 6.023438 C 302.707031 7.601563 303.925781 8.773438 305.253906 8.773438 C 306.675781 8.773438 307.207031 7.476563 307.207031 7.226563 C 307.207031 7.148438 307.160156 7.101563 307.082031 7.101563 C 306.988281 7.101563 306.957031 7.164063 306.941406 7.226563 C 306.628906 8.226563 305.832031 8.507813 305.316406 8.507813 C 304.816406 8.507813 303.613281 8.164063 303.613281 6.101563 L 303.613281 5.882813 Z M 303.628906 5.648438 C 303.722656 3.773438 304.769531 3.554688 305.113281 3.554688 C 306.394531 3.554688 306.457031 5.242188 306.472656 5.648438 Z M 303.628906 5.648438 "/>
<g clip-path="url(#clip29)" clip-rule="nonzero">
<path style=" stroke:none;fill-rule:nonzero;fill:rgb(0%,0%,0%);fill-opacity:1;" d="M 311.128906 0.492188 L 311.128906 0.835938 C 311.957031 0.835938 312.050781 0.914063 312.050781 1.507813 L 312.050781 4.148438 C 311.800781 3.789063 311.285156 3.382813 310.550781 3.382813 C 309.160156 3.382813 307.972656 4.554688 307.972656 6.085938 C 307.972656 7.601563 309.097656 8.773438 310.425781 8.773438 C 311.332031 8.773438 311.847656 8.164063 312.019531 7.945313 L 312.019531 8.773438 L 313.707031 8.648438 L 313.707031 8.304688 C 312.894531 8.304688 312.800781 8.210938 312.800781 7.632813 L 312.800781 0.351563 Z M 312.019531 7.242188 C 312.019531 7.460938 312.019531 7.507813 311.847656 7.757813 C 311.566406 8.179688 311.082031 8.523438 310.472656 8.523438 C 310.175781 8.523438 308.878906 8.414063 308.878906 6.085938 C 308.878906 5.226563 309.019531 4.757813 309.285156 4.351563 C 309.519531 3.992188 310.003906 3.617188 310.597656 3.617188 C 311.347656 3.617188 311.753906 4.148438 311.878906 4.351563 C 312.019531 4.554688 312.019531 4.570313 312.019531 4.789063 Z M 312.019531 7.242188 "/>
</g>
<path style=" stroke:none;fill-rule:nonzero;fill:rgb(0%,0%,0%);fill-opacity:1;" d="M 318.449219 0.492188 L 318.449219 0.835938 L 318.683594 0.835938 C 319.558594 0.835938 319.589844 0.945313 319.589844 1.398438 L 319.589844 7.742188 C 319.589844 8.179688 319.558594 8.304688 318.683594 8.304688 L 318.449219 8.304688 L 318.449219 8.648438 L 322.636719 8.648438 C 324.636719 8.648438 326.230469 6.851563 326.230469 4.648438 C 326.230469 2.335938 324.621094 0.492188 322.636719 0.492188 Z M 321.074219 8.304688 C 320.558594 8.304688 320.527344 8.210938 320.527344 7.820313 L 320.527344 1.304688 C 320.527344 0.914063 320.558594 0.835938 321.074219 0.835938 L 322.339844 0.835938 C 323.324219 0.835938 324.121094 1.304688 324.605469 2.101563 C 325.152344 2.945313 325.152344 4.148438 325.152344 4.632813 C 325.152344 5.304688 325.136719 6.429688 324.449219 7.304688 C 324.058594 7.804688 323.339844 8.304688 322.339844 8.304688 Z M 321.074219 8.304688 "/>
<path style=" stroke:none;fill-rule:nonzero;fill:rgb(0%,0%,0%);fill-opacity:1;" d="M 331.46875 5.882813 C 331.734375 5.882813 331.75 5.882813 331.75 5.648438 C 331.75 4.445313 331.109375 3.320313 329.65625 3.320313 C 328.296875 3.320313 327.25 4.554688 327.25 6.023438 C 327.25 7.601563 328.46875 8.773438 329.796875 8.773438 C 331.21875 8.773438 331.75 7.476563 331.75 7.226563 C 331.75 7.148438 331.703125 7.101563 331.625 7.101563 C 331.53125 7.101563 331.5 7.164063 331.484375 7.226563 C 331.171875 8.226563 330.375 8.507813 329.859375 8.507813 C 329.359375 8.507813 328.15625 8.164063 328.15625 6.101563 L 328.15625 5.882813 Z M 328.171875 5.648438 C 328.265625 3.773438 329.3125 3.554688 329.65625 3.554688 C 330.9375 3.554688 331 5.242188 331.015625 5.648438 Z M 328.171875 5.648438 "/>
<path style=" stroke:none;fill-rule:nonzero;fill:rgb(0%,0%,0%);fill-opacity:1;" d="M 337.40625 5.742188 C 337.40625 4.632813 337.40625 4.304688 337.140625 3.914063 C 336.796875 3.445313 336.234375 3.382813 335.828125 3.382813 C 334.65625 3.382813 334.203125 4.367188 334.109375 4.601563 L 334.109375 3.382813 L 332.46875 3.507813 L 332.46875 3.851563 C 333.28125 3.851563 333.390625 3.945313 333.390625 4.523438 L 333.390625 7.757813 C 333.390625 8.304688 333.25 8.304688 332.46875 8.304688 L 332.46875 8.648438 C 332.78125 8.617188 333.4375 8.617188 333.765625 8.617188 C 334.109375 8.617188 334.765625 8.617188 335.0625 8.648438 L 335.0625 8.304688 C 334.3125 8.304688 334.15625 8.304688 334.15625 7.757813 L 334.15625 5.539063 C 334.15625 4.289063 334.984375 3.617188 335.734375 3.617188 C 336.46875 3.617188 336.640625 4.226563 336.640625 4.960938 L 336.640625 7.757813 C 336.640625 8.304688 336.5 8.304688 335.734375 8.304688 L 335.734375 8.648438 C 336.03125 8.617188 336.6875 8.617188 337.015625 8.617188 C 337.359375 8.617188 338.015625 8.617188 338.328125 8.648438 L 338.328125 8.304688 C 337.71875 8.304688 337.421875 8.304688 337.40625 7.945313 Z M 337.40625 5.742188 "/>
<path style=" stroke:none;fill-rule:nonzero;fill:rgb(0%,0%,0%);fill-opacity:1;" d="M 342.519531 3.585938 C 342.519531 3.382813 342.519531 3.320313 342.394531 3.320313 C 342.300781 3.320313 342.082031 3.585938 341.988281 3.695313 C 341.628906 3.382813 341.253906 3.320313 340.863281 3.320313 C 339.425781 3.320313 338.988281 4.101563 338.988281 4.757813 C 338.988281 4.898438 338.988281 5.320313 339.441406 5.726563 C 339.832031 6.070313 340.238281 6.148438 340.785156 6.257813 C 341.441406 6.382813 341.597656 6.429688 341.894531 6.664063 C 342.113281 6.835938 342.269531 7.101563 342.269531 7.445313 C 342.269531 7.960938 341.972656 8.523438 340.910156 8.523438 C 340.128906 8.523438 339.550781 8.070313 339.285156 6.882813 C 339.238281 6.664063 339.238281 6.648438 339.238281 6.632813 C 339.207031 6.585938 339.160156 6.585938 339.128906 6.585938 C 338.988281 6.585938 338.988281 6.648438 338.988281 6.867188 L 338.988281 8.492188 C 338.988281 8.710938 338.988281 8.773438 339.113281 8.773438 C 339.175781 8.773438 339.175781 8.757813 339.378906 8.507813 C 339.441406 8.414063 339.441406 8.398438 339.628906 8.210938 C 340.082031 8.773438 340.722656 8.773438 340.925781 8.773438 C 342.175781 8.773438 342.800781 8.070313 342.800781 7.132813 C 342.800781 6.492188 342.410156 6.101563 342.300781 5.992188 C 341.878906 5.617188 341.550781 5.554688 340.753906 5.414063 C 340.410156 5.335938 339.535156 5.164063 339.535156 4.445313 C 339.535156 4.085938 339.785156 3.539063 340.863281 3.539063 C 342.160156 3.539063 342.238281 4.648438 342.253906 5.007813 C 342.269531 5.117188 342.347656 5.117188 342.394531 5.117188 C 342.519531 5.117188 342.519531 5.054688 342.519531 4.835938 Z M 342.519531 3.585938 "/>
<path style=" stroke:none;fill-rule:nonzero;fill:rgb(0%,0%,0%);fill-opacity:1;" d="M 345.292969 1.289063 C 345.292969 0.976563 345.042969 0.695313 344.714844 0.695313 C 344.402344 0.695313 344.136719 0.945313 344.136719 1.273438 C 344.136719 1.632813 344.417969 1.851563 344.714844 1.851563 C 345.074219 1.851563 345.292969 1.554688 345.292969 1.289063 M 343.652344 3.507813 L 343.652344 3.851563 C 344.402344 3.851563 344.511719 3.929688 344.511719 4.507813 L 344.511719 7.757813 C 344.511719 8.304688 344.386719 8.304688 343.605469 8.304688 L 343.605469 8.648438 C 343.949219 8.617188 344.511719 8.617188 344.871094 8.617188 C 344.996094 8.617188 345.683594 8.617188 346.089844 8.648438 L 346.089844 8.304688 C 345.324219 8.304688 345.277344 8.242188 345.277344 7.773438 L 345.277344 3.382813 Z M 343.652344 3.507813 "/>
<path style=" stroke:none;fill-rule:nonzero;fill:rgb(0%,0%,0%);fill-opacity:1;" d="M 348.480469 3.835938 L 350.152344 3.835938 L 350.152344 3.492188 L 348.480469 3.492188 L 348.480469 1.304688 L 348.214844 1.304688 C 348.199219 2.414063 347.761719 3.570313 346.683594 3.601563 L 346.683594 3.835938 L 347.699219 3.835938 L 347.699219 7.164063 C 347.699219 8.492188 348.574219 8.773438 349.214844 8.773438 C 349.964844 8.773438 350.355469 8.023438 350.355469 7.164063 L 350.355469 6.492188 L 350.105469 6.492188 L 350.105469 7.148438 C 350.105469 8.007813 349.746094 8.507813 349.292969 8.507813 C 348.480469 8.507813 348.480469 7.398438 348.480469 7.195313 Z M 348.480469 3.835938 "/>
<g clip-path="url(#clip30)" clip-rule="nonzero">
<path style=" stroke:none;fill-rule:nonzero;fill:rgb(0%,0%,0%);fill-opacity:1;" d="M 355.539063 4.648438 C 355.851563 3.851563 356.414063 3.835938 356.648438 3.835938 L 356.648438 3.492188 C 356.304688 3.523438 356.132813 3.523438 355.757813 3.523438 C 355.476563 3.523438 355.445313 3.523438 354.789063 3.492188 L 354.789063 3.835938 C 355.226563 3.867188 355.335938 4.148438 355.335938 4.351563 C 355.335938 4.460938 355.304688 4.523438 355.257813 4.648438 L 354.039063 7.664063 L 352.710938 4.398438 C 352.648438 4.242188 352.648438 4.164063 352.648438 4.148438 C 352.648438 3.835938 353.054688 3.835938 353.304688 3.835938 L 353.304688 3.492188 C 352.992188 3.523438 352.398438 3.523438 352.070313 3.523438 C 351.617188 3.523438 351.585938 3.523438 350.914063 3.492188 L 350.914063 3.835938 C 351.601563 3.835938 351.695313 3.898438 351.851563 4.273438 L 353.632813 8.648438 C 353.117188 9.914063 353.117188 9.945313 353.054688 10.039063 C 352.851563 10.398438 352.539063 10.851563 351.992188 10.851563 C 351.632813 10.851563 351.398438 10.632813 351.398438 10.632813 C 351.398438 10.632813 351.820313 10.585938 351.820313 10.164063 C 351.820313 9.882813 351.585938 9.726563 351.382813 9.726563 C 351.179688 9.726563 350.929688 9.835938 350.929688 10.195313 C 350.929688 10.648438 351.367188 11.085938 351.992188 11.085938 C 352.664063 11.085938 353.164063 10.507813 353.460938 9.742188 Z M 355.539063 4.648438 "/>
</g>
<path style=" stroke:none;fill-rule:nonzero;fill:rgb(0%,0%,0%);fill-opacity:1;" d="M 371.441406 1.648438 C 371.628906 1.085938 371.988281 0.835938 372.582031 0.835938 L 372.582031 0.492188 C 372.066406 0.507813 372.035156 0.507813 371.519531 0.507813 C 371.207031 0.507813 370.566406 0.507813 370.269531 0.492188 L 370.269531 0.835938 C 371.003906 0.835938 371.222656 1.226563 371.222656 1.460938 C 371.222656 1.523438 371.175781 1.617188 371.160156 1.710938 L 369.347656 7.367188 L 367.410156 1.351563 C 367.394531 1.320313 367.363281 1.226563 367.363281 1.195313 C 367.363281 0.835938 368.003906 0.835938 368.285156 0.835938 L 368.285156 0.492188 C 368.003906 0.507813 367.113281 0.507813 366.769531 0.507813 C 366.425781 0.507813 365.691406 0.507813 365.378906 0.492188 L 365.378906 0.835938 C 366.019531 0.835938 366.191406 0.867188 366.316406 1.085938 C 366.394531 1.242188 366.488281 1.601563 366.644531 2.039063 L 364.925781 7.367188 L 363.019531 1.414063 C 362.957031 1.242188 362.957031 1.226563 362.957031 1.195313 C 362.957031 0.835938 363.566406 0.835938 363.878906 0.835938 L 363.878906 0.492188 C 363.597656 0.507813 362.691406 0.507813 362.363281 0.507813 C 362.019531 0.507813 361.285156 0.507813 360.972656 0.492188 L 360.972656 0.835938 C 361.613281 0.835938 361.847656 0.835938 361.988281 1.289063 L 364.347656 8.679688 C 364.410156 8.851563 364.457031 8.898438 364.566406 8.898438 C 364.660156 8.898438 364.722656 8.867188 364.785156 8.679688 L 366.769531 2.476563 L 368.769531 8.679688 C 368.832031 8.867188 368.878906 8.898438 368.988281 8.898438 C 369.082031 8.898438 369.128906 8.851563 369.191406 8.679688 Z M 371.441406 1.648438 "/>
<path style=" stroke:none;fill-rule:nonzero;fill:rgb(0%,0%,0%);fill-opacity:1;" d="M 376.4375 5.460938 C 376.4375 4.804688 376.4375 4.335938 375.921875 3.867188 C 375.5 3.492188 374.953125 3.320313 374.4375 3.320313 C 373.453125 3.320313 372.703125 3.960938 372.703125 4.742188 C 372.703125 5.085938 372.921875 5.257813 373.203125 5.257813 C 373.484375 5.257813 373.6875 5.054688 373.6875 4.757813 C 373.6875 4.273438 373.265625 4.273438 373.078125 4.273438 C 373.359375 3.773438 373.9375 3.554688 374.40625 3.554688 C 374.953125 3.554688 375.671875 4.007813 375.671875 5.085938 L 375.671875 5.570313 C 373.265625 5.601563 372.359375 6.601563 372.359375 7.523438 C 372.359375 8.476563 373.453125 8.773438 374.1875 8.773438 C 374.96875 8.773438 375.515625 8.289063 375.734375 7.710938 C 375.78125 8.273438 376.15625 8.710938 376.671875 8.710938 C 376.921875 8.710938 377.609375 8.539063 377.609375 7.585938 L 377.609375 6.914063 L 377.34375 6.914063 L 377.34375 7.585938 C 377.34375 8.273438 377.0625 8.367188 376.890625 8.367188 C 376.4375 8.367188 376.4375 7.726563 376.4375 7.554688 Z M 375.671875 6.960938 C 375.671875 8.132813 374.796875 8.523438 374.28125 8.523438 C 373.6875 8.523438 373.203125 8.101563 373.203125 7.523438 C 373.203125 5.945313 375.234375 5.804688 375.671875 5.773438 Z M 375.671875 6.960938 "/>
<path style=" stroke:none;fill-rule:nonzero;fill:rgb(0%,0%,0%);fill-opacity:1;" d="M 382.234375 4.632813 C 382.34375 4.367188 382.546875 3.851563 383.3125 3.835938 L 383.3125 3.492188 C 382.96875 3.523438 382.796875 3.523438 382.421875 3.523438 C 382.171875 3.523438 382 3.523438 381.453125 3.492188 L 381.453125 3.835938 C 381.953125 3.867188 382.015625 4.226563 382.015625 4.351563 C 382.015625 4.460938 381.984375 4.523438 381.921875 4.664063 L 380.703125 7.757813 L 379.375 4.382813 C 379.3125 4.210938 379.296875 4.210938 379.296875 4.148438 C 379.296875 3.835938 379.75 3.835938 379.96875 3.835938 L 379.96875 3.492188 C 379.671875 3.523438 379.046875 3.523438 378.71875 3.523438 C 378.328125 3.523438 378.296875 3.523438 377.578125 3.492188 L 377.578125 3.835938 C 378.25 3.835938 378.359375 3.898438 378.5 4.257813 L 380.21875 8.539063 C 380.28125 8.710938 380.296875 8.773438 380.4375 8.773438 C 380.53125 8.773438 380.59375 8.742188 380.6875 8.539063 Z M 382.234375 4.632813 "/>
<path style=" stroke:none;fill-rule:nonzero;fill:rgb(0%,0%,0%);fill-opacity:1;" d="M 387.78125 5.882813 C 388.046875 5.882813 388.0625 5.882813 388.0625 5.648438 C 388.0625 4.445313 387.421875 3.320313 385.96875 3.320313 C 384.609375 3.320313 383.5625 4.554688 383.5625 6.023438 C 383.5625 7.601563 384.78125 8.773438 386.109375 8.773438 C 387.53125 8.773438 388.0625 7.476563 388.0625 7.226563 C 388.0625 7.148438 388.015625 7.101563 387.9375 7.101563 C 387.84375 7.101563 387.8125 7.164063 387.796875 7.226563 C 387.484375 8.226563 386.6875 8.507813 386.171875 8.507813 C 385.671875 8.507813 384.46875 8.164063 384.46875 6.101563 L 384.46875 5.882813 Z M 384.484375 5.648438 C 384.578125 3.773438 385.625 3.554688 385.96875 3.554688 C 387.25 3.554688 387.3125 5.242188 387.328125 5.648438 Z M 384.484375 5.648438 "/>
<path style=" stroke:none;fill-rule:nonzero;fill:rgb(0%,0%,0%);fill-opacity:1;" d="M 129.792969 46.707031 C 129.996094 46.707031 130.214844 46.707031 130.214844 46.472656 C 130.214844 46.222656 129.996094 46.222656 129.792969 46.222656 L 123.324219 46.222656 C 123.121094 46.222656 122.902344 46.222656 122.902344 46.472656 C 122.902344 46.707031 123.121094 46.707031 123.324219 46.707031 Z M 129.792969 46.707031 "/>
<path style=" stroke:none;fill-rule:nonzero;fill:rgb(0%,0%,0%);fill-opacity:1;" d="M 136.480469 47.441406 L 136.214844 47.441406 C 136.167969 47.644531 136.074219 48.316406 135.964844 48.503906 C 135.871094 48.613281 135.199219 48.613281 134.839844 48.613281 L 132.621094 48.613281 C 132.949219 48.332031 133.683594 47.566406 133.980469 47.285156 C 135.808594 45.613281 136.480469 44.988281 136.480469 43.800781 C 136.480469 42.425781 135.386719 41.503906 133.996094 41.503906 C 132.621094 41.503906 131.792969 42.691406 131.792969 43.722656 C 131.792969 44.332031 132.324219 44.332031 132.355469 44.332031 C 132.621094 44.332031 132.917969 44.144531 132.917969 43.769531 C 132.917969 43.425781 132.699219 43.207031 132.355469 43.207031 C 132.261719 43.207031 132.230469 43.207031 132.199219 43.222656 C 132.417969 42.410156 133.074219 41.847656 133.839844 41.847656 C 134.855469 41.847656 135.480469 42.707031 135.480469 43.800781 C 135.480469 44.816406 134.902344 45.707031 134.214844 46.472656 L 131.792969 49.175781 L 131.792969 49.457031 L 136.167969 49.457031 Z M 136.480469 47.441406 "/>
<g clip-path="url(#clip31)" clip-rule="nonzero">
<path style=" stroke:none;fill-rule:nonzero;fill:rgb(0%,0%,0%);fill-opacity:1;" d="M 261.84375 46.960938 L 265.140625 46.960938 C 265.3125 46.960938 265.53125 46.960938 265.53125 46.757813 C 265.53125 46.523438 265.328125 46.523438 265.140625 46.523438 L 261.84375 46.523438 L 261.84375 43.226563 C 261.84375 43.054688 261.84375 42.835938 261.625 42.835938 C 261.40625 42.835938 261.40625 43.039063 261.40625 43.226563 L 261.40625 46.523438 L 258.109375 46.523438 C 257.9375 46.523438 257.71875 46.523438 257.71875 46.742188 C 257.71875 46.960938 257.921875 46.960938 258.109375 46.960938 L 261.40625 46.960938 L 261.40625 50.257813 C 261.40625 50.429688 261.40625 50.648438 261.625 50.648438 C 261.84375 50.648438 261.84375 50.445313 261.84375 50.257813 Z M 261.84375 46.960938 "/>
</g>
<g clip-path="url(#clip32)" clip-rule="nonzero">
<path style=" stroke:none;fill-rule:nonzero;fill:rgb(0%,0%,0%);fill-opacity:1;" d="M 271.449219 47.710938 L 271.183594 47.710938 C 271.136719 47.914063 271.042969 48.585938 270.933594 48.773438 C 270.839844 48.882813 270.167969 48.882813 269.808594 48.882813 L 267.589844 48.882813 C 267.917969 48.601563 268.652344 47.835938 268.949219 47.554688 C 270.777344 45.882813 271.449219 45.257813 271.449219 44.070313 C 271.449219 42.695313 270.355469 41.773438 268.964844 41.773438 C 267.589844 41.773438 266.761719 42.960938 266.761719 43.992188 C 266.761719 44.601563 267.292969 44.601563 267.324219 44.601563 C 267.589844 44.601563 267.886719 44.414063 267.886719 44.039063 C 267.886719 43.695313 267.667969 43.476563 267.324219 43.476563 C 267.230469 43.476563 267.199219 43.476563 267.167969 43.492188 C 267.386719 42.679688 268.042969 42.117188 268.808594 42.117188 C 269.824219 42.117188 270.449219 42.976563 270.449219 44.070313 C 270.449219 45.085938 269.871094 45.976563 269.183594 46.742188 L 266.761719 49.445313 L 266.761719 49.726563 L 271.136719 49.726563 Z M 271.449219 47.710938 "/>
</g>
<path style=" stroke:none;fill-rule:nonzero;fill:rgb(0%,0%,0%);fill-opacity:1;" d="M 193.949219 52.308594 C 194.355469 51.667969 194.714844 51.386719 195.324219 51.339844 C 195.449219 51.324219 195.542969 51.324219 195.542969 51.105469 C 195.542969 51.058594 195.527344 50.996094 195.417969 50.996094 C 195.199219 50.996094 194.683594 51.011719 194.464844 51.011719 C 194.121094 51.011719 193.761719 50.996094 193.433594 50.996094 C 193.339844 50.996094 193.214844 50.996094 193.214844 51.214844 C 193.214844 51.324219 193.324219 51.339844 193.371094 51.339844 C 193.808594 51.371094 193.855469 51.589844 193.855469 51.730469 C 193.855469 51.902344 193.683594 52.183594 193.683594 52.199219 L 189.917969 58.152344 L 189.089844 51.699219 C 189.089844 51.355469 189.714844 51.339844 189.839844 51.339844 C 190.027344 51.339844 190.121094 51.339844 190.121094 51.105469 C 190.121094 50.996094 189.996094 50.996094 189.964844 50.996094 C 189.761719 50.996094 189.511719 51.011719 189.308594 51.011719 L 188.652344 51.011719 C 187.777344 51.011719 187.417969 50.996094 187.402344 50.996094 C 187.324219 50.996094 187.183594 50.996094 187.183594 51.199219 C 187.183594 51.339844 187.277344 51.339844 187.464844 51.339844 C 188.074219 51.339844 188.105469 51.449219 188.152344 51.746094 L 189.105469 59.121094 C 189.136719 59.371094 189.136719 59.402344 189.308594 59.402344 C 189.449219 59.402344 189.511719 59.371094 189.621094 59.183594 Z M 193.949219 52.308594 "/>
<g clip-path="url(#clip33)" clip-rule="nonzero">
<path style=" stroke:none;fill-rule:nonzero;fill:rgb(0%,0%,0%);fill-opacity:1;" d="M 199.792969 50.636719 C 199.792969 50.621094 199.871094 50.433594 199.871094 50.417969 C 199.871094 50.277344 199.746094 50.183594 199.652344 50.183594 C 199.589844 50.183594 199.480469 50.183594 199.386719 50.449219 L 195.386719 61.699219 C 195.386719 61.714844 195.308594 61.886719 195.308594 61.917969 C 195.308594 62.058594 195.433594 62.136719 195.527344 62.136719 C 195.605469 62.136719 195.714844 62.121094 195.792969 61.871094 Z M 199.792969 50.636719 "/>
</g>
<g clip-path="url(#clip34)" clip-rule="nonzero">
<path style=" stroke:none;fill-rule:nonzero;fill:rgb(0%,0%,0%);fill-opacity:1;" d="M 206.914063 51.808594 C 207.007813 51.449219 207.023438 51.339844 207.617188 51.339844 C 207.804688 51.339844 207.929688 51.339844 207.929688 51.121094 C 207.929688 50.996094 207.820313 50.996094 207.773438 50.996094 C 207.570313 50.996094 207.335938 51.011719 207.117188 51.011719 L 206.460938 51.011719 C 205.960938 51.011719 205.429688 50.996094 204.929688 50.996094 C 204.820313 50.996094 204.679688 50.996094 204.679688 51.199219 C 204.679688 51.324219 204.773438 51.324219 204.773438 51.339844 L 205.070313 51.339844 C 206.039063 51.339844 206.039063 51.433594 206.039063 51.605469 C 206.039063 51.621094 206.039063 51.699219 205.992188 51.902344 L 204.617188 57.355469 C 204.304688 58.574219 203.492188 59.167969 202.929688 59.167969 C 202.523438 59.167969 201.945313 58.980469 201.804688 58.339844 C 201.851563 58.355469 201.914063 58.371094 201.960938 58.371094 C 202.351563 58.371094 202.664063 58.011719 202.664063 57.667969 C 202.664063 57.480469 202.539063 57.230469 202.179688 57.230469 C 201.976563 57.230469 201.460938 57.339844 201.460938 58.121094 C 201.460938 58.871094 202.085938 59.402344 202.945313 59.402344 C 204.039063 59.402344 205.210938 58.574219 205.492188 57.449219 Z M 206.914063 51.808594 "/>
</g>
</g>
</defs>
<g id="surface1">
<use xlink:href="#surface4"/>
</g>
</svg>
