<?xml version="1.0" encoding="utf-8" standalone="no"?>
<!DOCTYPE svg PUBLIC "-//W3C//DTD SVG 1.1//EN"
  "http://www.w3.org/Graphics/SVG/1.1/DTD/svg11.dtd">
<svg xmlns:xlink="http://www.w3.org/1999/xlink" width="397.48752pt" height="178.48391pt" viewBox="0 0 397.48752 178.48391" xmlns="http://www.w3.org/2000/svg" version="1.1">
 <metadata>
  <rdf:RDF xmlns:dc="http://purl.org/dc/elements/1.1/" xmlns:cc="http://creativecommons.org/ns#" xmlns:rdf="http://www.w3.org/1999/02/22-rdf-syntax-ns#">
   <cc:Work>
    <dc:type rdf:resource="http://purl.org/dc/dcmitype/StillImage"/>
    <dc:date>2023-01-31T15:58:48.410515</dc:date>
    <dc:format>image/svg+xml</dc:format>
    <dc:creator>
     <cc:Agent>
      <dc:title>Matplotlib v3.5.2, https://matplotlib.org/</dc:title>
     </cc:Agent>
    </dc:creator>
   </cc:Work>
  </rdf:RDF>
 </metadata>
 <defs>
  <style type="text/css">*{stroke-linejoin: round; stroke-linecap: butt}</style>
 </defs>
 <g id="figure_1">
  <g id="patch_1">
   <path d="M 0 178.48391 
L 397.48752 178.48391 
L 397.48752 0 
L 0 0 
L 0 178.48391 
z
" style="fill: none"/>
  </g>
  <g id="axes_1">
   <g id="patch_2">
    <path d="M 39.274054 149.172557 
L 201.171374 149.172557 
L 201.171374 3.6 
L 39.274054 3.6 
L 39.274054 149.172557 
z
" style="fill: none"/>
   </g>
   <g id="matplotlib.axis_1">
    <g id="xtick_1">
     <g id="line2d_1">
      <defs>
       <path id="mb2440bf971" d="M 0 0 
L 0 2 
" style="stroke: #000000; stroke-width: 0.8"/>
      </defs>
      <g>
       <use xlink:href="#mb2440bf971" x="39.274054" y="149.172557" style="stroke: #000000; stroke-width: 0.8"/>
      </g>
     </g>
     <g id="text_1">
      <!-- $\mathdefault{0.00}$ -->
      <g transform="translate(30.418347 160.091055)scale(0.1 -0.1)">
       <defs>
        <path id="CMR17-30" d="M 2688 2038 
C 2688 2430 2682 3099 2413 3613 
C 2176 4063 1798 4224 1466 4224 
C 1158 4224 768 4082 525 3620 
C 269 3137 243 2539 243 2038 
C 243 1671 250 1112 448 623 
C 723 -39 1216 -128 1466 -128 
C 1760 -128 2208 -7 2470 604 
C 2662 1048 2688 1568 2688 2038 
z
M 1466 -26 
C 1056 -26 813 328 723 816 
C 653 1196 653 1749 653 2109 
C 653 2604 653 3015 736 3407 
C 858 3954 1216 4121 1466 4121 
C 1728 4121 2067 3947 2189 3420 
C 2272 3054 2278 2623 2278 2109 
C 2278 1691 2278 1176 2202 797 
C 2067 96 1690 -26 1466 -26 
z
" transform="scale(0.015625)"/>
        <path id="CMMI12-3a" d="M 1178 307 
C 1178 492 1024 620 870 620 
C 685 620 557 467 557 313 
C 557 128 710 0 864 0 
C 1050 0 1178 153 1178 307 
z
" transform="scale(0.015625)"/>
       </defs>
       <use xlink:href="#CMR17-30" transform="scale(0.996264)"/>
       <use xlink:href="#CMMI12-3a" transform="translate(45.690477 0)scale(0.996264)"/>
       <use xlink:href="#CMR17-30" transform="translate(72.787654 0)scale(0.996264)"/>
       <use xlink:href="#CMR17-30" transform="translate(118.478131 0)scale(0.996264)"/>
      </g>
     </g>
    </g>
    <g id="xtick_2">
     <g id="line2d_2">
      <g>
       <use xlink:href="#mb2440bf971" x="71.653518" y="149.172557" style="stroke: #000000; stroke-width: 0.8"/>
      </g>
     </g>
     <g id="text_2">
      <!-- $\mathdefault{0.05}$ -->
      <g transform="translate(62.797811 160.091055)scale(0.1 -0.1)">
       <defs>
        <path id="CMR17-35" d="M 730 3750 
C 794 3724 1056 3641 1325 3641 
C 1920 3641 2246 3961 2432 4140 
C 2432 4191 2432 4224 2394 4224 
C 2387 4224 2374 4224 2323 4198 
C 2099 4102 1837 4032 1517 4032 
C 1325 4032 1037 4055 723 4191 
C 653 4224 640 4224 634 4224 
C 602 4224 595 4217 595 4090 
L 595 2231 
C 595 2113 595 2080 659 2080 
C 691 2080 704 2093 736 2139 
C 941 2435 1222 2560 1542 2560 
C 1766 2560 2246 2415 2246 1293 
C 2246 1087 2246 716 2054 422 
C 1894 159 1645 25 1370 25 
C 947 25 518 319 403 812 
C 429 806 480 793 506 793 
C 589 793 749 838 749 1036 
C 749 1209 627 1280 506 1280 
C 358 1280 262 1190 262 1011 
C 262 454 704 -128 1382 -128 
C 2042 -128 2669 441 2669 1267 
C 2669 2054 2170 2662 1549 2662 
C 1222 2662 947 2540 730 2304 
L 730 3750 
z
" transform="scale(0.015625)"/>
       </defs>
       <use xlink:href="#CMR17-30" transform="scale(0.996264)"/>
       <use xlink:href="#CMMI12-3a" transform="translate(45.690477 0)scale(0.996264)"/>
       <use xlink:href="#CMR17-30" transform="translate(72.787654 0)scale(0.996264)"/>
       <use xlink:href="#CMR17-35" transform="translate(118.478131 0)scale(0.996264)"/>
      </g>
     </g>
    </g>
    <g id="xtick_3">
     <g id="line2d_3">
      <g>
       <use xlink:href="#mb2440bf971" x="104.032982" y="149.172557" style="stroke: #000000; stroke-width: 0.8"/>
      </g>
     </g>
     <g id="text_3">
      <!-- $\mathdefault{0.10}$ -->
      <g transform="translate(95.177275 160.091055)scale(0.1 -0.1)">
       <defs>
        <path id="CMR17-31" d="M 1702 4083 
C 1702 4217 1696 4224 1606 4224 
C 1357 3927 979 3833 621 3820 
C 602 3820 570 3820 563 3808 
C 557 3795 557 3782 557 3648 
C 755 3648 1088 3686 1344 3839 
L 1344 467 
C 1344 243 1331 166 781 166 
L 589 166 
L 589 0 
C 896 6 1216 12 1523 12 
C 1830 12 2150 6 2458 0 
L 2458 166 
L 2266 166 
C 1715 166 1702 236 1702 467 
L 1702 4083 
z
" transform="scale(0.015625)"/>
       </defs>
       <use xlink:href="#CMR17-30" transform="scale(0.996264)"/>
       <use xlink:href="#CMMI12-3a" transform="translate(45.690477 0)scale(0.996264)"/>
       <use xlink:href="#CMR17-31" transform="translate(72.787654 0)scale(0.996264)"/>
       <use xlink:href="#CMR17-30" transform="translate(118.478131 0)scale(0.996264)"/>
      </g>
     </g>
    </g>
    <g id="xtick_4">
     <g id="line2d_4">
      <g>
       <use xlink:href="#mb2440bf971" x="136.412446" y="149.172557" style="stroke: #000000; stroke-width: 0.8"/>
      </g>
     </g>
     <g id="text_4">
      <!-- $\mathdefault{0.15}$ -->
      <g transform="translate(127.556739 160.091055)scale(0.1 -0.1)">
       <use xlink:href="#CMR17-30" transform="scale(0.996264)"/>
       <use xlink:href="#CMMI12-3a" transform="translate(45.690477 0)scale(0.996264)"/>
       <use xlink:href="#CMR17-31" transform="translate(72.787654 0)scale(0.996264)"/>
       <use xlink:href="#CMR17-35" transform="translate(118.478131 0)scale(0.996264)"/>
      </g>
     </g>
    </g>
    <g id="xtick_5">
     <g id="line2d_5">
      <g>
       <use xlink:href="#mb2440bf971" x="168.79191" y="149.172557" style="stroke: #000000; stroke-width: 0.8"/>
      </g>
     </g>
     <g id="text_5">
      <!-- $\mathdefault{0.20}$ -->
      <g transform="translate(159.936203 160.091055)scale(0.1 -0.1)">
       <defs>
        <path id="CMR17-32" d="M 2669 990 
L 2554 990 
C 2490 537 2438 460 2413 422 
C 2381 371 1920 371 1830 371 
L 602 371 
C 832 620 1280 1073 1824 1596 
C 2214 1966 2669 2400 2669 3033 
C 2669 3788 2067 4224 1395 4224 
C 691 4224 262 3603 262 3027 
C 262 2777 448 2745 525 2745 
C 589 2745 781 2783 781 3007 
C 781 3206 614 3264 525 3264 
C 486 3264 448 3257 422 3244 
C 544 3788 915 4057 1306 4057 
C 1862 4057 2227 3616 2227 3033 
C 2227 2477 1901 1998 1536 1583 
L 262 147 
L 262 0 
L 2515 0 
L 2669 990 
z
" transform="scale(0.015625)"/>
       </defs>
       <use xlink:href="#CMR17-30" transform="scale(0.996264)"/>
       <use xlink:href="#CMMI12-3a" transform="translate(45.690477 0)scale(0.996264)"/>
       <use xlink:href="#CMR17-32" transform="translate(72.787654 0)scale(0.996264)"/>
       <use xlink:href="#CMR17-30" transform="translate(118.478131 0)scale(0.996264)"/>
      </g>
     </g>
    </g>
    <g id="xtick_6">
     <g id="line2d_6">
      <g>
       <use xlink:href="#mb2440bf971" x="201.171374" y="149.172557" style="stroke: #000000; stroke-width: 0.8"/>
      </g>
     </g>
     <g id="text_6">
      <!-- $\mathdefault{0.25}$ -->
      <g transform="translate(192.315666 160.091055)scale(0.1 -0.1)">
       <use xlink:href="#CMR17-30" transform="scale(0.996264)"/>
       <use xlink:href="#CMMI12-3a" transform="translate(45.690477 0)scale(0.996264)"/>
       <use xlink:href="#CMR17-32" transform="translate(72.787654 0)scale(0.996264)"/>
       <use xlink:href="#CMR17-35" transform="translate(118.478131 0)scale(0.996264)"/>
      </g>
     </g>
    </g>
    <g id="text_7">
     <!-- $g$ -->
     <g transform="translate(117.846782 172.946732)scale(0.1 -0.1)">
      <defs>
       <path id="CMMI12-67" d="M 2163 811 
C 2138 708 2125 683 2042 587 
C 1779 249 1510 128 1312 128 
C 1101 128 902 293 902 734 
C 902 1072 1094 1787 1235 2075 
C 1421 2432 1709 2687 1978 2687 
C 2400 2687 2483 2164 2483 2126 
L 2464 2036 
L 2163 811 
z
M 2560 2394 
C 2477 2579 2298 2816 1978 2816 
C 1280 2816 486 1941 486 989 
C 486 325 890 0 1299 0 
C 1638 0 1939 268 2054 396 
L 1914 -176 
C 1824 -520 1786 -677 1555 -896 
C 1293 -1152 1050 -1152 909 -1152 
C 717 -1152 557 -1140 397 -1090 
C 602 -1034 653 -858 653 -789 
C 653 -689 576 -589 435 -589 
C 282 -589 115 -714 115 -921 
C 115 -1178 378 -1280 922 -1280 
C 1747 -1280 2176 -758 2259 -420 
L 2970 2426 
C 2989 2502 2989 2515 2989 2528 
C 2989 2617 2918 2688 2822 2688 
C 2669 2688 2579 2560 2560 2388 
L 2560 2394 
z
" transform="scale(0.015625)"/>
      </defs>
      <use xlink:href="#CMMI12-67" transform="scale(0.996264)"/>
     </g>
    </g>
   </g>
   <g id="matplotlib.axis_2">
    <g id="ytick_1">
     <g id="line2d_7">
      <defs>
       <path id="m5498417be1" d="M 0 0 
L -2 0 
" style="stroke: #000000; stroke-width: 0.8"/>
      </defs>
      <g>
       <use xlink:href="#m5498417be1" x="39.274054" y="133.849169" style="stroke: #000000; stroke-width: 0.8"/>
      </g>
     </g>
     <g id="text_8">
      <!-- $\mathdefault{0.80}$ -->
      <g transform="translate(17.56264 137.308418)scale(0.1 -0.1)">
       <defs>
        <path id="CMR17-38" d="M 1741 2289 
C 2144 2494 2554 2803 2554 3298 
C 2554 3884 1990 4224 1472 4224 
C 890 4224 378 3800 378 3215 
C 378 3054 416 2777 666 2533 
C 730 2469 998 2276 1171 2154 
C 883 2006 211 1652 211 945 
C 211 282 838 -128 1459 -128 
C 2144 -128 2720 366 2720 1022 
C 2720 1607 2330 1877 2074 2051 
L 1741 2289 
z
M 902 2855 
C 851 2887 595 3086 595 3388 
C 595 3781 998 4076 1459 4076 
C 1965 4076 2336 3716 2336 3298 
C 2336 2700 1670 2359 1638 2359 
C 1632 2359 1626 2359 1574 2398 
L 902 2855 
z
M 2080 1536 
C 2176 1466 2483 1253 2483 861 
C 2483 385 2010 25 1472 25 
C 890 25 448 443 448 951 
C 448 1459 838 1884 1280 2083 
L 2080 1536 
z
" transform="scale(0.015625)"/>
       </defs>
       <use xlink:href="#CMR17-30" transform="scale(0.996264)"/>
       <use xlink:href="#CMMI12-3a" transform="translate(45.690477 0)scale(0.996264)"/>
       <use xlink:href="#CMR17-38" transform="translate(72.787654 0)scale(0.996264)"/>
       <use xlink:href="#CMR17-30" transform="translate(118.478131 0)scale(0.996264)"/>
      </g>
     </g>
    </g>
    <g id="ytick_2">
     <g id="line2d_8">
      <g>
       <use xlink:href="#m5498417be1" x="39.274054" y="102.931569" style="stroke: #000000; stroke-width: 0.8"/>
      </g>
     </g>
     <g id="text_9">
      <!-- $\mathdefault{0.85}$ -->
      <g transform="translate(17.56264 106.390818)scale(0.1 -0.1)">
       <use xlink:href="#CMR17-30" transform="scale(0.996264)"/>
       <use xlink:href="#CMMI12-3a" transform="translate(45.690477 0)scale(0.996264)"/>
       <use xlink:href="#CMR17-38" transform="translate(72.787654 0)scale(0.996264)"/>
       <use xlink:href="#CMR17-35" transform="translate(118.478131 0)scale(0.996264)"/>
      </g>
     </g>
    </g>
    <g id="ytick_3">
     <g id="line2d_9">
      <g>
       <use xlink:href="#m5498417be1" x="39.274054" y="72.013969" style="stroke: #000000; stroke-width: 0.8"/>
      </g>
     </g>
     <g id="text_10">
      <!-- $\mathdefault{0.90}$ -->
      <g transform="translate(17.56264 75.473218)scale(0.1 -0.1)">
       <defs>
        <path id="CMR17-39" d="M 2253 1871 
C 2253 448 1670 25 1190 25 
C 1043 25 685 43 538 281 
C 704 256 826 345 826 505 
C 826 678 685 736 595 736 
C 538 736 365 710 365 492 
C 365 68 742 -128 1203 -128 
C 1939 -128 2688 665 2688 2090 
C 2688 3857 1971 4224 1485 4224 
C 851 4224 243 3664 243 2800 
C 243 2000 762 1408 1414 1408 
C 1952 1408 2189 1910 2253 2122 
L 2253 1871 
z
M 1427 1510 
C 1254 1510 1011 1542 813 1929 
C 678 2181 678 2477 678 2793 
C 678 3174 678 3438 858 3722 
C 947 3857 1114 4076 1485 4076 
C 2240 4076 2240 2909 2240 2651 
C 2240 2193 2035 1510 1427 1510 
z
" transform="scale(0.015625)"/>
       </defs>
       <use xlink:href="#CMR17-30" transform="scale(0.996264)"/>
       <use xlink:href="#CMMI12-3a" transform="translate(45.690477 0)scale(0.996264)"/>
       <use xlink:href="#CMR17-39" transform="translate(72.787654 0)scale(0.996264)"/>
       <use xlink:href="#CMR17-30" transform="translate(118.478131 0)scale(0.996264)"/>
      </g>
     </g>
    </g>
    <g id="ytick_4">
     <g id="line2d_10">
      <g>
       <use xlink:href="#m5498417be1" x="39.274054" y="41.096368" style="stroke: #000000; stroke-width: 0.8"/>
      </g>
     </g>
     <g id="text_11">
      <!-- $\mathdefault{0.95}$ -->
      <g transform="translate(17.56264 44.555618)scale(0.1 -0.1)">
       <use xlink:href="#CMR17-30" transform="scale(0.996264)"/>
       <use xlink:href="#CMMI12-3a" transform="translate(45.690477 0)scale(0.996264)"/>
       <use xlink:href="#CMR17-39" transform="translate(72.787654 0)scale(0.996264)"/>
       <use xlink:href="#CMR17-35" transform="translate(118.478131 0)scale(0.996264)"/>
      </g>
     </g>
    </g>
    <g id="ytick_5">
     <g id="line2d_11">
      <g>
       <use xlink:href="#m5498417be1" x="39.274054" y="10.178768" style="stroke: #000000; stroke-width: 0.8"/>
      </g>
     </g>
     <g id="text_12">
      <!-- $\mathdefault{1.00}$ -->
      <g transform="translate(17.56264 13.638017)scale(0.1 -0.1)">
       <use xlink:href="#CMR17-31" transform="scale(0.996264)"/>
       <use xlink:href="#CMMI12-3a" transform="translate(45.690477 0)scale(0.996264)"/>
       <use xlink:href="#CMR17-30" transform="translate(72.787654 0)scale(0.996264)"/>
       <use xlink:href="#CMR17-30" transform="translate(118.478131 0)scale(0.996264)"/>
      </g>
     </g>
    </g>
    <g id="text_13">
     <!-- $C_0(g)$ -->
     <g transform="translate(11.07198 88.610245)rotate(-90)scale(0.1 -0.1)">
      <defs>
       <path id="CMMI12-43" d="M 4781 4422 
C 4781 4480 4736 4480 4723 4480 
C 4710 4480 4685 4480 4634 4415 
L 4192 3881 
C 3968 4262 3616 4480 3136 4480 
C 1754 4480 320 3087 320 1594 
C 320 533 1069 -128 2003 -128 
C 2515 -128 2963 89 3334 400 
C 3891 864 4058 1480 4058 1531 
C 4058 1588 4006 1588 3987 1588 
C 3930 1588 3923 1550 3910 1524 
C 3616 533 2752 57 2112 57 
C 1434 57 845 489 845 1391 
C 845 1594 909 2699 1632 3531 
C 1984 3938 2586 4294 3194 4294 
C 3898 4294 4211 3716 4211 3068 
C 4211 2903 4192 2763 4192 2737 
C 4192 2680 4256 2680 4275 2680 
C 4346 2680 4352 2687 4378 2801 
L 4781 4422 
z
" transform="scale(0.015625)"/>
       <path id="CMR17-28" d="M 1958 -1562 
C 1958 -1556 1958 -1543 1939 -1524 
C 1645 -1223 858 -403 858 1596 
C 858 3595 1632 4408 1946 4729 
C 1946 4735 1958 4748 1958 4767 
C 1958 4787 1939 4800 1914 4800 
C 1843 4800 1299 4325 986 3620 
C 666 2909 576 2218 576 1603 
C 576 1141 621 360 1005 -467 
C 1312 -1133 1837 -1600 1914 -1600 
C 1946 -1600 1958 -1588 1958 -1562 
z
" transform="scale(0.015625)"/>
       <path id="CMR17-29" d="M 1683 1596 
C 1683 2057 1638 2839 1254 3665 
C 947 4332 422 4800 346 4800 
C 326 4800 301 4793 301 4761 
C 301 4748 307 4742 314 4729 
C 621 4408 1402 3595 1402 1603 
C 1402 -396 627 -1210 314 -1530 
C 307 -1543 301 -1549 301 -1562 
C 301 -1594 326 -1600 346 -1600 
C 416 -1600 960 -1127 1274 -422 
C 1594 289 1683 981 1683 1596 
z
" transform="scale(0.015625)"/>
      </defs>
      <use xlink:href="#CMMI12-43" transform="scale(0.996264)"/>
      <use xlink:href="#CMR17-30" transform="translate(69.792037 -14.943915)scale(0.697382)"/>
      <use xlink:href="#CMR17-28" transform="translate(102.273351 0)scale(0.996264)"/>
      <use xlink:href="#CMMI12-67" transform="translate(137.554118 0)scale(0.996264)"/>
      <use xlink:href="#CMR17-29" transform="translate(187.839608 0)scale(0.996264)"/>
     </g>
    </g>
   </g>
   <g id="line2d_12">
    <path d="M 39.315735 10.216934 
L 42.387156 12.862309 
L 46.266844 15.909664 
L 50.469841 18.931418 
L 54.996144 21.917021 
L 59.845755 24.853669 
L 65.018673 27.729561 
L 70.514899 30.534917 
L 76.496086 33.334521 
L 82.80058 36.037597 
L 89.590036 38.702982 
L 96.864452 41.31418 
L 104.623829 43.858408 
L 112.868168 46.326455 
L 121.920775 48.79621 
L 131.619997 51.202028 
L 141.80418 53.497702 
L 152.634978 55.715871 
L 165.40562 58.099333 
L 178.176262 60.254401 
L 190.785251 62.158115 
L 200.80778 63.512497 
L 200.80778 63.512497 
" clip-path="url(#p01b512d608)" style="fill: none; stroke-dasharray: 1.85,0.8; stroke-dashoffset: 0; stroke: #e71d36; stroke-width: 0.5; stroke-linecap: round"/>
   </g>
   <g id="line2d_13">
    <path d="M 39.315735 10.219512 
L 42.387156 13.047731 
L 46.266844 16.322707 
L 50.631494 19.708687 
L 55.319452 23.055364 
L 60.330716 26.350361 
L 65.503634 29.487337 
L 70.99986 32.564824 
L 76.819393 35.572178 
L 83.123888 38.574901 
L 89.751689 41.481472 
L 96.702798 44.288474 
L 104.138868 47.051745 
L 112.0599 49.757138 
L 120.627546 52.441566 
L 129.680153 55.039389 
L 139.217721 57.545753 
L 149.401904 59.994913 
L 161.202624 62.58708 
L 173.164998 64.987351 
L 185.127371 67.158716 
L 196.928091 69.076449 
L 200.80778 69.65828 
L 200.80778 69.65828 
" clip-path="url(#p01b512d608)" style="fill: none; stroke-dasharray: 1.85,0.8; stroke-dashoffset: 0; stroke: #ff9f1c; stroke-width: 0.5; stroke-linecap: round"/>
   </g>
   <g id="line2d_14">
    <path d="M 39.315735 10.2246 
L 42.387156 13.413135 
L 46.266844 17.122254 
L 50.469841 20.839044 
L 54.996144 24.549766 
L 59.845755 28.236286 
L 64.85702 31.771251 
L 70.191592 35.264621 
L 75.849471 38.70098 
L 81.830658 42.06733 
L 88.135152 45.352995 
L 94.762954 48.549662 
L 101.714063 51.651077 
L 108.988479 54.652352 
L 116.586203 57.550272 
L 124.668888 60.398647 
L 133.398188 63.23681 
L 142.612449 65.99216 
L 152.150017 68.614946 
L 163.142468 71.403278 
L 174.13492 73.961867 
L 185.127371 76.290715 
L 196.119823 78.389819 
L 200.80778 79.215144 
L 200.80778 79.215144 
" clip-path="url(#p01b512d608)" style="fill: none; stroke-dasharray: 1.85,0.8; stroke-dashoffset: 0; stroke: #bdd73c; stroke-width: 0.5; stroke-linecap: round"/>
   </g>
   <g id="line2d_15">
    <path d="M 200.80778 99.498796 
L 157.736395 88.138227 
L 141.838405 82.768973 
L 128.506089 77.597419 
L 117.182335 72.622485 
L 107.464706 67.845053 
L 99.054467 63.266792 
L 91.724727 58.889464 
L 85.29975 54.537504 
L 79.641106 50.74253 
L 74.638132 46.973949 
L 70.201214 43.408237 
L 66.256941 40.044318 
L 62.744562 36.880512 
L 59.613341 33.914623 
L 56.820554 31.143987 
L 54.329959 28.565619 
L 52.110603 26.176049 
L 50.135889 23.971611 
L 48.382836 21.948154 
L 46.83149 20.102446 
L 45.464443 18.429333 
L 44.266447 16.924855 
L 43.224096 15.584548 
L 42.325564 14.403961 
L 41.560389 13.378638 
L 40.919292 12.504131 
L 40.394024 11.776032 
L 39.977239 11.360876 
L 39.662389 10.832512 
L 39.443627 10.464518 
L 39.315735 10.249046 
" clip-path="url(#p01b512d608)" style="fill: none; stroke: #1a896f; stroke-width: 0.5; stroke-linecap: round"/>
   </g>
   <g id="line2d_16">
    <path d="M 39.315735 10.497038 
L 39.96235 13.939211 
L 41.093926 18.670894 
L 42.548809 23.818178 
L 44.327 29.29886 
L 46.428498 35.015189 
L 48.69165 40.509289 
L 51.116455 45.814175 
L 53.702915 50.948214 
L 56.451027 55.921616 
L 59.360794 60.739107 
L 62.432214 65.403504 
L 65.665288 69.917122 
L 69.060016 74.282108 
L 72.616397 78.500751 
L 76.496086 82.744972 
L 80.537428 86.819711 
L 84.578771 90.586273 
L 88.943421 94.353094 
L 93.631378 98.093633 
L 98.480989 101.666803 
L 103.492254 105.085011 
L 108.988479 108.551679 
L 114.484705 111.753933 
L 120.465892 114.982311 
L 126.608732 118.041782 
L 133.236534 121.099058 
L 140.187643 124.053269 
L 147.462059 126.909694 
L 155.383091 129.772879 
L 164.274044 132.759169 
L 173.164998 135.509723 
L 182.055951 138.024541 
L 190.785251 140.264291 
L 199.51455 142.2768 
L 200.80778 142.555623 
L 200.80778 142.555623 
" clip-path="url(#p01b512d608)" style="fill: none; stroke-dasharray: 1.85,0.8; stroke-dashoffset: 0; stroke: #0b2456; stroke-width: 0.5; stroke-linecap: round"/>
   </g>
   <g id="patch_3">
    <path d="M 39.274054 149.172557 
L 39.274054 3.6 
" style="fill: none; stroke: #000000; stroke-width: 0.8; stroke-linejoin: miter; stroke-linecap: square"/>
   </g>
   <g id="patch_4">
    <path d="M 201.171374 149.172557 
L 201.171374 3.6 
" style="fill: none; stroke: #000000; stroke-width: 0.8; stroke-linejoin: miter; stroke-linecap: square"/>
   </g>
   <g id="patch_5">
    <path d="M 39.274054 149.172557 
L 201.171374 149.172557 
" style="fill: none; stroke: #000000; stroke-width: 0.8; stroke-linejoin: miter; stroke-linecap: square"/>
   </g>
   <g id="patch_6">
    <path d="M 39.274054 3.6 
L 201.171374 3.6 
" style="fill: none; stroke: #000000; stroke-width: 0.8; stroke-linejoin: miter; stroke-linecap: square"/>
   </g>
   <g id="legend_1">
    <g id="PathCollection_1">
     <defs>
      <path id="mef4b2c730b" d="M 0 1.581139 
C 0.419323 1.581139 0.821528 1.41454 1.118034 1.118034 
C 1.41454 0.821528 1.581139 0.419323 1.581139 0 
C 1.581139 -0.419323 1.41454 -0.821528 1.118034 -1.118034 
C 0.821528 -1.41454 0.419323 -1.581139 0 -1.581139 
C -0.419323 -1.581139 -0.821528 -1.41454 -1.118034 -1.118034 
C -1.41454 -0.821528 -1.581139 -0.419323 -1.581139 0 
C -1.581139 0.419323 -1.41454 0.821528 -1.118034 1.118034 
C -0.821528 1.41454 -0.419323 1.581139 0 1.581139 
z
" style="stroke: #e71d36; stroke-width: 0.5"/>
     </defs>
     <g>
      <use xlink:href="#mef4b2c730b" x="117.988294" y="13.745072" style="fill: #f28d9a; stroke: #e71d36; stroke-width: 0.5"/>
     </g>
    </g>
    <g id="text_14">
     <!-- $\alpha=5$ -->
     <g transform="translate(127.488294 15.151322)scale(0.1 -0.1)">
      <defs>
       <path id="CMMI12-b" d="M 2963 1615 
C 2963 2234 2611 2816 1933 2816 
C 1094 2816 256 1902 256 996 
C 256 440 602 -64 1254 -64 
C 1651 -64 2125 89 2579 472 
C 2669 115 2867 -64 3142 -64 
C 3488 -64 3661 293 3661 376 
C 3661 434 3616 434 3597 434 
C 3546 434 3539 415 3520 364 
C 3462 204 3315 64 3162 64 
C 2963 64 2963 472 2963 862 
C 3616 1641 3770 2445 3770 2451 
C 3770 2509 3718 2509 3699 2509 
C 3642 2509 3635 2490 3610 2375 
C 3526 2094 3360 1596 2963 1072 
L 2963 1615 
z
M 2560 625 
C 1997 121 1491 64 1267 64 
C 813 64 685 466 685 766 
C 685 1040 826 1692 1024 2043 
C 1286 2490 1645 2687 1933 2687 
C 2554 2687 2554 1877 2554 1340 
C 2554 1181 2547 1015 2547 855 
C 2547 728 2554 696 2560 625 
z
" transform="scale(0.015625)"/>
       <path id="CMR17-3d" d="M 4115 2048 
C 4211 2048 4307 2048 4307 2156 
C 4307 2272 4198 2272 4090 2272 
L 512 2272 
C 403 2272 294 2272 294 2156 
C 294 2048 390 2048 486 2048 
L 4115 2048 
z
M 4090 927 
C 4198 927 4307 927 4307 1043 
C 4307 1152 4211 1152 4115 1152 
L 486 1152 
C 390 1152 294 1152 294 1043 
C 294 927 403 927 512 927 
L 4090 927 
z
" transform="scale(0.015625)"/>
      </defs>
      <use xlink:href="#CMMI12-b" transform="scale(0.996264)"/>
      <use xlink:href="#CMR17-3d" transform="translate(90.355032 0)scale(0.996264)"/>
      <use xlink:href="#CMR17-35" transform="translate(189.743829 0)scale(0.996264)"/>
     </g>
    </g>
    <g id="PathCollection_2">
     <defs>
      <path id="m78bebfa5ab" d="M 0 1.581139 
C 0.419323 1.581139 0.821528 1.41454 1.118034 1.118034 
C 1.41454 0.821528 1.581139 0.419323 1.581139 0 
C 1.581139 -0.419323 1.41454 -0.821528 1.118034 -1.118034 
C 0.821528 -1.41454 0.419323 -1.581139 0 -1.581139 
C -0.419323 -1.581139 -0.821528 -1.41454 -1.118034 -1.118034 
C -1.41454 -0.821528 -1.581139 -0.419323 -1.581139 0 
C -1.581139 0.419323 -1.41454 0.821528 -1.118034 1.118034 
C -0.821528 1.41454 -0.419323 1.581139 0 1.581139 
z
" style="stroke: #ff9f1c; stroke-width: 0.5"/>
     </defs>
     <g>
      <use xlink:href="#m78bebfa5ab" x="117.988294" y="25.600748" style="fill: #fece8d; stroke: #ff9f1c; stroke-width: 0.5"/>
     </g>
    </g>
    <g id="text_15">
     <!-- $\alpha=4$ -->
     <g transform="translate(127.488294 27.006998)scale(0.1 -0.1)">
      <defs>
       <path id="CMR17-34" d="M 2150 4147 
C 2150 4281 2144 4288 2029 4288 
L 128 1254 
L 128 1088 
L 1779 1088 
L 1779 460 
C 1779 230 1766 166 1318 166 
L 1197 166 
L 1197 0 
C 1402 12 1747 12 1965 12 
C 2182 12 2528 12 2733 0 
L 2733 166 
L 2611 166 
C 2163 166 2150 230 2150 460 
L 2150 1088 
L 2803 1088 
L 2803 1254 
L 2150 1254 
L 2150 4147 
z
M 1798 3723 
L 1798 1254 
L 256 1254 
L 1798 3723 
z
" transform="scale(0.015625)"/>
      </defs>
      <use xlink:href="#CMMI12-b" transform="scale(0.996264)"/>
      <use xlink:href="#CMR17-3d" transform="translate(90.355032 0)scale(0.996264)"/>
      <use xlink:href="#CMR17-34" transform="translate(189.743829 0)scale(0.996264)"/>
     </g>
    </g>
    <g id="PathCollection_3">
     <defs>
      <path id="m6266453818" d="M 0 1.581139 
C 0.419323 1.581139 0.821528 1.41454 1.118034 1.118034 
C 1.41454 0.821528 1.581139 0.419323 1.581139 0 
C 1.581139 -0.419323 1.41454 -0.821528 1.118034 -1.118034 
C 0.821528 -1.41454 0.419323 -1.581139 0 -1.581139 
C -0.419323 -1.581139 -0.821528 -1.41454 -1.118034 -1.118034 
C -1.41454 -0.821528 -1.581139 -0.419323 -1.581139 0 
C -1.581139 0.419323 -1.41454 0.821528 -1.118034 1.118034 
C -0.821528 1.41454 -0.419323 1.581139 0 1.581139 
z
" style="stroke: #bdd73c; stroke-width: 0.5"/>
     </defs>
     <g>
      <use xlink:href="#m6266453818" x="117.988294" y="37.456425" style="fill: #ddea9d; stroke: #bdd73c; stroke-width: 0.5"/>
     </g>
    </g>
    <g id="text_16">
     <!-- $\alpha=3$ -->
     <g transform="translate(127.488294 38.862675)scale(0.1 -0.1)">
      <defs>
       <path id="CMR17-33" d="M 1414 2176 
C 1984 2176 2234 1673 2234 1094 
C 2234 322 1824 25 1453 25 
C 1114 25 563 193 390 691 
C 422 678 454 678 486 678 
C 640 678 755 780 755 947 
C 755 1132 614 1216 486 1216 
C 378 1216 211 1164 211 927 
C 211 335 787 -128 1466 -128 
C 2176 -128 2720 432 2720 1087 
C 2720 1718 2208 2176 1600 2246 
C 2086 2347 2554 2776 2554 3353 
C 2554 3856 2048 4224 1472 4224 
C 890 4224 378 3862 378 3347 
C 378 3123 544 3084 627 3084 
C 762 3084 877 3167 877 3334 
C 877 3500 762 3584 627 3584 
C 602 3584 570 3584 544 3571 
C 730 3999 1235 4076 1459 4076 
C 1683 4076 2106 3966 2106 3347 
C 2106 3167 2080 2851 1862 2574 
C 1670 2329 1453 2316 1242 2297 
C 1210 2297 1062 2284 1037 2284 
C 992 2278 966 2272 966 2227 
C 966 2182 973 2176 1101 2176 
L 1414 2176 
z
" transform="scale(0.015625)"/>
      </defs>
      <use xlink:href="#CMMI12-b" transform="scale(0.996264)"/>
      <use xlink:href="#CMR17-3d" transform="translate(90.355032 0)scale(0.996264)"/>
      <use xlink:href="#CMR17-33" transform="translate(189.743829 0)scale(0.996264)"/>
     </g>
    </g>
    <g id="PathCollection_4">
     <defs>
      <path id="mccd33b1dde" d="M 0 1.581139 
C 0.419323 1.581139 0.821528 1.41454 1.118034 1.118034 
C 1.41454 0.821528 1.581139 0.419323 1.581139 0 
C 1.581139 -0.419323 1.41454 -0.821528 1.118034 -1.118034 
C 0.821528 -1.41454 0.419323 -1.581139 0 -1.581139 
C -0.419323 -1.581139 -0.821528 -1.41454 -1.118034 -1.118034 
C -1.41454 -0.821528 -1.581139 -0.419323 -1.581139 0 
C -1.581139 0.419323 -1.41454 0.821528 -1.118034 1.118034 
C -0.821528 1.41454 -0.419323 1.581139 0 1.581139 
z
" style="stroke: #1a896f; stroke-width: 0.5"/>
     </defs>
     <g>
      <use xlink:href="#mccd33b1dde" x="163.663037" y="13.745072" style="fill: #8cc3b6; stroke: #1a896f; stroke-width: 0.5"/>
     </g>
    </g>
    <g id="text_17">
     <!-- $\alpha=2$ -->
     <g transform="translate(173.163037 15.151322)scale(0.1 -0.1)">
      <use xlink:href="#CMMI12-b" transform="scale(0.996264)"/>
      <use xlink:href="#CMR17-3d" transform="translate(90.355032 0)scale(0.996264)"/>
      <use xlink:href="#CMR17-32" transform="translate(189.743829 0)scale(0.996264)"/>
     </g>
    </g>
    <g id="PathCollection_5">
     <defs>
      <path id="mabd56bba09" d="M 0 1.581139 
C 0.419323 1.581139 0.821528 1.41454 1.118034 1.118034 
C 1.41454 0.821528 1.581139 0.419323 1.581139 0 
C 1.581139 -0.419323 1.41454 -0.821528 1.118034 -1.118034 
C 0.821528 -1.41454 0.419323 -1.581139 0 -1.581139 
C -0.419323 -1.581139 -0.821528 -1.41454 -1.118034 -1.118034 
C -1.41454 -0.821528 -1.581139 -0.419323 -1.581139 0 
C -1.581139 0.419323 -1.41454 0.821528 -1.118034 1.118034 
C -0.821528 1.41454 -0.419323 1.581139 0 1.581139 
z
" style="stroke: #0b2456; stroke-width: 0.5"/>
     </defs>
     <g>
      <use xlink:href="#mabd56bba09" x="163.663037" y="25.600748" style="fill: #8491aa; stroke: #0b2456; stroke-width: 0.5"/>
     </g>
    </g>
    <g id="text_18">
     <!-- $\alpha=1$ -->
     <g transform="translate(173.163037 27.006998)scale(0.1 -0.1)">
      <use xlink:href="#CMMI12-b" transform="scale(0.996264)"/>
      <use xlink:href="#CMR17-3d" transform="translate(90.355032 0)scale(0.996264)"/>
      <use xlink:href="#CMR17-31" transform="translate(189.743829 0)scale(0.996264)"/>
     </g>
    </g>
   </g>
   <g id="PathCollection_6">
    <g clip-path="url(#p01b512d608)">
     <use xlink:href="#mef4b2c730b" x="200.80778" y="63.512497" style="fill: #f28d9a; stroke: #e71d36; stroke-width: 0.5"/>
     <use xlink:href="#mef4b2c730b" x="157.736395" y="56.695374" style="fill: #f28d9a; stroke: #e71d36; stroke-width: 0.5"/>
     <use xlink:href="#mef4b2c730b" x="141.838405" y="53.505065" style="fill: #f28d9a; stroke: #e71d36; stroke-width: 0.5"/>
     <use xlink:href="#mef4b2c730b" x="128.506089" y="50.453926" style="fill: #f28d9a; stroke: #e71d36; stroke-width: 0.5"/>
     <use xlink:href="#mef4b2c730b" x="117.182335" y="47.532585" style="fill: #f28d9a; stroke: #e71d36; stroke-width: 0.5"/>
     <use xlink:href="#mef4b2c730b" x="107.464706" y="44.73475" style="fill: #f28d9a; stroke: #e71d36; stroke-width: 0.5"/>
     <use xlink:href="#mef4b2c730b" x="99.054467" y="42.05622" style="fill: #f28d9a; stroke: #e71d36; stroke-width: 0.5"/>
     <use xlink:href="#mef4b2c730b" x="91.724727" y="39.494106" style="fill: #f28d9a; stroke: #e71d36; stroke-width: 0.5"/>
     <use xlink:href="#mef4b2c730b" x="85.29975" y="37.046612" style="fill: #f28d9a; stroke: #e71d36; stroke-width: 0.5"/>
     <use xlink:href="#mef4b2c730b" x="79.641106" y="34.712455" style="fill: #f28d9a; stroke: #e71d36; stroke-width: 0.5"/>
     <use xlink:href="#mef4b2c730b" x="74.638132" y="32.490858" style="fill: #f28d9a; stroke: #e71d36; stroke-width: 0.5"/>
     <use xlink:href="#mef4b2c730b" x="70.201214" y="30.381091" style="fill: #f28d9a; stroke: #e71d36; stroke-width: 0.5"/>
     <use xlink:href="#mef4b2c730b" x="66.256941" y="28.382909" style="fill: #f28d9a; stroke: #e71d36; stroke-width: 0.5"/>
     <use xlink:href="#mef4b2c730b" x="62.744562" y="26.495411" style="fill: #f28d9a; stroke: #e71d36; stroke-width: 0.5"/>
     <use xlink:href="#mef4b2c730b" x="59.613341" y="24.718504" style="fill: #f28d9a; stroke: #e71d36; stroke-width: 0.5"/>
     <use xlink:href="#mef4b2c730b" x="56.820554" y="23.051357" style="fill: #f28d9a; stroke: #e71d36; stroke-width: 0.5"/>
     <use xlink:href="#mef4b2c730b" x="54.329959" y="21.49331" style="fill: #f28d9a; stroke: #e71d36; stroke-width: 0.5"/>
     <use xlink:href="#mef4b2c730b" x="52.110603" y="20.043424" style="fill: #f28d9a; stroke: #e71d36; stroke-width: 0.5"/>
     <use xlink:href="#mef4b2c730b" x="50.135889" y="18.700653" style="fill: #f28d9a; stroke: #e71d36; stroke-width: 0.5"/>
     <use xlink:href="#mef4b2c730b" x="48.382836" y="17.463713" style="fill: #f28d9a; stroke: #e71d36; stroke-width: 0.5"/>
     <use xlink:href="#mef4b2c730b" x="46.83149" y="16.331226" style="fill: #f28d9a; stroke: #e71d36; stroke-width: 0.5"/>
     <use xlink:href="#mef4b2c730b" x="45.464443" y="15.30158" style="fill: #f28d9a; stroke: #e71d36; stroke-width: 0.5"/>
     <use xlink:href="#mef4b2c730b" x="44.266447" y="14.373052" style="fill: #f28d9a; stroke: #e71d36; stroke-width: 0.5"/>
     <use xlink:href="#mef4b2c730b" x="43.224096" y="13.544169" style="fill: #f28d9a; stroke: #e71d36; stroke-width: 0.5"/>
     <use xlink:href="#mef4b2c730b" x="42.325564" y="12.811561" style="fill: #f28d9a; stroke: #e71d36; stroke-width: 0.5"/>
     <use xlink:href="#mef4b2c730b" x="41.560389" y="12.174456" style="fill: #f28d9a; stroke: #e71d36; stroke-width: 0.5"/>
     <use xlink:href="#mef4b2c730b" x="40.919292" y="11.630141" style="fill: #f28d9a; stroke: #e71d36; stroke-width: 0.5"/>
     <use xlink:href="#mef4b2c730b" x="40.394024" y="11.176267" style="fill: #f28d9a; stroke: #e71d36; stroke-width: 0.5"/>
     <use xlink:href="#mef4b2c730b" x="39.977239" y="10.810589" style="fill: #f28d9a; stroke: #e71d36; stroke-width: 0.5"/>
     <use xlink:href="#mef4b2c730b" x="39.662389" y="10.53039" style="fill: #f28d9a; stroke: #e71d36; stroke-width: 0.5"/>
     <use xlink:href="#mef4b2c730b" x="39.443627" y="10.33335" style="fill: #f28d9a; stroke: #e71d36; stroke-width: 0.5"/>
     <use xlink:href="#mef4b2c730b" x="39.315735" y="10.216934" style="fill: #f28d9a; stroke: #e71d36; stroke-width: 0.5"/>
    </g>
   </g>
   <g id="PathCollection_7">
    <g clip-path="url(#p01b512d608)">
     <use xlink:href="#m78bebfa5ab" x="200.80778" y="69.65828" style="fill: #fece8d; stroke: #ff9f1c; stroke-width: 0.5"/>
     <use xlink:href="#m78bebfa5ab" x="157.736395" y="61.848801" style="fill: #fece8d; stroke: #ff9f1c; stroke-width: 0.5"/>
     <use xlink:href="#m78bebfa5ab" x="141.838405" y="58.197717" style="fill: #fece8d; stroke: #ff9f1c; stroke-width: 0.5"/>
     <use xlink:href="#m78bebfa5ab" x="128.506089" y="54.71478" style="fill: #fece8d; stroke: #ff9f1c; stroke-width: 0.5"/>
     <use xlink:href="#m78bebfa5ab" x="117.182335" y="51.389839" style="fill: #fece8d; stroke: #ff9f1c; stroke-width: 0.5"/>
     <use xlink:href="#m78bebfa5ab" x="107.464706" y="48.215882" style="fill: #fece8d; stroke: #ff9f1c; stroke-width: 0.5"/>
     <use xlink:href="#m78bebfa5ab" x="99.054467" y="45.187897" style="fill: #fece8d; stroke: #ff9f1c; stroke-width: 0.5"/>
     <use xlink:href="#m78bebfa5ab" x="91.724727" y="42.302192" style="fill: #fece8d; stroke: #ff9f1c; stroke-width: 0.5"/>
     <use xlink:href="#m78bebfa5ab" x="85.29975" y="39.555943" style="fill: #fece8d; stroke: #ff9f1c; stroke-width: 0.5"/>
     <use xlink:href="#m78bebfa5ab" x="79.641106" y="36.94688" style="fill: #fece8d; stroke: #ff9f1c; stroke-width: 0.5"/>
     <use xlink:href="#m78bebfa5ab" x="74.638132" y="34.473049" style="fill: #fece8d; stroke: #ff9f1c; stroke-width: 0.5"/>
     <use xlink:href="#m78bebfa5ab" x="70.201214" y="32.132617" style="fill: #fece8d; stroke: #ff9f1c; stroke-width: 0.5"/>
     <use xlink:href="#m78bebfa5ab" x="66.256941" y="29.924004" style="fill: #fece8d; stroke: #ff9f1c; stroke-width: 0.5"/>
     <use xlink:href="#m78bebfa5ab" x="62.744562" y="27.845288" style="fill: #fece8d; stroke: #ff9f1c; stroke-width: 0.5"/>
     <use xlink:href="#m78bebfa5ab" x="59.613341" y="25.894925" style="fill: #fece8d; stroke: #ff9f1c; stroke-width: 0.5"/>
     <use xlink:href="#m78bebfa5ab" x="56.820554" y="24.070987" style="fill: #fece8d; stroke: #ff9f1c; stroke-width: 0.5"/>
     <use xlink:href="#m78bebfa5ab" x="54.329959" y="22.371587" style="fill: #fece8d; stroke: #ff9f1c; stroke-width: 0.5"/>
     <use xlink:href="#m78bebfa5ab" x="52.110603" y="20.794686" style="fill: #fece8d; stroke: #ff9f1c; stroke-width: 0.5"/>
     <use xlink:href="#m78bebfa5ab" x="50.135889" y="19.338145" style="fill: #fece8d; stroke: #ff9f1c; stroke-width: 0.5"/>
     <use xlink:href="#m78bebfa5ab" x="48.382836" y="17.999693" style="fill: #fece8d; stroke: #ff9f1c; stroke-width: 0.5"/>
     <use xlink:href="#m78bebfa5ab" x="46.83149" y="16.777286" style="fill: #fece8d; stroke: #ff9f1c; stroke-width: 0.5"/>
     <use xlink:href="#m78bebfa5ab" x="45.464443" y="15.667582" style="fill: #fece8d; stroke: #ff9f1c; stroke-width: 0.5"/>
     <use xlink:href="#m78bebfa5ab" x="44.266447" y="14.668937" style="fill: #fece8d; stroke: #ff9f1c; stroke-width: 0.5"/>
     <use xlink:href="#m78bebfa5ab" x="43.224096" y="13.778428" style="fill: #fece8d; stroke: #ff9f1c; stroke-width: 0.5"/>
     <use xlink:href="#m78bebfa5ab" x="42.325564" y="12.993372" style="fill: #fece8d; stroke: #ff9f1c; stroke-width: 0.5"/>
     <use xlink:href="#m78bebfa5ab" x="41.560389" y="12.311081" style="fill: #fece8d; stroke: #ff9f1c; stroke-width: 0.5"/>
     <use xlink:href="#m78bebfa5ab" x="40.919292" y="11.728753" style="fill: #fece8d; stroke: #ff9f1c; stroke-width: 0.5"/>
     <use xlink:href="#m78bebfa5ab" x="40.394024" y="11.243631" style="fill: #fece8d; stroke: #ff9f1c; stroke-width: 0.5"/>
     <use xlink:href="#m78bebfa5ab" x="39.977239" y="10.85303" style="fill: #fece8d; stroke: #ff9f1c; stroke-width: 0.5"/>
     <use xlink:href="#m78bebfa5ab" x="39.662389" y="10.553929" style="fill: #fece8d; stroke: #ff9f1c; stroke-width: 0.5"/>
     <use xlink:href="#m78bebfa5ab" x="39.443627" y="10.343723" style="fill: #fece8d; stroke: #ff9f1c; stroke-width: 0.5"/>
     <use xlink:href="#m78bebfa5ab" x="39.315735" y="10.219512" style="fill: #fece8d; stroke: #ff9f1c; stroke-width: 0.5"/>
    </g>
   </g>
   <g id="PathCollection_8">
    <g clip-path="url(#p01b512d608)">
     <use xlink:href="#m6266453818" x="200.80778" y="79.215144" style="fill: #ddea9d; stroke: #bdd73c; stroke-width: 0.5"/>
     <use xlink:href="#m6266453818" x="157.736395" y="70.06069" style="fill: #ddea9d; stroke: #bdd73c; stroke-width: 0.5"/>
     <use xlink:href="#m6266453818" x="141.838405" y="65.769176" style="fill: #ddea9d; stroke: #bdd73c; stroke-width: 0.5"/>
     <use xlink:href="#m6266453818" x="128.506089" y="61.675119" style="fill: #ddea9d; stroke: #bdd73c; stroke-width: 0.5"/>
     <use xlink:href="#m6266453818" x="117.182335" y="57.768444" style="fill: #ddea9d; stroke: #bdd73c; stroke-width: 0.5"/>
     <use xlink:href="#m6266453818" x="107.464706" y="54.042569" style="fill: #ddea9d; stroke: #bdd73c; stroke-width: 0.5"/>
     <use xlink:href="#m6266453818" x="99.054467" y="50.492602" style="fill: #ddea9d; stroke: #bdd73c; stroke-width: 0.5"/>
     <use xlink:href="#m6266453818" x="91.724727" y="47.114908" style="fill: #ddea9d; stroke: #bdd73c; stroke-width: 0.5"/>
     <use xlink:href="#m6266453818" x="85.29975" y="43.906511" style="fill: #ddea9d; stroke: #bdd73c; stroke-width: 0.5"/>
     <use xlink:href="#m6266453818" x="79.641106" y="40.864576" style="fill: #ddea9d; stroke: #bdd73c; stroke-width: 0.5"/>
     <use xlink:href="#m6266453818" x="74.638132" y="37.986788" style="fill: #ddea9d; stroke: #bdd73c; stroke-width: 0.5"/>
     <use xlink:href="#m6266453818" x="70.201214" y="35.270691" style="fill: #ddea9d; stroke: #bdd73c; stroke-width: 0.5"/>
     <use xlink:href="#m6266453818" x="66.256941" y="32.713599" style="fill: #ddea9d; stroke: #bdd73c; stroke-width: 0.5"/>
     <use xlink:href="#m6266453818" x="62.744562" y="30.312919" style="fill: #ddea9d; stroke: #bdd73c; stroke-width: 0.5"/>
     <use xlink:href="#m6266453818" x="59.613341" y="28.065817" style="fill: #ddea9d; stroke: #bdd73c; stroke-width: 0.5"/>
     <use xlink:href="#m6266453818" x="56.820554" y="25.969444" style="fill: #ddea9d; stroke: #bdd73c; stroke-width: 0.5"/>
     <use xlink:href="#m6266453818" x="54.329959" y="24.020866" style="fill: #ddea9d; stroke: #bdd73c; stroke-width: 0.5"/>
     <use xlink:href="#m6266453818" x="52.110603" y="22.216692" style="fill: #ddea9d; stroke: #bdd73c; stroke-width: 0.5"/>
     <use xlink:href="#m6266453818" x="50.135889" y="20.553826" style="fill: #ddea9d; stroke: #bdd73c; stroke-width: 0.5"/>
     <use xlink:href="#m6266453818" x="48.382836" y="19.028888" style="fill: #ddea9d; stroke: #bdd73c; stroke-width: 0.5"/>
     <use xlink:href="#m6266453818" x="46.83149" y="17.638446" style="fill: #ddea9d; stroke: #bdd73c; stroke-width: 0.5"/>
     <use xlink:href="#m6266453818" x="45.464443" y="16.379013" style="fill: #ddea9d; stroke: #bdd73c; stroke-width: 0.5"/>
     <use xlink:href="#m6266453818" x="44.266447" y="15.247066" style="fill: #ddea9d; stroke: #bdd73c; stroke-width: 0.5"/>
     <use xlink:href="#m6266453818" x="43.224096" y="14.23913" style="fill: #ddea9d; stroke: #bdd73c; stroke-width: 0.5"/>
     <use xlink:href="#m6266453818" x="42.325564" y="13.351722" style="fill: #ddea9d; stroke: #bdd73c; stroke-width: 0.5"/>
     <use xlink:href="#m6266453818" x="41.560389" y="12.581289" style="fill: #ddea9d; stroke: #bdd73c; stroke-width: 0.5"/>
     <use xlink:href="#m6266453818" x="40.919292" y="11.924425" style="fill: #ddea9d; stroke: #bdd73c; stroke-width: 0.5"/>
     <use xlink:href="#m6266453818" x="40.394024" y="11.37766" style="fill: #ddea9d; stroke: #bdd73c; stroke-width: 0.5"/>
     <use xlink:href="#m6266453818" x="39.977239" y="10.937679" style="fill: #ddea9d; stroke: #bdd73c; stroke-width: 0.5"/>
     <use xlink:href="#m6266453818" x="39.662389" y="10.600938" style="fill: #ddea9d; stroke: #bdd73c; stroke-width: 0.5"/>
     <use xlink:href="#m6266453818" x="39.443627" y="10.364343" style="fill: #ddea9d; stroke: #bdd73c; stroke-width: 0.5"/>
     <use xlink:href="#m6266453818" x="39.315735" y="10.2246" style="fill: #ddea9d; stroke: #bdd73c; stroke-width: 0.5"/>
    </g>
   </g>
   <g id="PathCollection_9">
    <g clip-path="url(#p01b512d608)">
     <use xlink:href="#mccd33b1dde" x="200.80778" y="97.089148" style="fill: #8cc3b6; stroke: #1a896f; stroke-width: 0.5"/>
     <use xlink:href="#mccd33b1dde" x="157.736395" y="86.155294" style="fill: #8cc3b6; stroke: #1a896f; stroke-width: 0.5"/>
     <use xlink:href="#mccd33b1dde" x="141.838405" y="80.96758" style="fill: #8cc3b6; stroke: #1a896f; stroke-width: 0.5"/>
     <use xlink:href="#mccd33b1dde" x="128.506089" y="75.981424" style="fill: #8cc3b6; stroke: #1a896f; stroke-width: 0.5"/>
     <use xlink:href="#mccd33b1dde" x="117.182335" y="71.189776" style="fill: #8cc3b6; stroke: #1a896f; stroke-width: 0.5"/>
     <use xlink:href="#mccd33b1dde" x="107.464706" y="66.58932" style="fill: #8cc3b6; stroke: #1a896f; stroke-width: 0.5"/>
     <use xlink:href="#mccd33b1dde" x="99.054467" y="62.17823" style="fill: #8cc3b6; stroke: #1a896f; stroke-width: 0.5"/>
     <use xlink:href="#mccd33b1dde" x="91.724727" y="57.955914" style="fill: #8cc3b6; stroke: #1a896f; stroke-width: 0.5"/>
     <use xlink:href="#mccd33b1dde" x="85.29975" y="53.922497" style="fill: #8cc3b6; stroke: #1a896f; stroke-width: 0.5"/>
     <use xlink:href="#mccd33b1dde" x="79.641106" y="50.077922" style="fill: #8cc3b6; stroke: #1a896f; stroke-width: 0.5"/>
     <use xlink:href="#mccd33b1dde" x="74.638132" y="46.422367" style="fill: #8cc3b6; stroke: #1a896f; stroke-width: 0.5"/>
     <use xlink:href="#mccd33b1dde" x="70.201214" y="42.955788" style="fill: #8cc3b6; stroke: #1a896f; stroke-width: 0.5"/>
     <use xlink:href="#mccd33b1dde" x="66.256941" y="39.677633" style="fill: #8cc3b6; stroke: #1a896f; stroke-width: 0.5"/>
     <use xlink:href="#mccd33b1dde" x="62.744562" y="36.587182" style="fill: #8cc3b6; stroke: #1a896f; stroke-width: 0.5"/>
     <use xlink:href="#mccd33b1dde" x="59.613341" y="33.683213" style="fill: #8cc3b6; stroke: #1a896f; stroke-width: 0.5"/>
     <use xlink:href="#mccd33b1dde" x="56.820554" y="30.964187" style="fill: #8cc3b6; stroke: #1a896f; stroke-width: 0.5"/>
     <use xlink:href="#mccd33b1dde" x="54.329959" y="28.428329" style="fill: #8cc3b6; stroke: #1a896f; stroke-width: 0.5"/>
     <use xlink:href="#mccd33b1dde" x="52.110603" y="26.073082" style="fill: #8cc3b6; stroke: #1a896f; stroke-width: 0.5"/>
     <use xlink:href="#mccd33b1dde" x="50.135889" y="23.896111" style="fill: #8cc3b6; stroke: #1a896f; stroke-width: 0.5"/>
     <use xlink:href="#mccd33b1dde" x="48.382836" y="21.894481" style="fill: #8cc3b6; stroke: #1a896f; stroke-width: 0.5"/>
     <use xlink:href="#mccd33b1dde" x="46.83149" y="20.065017" style="fill: #8cc3b6; stroke: #1a896f; stroke-width: 0.5"/>
     <use xlink:href="#mccd33b1dde" x="45.464443" y="18.404307" style="fill: #8cc3b6; stroke: #1a896f; stroke-width: 0.5"/>
     <use xlink:href="#mccd33b1dde" x="44.266447" y="16.908805" style="fill: #8cc3b6; stroke: #1a896f; stroke-width: 0.5"/>
     <use xlink:href="#mccd33b1dde" x="43.224096" y="15.57487" style="fill: #8cc3b6; stroke: #1a896f; stroke-width: 0.5"/>
     <use xlink:href="#mccd33b1dde" x="42.325564" y="14.398549" style="fill: #8cc3b6; stroke: #1a896f; stroke-width: 0.5"/>
     <use xlink:href="#mccd33b1dde" x="41.560389" y="13.375905" style="fill: #8cc3b6; stroke: #1a896f; stroke-width: 0.5"/>
     <use xlink:href="#mccd33b1dde" x="40.919292" y="12.503043" style="fill: #8cc3b6; stroke: #1a896f; stroke-width: 0.5"/>
     <use xlink:href="#mccd33b1dde" x="40.394024" y="11.775726" style="fill: #8cc3b6; stroke: #1a896f; stroke-width: 0.5"/>
     <use xlink:href="#mccd33b1dde" x="39.977239" y="11.18999" style="fill: #8cc3b6; stroke: #1a896f; stroke-width: 0.5"/>
     <use xlink:href="#mccd33b1dde" x="39.662389" y="10.741489" style="fill: #8cc3b6; stroke: #1a896f; stroke-width: 0.5"/>
     <use xlink:href="#mccd33b1dde" x="39.443627" y="10.42621" style="fill: #8cc3b6; stroke: #1a896f; stroke-width: 0.5"/>
     <use xlink:href="#mccd33b1dde" x="39.315735" y="10.239904" style="fill: #8cc3b6; stroke: #1a896f; stroke-width: 0.5"/>
    </g>
   </g>
   <g id="PathCollection_10">
    <g clip-path="url(#p01b512d608)">
     <use xlink:href="#mabd56bba09" x="200.80778" y="142.555623" style="fill: #8491aa; stroke: #0b2456; stroke-width: 0.5"/>
     <use xlink:href="#mabd56bba09" x="157.736395" y="130.586246" style="fill: #8491aa; stroke: #0b2456; stroke-width: 0.5"/>
     <use xlink:href="#mabd56bba09" x="141.838405" y="124.722366" style="fill: #8491aa; stroke: #0b2456; stroke-width: 0.5"/>
     <use xlink:href="#mabd56bba09" x="128.506089" y="118.94235" style="fill: #8491aa; stroke: #0b2456; stroke-width: 0.5"/>
     <use xlink:href="#mabd56bba09" x="117.182335" y="113.24174" style="fill: #8491aa; stroke: #0b2456; stroke-width: 0.5"/>
     <use xlink:href="#mabd56bba09" x="107.464706" y="107.617473" style="fill: #8491aa; stroke: #0b2456; stroke-width: 0.5"/>
     <use xlink:href="#mabd56bba09" x="99.054467" y="102.071893" style="fill: #8491aa; stroke: #0b2456; stroke-width: 0.5"/>
     <use xlink:href="#mabd56bba09" x="91.724727" y="96.607579" style="fill: #8491aa; stroke: #0b2456; stroke-width: 0.5"/>
     <use xlink:href="#mabd56bba09" x="85.29975" y="91.229573" style="fill: #8491aa; stroke: #0b2456; stroke-width: 0.5"/>
     <use xlink:href="#mabd56bba09" x="79.641106" y="85.94329" style="fill: #8491aa; stroke: #0b2456; stroke-width: 0.5"/>
     <use xlink:href="#mabd56bba09" x="74.638132" y="80.75561" style="fill: #8491aa; stroke: #0b2456; stroke-width: 0.5"/>
     <use xlink:href="#mabd56bba09" x="70.201214" y="75.673377" style="fill: #8491aa; stroke: #0b2456; stroke-width: 0.5"/>
     <use xlink:href="#mabd56bba09" x="66.256941" y="70.704327" style="fill: #8491aa; stroke: #0b2456; stroke-width: 0.5"/>
     <use xlink:href="#mabd56bba09" x="62.744562" y="65.856562" style="fill: #8491aa; stroke: #0b2456; stroke-width: 0.5"/>
     <use xlink:href="#mabd56bba09" x="59.613341" y="61.138196" style="fill: #8491aa; stroke: #0b2456; stroke-width: 0.5"/>
     <use xlink:href="#mabd56bba09" x="56.820554" y="56.557604" style="fill: #8491aa; stroke: #0b2456; stroke-width: 0.5"/>
     <use xlink:href="#mabd56bba09" x="54.329959" y="52.123765" style="fill: #8491aa; stroke: #0b2456; stroke-width: 0.5"/>
     <use xlink:href="#mabd56bba09" x="52.110603" y="47.845517" style="fill: #8491aa; stroke: #0b2456; stroke-width: 0.5"/>
     <use xlink:href="#mabd56bba09" x="50.135889" y="43.732233" style="fill: #8491aa; stroke: #0b2456; stroke-width: 0.5"/>
     <use xlink:href="#mabd56bba09" x="48.382836" y="39.793196" style="fill: #8491aa; stroke: #0b2456; stroke-width: 0.5"/>
     <use xlink:href="#mabd56bba09" x="46.83149" y="36.038463" style="fill: #8491aa; stroke: #0b2456; stroke-width: 0.5"/>
     <use xlink:href="#mabd56bba09" x="45.464443" y="32.478146" style="fill: #8491aa; stroke: #0b2456; stroke-width: 0.5"/>
     <use xlink:href="#mabd56bba09" x="44.266447" y="29.123142" style="fill: #8491aa; stroke: #0b2456; stroke-width: 0.5"/>
     <use xlink:href="#mabd56bba09" x="43.224096" y="25.984377" style="fill: #8491aa; stroke: #0b2456; stroke-width: 0.5"/>
     <use xlink:href="#mabd56bba09" x="42.325564" y="23.074404" style="fill: #8491aa; stroke: #0b2456; stroke-width: 0.5"/>
     <use xlink:href="#mabd56bba09" x="41.560389" y="20.406223" style="fill: #8491aa; stroke: #0b2456; stroke-width: 0.5"/>
     <use xlink:href="#mabd56bba09" x="40.919292" y="17.994436" style="fill: #8491aa; stroke: #0b2456; stroke-width: 0.5"/>
     <use xlink:href="#mabd56bba09" x="40.394024" y="15.855476" style="fill: #8491aa; stroke: #0b2456; stroke-width: 0.5"/>
     <use xlink:href="#mabd56bba09" x="39.977239" y="14.008622" style="fill: #8491aa; stroke: #0b2456; stroke-width: 0.5"/>
     <use xlink:href="#mabd56bba09" x="39.662389" y="12.477309" style="fill: #8491aa; stroke: #0b2456; stroke-width: 0.5"/>
     <use xlink:href="#mabd56bba09" x="39.443627" y="11.292176" style="fill: #8491aa; stroke: #0b2456; stroke-width: 0.5"/>
     <use xlink:href="#mabd56bba09" x="39.315735" y="10.497038" style="fill: #8491aa; stroke: #0b2456; stroke-width: 0.5"/>
    </g>
   </g>
  </g>
  <g id="axes_2">
   <g id="patch_7">
    <path d="M 231.990201 149.172557 
L 393.88752 149.172557 
L 393.88752 3.6 
L 231.990201 3.6 
L 231.990201 149.172557 
z
" style="fill: none"/>
   </g>
   <g id="matplotlib.axis_3">
    <g id="xtick_7">
     <g id="line2d_17">
      <g>
       <use xlink:href="#mb2440bf971" x="255.702434" y="149.172557" style="stroke: #000000; stroke-width: 0.8"/>
      </g>
     </g>
     <g id="text_19">
      <!-- $\mathdefault{2}$ -->
      <g transform="translate(253.211767 160.091055)scale(0.1 -0.1)">
       <use xlink:href="#CMR17-32" transform="scale(0.996264)"/>
      </g>
     </g>
    </g>
    <g id="xtick_8">
     <g id="line2d_18">
      <g>
       <use xlink:href="#mb2440bf971" x="288.408964" y="149.172557" style="stroke: #000000; stroke-width: 0.8"/>
      </g>
     </g>
     <g id="text_20">
      <!-- $\mathdefault{4}$ -->
      <g transform="translate(285.918296 160.091055)scale(0.1 -0.1)">
       <use xlink:href="#CMR17-34" transform="scale(0.996264)"/>
      </g>
     </g>
    </g>
    <g id="xtick_9">
     <g id="line2d_19">
      <g>
       <use xlink:href="#mb2440bf971" x="321.115493" y="149.172557" style="stroke: #000000; stroke-width: 0.8"/>
      </g>
     </g>
     <g id="text_21">
      <!-- $\mathdefault{6}$ -->
      <g transform="translate(318.624825 160.091055)scale(0.1 -0.1)">
       <defs>
        <path id="CMR17-36" d="M 678 2198 
C 678 3712 1395 4076 1811 4076 
C 1946 4076 2272 4049 2400 3782 
C 2298 3782 2106 3782 2106 3558 
C 2106 3385 2246 3328 2336 3328 
C 2394 3328 2566 3353 2566 3571 
C 2566 3987 2246 4224 1805 4224 
C 1043 4224 243 3411 243 2011 
C 243 257 966 -128 1478 -128 
C 2099 -128 2688 431 2688 1295 
C 2688 2101 2170 2688 1517 2688 
C 1126 2688 838 2430 678 1979 
L 678 2198 
z
M 1478 25 
C 691 25 691 1212 691 1450 
C 691 1914 909 2585 1504 2585 
C 1613 2585 1926 2585 2138 2140 
C 2253 1889 2253 1624 2253 1302 
C 2253 954 2253 696 2118 438 
C 1978 173 1773 25 1478 25 
z
" transform="scale(0.015625)"/>
       </defs>
       <use xlink:href="#CMR17-36" transform="scale(0.996264)"/>
      </g>
     </g>
    </g>
    <g id="xtick_10">
     <g id="line2d_20">
      <g>
       <use xlink:href="#mb2440bf971" x="353.822022" y="149.172557" style="stroke: #000000; stroke-width: 0.8"/>
      </g>
     </g>
     <g id="text_22">
      <!-- $\mathdefault{8}$ -->
      <g transform="translate(351.331354 160.091055)scale(0.1 -0.1)">
       <use xlink:href="#CMR17-38" transform="scale(0.996264)"/>
      </g>
     </g>
    </g>
    <g id="xtick_11">
     <g id="line2d_21">
      <g>
       <use xlink:href="#mb2440bf971" x="386.528551" y="149.172557" style="stroke: #000000; stroke-width: 0.8"/>
      </g>
     </g>
     <g id="text_23">
      <!-- $\mathdefault{10}$ -->
      <g transform="translate(381.547216 160.091055)scale(0.1 -0.1)">
       <use xlink:href="#CMR17-31" transform="scale(0.996264)"/>
       <use xlink:href="#CMR17-30" transform="translate(45.690477 0)scale(0.996264)"/>
      </g>
     </g>
    </g>
    <g id="text_24">
     <!-- $\alpha$ -->
     <g transform="translate(309.752301 172.946732)scale(0.1 -0.1)">
      <use xlink:href="#CMMI12-b" transform="scale(0.996264)"/>
     </g>
    </g>
   </g>
   <g id="matplotlib.axis_4">
    <g id="ytick_6">
     <g id="line2d_22">
      <g>
       <use xlink:href="#m5498417be1" x="231.990201" y="133.849169" style="stroke: #000000; stroke-width: 0.8"/>
      </g>
     </g>
    </g>
    <g id="ytick_7">
     <g id="line2d_23">
      <g>
       <use xlink:href="#m5498417be1" x="231.990201" y="102.931569" style="stroke: #000000; stroke-width: 0.8"/>
      </g>
     </g>
    </g>
    <g id="ytick_8">
     <g id="line2d_24">
      <g>
       <use xlink:href="#m5498417be1" x="231.990201" y="72.013969" style="stroke: #000000; stroke-width: 0.8"/>
      </g>
     </g>
    </g>
    <g id="ytick_9">
     <g id="line2d_25">
      <g>
       <use xlink:href="#m5498417be1" x="231.990201" y="41.096368" style="stroke: #000000; stroke-width: 0.8"/>
      </g>
     </g>
    </g>
    <g id="ytick_10">
     <g id="line2d_26">
      <g>
       <use xlink:href="#m5498417be1" x="231.990201" y="10.178768" style="stroke: #000000; stroke-width: 0.8"/>
      </g>
     </g>
    </g>
    <g id="text_25">
     <!-- $C_0(\alpha)$ -->
     <g transform="translate(223.499541 89.260592)rotate(-90)scale(0.1 -0.1)">
      <use xlink:href="#CMMI12-43" transform="scale(0.996264)"/>
      <use xlink:href="#CMR17-30" transform="translate(69.792037 -14.943915)scale(0.697382)"/>
      <use xlink:href="#CMR17-28" transform="translate(102.273351 0)scale(0.996264)"/>
      <use xlink:href="#CMMI12-b" transform="translate(137.554118 0)scale(0.996264)"/>
      <use xlink:href="#CMR17-29" transform="translate(200.235141 0)scale(0.996264)"/>
     </g>
    </g>
   </g>
   <g id="line2d_27">
    <path d="M 239.34917 25.984377 
L 242.148377 23.460439 
L 244.947585 21.243033 
L 247.599465 19.425089 
L 250.251346 17.88226 
L 252.7559 16.677758 
L 255.260454 15.718651 
L 257.765008 15.004939 
L 260.122236 14.557378 
L 262.479463 14.327192 
L 265.27867 14.295504 
L 274.854906 14.183574 
L 308.445396 13.507641 
L 345.571726 13.262191 
L 386.528551 13.125684 
L 386.528551 13.125684 
" clip-path="url(#pe82c8ce4b9)" style="fill: none; stroke-dasharray: 1.85,0.8; stroke-dashoffset: 0; stroke: #442a58; stroke-width: 0.5; stroke-linecap: round"/>
   </g>
   <g id="line2d_28">
    <path d="M 239.34917 47.845517 
L 241.853724 43.180159 
L 244.210951 39.228961 
L 246.568179 35.704165 
L 248.778079 32.786928 
L 250.98798 30.244459 
L 253.050554 28.209612 
L 254.965801 26.612429 
L 256.881048 25.296738 
L 258.796295 24.26254 
L 260.564216 23.55774 
L 262.332136 23.092791 
L 264.100057 22.86579 
L 277.654114 21.713455 
L 289.292924 20.735553 
L 297.395893 20.31757 
L 315.369751 19.714598 
L 336.584797 19.238052 
L 367.965386 18.771945 
L 386.528551 18.565648 
L 386.528551 18.565648 
" clip-path="url(#pe82c8ce4b9)" style="fill: none; stroke-dasharray: 1.85,0.8; stroke-dashoffset: 0; stroke: #035089; stroke-width: 0.5; stroke-linecap: round"/>
   </g>
   <g id="line2d_29">
    <path d="M 239.34917 75.673377 
L 241.853724 68.81711 
L 244.210951 62.973919 
L 246.568179 57.722016 
L 248.778079 53.335366 
L 250.840653 49.710032 
L 252.903227 46.537403 
L 254.818474 43.996745 
L 256.586395 41.997981 
L 258.354315 40.331816 
L 259.974909 39.096678 
L 261.595503 38.141015 
L 263.06877 37.514751 
L 264.83669 37.021131 
L 272.497679 35.170192 
L 280.158668 33.550495 
L 286.34639 32.449002 
L 292.534111 31.576017 
L 299.016486 30.894027 
L 310.360643 29.936183 
L 323.325393 29.080204 
L 338.942024 28.276056 
L 359.27311 27.450732 
L 386.086571 26.594179 
L 386.528551 26.581765 
L 386.528551 26.581765 
" clip-path="url(#pe82c8ce4b9)" style="fill: none; stroke-dasharray: 1.85,0.8; stroke-dashoffset: 0; stroke: #0075a0; stroke-width: 0.5; stroke-linecap: round"/>
   </g>
   <g id="line2d_30">
    <path d="M 239.34917 107.617473 
L 242.001051 98.784134 
L 244.505605 91.216432 
L 246.862832 84.781526 
L 249.072733 79.354392 
L 251.282633 74.513313 
L 253.345207 70.523724 
L 255.260454 67.276229 
L 257.175701 64.468927 
L 258.943622 62.268274 
L 260.564216 60.580502 
L 262.18481 59.207898 
L 263.658077 58.233568 
L 267.193918 56.364413 
L 271.761046 54.175224 
L 276.328173 52.235983 
L 280.747975 50.596902 
L 285.757083 48.979468 
L 290.766191 47.591018 
L 295.775299 46.431552 
L 302.846981 45.07276 
L 310.94995 43.728616 
L 320.231532 42.429685 
L 330.691729 41.183109 
L 343.951132 39.844644 
L 359.27311 38.538631 
L 377.394295 37.227122 
L 386.528551 36.64183 
L 386.528551 36.64183 
" clip-path="url(#pe82c8ce4b9)" style="fill: none; stroke-dasharray: 1.85,0.8; stroke-dashoffset: 0; stroke: #24957f; stroke-width: 0.5; stroke-linecap: round"/>
   </g>
   <g id="line2d_31">
    <path d="M 239.34917 142.555623 
L 242.148377 132.590864 
L 244.800258 123.982003 
L 247.304812 116.594212 
L 249.662039 110.300154 
L 252.019267 104.645278 
L 254.229167 99.92434 
L 256.291741 96.024982 
L 258.206988 92.842339 
L 260.122236 90.081657 
L 261.890156 87.907855 
L 263.658077 86.093594 
L 266.899264 83.268666 
L 270.729759 80.206222 
L 274.412926 77.540847 
L 278.096094 75.149279 
L 281.779262 73.022524 
L 286.199063 70.717831 
L 290.618864 68.660591 
L 295.038665 66.850804 
L 300.047773 65.058011 
L 306.382822 63.01127 
L 312.71787 61.199413 
L 320.673513 59.189974 
L 328.629155 57.409712 
L 338.205391 55.519831 
L 348.07628 53.794636 
L 359.71509 51.990031 
L 372.67984 50.216727 
L 386.528551 48.542762 
L 386.528551 48.542762 
" clip-path="url(#pe82c8ce4b9)" style="fill: none; stroke-dasharray: 1.85,0.8; stroke-dashoffset: 0; stroke: #3cb371; stroke-width: 0.5; stroke-linecap: round"/>
   </g>
   <g id="patch_8">
    <path d="M 231.990201 149.172557 
L 231.990201 3.6 
" style="fill: none; stroke: #000000; stroke-width: 0.8; stroke-linejoin: miter; stroke-linecap: square"/>
   </g>
   <g id="patch_9">
    <path d="M 393.88752 149.172557 
L 393.88752 3.6 
" style="fill: none; stroke: #000000; stroke-width: 0.8; stroke-linejoin: miter; stroke-linecap: square"/>
   </g>
   <g id="patch_10">
    <path d="M 231.990201 149.172557 
L 393.88752 149.172557 
" style="fill: none; stroke: #000000; stroke-width: 0.8; stroke-linejoin: miter; stroke-linecap: square"/>
   </g>
   <g id="patch_11">
    <path d="M 231.990201 3.6 
L 393.88752 3.6 
" style="fill: none; stroke: #000000; stroke-width: 0.8; stroke-linejoin: miter; stroke-linecap: square"/>
   </g>
   <g id="legend_2">
    <g id="PathCollection_11">
     <defs>
      <path id="m94208a4794" d="M 1.581139 0 
L -1.581139 -1.581139 
L -1.581139 1.581139 
z
" style="stroke: #442a58; stroke-width: 0.5"/>
     </defs>
     <g>
      <use xlink:href="#m94208a4794" x="318.261502" y="84.425087" style="fill: #a194ab; stroke: #442a58; stroke-width: 0.5"/>
     </g>
    </g>
    <g id="text_26">
     <!-- $V/J=-0.45$ -->
     <g transform="translate(327.761502 85.831337)scale(0.1 -0.1)">
      <defs>
       <path id="CMMI12-56" d="M 3962 3644 
C 4179 3987 4378 4140 4704 4166 
C 4768 4172 4819 4172 4819 4287 
C 4819 4313 4806 4352 4749 4352 
C 4634 4352 4358 4339 4243 4339 
C 4058 4339 3866 4352 3686 4352 
C 3635 4352 3571 4352 3571 4230 
C 3571 4172 3629 4166 3654 4166 
C 3891 4146 3917 4032 3917 3956 
C 3917 3860 3827 3714 3821 3708 
L 1811 540 
L 1363 3968 
C 1363 4153 1696 4166 1766 4166 
C 1862 4166 1920 4166 1920 4287 
C 1920 4352 1850 4352 1830 4352 
C 1722 4352 1594 4339 1485 4339 
L 1126 4339 
C 659 4339 467 4352 461 4352 
C 422 4352 346 4352 346 4236 
C 346 4166 390 4166 493 4166 
C 819 4166 838 4108 858 3949 
L 1370 25 
C 1389 -109 1389 -128 1478 -128 
C 1555 -128 1587 -109 1651 -7 
L 3962 3644 
z
" transform="scale(0.015625)"/>
       <path id="CMMI12-3d" d="M 2746 4563 
C 2746 4569 2784 4665 2784 4678 
C 2784 4755 2720 4800 2669 4800 
C 2637 4800 2579 4800 2528 4659 
L 384 -1364 
C 384 -1370 346 -1466 346 -1479 
C 346 -1556 410 -1600 461 -1600 
C 499 -1600 557 -1594 602 -1460 
L 2746 4563 
z
" transform="scale(0.015625)"/>
       <path id="CMMI12-4a" d="M 3418 3911 
C 3469 4102 3482 4166 3795 4166 
C 3898 4166 3962 4166 3962 4281 
C 3962 4352 3904 4352 3878 4352 
C 3770 4352 3648 4339 3533 4339 
L 3181 4339 
C 2912 4339 2630 4352 2362 4352 
C 2304 4352 2227 4352 2227 4236 
C 2227 4172 2278 4172 2278 4166 
L 2438 4166 
C 2950 4166 2950 4115 2950 4019 
C 2950 4013 2950 3968 2925 3866 
L 2189 953 
C 2022 304 1594 0 1286 0 
C 1069 0 762 99 685 428 
C 710 422 742 415 768 415 
C 979 415 1146 601 1146 787 
C 1146 889 1082 1024 890 1024 
C 774 1024 506 959 506 543 
C 506 149 838 -128 1299 -128 
C 1882 -128 2509 304 2662 908 
L 3418 3911 
z
" transform="scale(0.015625)"/>
       <path id="CMSY10-0" d="M 4218 1472 
C 4326 1472 4442 1472 4442 1600 
C 4442 1728 4326 1728 4218 1728 
L 755 1728 
C 646 1728 531 1728 531 1600 
C 531 1472 646 1472 755 1472 
L 4218 1472 
z
" transform="scale(0.015625)"/>
      </defs>
      <use xlink:href="#CMMI12-56" transform="scale(0.996264)"/>
      <use xlink:href="#CMMI12-3d" transform="translate(67.70845 0)scale(0.996264)"/>
      <use xlink:href="#CMMI12-4a" transform="translate(116.483369 0)scale(0.996264)"/>
      <use xlink:href="#CMR17-3d" transform="translate(207.300048 0)scale(0.996264)"/>
      <use xlink:href="#CMSY10-0" transform="translate(306.688845 0)scale(0.996264)"/>
      <use xlink:href="#CMR17-30" transform="translate(384.176313 0)scale(0.996264)"/>
      <use xlink:href="#CMMI12-3a" transform="translate(429.86679 0)scale(0.996264)"/>
      <use xlink:href="#CMR17-34" transform="translate(456.963967 0)scale(0.996264)"/>
      <use xlink:href="#CMR17-35" transform="translate(502.654444 0)scale(0.996264)"/>
     </g>
    </g>
    <g id="PathCollection_12">
     <defs>
      <path id="m25f019f396" d="M -1.581139 1.581139 
L 1.581139 1.581139 
L 1.581139 -1.581139 
L -1.581139 -1.581139 
z
" style="stroke: #035089; stroke-width: 0.5"/>
     </defs>
     <g>
      <use xlink:href="#m25f019f396" x="318.261502" y="97.387727" style="fill: #80a7c3; stroke: #035089; stroke-width: 0.5"/>
     </g>
    </g>
    <g id="text_27">
     <!-- $V/J=-0.75$ -->
     <g transform="translate(327.761502 98.793977)scale(0.1 -0.1)">
      <defs>
       <path id="CMR17-37" d="M 2886 3955 
L 2886 4096 
L 1382 4096 
C 634 4096 621 4166 595 4288 
L 480 4288 
L 294 3104 
L 410 3104 
C 429 3226 474 3552 550 3673 
C 589 3724 1062 3724 1171 3724 
L 2579 3724 
L 1869 2670 
C 1395 1961 1069 1003 1069 166 
C 1069 89 1069 -128 1299 -128 
C 1530 -128 1530 89 1530 172 
L 1530 466 
C 1530 1514 1709 2204 2003 2644 
L 2886 3955 
z
" transform="scale(0.015625)"/>
      </defs>
      <use xlink:href="#CMMI12-56" transform="scale(0.996264)"/>
      <use xlink:href="#CMMI12-3d" transform="translate(67.70845 0)scale(0.996264)"/>
      <use xlink:href="#CMMI12-4a" transform="translate(116.483369 0)scale(0.996264)"/>
      <use xlink:href="#CMR17-3d" transform="translate(207.300048 0)scale(0.996264)"/>
      <use xlink:href="#CMSY10-0" transform="translate(306.688845 0)scale(0.996264)"/>
      <use xlink:href="#CMR17-30" transform="translate(384.176313 0)scale(0.996264)"/>
      <use xlink:href="#CMMI12-3a" transform="translate(429.86679 0)scale(0.996264)"/>
      <use xlink:href="#CMR17-37" transform="translate(456.963967 0)scale(0.996264)"/>
      <use xlink:href="#CMR17-35" transform="translate(502.654444 0)scale(0.996264)"/>
     </g>
    </g>
    <g id="PathCollection_13">
     <defs>
      <path id="mb14fa6e5ba" d="M 0 2.236068 
L 2.236068 0 
L 0 -2.236068 
L -2.236068 0 
z
" style="stroke: #0075a0; stroke-width: 0.5"/>
     </defs>
     <g>
      <use xlink:href="#mb14fa6e5ba" x="318.261502" y="110.350367" style="fill: #7fb9cf; stroke: #0075a0; stroke-width: 0.5"/>
     </g>
    </g>
    <g id="text_28">
     <!-- $V/J=-1.05$ -->
     <g transform="translate(327.761502 111.756617)scale(0.1 -0.1)">
      <use xlink:href="#CMMI12-56" transform="scale(0.996264)"/>
      <use xlink:href="#CMMI12-3d" transform="translate(67.70845 0)scale(0.996264)"/>
      <use xlink:href="#CMMI12-4a" transform="translate(116.483369 0)scale(0.996264)"/>
      <use xlink:href="#CMR17-3d" transform="translate(207.300048 0)scale(0.996264)"/>
      <use xlink:href="#CMSY10-0" transform="translate(306.688845 0)scale(0.996264)"/>
      <use xlink:href="#CMR17-31" transform="translate(384.176313 0)scale(0.996264)"/>
      <use xlink:href="#CMMI12-3a" transform="translate(429.86679 0)scale(0.996264)"/>
      <use xlink:href="#CMR17-30" transform="translate(456.963967 0)scale(0.996264)"/>
      <use xlink:href="#CMR17-35" transform="translate(502.654444 0)scale(0.996264)"/>
     </g>
    </g>
    <g id="PathCollection_14">
     <defs>
      <path id="m834238efe5" d="M 0 1.581139 
C 0.419323 1.581139 0.821528 1.41454 1.118034 1.118034 
C 1.41454 0.821528 1.581139 0.419323 1.581139 0 
C 1.581139 -0.419323 1.41454 -0.821528 1.118034 -1.118034 
C 0.821528 -1.41454 0.419323 -1.581139 0 -1.581139 
C -0.419323 -1.581139 -0.821528 -1.41454 -1.118034 -1.118034 
C -1.41454 -0.821528 -1.581139 -0.419323 -1.581139 0 
C -1.581139 0.419323 -1.41454 0.821528 -1.118034 1.118034 
C -0.821528 1.41454 -0.419323 1.581139 0 1.581139 
z
" style="stroke: #24957f; stroke-width: 0.5"/>
     </defs>
     <g>
      <use xlink:href="#m834238efe5" x="318.261502" y="123.313007" style="fill: #91c9be; stroke: #24957f; stroke-width: 0.5"/>
     </g>
    </g>
    <g id="text_29">
     <!-- $V/J=-1.35$ -->
     <g transform="translate(327.761502 124.719257)scale(0.1 -0.1)">
      <use xlink:href="#CMMI12-56" transform="scale(0.996264)"/>
      <use xlink:href="#CMMI12-3d" transform="translate(67.70845 0)scale(0.996264)"/>
      <use xlink:href="#CMMI12-4a" transform="translate(116.483369 0)scale(0.996264)"/>
      <use xlink:href="#CMR17-3d" transform="translate(207.300048 0)scale(0.996264)"/>
      <use xlink:href="#CMSY10-0" transform="translate(306.688845 0)scale(0.996264)"/>
      <use xlink:href="#CMR17-31" transform="translate(384.176313 0)scale(0.996264)"/>
      <use xlink:href="#CMMI12-3a" transform="translate(429.86679 0)scale(0.996264)"/>
      <use xlink:href="#CMR17-33" transform="translate(456.963967 0)scale(0.996264)"/>
      <use xlink:href="#CMR17-35" transform="translate(502.654444 0)scale(0.996264)"/>
     </g>
    </g>
    <g id="PathCollection_15">
     <defs>
      <path id="m67bf45d35b" d="M 0 -1.581139 
L -1.581139 1.581139 
L 1.581139 1.581139 
z
" style="stroke: #3cb371; stroke-width: 0.5"/>
     </defs>
     <g>
      <use xlink:href="#m67bf45d35b" x="318.261502" y="136.275647" style="fill: #9dd8b7; stroke: #3cb371; stroke-width: 0.5"/>
     </g>
    </g>
    <g id="text_30">
     <!-- $V/J=-1.65$ -->
     <g transform="translate(327.761502 137.681897)scale(0.1 -0.1)">
      <use xlink:href="#CMMI12-56" transform="scale(0.996264)"/>
      <use xlink:href="#CMMI12-3d" transform="translate(67.70845 0)scale(0.996264)"/>
      <use xlink:href="#CMMI12-4a" transform="translate(116.483369 0)scale(0.996264)"/>
      <use xlink:href="#CMR17-3d" transform="translate(207.300048 0)scale(0.996264)"/>
      <use xlink:href="#CMSY10-0" transform="translate(306.688845 0)scale(0.996264)"/>
      <use xlink:href="#CMR17-31" transform="translate(384.176313 0)scale(0.996264)"/>
      <use xlink:href="#CMMI12-3a" transform="translate(429.86679 0)scale(0.996264)"/>
      <use xlink:href="#CMR17-36" transform="translate(456.963967 0)scale(0.996264)"/>
      <use xlink:href="#CMR17-35" transform="translate(502.654444 0)scale(0.996264)"/>
     </g>
    </g>
   </g>
   <g id="PathCollection_16">
    <g clip-path="url(#pe82c8ce4b9)">
     <use xlink:href="#m94208a4794" x="239.34917" y="25.984377" style="fill: #a194ab; stroke: #442a58; stroke-width: 0.5"/>
     <use xlink:href="#m94208a4794" x="255.702434" y="15.57487" style="fill: #a194ab; stroke: #442a58; stroke-width: 0.5"/>
     <use xlink:href="#m94208a4794" x="272.055699" y="14.23913" style="fill: #a194ab; stroke: #442a58; stroke-width: 0.5"/>
     <use xlink:href="#m94208a4794" x="288.408964" y="13.778428" style="fill: #a194ab; stroke: #442a58; stroke-width: 0.5"/>
     <use xlink:href="#m94208a4794" x="304.762228" y="13.544169" style="fill: #a194ab; stroke: #442a58; stroke-width: 0.5"/>
     <use xlink:href="#m94208a4794" x="321.115493" y="13.39986" style="fill: #a194ab; stroke: #442a58; stroke-width: 0.5"/>
     <use xlink:href="#m94208a4794" x="337.468757" y="13.300829" style="fill: #a194ab; stroke: #442a58; stroke-width: 0.5"/>
     <use xlink:href="#m94208a4794" x="353.822022" y="13.228006" style="fill: #a194ab; stroke: #442a58; stroke-width: 0.5"/>
     <use xlink:href="#m94208a4794" x="370.175286" y="13.171909" style="fill: #a194ab; stroke: #442a58; stroke-width: 0.5"/>
     <use xlink:href="#m94208a4794" x="386.528551" y="13.125684" style="fill: #a194ab; stroke: #442a58; stroke-width: 0.5"/>
    </g>
   </g>
   <g id="PathCollection_17">
    <g clip-path="url(#pe82c8ce4b9)">
     <use xlink:href="#m25f019f396" x="239.34917" y="47.845517" style="fill: #80a7c3; stroke: #035089; stroke-width: 0.5"/>
     <use xlink:href="#m25f019f396" x="255.702434" y="26.073082" style="fill: #80a7c3; stroke: #035089; stroke-width: 0.5"/>
     <use xlink:href="#m25f019f396" x="272.055699" y="22.216692" style="fill: #80a7c3; stroke: #035089; stroke-width: 0.5"/>
     <use xlink:href="#m25f019f396" x="288.408964" y="20.794686" style="fill: #80a7c3; stroke: #035089; stroke-width: 0.5"/>
     <use xlink:href="#m25f019f396" x="304.762228" y="20.043424" style="fill: #80a7c3; stroke: #035089; stroke-width: 0.5"/>
     <use xlink:href="#m25f019f396" x="321.115493" y="19.564147" style="fill: #80a7c3; stroke: #035089; stroke-width: 0.5"/>
     <use xlink:href="#m25f019f396" x="337.468757" y="19.221883" style="fill: #80a7c3; stroke: #035089; stroke-width: 0.5"/>
     <use xlink:href="#m25f019f396" x="353.822022" y="18.958608" style="fill: #80a7c3; stroke: #035089; stroke-width: 0.5"/>
     <use xlink:href="#m25f019f396" x="370.175286" y="18.745252" style="fill: #80a7c3; stroke: #035089; stroke-width: 0.5"/>
     <use xlink:href="#m25f019f396" x="386.528551" y="18.565648" style="fill: #80a7c3; stroke: #035089; stroke-width: 0.5"/>
    </g>
   </g>
   <g id="PathCollection_18">
    <g clip-path="url(#pe82c8ce4b9)">
     <use xlink:href="#mb14fa6e5ba" x="239.34917" y="75.673377" style="fill: #7fb9cf; stroke: #0075a0; stroke-width: 0.5"/>
     <use xlink:href="#mb14fa6e5ba" x="255.702434" y="42.955788" style="fill: #7fb9cf; stroke: #0075a0; stroke-width: 0.5"/>
     <use xlink:href="#mb14fa6e5ba" x="272.055699" y="35.270691" style="fill: #7fb9cf; stroke: #0075a0; stroke-width: 0.5"/>
     <use xlink:href="#mb14fa6e5ba" x="288.408964" y="32.132617" style="fill: #7fb9cf; stroke: #0075a0; stroke-width: 0.5"/>
     <use xlink:href="#mb14fa6e5ba" x="304.762228" y="30.381091" style="fill: #7fb9cf; stroke: #0075a0; stroke-width: 0.5"/>
     <use xlink:href="#mb14fa6e5ba" x="321.115493" y="29.212626" style="fill: #7fb9cf; stroke: #0075a0; stroke-width: 0.5"/>
     <use xlink:href="#mb14fa6e5ba" x="337.468757" y="28.344567" style="fill: #7fb9cf; stroke: #0075a0; stroke-width: 0.5"/>
     <use xlink:href="#mb14fa6e5ba" x="353.822022" y="27.653679" style="fill: #7fb9cf; stroke: #0075a0; stroke-width: 0.5"/>
     <use xlink:href="#mb14fa6e5ba" x="370.175286" y="27.077725" style="fill: #7fb9cf; stroke: #0075a0; stroke-width: 0.5"/>
     <use xlink:href="#mb14fa6e5ba" x="386.528551" y="26.581765" style="fill: #7fb9cf; stroke: #0075a0; stroke-width: 0.5"/>
    </g>
   </g>
   <g id="PathCollection_19">
    <g clip-path="url(#pe82c8ce4b9)">
     <use xlink:href="#m834238efe5" x="239.34917" y="107.617473" style="fill: #91c9be; stroke: #24957f; stroke-width: 0.5"/>
     <use xlink:href="#m834238efe5" x="255.702434" y="66.58932" style="fill: #91c9be; stroke: #24957f; stroke-width: 0.5"/>
     <use xlink:href="#m834238efe5" x="272.055699" y="54.042569" style="fill: #91c9be; stroke: #24957f; stroke-width: 0.5"/>
     <use xlink:href="#m834238efe5" x="288.408964" y="48.215882" style="fill: #91c9be; stroke: #24957f; stroke-width: 0.5"/>
     <use xlink:href="#m834238efe5" x="304.762228" y="44.73475" style="fill: #91c9be; stroke: #24957f; stroke-width: 0.5"/>
     <use xlink:href="#m834238efe5" x="321.115493" y="42.315591" style="fill: #91c9be; stroke: #24957f; stroke-width: 0.5"/>
     <use xlink:href="#m834238efe5" x="337.468757" y="40.471177" style="fill: #91c9be; stroke: #24957f; stroke-width: 0.5"/>
     <use xlink:href="#m834238efe5" x="353.822022" y="38.979629" style="fill: #91c9be; stroke: #24957f; stroke-width: 0.5"/>
     <use xlink:href="#m834238efe5" x="370.175286" y="37.725396" style="fill: #91c9be; stroke: #24957f; stroke-width: 0.5"/>
     <use xlink:href="#m834238efe5" x="386.528551" y="36.64183" style="fill: #91c9be; stroke: #24957f; stroke-width: 0.5"/>
    </g>
   </g>
   <g id="PathCollection_20">
    <g clip-path="url(#pe82c8ce4b9)">
     <use xlink:href="#m67bf45d35b" x="239.34917" y="142.555623" style="fill: #9dd8b7; stroke: #3cb371; stroke-width: 0.5"/>
     <use xlink:href="#m67bf45d35b" x="255.702434" y="97.089148" style="fill: #9dd8b7; stroke: #3cb371; stroke-width: 0.5"/>
     <use xlink:href="#m67bf45d35b" x="272.055699" y="79.215144" style="fill: #9dd8b7; stroke: #3cb371; stroke-width: 0.5"/>
     <use xlink:href="#m67bf45d35b" x="288.408964" y="69.65828" style="fill: #9dd8b7; stroke: #3cb371; stroke-width: 0.5"/>
     <use xlink:href="#m67bf45d35b" x="304.762228" y="63.512497" style="fill: #9dd8b7; stroke: #3cb371; stroke-width: 0.5"/>
     <use xlink:href="#m67bf45d35b" x="321.115493" y="59.08506" style="fill: #9dd8b7; stroke: #3cb371; stroke-width: 0.5"/>
     <use xlink:href="#m67bf45d35b" x="337.468757" y="55.657568" style="fill: #9dd8b7; stroke: #3cb371; stroke-width: 0.5"/>
     <use xlink:href="#m67bf45d35b" x="353.822022" y="52.875723" style="fill: #9dd8b7; stroke: #3cb371; stroke-width: 0.5"/>
     <use xlink:href="#m67bf45d35b" x="370.175286" y="50.543612" style="fill: #9dd8b7; stroke: #3cb371; stroke-width: 0.5"/>
     <use xlink:href="#m67bf45d35b" x="386.528551" y="48.542762" style="fill: #9dd8b7; stroke: #3cb371; stroke-width: 0.5"/>
    </g>
   </g>
  </g>
 </g>
 <defs>
  <clipPath id="p01b512d608">
   <rect x="39.274054" y="3.6" width="161.897319" height="145.572557"/>
  </clipPath>
  <clipPath id="pe82c8ce4b9">
   <rect x="231.990201" y="3.6" width="161.897319" height="145.572557"/>
  </clipPath>
 </defs>
</svg>
