<?xml version="1.0" encoding="utf-8" standalone="no"?>
<!DOCTYPE svg PUBLIC "-//W3C//DTD SVG 1.1//EN"
  "http://www.w3.org/Graphics/SVG/1.1/DTD/svg11.dtd">
<svg xmlns:xlink="http://www.w3.org/1999/xlink" width="397.48752pt" height="178.48391pt" viewBox="0 0 397.48752 178.48391" xmlns="http://www.w3.org/2000/svg" version="1.1">
 <metadata>
  <rdf:RDF xmlns:dc="http://purl.org/dc/elements/1.1/" xmlns:cc="http://creativecommons.org/ns#" xmlns:rdf="http://www.w3.org/1999/02/22-rdf-syntax-ns#">
   <cc:Work>
    <dc:type rdf:resource="http://purl.org/dc/dcmitype/StillImage"/>
    <dc:date>2023-01-17T13:27:11.458139</dc:date>
    <dc:format>image/svg+xml</dc:format>
    <dc:creator>
     <cc:Agent>
      <dc:title>Matplotlib v3.5.2, https://matplotlib.org/</dc:title>
     </cc:Agent>
    </dc:creator>
   </cc:Work>
  </rdf:RDF>
 </metadata>
 <defs>
  <style type="text/css">*{stroke-linejoin: round; stroke-linecap: butt}</style>
 </defs>
 <g id="figure_1">
  <g id="patch_1">
   <path d="M 0 178.48391 
L 397.48752 178.48391 
L 397.48752 0 
L 0 0 
L 0 178.48391 
z
" style="fill: none"/>
  </g>
  <g id="axes_1">
   <g id="patch_2">
    <path d="M 33.185756 149.172557 
L 209.536398 149.172557 
L 209.536398 3.6 
L 33.185756 3.6 
L 33.185756 149.172557 
z
" style="fill: none"/>
   </g>
   <g id="matplotlib.axis_1">
    <g id="xtick_1">
     <g id="line2d_1">
      <defs>
       <path id="m487be7f229" d="M 0 0 
L 0 2 
" style="stroke: #000000; stroke-width: 0.8"/>
      </defs>
      <g>
       <use xlink:href="#m487be7f229" x="41.201694" y="149.172557" style="stroke: #000000; stroke-width: 0.8"/>
      </g>
     </g>
     <g id="text_1">
      <!-- $\mathdefault{1}$ -->
      <g transform="translate(38.711026 160.091055)scale(0.1 -0.1)">
       <defs>
        <path id="CMR17-31" d="M 1702 4083 
C 1702 4217 1696 4224 1606 4224 
C 1357 3927 979 3833 621 3820 
C 602 3820 570 3820 563 3808 
C 557 3795 557 3782 557 3648 
C 755 3648 1088 3686 1344 3839 
L 1344 467 
C 1344 243 1331 166 781 166 
L 589 166 
L 589 0 
C 896 6 1216 12 1523 12 
C 1830 12 2150 6 2458 0 
L 2458 166 
L 2266 166 
C 1715 166 1702 236 1702 467 
L 1702 4083 
z
" transform="scale(0.015625)"/>
       </defs>
       <use xlink:href="#CMR17-31" transform="scale(0.996264)"/>
      </g>
     </g>
    </g>
    <g id="xtick_2">
     <g id="line2d_2">
      <g>
       <use xlink:href="#m487be7f229" x="94.641282" y="149.172557" style="stroke: #000000; stroke-width: 0.8"/>
      </g>
     </g>
     <g id="text_2">
      <!-- $\mathdefault{2}$ -->
      <g transform="translate(92.150615 160.091055)scale(0.1 -0.1)">
       <defs>
        <path id="CMR17-32" d="M 2669 990 
L 2554 990 
C 2490 537 2438 460 2413 422 
C 2381 371 1920 371 1830 371 
L 602 371 
C 832 620 1280 1073 1824 1596 
C 2214 1966 2669 2400 2669 3033 
C 2669 3788 2067 4224 1395 4224 
C 691 4224 262 3603 262 3027 
C 262 2777 448 2745 525 2745 
C 589 2745 781 2783 781 3007 
C 781 3206 614 3264 525 3264 
C 486 3264 448 3257 422 3244 
C 544 3788 915 4057 1306 4057 
C 1862 4057 2227 3616 2227 3033 
C 2227 2477 1901 1998 1536 1583 
L 262 147 
L 262 0 
L 2515 0 
L 2669 990 
z
" transform="scale(0.015625)"/>
       </defs>
       <use xlink:href="#CMR17-32" transform="scale(0.996264)"/>
      </g>
     </g>
    </g>
    <g id="xtick_3">
     <g id="line2d_3">
      <g>
       <use xlink:href="#m487be7f229" x="148.080871" y="149.172557" style="stroke: #000000; stroke-width: 0.8"/>
      </g>
     </g>
     <g id="text_3">
      <!-- $\mathdefault{3}$ -->
      <g transform="translate(145.590203 160.091055)scale(0.1 -0.1)">
       <defs>
        <path id="CMR17-33" d="M 1414 2176 
C 1984 2176 2234 1673 2234 1094 
C 2234 322 1824 25 1453 25 
C 1114 25 563 193 390 691 
C 422 678 454 678 486 678 
C 640 678 755 780 755 947 
C 755 1132 614 1216 486 1216 
C 378 1216 211 1164 211 927 
C 211 335 787 -128 1466 -128 
C 2176 -128 2720 432 2720 1087 
C 2720 1718 2208 2176 1600 2246 
C 2086 2347 2554 2776 2554 3353 
C 2554 3856 2048 4224 1472 4224 
C 890 4224 378 3862 378 3347 
C 378 3123 544 3084 627 3084 
C 762 3084 877 3167 877 3334 
C 877 3500 762 3584 627 3584 
C 602 3584 570 3584 544 3571 
C 730 3999 1235 4076 1459 4076 
C 1683 4076 2106 3966 2106 3347 
C 2106 3167 2080 2851 1862 2574 
C 1670 2329 1453 2316 1242 2297 
C 1210 2297 1062 2284 1037 2284 
C 992 2278 966 2272 966 2227 
C 966 2182 973 2176 1101 2176 
L 1414 2176 
z
" transform="scale(0.015625)"/>
       </defs>
       <use xlink:href="#CMR17-33" transform="scale(0.996264)"/>
      </g>
     </g>
    </g>
    <g id="xtick_4">
     <g id="line2d_4">
      <g>
       <use xlink:href="#m487be7f229" x="201.52046" y="149.172557" style="stroke: #000000; stroke-width: 0.8"/>
      </g>
     </g>
     <g id="text_4">
      <!-- $\mathdefault{4}$ -->
      <g transform="translate(199.029792 160.091055)scale(0.1 -0.1)">
       <defs>
        <path id="CMR17-34" d="M 2150 4147 
C 2150 4281 2144 4288 2029 4288 
L 128 1254 
L 128 1088 
L 1779 1088 
L 1779 460 
C 1779 230 1766 166 1318 166 
L 1197 166 
L 1197 0 
C 1402 12 1747 12 1965 12 
C 2182 12 2528 12 2733 0 
L 2733 166 
L 2611 166 
C 2163 166 2150 230 2150 460 
L 2150 1088 
L 2803 1088 
L 2803 1254 
L 2150 1254 
L 2150 4147 
z
M 1798 3723 
L 1798 1254 
L 256 1254 
L 1798 3723 
z
" transform="scale(0.015625)"/>
       </defs>
       <use xlink:href="#CMR17-34" transform="scale(0.996264)"/>
      </g>
     </g>
    </g>
    <g id="text_5">
     <!-- $n$ -->
     <g transform="translate(118.371114 172.946732)scale(0.1 -0.1)">
      <defs>
       <path id="CMMI12-6e" d="M 1318 1870 
C 1331 1909 1491 2228 1728 2432 
C 1894 2585 2112 2687 2362 2687 
C 2618 2687 2707 2496 2707 2241 
C 2707 1877 2445 1149 2317 804 
C 2259 651 2227 568 2227 453 
C 2227 166 2426 -64 2733 -64 
C 3328 -64 3552 874 3552 913 
C 3552 945 3526 970 3488 970 
C 3430 970 3424 951 3392 842 
C 3245 319 3002 64 2752 64 
C 2688 64 2586 70 2586 274 
C 2586 434 2656 625 2694 715 
C 2822 1066 3091 1781 3091 2145 
C 3091 2528 2867 2816 2381 2816 
C 1811 2816 1510 2413 1395 2253 
C 1376 2617 1114 2816 832 2816 
C 627 2816 486 2694 378 2477 
C 262 2247 173 1864 173 1838 
C 173 1813 198 1781 243 1781 
C 294 1781 301 1787 339 1934 
C 442 2324 557 2687 813 2687 
C 960 2687 1011 2585 1011 2394 
C 1011 2253 947 2004 902 1807 
L 723 1117 
C 698 996 627 708 595 593 
C 550 427 480 127 480 95 
C 480 6 550 -64 646 -64 
C 723 -64 813 -26 864 70 
C 877 102 934 325 966 453 
L 1107 1028 
L 1318 1870 
z
" transform="scale(0.015625)"/>
      </defs>
      <use xlink:href="#CMMI12-6e" transform="scale(0.996264)"/>
     </g>
    </g>
   </g>
   <g id="matplotlib.axis_2">
    <g id="ytick_1">
     <g id="line2d_5">
      <defs>
       <path id="mde870412e0" d="M 0 0 
L -2 0 
" style="stroke: #000000; stroke-width: 0.8"/>
      </defs>
      <g>
       <use xlink:href="#mde870412e0" x="33.185756" y="147.910978" style="stroke: #000000; stroke-width: 0.8"/>
      </g>
     </g>
     <g id="text_6">
      <!-- $\mathdefault{0.0}$ -->
      <g transform="translate(16.455677 151.370227)scale(0.1 -0.1)">
       <defs>
        <path id="CMR17-30" d="M 2688 2038 
C 2688 2430 2682 3099 2413 3613 
C 2176 4063 1798 4224 1466 4224 
C 1158 4224 768 4082 525 3620 
C 269 3137 243 2539 243 2038 
C 243 1671 250 1112 448 623 
C 723 -39 1216 -128 1466 -128 
C 1760 -128 2208 -7 2470 604 
C 2662 1048 2688 1568 2688 2038 
z
M 1466 -26 
C 1056 -26 813 328 723 816 
C 653 1196 653 1749 653 2109 
C 653 2604 653 3015 736 3407 
C 858 3954 1216 4121 1466 4121 
C 1728 4121 2067 3947 2189 3420 
C 2272 3054 2278 2623 2278 2109 
C 2278 1691 2278 1176 2202 797 
C 2067 96 1690 -26 1466 -26 
z
" transform="scale(0.015625)"/>
        <path id="CMMI12-3a" d="M 1178 307 
C 1178 492 1024 620 870 620 
C 685 620 557 467 557 313 
C 557 128 710 0 864 0 
C 1050 0 1178 153 1178 307 
z
" transform="scale(0.015625)"/>
       </defs>
       <use xlink:href="#CMR17-30" transform="scale(0.996264)"/>
       <use xlink:href="#CMMI12-3a" transform="translate(45.690477 0)scale(0.996264)"/>
       <use xlink:href="#CMR17-30" transform="translate(72.787654 0)scale(0.996264)"/>
      </g>
     </g>
    </g>
    <g id="ytick_2">
     <g id="line2d_6">
      <g>
       <use xlink:href="#mde870412e0" x="33.185756" y="107.331993" style="stroke: #000000; stroke-width: 0.8"/>
      </g>
     </g>
     <g id="text_7">
      <!-- $\mathdefault{0.2}$ -->
      <g transform="translate(16.455677 110.791242)scale(0.1 -0.1)">
       <use xlink:href="#CMR17-30" transform="scale(0.996264)"/>
       <use xlink:href="#CMMI12-3a" transform="translate(45.690477 0)scale(0.996264)"/>
       <use xlink:href="#CMR17-32" transform="translate(72.787654 0)scale(0.996264)"/>
      </g>
     </g>
    </g>
    <g id="ytick_3">
     <g id="line2d_7">
      <g>
       <use xlink:href="#mde870412e0" x="33.185756" y="66.753007" style="stroke: #000000; stroke-width: 0.8"/>
      </g>
     </g>
     <g id="text_8">
      <!-- $\mathdefault{0.4}$ -->
      <g transform="translate(16.455677 70.212256)scale(0.1 -0.1)">
       <use xlink:href="#CMR17-30" transform="scale(0.996264)"/>
       <use xlink:href="#CMMI12-3a" transform="translate(45.690477 0)scale(0.996264)"/>
       <use xlink:href="#CMR17-34" transform="translate(72.787654 0)scale(0.996264)"/>
      </g>
     </g>
    </g>
    <g id="ytick_4">
     <g id="line2d_8">
      <g>
       <use xlink:href="#mde870412e0" x="33.185756" y="26.174021" style="stroke: #000000; stroke-width: 0.8"/>
      </g>
     </g>
     <g id="text_9">
      <!-- $\mathdefault{0.6}$ -->
      <g transform="translate(16.455677 29.633271)scale(0.1 -0.1)">
       <defs>
        <path id="CMR17-36" d="M 678 2198 
C 678 3712 1395 4076 1811 4076 
C 1946 4076 2272 4049 2400 3782 
C 2298 3782 2106 3782 2106 3558 
C 2106 3385 2246 3328 2336 3328 
C 2394 3328 2566 3353 2566 3571 
C 2566 3987 2246 4224 1805 4224 
C 1043 4224 243 3411 243 2011 
C 243 257 966 -128 1478 -128 
C 2099 -128 2688 431 2688 1295 
C 2688 2101 2170 2688 1517 2688 
C 1126 2688 838 2430 678 1979 
L 678 2198 
z
M 1478 25 
C 691 25 691 1212 691 1450 
C 691 1914 909 2585 1504 2585 
C 1613 2585 1926 2585 2138 2140 
C 2253 1889 2253 1624 2253 1302 
C 2253 954 2253 696 2118 438 
C 1978 173 1773 25 1478 25 
z
" transform="scale(0.015625)"/>
       </defs>
       <use xlink:href="#CMR17-30" transform="scale(0.996264)"/>
       <use xlink:href="#CMMI12-3a" transform="translate(45.690477 0)scale(0.996264)"/>
       <use xlink:href="#CMR17-36" transform="translate(72.787654 0)scale(0.996264)"/>
      </g>
     </g>
    </g>
    <g id="text_10">
     <!-- $-\ln{C_0}$ -->
     <g transform="translate(10.518498 91.618039)rotate(-90)scale(0.1 -0.1)">
      <defs>
       <path id="CMSY10-0" d="M 4218 1472 
C 4326 1472 4442 1472 4442 1600 
C 4442 1728 4326 1728 4218 1728 
L 755 1728 
C 646 1728 531 1728 531 1600 
C 531 1472 646 1472 755 1472 
L 4218 1472 
z
" transform="scale(0.015625)"/>
       <path id="CMR17-6c" d="M 979 4416 
L 218 4345 
L 218 4179 
C 595 4179 653 4141 653 3835 
L 653 439 
C 653 198 627 166 218 166 
L 218 0 
C 371 12 653 12 813 12 
C 979 12 1261 12 1414 0 
L 1414 166 
C 1005 166 979 191 979 439 
L 979 4416 
z
" transform="scale(0.015625)"/>
       <path id="CMR17-6e" d="M 2656 1954 
C 2656 2282 2592 2816 1837 2816 
C 1331 2816 1069 2424 973 2166 
L 966 2166 
L 966 2816 
L 211 2745 
L 211 2578 
C 589 2578 646 2540 646 2231 
L 646 443 
C 646 198 621 166 211 166 
L 211 0 
C 365 12 646 12 813 12 
C 979 12 1267 12 1421 0 
L 1421 166 
C 1011 166 986 192 986 443 
L 986 1678 
C 986 2269 1344 2713 1792 2713 
C 2266 2713 2317 2289 2317 1980 
L 2317 443 
C 2317 198 2291 166 1882 166 
L 1882 0 
C 2035 12 2317 12 2483 12 
C 2650 12 2938 12 3091 0 
L 3091 166 
C 2682 166 2656 192 2656 443 
L 2656 1954 
z
" transform="scale(0.015625)"/>
       <path id="CMMI12-43" d="M 4781 4422 
C 4781 4480 4736 4480 4723 4480 
C 4710 4480 4685 4480 4634 4415 
L 4192 3881 
C 3968 4262 3616 4480 3136 4480 
C 1754 4480 320 3087 320 1594 
C 320 533 1069 -128 2003 -128 
C 2515 -128 2963 89 3334 400 
C 3891 864 4058 1480 4058 1531 
C 4058 1588 4006 1588 3987 1588 
C 3930 1588 3923 1550 3910 1524 
C 3616 533 2752 57 2112 57 
C 1434 57 845 489 845 1391 
C 845 1594 909 2699 1632 3531 
C 1984 3938 2586 4294 3194 4294 
C 3898 4294 4211 3716 4211 3068 
C 4211 2903 4192 2763 4192 2737 
C 4192 2680 4256 2680 4275 2680 
C 4346 2680 4352 2687 4378 2801 
L 4781 4422 
z
" transform="scale(0.015625)"/>
      </defs>
      <use xlink:href="#CMSY10-0" transform="scale(0.996264)"/>
      <use xlink:href="#CMR17-6c" transform="translate(94.091873 0)scale(0.996264)"/>
      <use xlink:href="#CMR17-6e" transform="translate(118.962931 0)scale(0.996264)"/>
      <use xlink:href="#CMMI12-43" transform="translate(186.462706 0)scale(0.996264)"/>
      <use xlink:href="#CMR17-30" transform="translate(256.254743 -14.943915)scale(0.697382)"/>
     </g>
    </g>
   </g>
   <g id="patch_3">
    <path d="M 33.185756 149.172557 
L 33.185756 3.6 
" style="fill: none; stroke: #000000; stroke-width: 0.8; stroke-linejoin: miter; stroke-linecap: square"/>
   </g>
   <g id="patch_4">
    <path d="M 209.536398 149.172557 
L 209.536398 3.6 
" style="fill: none; stroke: #000000; stroke-width: 0.8; stroke-linejoin: miter; stroke-linecap: square"/>
   </g>
   <g id="patch_5">
    <path d="M 33.185756 149.172557 
L 209.536398 149.172557 
" style="fill: none; stroke: #000000; stroke-width: 0.8; stroke-linejoin: miter; stroke-linecap: square"/>
   </g>
   <g id="patch_6">
    <path d="M 33.185756 3.6 
L 209.536398 3.6 
" style="fill: none; stroke: #000000; stroke-width: 0.8; stroke-linejoin: miter; stroke-linecap: square"/>
   </g>
   <g id="text_11">
    <!-- $V/J=1.75$ -->
    <g transform="translate(156.096809 143.85308)scale(0.1 -0.1)">
     <defs>
      <path id="CMMI12-56" d="M 3962 3644 
C 4179 3987 4378 4140 4704 4166 
C 4768 4172 4819 4172 4819 4287 
C 4819 4313 4806 4352 4749 4352 
C 4634 4352 4358 4339 4243 4339 
C 4058 4339 3866 4352 3686 4352 
C 3635 4352 3571 4352 3571 4230 
C 3571 4172 3629 4166 3654 4166 
C 3891 4146 3917 4032 3917 3956 
C 3917 3860 3827 3714 3821 3708 
L 1811 540 
L 1363 3968 
C 1363 4153 1696 4166 1766 4166 
C 1862 4166 1920 4166 1920 4287 
C 1920 4352 1850 4352 1830 4352 
C 1722 4352 1594 4339 1485 4339 
L 1126 4339 
C 659 4339 467 4352 461 4352 
C 422 4352 346 4352 346 4236 
C 346 4166 390 4166 493 4166 
C 819 4166 838 4108 858 3949 
L 1370 25 
C 1389 -109 1389 -128 1478 -128 
C 1555 -128 1587 -109 1651 -7 
L 3962 3644 
z
" transform="scale(0.015625)"/>
      <path id="CMMI12-3d" d="M 2746 4563 
C 2746 4569 2784 4665 2784 4678 
C 2784 4755 2720 4800 2669 4800 
C 2637 4800 2579 4800 2528 4659 
L 384 -1364 
C 384 -1370 346 -1466 346 -1479 
C 346 -1556 410 -1600 461 -1600 
C 499 -1600 557 -1594 602 -1460 
L 2746 4563 
z
" transform="scale(0.015625)"/>
      <path id="CMMI12-4a" d="M 3418 3911 
C 3469 4102 3482 4166 3795 4166 
C 3898 4166 3962 4166 3962 4281 
C 3962 4352 3904 4352 3878 4352 
C 3770 4352 3648 4339 3533 4339 
L 3181 4339 
C 2912 4339 2630 4352 2362 4352 
C 2304 4352 2227 4352 2227 4236 
C 2227 4172 2278 4172 2278 4166 
L 2438 4166 
C 2950 4166 2950 4115 2950 4019 
C 2950 4013 2950 3968 2925 3866 
L 2189 953 
C 2022 304 1594 0 1286 0 
C 1069 0 762 99 685 428 
C 710 422 742 415 768 415 
C 979 415 1146 601 1146 787 
C 1146 889 1082 1024 890 1024 
C 774 1024 506 959 506 543 
C 506 149 838 -128 1299 -128 
C 1882 -128 2509 304 2662 908 
L 3418 3911 
z
" transform="scale(0.015625)"/>
      <path id="CMR17-3d" d="M 4115 2048 
C 4211 2048 4307 2048 4307 2156 
C 4307 2272 4198 2272 4090 2272 
L 512 2272 
C 403 2272 294 2272 294 2156 
C 294 2048 390 2048 486 2048 
L 4115 2048 
z
M 4090 927 
C 4198 927 4307 927 4307 1043 
C 4307 1152 4211 1152 4115 1152 
L 486 1152 
C 390 1152 294 1152 294 1043 
C 294 927 403 927 512 927 
L 4090 927 
z
" transform="scale(0.015625)"/>
      <path id="CMR17-37" d="M 2886 3955 
L 2886 4096 
L 1382 4096 
C 634 4096 621 4166 595 4288 
L 480 4288 
L 294 3104 
L 410 3104 
C 429 3226 474 3552 550 3673 
C 589 3724 1062 3724 1171 3724 
L 2579 3724 
L 1869 2670 
C 1395 1961 1069 1003 1069 166 
C 1069 89 1069 -128 1299 -128 
C 1530 -128 1530 89 1530 172 
L 1530 466 
C 1530 1514 1709 2204 2003 2644 
L 2886 3955 
z
" transform="scale(0.015625)"/>
      <path id="CMR17-35" d="M 730 3750 
C 794 3724 1056 3641 1325 3641 
C 1920 3641 2246 3961 2432 4140 
C 2432 4191 2432 4224 2394 4224 
C 2387 4224 2374 4224 2323 4198 
C 2099 4102 1837 4032 1517 4032 
C 1325 4032 1037 4055 723 4191 
C 653 4224 640 4224 634 4224 
C 602 4224 595 4217 595 4090 
L 595 2231 
C 595 2113 595 2080 659 2080 
C 691 2080 704 2093 736 2139 
C 941 2435 1222 2560 1542 2560 
C 1766 2560 2246 2415 2246 1293 
C 2246 1087 2246 716 2054 422 
C 1894 159 1645 25 1370 25 
C 947 25 518 319 403 812 
C 429 806 480 793 506 793 
C 589 793 749 838 749 1036 
C 749 1209 627 1280 506 1280 
C 358 1280 262 1190 262 1011 
C 262 454 704 -128 1382 -128 
C 2042 -128 2669 441 2669 1267 
C 2669 2054 2170 2662 1549 2662 
C 1222 2662 947 2540 730 2304 
L 730 3750 
z
" transform="scale(0.015625)"/>
     </defs>
     <use xlink:href="#CMMI12-56" transform="scale(0.996264)"/>
     <use xlink:href="#CMMI12-3d" transform="translate(67.70845 0)scale(0.996264)"/>
     <use xlink:href="#CMMI12-4a" transform="translate(116.483369 0)scale(0.996264)"/>
     <use xlink:href="#CMR17-3d" transform="translate(207.300048 0)scale(0.996264)"/>
     <use xlink:href="#CMR17-31" transform="translate(306.688845 0)scale(0.996264)"/>
     <use xlink:href="#CMMI12-3a" transform="translate(352.379322 0)scale(0.996264)"/>
     <use xlink:href="#CMR17-37" transform="translate(379.476499 0)scale(0.996264)"/>
     <use xlink:href="#CMR17-35" transform="translate(425.166976 0)scale(0.996264)"/>
    </g>
   </g>
   <g id="legend_1">
    <g id="line2d_9">
     <path d="M 42.185756 16.1 
L 49.685756 16.1 
L 57.185756 16.1 
" style="fill: none; stroke: #0b2456; stroke-width: 0.75; stroke-linecap: round"/>
     <defs>
      <path id="m2b518b1f58" d="M 0 2.236068 
L 2.236068 0 
L 0 -2.236068 
L -2.236068 0 
z
" style="stroke: #0b2456; stroke-width: 0.5; stroke-linejoin: miter"/>
     </defs>
     <g>
      <use xlink:href="#m2b518b1f58" x="49.685756" y="16.1" style="fill: #8491aa; stroke: #0b2456; stroke-width: 0.5; stroke-linejoin: miter"/>
     </g>
    </g>
    <g id="text_12">
     <!-- $\alpha=1$ -->
     <g transform="translate(62.185756 19.6)scale(0.1 -0.1)">
      <defs>
       <path id="CMMI12-b" d="M 2963 1615 
C 2963 2234 2611 2816 1933 2816 
C 1094 2816 256 1902 256 996 
C 256 440 602 -64 1254 -64 
C 1651 -64 2125 89 2579 472 
C 2669 115 2867 -64 3142 -64 
C 3488 -64 3661 293 3661 376 
C 3661 434 3616 434 3597 434 
C 3546 434 3539 415 3520 364 
C 3462 204 3315 64 3162 64 
C 2963 64 2963 472 2963 862 
C 3616 1641 3770 2445 3770 2451 
C 3770 2509 3718 2509 3699 2509 
C 3642 2509 3635 2490 3610 2375 
C 3526 2094 3360 1596 2963 1072 
L 2963 1615 
z
M 2560 625 
C 1997 121 1491 64 1267 64 
C 813 64 685 466 685 766 
C 685 1040 826 1692 1024 2043 
C 1286 2490 1645 2687 1933 2687 
C 2554 2687 2554 1877 2554 1340 
C 2554 1181 2547 1015 2547 855 
C 2547 728 2554 696 2560 625 
z
" transform="scale(0.015625)"/>
      </defs>
      <use xlink:href="#CMMI12-b" transform="scale(0.996264)"/>
      <use xlink:href="#CMR17-3d" transform="translate(90.355032 0)scale(0.996264)"/>
      <use xlink:href="#CMR17-31" transform="translate(189.743829 0)scale(0.996264)"/>
     </g>
    </g>
    <g id="line2d_10">
     <path d="M 42.185756 28.037178 
L 49.685756 28.037178 
L 57.185756 28.037178 
" style="fill: none; stroke: #1a896f; stroke-width: 0.75; stroke-linecap: round"/>
     <defs>
      <path id="m6d689cdde6" d="M 0 2.236068 
L 2.236068 0 
L 0 -2.236068 
L -2.236068 0 
z
" style="stroke: #1a896f; stroke-width: 0.5; stroke-linejoin: miter"/>
     </defs>
     <g>
      <use xlink:href="#m6d689cdde6" x="49.685756" y="28.037178" style="fill: #8cc3b6; stroke: #1a896f; stroke-width: 0.5; stroke-linejoin: miter"/>
     </g>
    </g>
    <g id="text_13">
     <!-- $\alpha=2$ -->
     <g transform="translate(62.185756 31.537178)scale(0.1 -0.1)">
      <use xlink:href="#CMMI12-b" transform="scale(0.996264)"/>
      <use xlink:href="#CMR17-3d" transform="translate(90.355032 0)scale(0.996264)"/>
      <use xlink:href="#CMR17-32" transform="translate(189.743829 0)scale(0.996264)"/>
     </g>
    </g>
    <g id="line2d_11">
     <path d="M 42.185756 39.974357 
L 49.685756 39.974357 
L 57.185756 39.974357 
" style="fill: none; stroke: #bdd73c; stroke-width: 0.75; stroke-linecap: round"/>
     <defs>
      <path id="me6ec120e1d" d="M 0 2.236068 
L 2.236068 0 
L 0 -2.236068 
L -2.236068 0 
z
" style="stroke: #bdd73c; stroke-width: 0.5; stroke-linejoin: miter"/>
     </defs>
     <g>
      <use xlink:href="#me6ec120e1d" x="49.685756" y="39.974357" style="fill: #ddea9d; stroke: #bdd73c; stroke-width: 0.5; stroke-linejoin: miter"/>
     </g>
    </g>
    <g id="text_14">
     <!-- $\alpha=3$ -->
     <g transform="translate(62.185756 43.474357)scale(0.1 -0.1)">
      <use xlink:href="#CMMI12-b" transform="scale(0.996264)"/>
      <use xlink:href="#CMR17-3d" transform="translate(90.355032 0)scale(0.996264)"/>
      <use xlink:href="#CMR17-33" transform="translate(189.743829 0)scale(0.996264)"/>
     </g>
    </g>
    <g id="line2d_12">
     <path d="M 42.185756 51.911535 
L 49.685756 51.911535 
L 57.185756 51.911535 
" style="fill: none; stroke: #ff9f1c; stroke-width: 0.75; stroke-linecap: round"/>
     <defs>
      <path id="mf900dca7e0" d="M 0 2.236068 
L 2.236068 0 
L 0 -2.236068 
L -2.236068 0 
z
" style="stroke: #ff9f1c; stroke-width: 0.5; stroke-linejoin: miter"/>
     </defs>
     <g>
      <use xlink:href="#mf900dca7e0" x="49.685756" y="51.911535" style="fill: #fece8d; stroke: #ff9f1c; stroke-width: 0.5; stroke-linejoin: miter"/>
     </g>
    </g>
    <g id="text_15">
     <!-- $\alpha=4$ -->
     <g transform="translate(62.185756 55.411535)scale(0.1 -0.1)">
      <use xlink:href="#CMMI12-b" transform="scale(0.996264)"/>
      <use xlink:href="#CMR17-3d" transform="translate(90.355032 0)scale(0.996264)"/>
      <use xlink:href="#CMR17-34" transform="translate(189.743829 0)scale(0.996264)"/>
     </g>
    </g>
    <g id="line2d_13">
     <path d="M 42.185756 63.848713 
L 49.685756 63.848713 
L 57.185756 63.848713 
" style="fill: none; stroke: #e71d36; stroke-width: 0.75; stroke-linecap: round"/>
     <defs>
      <path id="m1d6b269d6f" d="M 0 2.236068 
L 2.236068 0 
L 0 -2.236068 
L -2.236068 0 
z
" style="stroke: #e71d36; stroke-width: 0.5; stroke-linejoin: miter"/>
     </defs>
     <g>
      <use xlink:href="#m1d6b269d6f" x="49.685756" y="63.848713" style="fill: #f28d9a; stroke: #e71d36; stroke-width: 0.5; stroke-linejoin: miter"/>
     </g>
    </g>
    <g id="text_16">
     <!-- $\alpha=5$ -->
     <g transform="translate(62.185756 67.348713)scale(0.1 -0.1)">
      <use xlink:href="#CMMI12-b" transform="scale(0.996264)"/>
      <use xlink:href="#CMR17-3d" transform="translate(90.355032 0)scale(0.996264)"/>
      <use xlink:href="#CMR17-35" transform="translate(189.743829 0)scale(0.996264)"/>
     </g>
    </g>
   </g>
   <g id="line2d_14">
    <path d="M 41.201694 113.548996 
L 94.641282 79.127972 
L 148.080871 44.690505 
L 201.52046 10.216934 
" clip-path="url(#p2be533654a)" style="fill: none; stroke: #0b2456; stroke-width: 0.75; stroke-linecap: round"/>
    <g clip-path="url(#p2be533654a)">
     <use xlink:href="#m2b518b1f58" x="41.201694" y="113.548996" style="fill: #8491aa; stroke: #0b2456; stroke-width: 0.5; stroke-linejoin: miter"/>
     <use xlink:href="#m2b518b1f58" x="94.641282" y="79.127972" style="fill: #8491aa; stroke: #0b2456; stroke-width: 0.5; stroke-linejoin: miter"/>
     <use xlink:href="#m2b518b1f58" x="148.080871" y="44.690505" style="fill: #8491aa; stroke: #0b2456; stroke-width: 0.5; stroke-linejoin: miter"/>
     <use xlink:href="#m2b518b1f58" x="201.52046" y="10.216934" style="fill: #8491aa; stroke: #0b2456; stroke-width: 0.5; stroke-linejoin: miter"/>
    </g>
   </g>
   <g id="line2d_15">
    <path d="M 41.201694 130.24077 
L 94.641282 112.515444 
L 148.080871 94.782627 
L 201.52046 77.009047 
" clip-path="url(#p2be533654a)" style="fill: none; stroke: #1a896f; stroke-width: 0.75; stroke-linecap: round"/>
    <g clip-path="url(#p2be533654a)">
     <use xlink:href="#m6d689cdde6" x="41.201694" y="130.24077" style="fill: #8cc3b6; stroke: #1a896f; stroke-width: 0.5; stroke-linejoin: miter"/>
     <use xlink:href="#m6d689cdde6" x="94.641282" y="112.515444" style="fill: #8cc3b6; stroke: #1a896f; stroke-width: 0.5; stroke-linejoin: miter"/>
     <use xlink:href="#m6d689cdde6" x="148.080871" y="94.782627" style="fill: #8cc3b6; stroke: #1a896f; stroke-width: 0.5; stroke-linejoin: miter"/>
     <use xlink:href="#m6d689cdde6" x="201.52046" y="77.009047" style="fill: #8cc3b6; stroke: #1a896f; stroke-width: 0.5; stroke-linejoin: miter"/>
    </g>
   </g>
   <g id="line2d_16">
    <path d="M 41.201694 134.351939 
L 94.641282 120.75058 
L 148.080871 107.146631 
L 201.52046 93.519574 
" clip-path="url(#p2be533654a)" style="fill: none; stroke: #bdd73c; stroke-width: 0.75; stroke-linecap: round"/>
    <g clip-path="url(#p2be533654a)">
     <use xlink:href="#me6ec120e1d" x="41.201694" y="134.351939" style="fill: #ddea9d; stroke: #bdd73c; stroke-width: 0.5; stroke-linejoin: miter"/>
     <use xlink:href="#me6ec120e1d" x="94.641282" y="120.75058" style="fill: #ddea9d; stroke: #bdd73c; stroke-width: 0.5; stroke-linejoin: miter"/>
     <use xlink:href="#me6ec120e1d" x="148.080871" y="107.146631" style="fill: #ddea9d; stroke: #bdd73c; stroke-width: 0.5; stroke-linejoin: miter"/>
     <use xlink:href="#me6ec120e1d" x="201.52046" y="93.519574" style="fill: #ddea9d; stroke: #bdd73c; stroke-width: 0.5; stroke-linejoin: miter"/>
    </g>
   </g>
   <g id="line2d_17">
    <path d="M 41.201694 136.041989 
L 94.641282 124.141344 
L 148.080871 112.239745 
L 201.52046 100.328288 
" clip-path="url(#p2be533654a)" style="fill: none; stroke: #ff9f1c; stroke-width: 0.75; stroke-linecap: round"/>
    <g clip-path="url(#p2be533654a)">
     <use xlink:href="#mf900dca7e0" x="41.201694" y="136.041989" style="fill: #fece8d; stroke: #ff9f1c; stroke-width: 0.5; stroke-linejoin: miter"/>
     <use xlink:href="#mf900dca7e0" x="94.641282" y="124.141344" style="fill: #fece8d; stroke: #ff9f1c; stroke-width: 0.5; stroke-linejoin: miter"/>
     <use xlink:href="#mf900dca7e0" x="148.080871" y="112.239745" style="fill: #fece8d; stroke: #ff9f1c; stroke-width: 0.5; stroke-linejoin: miter"/>
     <use xlink:href="#mf900dca7e0" x="201.52046" y="100.328288" style="fill: #fece8d; stroke: #ff9f1c; stroke-width: 0.5; stroke-linejoin: miter"/>
    </g>
   </g>
   <g id="line2d_18">
    <path d="M 41.201694 136.978838 
L 94.641282 126.023074 
L 148.080871 115.067559 
L 201.52046 104.114016 
" clip-path="url(#p2be533654a)" style="fill: none; stroke: #e71d36; stroke-width: 0.75; stroke-linecap: round"/>
    <g clip-path="url(#p2be533654a)">
     <use xlink:href="#m1d6b269d6f" x="41.201694" y="136.978838" style="fill: #f28d9a; stroke: #e71d36; stroke-width: 0.5; stroke-linejoin: miter"/>
     <use xlink:href="#m1d6b269d6f" x="94.641282" y="126.023074" style="fill: #f28d9a; stroke: #e71d36; stroke-width: 0.5; stroke-linejoin: miter"/>
     <use xlink:href="#m1d6b269d6f" x="148.080871" y="115.067559" style="fill: #f28d9a; stroke: #e71d36; stroke-width: 0.5; stroke-linejoin: miter"/>
     <use xlink:href="#m1d6b269d6f" x="201.52046" y="104.114016" style="fill: #f28d9a; stroke: #e71d36; stroke-width: 0.5; stroke-linejoin: miter"/>
    </g>
   </g>
  </g>
  <g id="axes_2">
   <g id="patch_7">
    <path d="M 217.536878 149.172557 
L 393.88752 149.172557 
L 393.88752 3.6 
L 217.536878 3.6 
L 217.536878 149.172557 
z
" style="fill: none"/>
   </g>
   <g id="matplotlib.axis_3">
    <g id="xtick_5">
     <g id="line2d_19">
      <g>
       <use xlink:href="#m487be7f229" x="225.552816" y="149.172557" style="stroke: #000000; stroke-width: 0.8"/>
      </g>
     </g>
     <g id="text_17">
      <!-- $\mathdefault{1}$ -->
      <g transform="translate(223.062148 160.091055)scale(0.1 -0.1)">
       <use xlink:href="#CMR17-31" transform="scale(0.996264)"/>
      </g>
     </g>
    </g>
    <g id="xtick_6">
     <g id="line2d_20">
      <g>
       <use xlink:href="#m487be7f229" x="278.992405" y="149.172557" style="stroke: #000000; stroke-width: 0.8"/>
      </g>
     </g>
     <g id="text_18">
      <!-- $\mathdefault{2}$ -->
      <g transform="translate(276.501737 160.091055)scale(0.1 -0.1)">
       <use xlink:href="#CMR17-32" transform="scale(0.996264)"/>
      </g>
     </g>
    </g>
    <g id="xtick_7">
     <g id="line2d_21">
      <g>
       <use xlink:href="#m487be7f229" x="332.431993" y="149.172557" style="stroke: #000000; stroke-width: 0.8"/>
      </g>
     </g>
     <g id="text_19">
      <!-- $\mathdefault{3}$ -->
      <g transform="translate(329.941326 160.091055)scale(0.1 -0.1)">
       <use xlink:href="#CMR17-33" transform="scale(0.996264)"/>
      </g>
     </g>
    </g>
    <g id="xtick_8">
     <g id="line2d_22">
      <g>
       <use xlink:href="#m487be7f229" x="385.871582" y="149.172557" style="stroke: #000000; stroke-width: 0.8"/>
      </g>
     </g>
     <g id="text_20">
      <!-- $\mathdefault{4}$ -->
      <g transform="translate(383.380914 160.091055)scale(0.1 -0.1)">
       <use xlink:href="#CMR17-34" transform="scale(0.996264)"/>
      </g>
     </g>
    </g>
    <g id="text_21">
     <!-- $n$ -->
     <g transform="translate(302.722236 172.946732)scale(0.1 -0.1)">
      <use xlink:href="#CMMI12-6e" transform="scale(0.996264)"/>
     </g>
    </g>
   </g>
   <g id="matplotlib.axis_4">
    <g id="ytick_5">
     <g id="line2d_23">
      <g>
       <use xlink:href="#mde870412e0" x="217.536878" y="147.910978" style="stroke: #000000; stroke-width: 0.8"/>
      </g>
     </g>
    </g>
    <g id="ytick_6">
     <g id="line2d_24">
      <g>
       <use xlink:href="#mde870412e0" x="217.536878" y="107.331993" style="stroke: #000000; stroke-width: 0.8"/>
      </g>
     </g>
    </g>
    <g id="ytick_7">
     <g id="line2d_25">
      <g>
       <use xlink:href="#mde870412e0" x="217.536878" y="66.753007" style="stroke: #000000; stroke-width: 0.8"/>
      </g>
     </g>
    </g>
    <g id="ytick_8">
     <g id="line2d_26">
      <g>
       <use xlink:href="#mde870412e0" x="217.536878" y="26.174021" style="stroke: #000000; stroke-width: 0.8"/>
      </g>
     </g>
    </g>
   </g>
   <g id="patch_8">
    <path d="M 217.536878 149.172557 
L 217.536878 3.6 
" style="fill: none; stroke: #000000; stroke-width: 0.8; stroke-linejoin: miter; stroke-linecap: square"/>
   </g>
   <g id="patch_9">
    <path d="M 393.88752 149.172557 
L 393.88752 3.6 
" style="fill: none; stroke: #000000; stroke-width: 0.8; stroke-linejoin: miter; stroke-linecap: square"/>
   </g>
   <g id="patch_10">
    <path d="M 217.536878 149.172557 
L 393.88752 149.172557 
" style="fill: none; stroke: #000000; stroke-width: 0.8; stroke-linejoin: miter; stroke-linecap: square"/>
   </g>
   <g id="patch_11">
    <path d="M 217.536878 3.6 
L 393.88752 3.6 
" style="fill: none; stroke: #000000; stroke-width: 0.8; stroke-linejoin: miter; stroke-linecap: square"/>
   </g>
   <g id="text_22">
    <!-- $\alpha=1$ -->
    <g transform="translate(364.495746 143.85308)scale(0.1 -0.1)">
     <use xlink:href="#CMMI12-b" transform="scale(0.996264)"/>
     <use xlink:href="#CMR17-3d" transform="translate(90.355032 0)scale(0.996264)"/>
     <use xlink:href="#CMR17-31" transform="translate(189.743829 0)scale(0.996264)"/>
    </g>
   </g>
   <g id="legend_2">
    <g id="line2d_27">
     <path d="M 226.536878 16.57198 
L 234.036878 16.57198 
L 241.536878 16.57198 
" style="fill: none; stroke: #113782; stroke-width: 0.75; stroke-linecap: round"/>
     <defs>
      <path id="mfdd00e4387" d="M 0 2.236068 
L 2.236068 0 
L 0 -2.236068 
L -2.236068 0 
z
" style="stroke: #113782; stroke-width: 0.5; stroke-linejoin: miter"/>
     </defs>
     <g>
      <use xlink:href="#mfdd00e4387" x="234.036878" y="16.57198" style="fill: #879ac0; stroke: #113782; stroke-width: 0.5; stroke-linejoin: miter"/>
     </g>
    </g>
    <g id="text_23">
     <!-- $V/J=\phantom{-}$$1.75$ -->
     <g transform="translate(246.536878 20.07198)scale(0.1 -0.1)">
      <use xlink:href="#CMMI12-56" transform="scale(0.996264)"/>
      <use xlink:href="#CMMI12-3d" transform="translate(67.70845 0)scale(0.996264)"/>
      <use xlink:href="#CMMI12-4a" transform="translate(116.483369 0)scale(0.996264)"/>
      <use xlink:href="#CMR17-3d" transform="translate(207.300048 0)scale(0.996264)"/>
      <use xlink:href="#CMR17-31" transform="translate(384.176313 0)scale(0.996264)"/>
      <use xlink:href="#CMMI12-3a" transform="translate(429.86679 0)scale(0.996264)"/>
      <use xlink:href="#CMR17-37" transform="translate(456.963967 0)scale(0.996264)"/>
      <use xlink:href="#CMR17-35" transform="translate(502.654444 0)scale(0.996264)"/>
     </g>
    </g>
    <g id="line2d_28">
     <path d="M 226.536878 29.53462 
L 234.036878 29.53462 
L 241.536878 29.53462 
" style="fill: none; stroke: #144099; stroke-width: 0.75; stroke-linecap: round"/>
     <defs>
      <path id="m011f5733bc" d="M -1.581139 1.581139 
L 1.581139 1.581139 
L 1.581139 -1.581139 
L -1.581139 -1.581139 
z
" style="stroke: #144099; stroke-width: 0.5; stroke-linejoin: miter"/>
     </defs>
     <g>
      <use xlink:href="#m011f5733bc" x="234.036878" y="29.53462" style="fill: #899fcb; stroke: #144099; stroke-width: 0.5; stroke-linejoin: miter"/>
     </g>
    </g>
    <g id="text_24">
     <!-- $V/J=\phantom{-}$$1.65$ -->
     <g transform="translate(246.536878 33.03462)scale(0.1 -0.1)">
      <use xlink:href="#CMMI12-56" transform="scale(0.996264)"/>
      <use xlink:href="#CMMI12-3d" transform="translate(67.70845 0)scale(0.996264)"/>
      <use xlink:href="#CMMI12-4a" transform="translate(116.483369 0)scale(0.996264)"/>
      <use xlink:href="#CMR17-3d" transform="translate(207.300048 0)scale(0.996264)"/>
      <use xlink:href="#CMR17-31" transform="translate(384.176313 0)scale(0.996264)"/>
      <use xlink:href="#CMMI12-3a" transform="translate(429.86679 0)scale(0.996264)"/>
      <use xlink:href="#CMR17-36" transform="translate(456.963967 0)scale(0.996264)"/>
      <use xlink:href="#CMR17-35" transform="translate(502.654444 0)scale(0.996264)"/>
     </g>
    </g>
    <g id="line2d_29">
     <path d="M 226.536878 42.49726 
L 234.036878 42.49726 
L 241.536878 42.49726 
" style="fill: none; stroke: #1c5ad6; stroke-width: 0.75; stroke-linecap: round"/>
     <defs>
      <path id="mf7443014f3" d="M 0 1.581139 
C 0.419323 1.581139 0.821528 1.41454 1.118034 1.118034 
C 1.41454 0.821528 1.581139 0.419323 1.581139 0 
C 1.581139 -0.419323 1.41454 -0.821528 1.118034 -1.118034 
C 0.821528 -1.41454 0.419323 -1.581139 0 -1.581139 
C -0.419323 -1.581139 -0.821528 -1.41454 -1.118034 -1.118034 
C -1.41454 -0.821528 -1.581139 -0.419323 -1.581139 0 
C -1.581139 0.419323 -1.41454 0.821528 -1.118034 1.118034 
C -0.821528 1.41454 -0.419323 1.581139 0 1.581139 
z
" style="stroke: #1c5ad6; stroke-width: 0.5"/>
     </defs>
     <g>
      <use xlink:href="#mf7443014f3" x="234.036878" y="42.49726" style="fill: #8dacea; stroke: #1c5ad6; stroke-width: 0.5"/>
     </g>
    </g>
    <g id="text_25">
     <!-- $V/J=-1.00$ -->
     <g transform="translate(246.536878 45.99726)scale(0.1 -0.1)">
      <use xlink:href="#CMMI12-56" transform="scale(0.996264)"/>
      <use xlink:href="#CMMI12-3d" transform="translate(67.70845 0)scale(0.996264)"/>
      <use xlink:href="#CMMI12-4a" transform="translate(116.483369 0)scale(0.996264)"/>
      <use xlink:href="#CMR17-3d" transform="translate(207.300048 0)scale(0.996264)"/>
      <use xlink:href="#CMSY10-0" transform="translate(306.688845 0)scale(0.996264)"/>
      <use xlink:href="#CMR17-31" transform="translate(384.176313 0)scale(0.996264)"/>
      <use xlink:href="#CMMI12-3a" transform="translate(429.86679 0)scale(0.996264)"/>
      <use xlink:href="#CMR17-30" transform="translate(456.963967 0)scale(0.996264)"/>
      <use xlink:href="#CMR17-30" transform="translate(502.654444 0)scale(0.996264)"/>
     </g>
    </g>
    <g id="line2d_30">
     <path d="M 226.536878 55.4599 
L 234.036878 55.4599 
L 241.536878 55.4599 
" style="fill: none; stroke: #216bff; stroke-width: 0.75; stroke-linecap: round"/>
     <defs>
      <path id="mce08275587" d="M 0 -1.581139 
L -0.354988 -0.488599 
L -1.503752 -0.488599 
L -0.574382 0.186628 
L -0.92937 1.279168 
L -0 0.603941 
L 0.92937 1.279168 
L 0.574382 0.186628 
L 1.503752 -0.488599 
L 0.354988 -0.488599 
z
" style="stroke: #216bff; stroke-width: 0.5; stroke-linejoin: bevel"/>
     </defs>
     <g>
      <use xlink:href="#mce08275587" x="234.036878" y="55.4599" style="fill: #8fb4fe; stroke: #216bff; stroke-width: 0.5; stroke-linejoin: bevel"/>
     </g>
    </g>
    <g id="text_26">
     <!-- $V/J=\phantom{-}$$0.50$ -->
     <g transform="translate(246.536878 58.9599)scale(0.1 -0.1)">
      <use xlink:href="#CMMI12-56" transform="scale(0.996264)"/>
      <use xlink:href="#CMMI12-3d" transform="translate(67.70845 0)scale(0.996264)"/>
      <use xlink:href="#CMMI12-4a" transform="translate(116.483369 0)scale(0.996264)"/>
      <use xlink:href="#CMR17-3d" transform="translate(207.300048 0)scale(0.996264)"/>
      <use xlink:href="#CMR17-30" transform="translate(384.176313 0)scale(0.996264)"/>
      <use xlink:href="#CMMI12-3a" transform="translate(429.86679 0)scale(0.996264)"/>
      <use xlink:href="#CMR17-35" transform="translate(456.963967 0)scale(0.996264)"/>
      <use xlink:href="#CMR17-30" transform="translate(502.654444 0)scale(0.996264)"/>
     </g>
    </g>
   </g>
   <g id="line2d_31">
    <path d="M 225.552816 113.548996 
L 278.992405 79.127972 
L 332.431993 44.690505 
L 385.871582 10.216934 
" clip-path="url(#p1a8c7118d9)" style="fill: none; stroke: #113782; stroke-width: 0.75; stroke-linecap: round"/>
    <g clip-path="url(#p1a8c7118d9)">
     <use xlink:href="#mfdd00e4387" x="225.552816" y="113.548996" style="fill: #879ac0; stroke: #113782; stroke-width: 0.5; stroke-linejoin: miter"/>
     <use xlink:href="#mfdd00e4387" x="278.992405" y="79.127972" style="fill: #879ac0; stroke: #113782; stroke-width: 0.5; stroke-linejoin: miter"/>
     <use xlink:href="#mfdd00e4387" x="332.431993" y="44.690505" style="fill: #879ac0; stroke: #113782; stroke-width: 0.5; stroke-linejoin: miter"/>
     <use xlink:href="#mfdd00e4387" x="385.871582" y="10.216934" style="fill: #879ac0; stroke: #113782; stroke-width: 0.5; stroke-linejoin: miter"/>
    </g>
   </g>
   <g id="line2d_32">
    <path d="M 225.552816 116.216967 
L 278.992405 84.470806 
L 332.431993 52.709243 
L 385.871582 20.902097 
" clip-path="url(#p1a8c7118d9)" style="fill: none; stroke: #144099; stroke-width: 0.75; stroke-linecap: round"/>
    <g clip-path="url(#p1a8c7118d9)">
     <use xlink:href="#m011f5733bc" x="225.552816" y="116.216967" style="fill: #899fcb; stroke: #144099; stroke-width: 0.5; stroke-linejoin: miter"/>
     <use xlink:href="#m011f5733bc" x="278.992405" y="84.470806" style="fill: #899fcb; stroke: #144099; stroke-width: 0.5; stroke-linejoin: miter"/>
     <use xlink:href="#m011f5733bc" x="332.431993" y="52.709243" style="fill: #899fcb; stroke: #144099; stroke-width: 0.5; stroke-linejoin: miter"/>
     <use xlink:href="#m011f5733bc" x="385.871582" y="20.902097" style="fill: #899fcb; stroke: #144099; stroke-width: 0.5; stroke-linejoin: miter"/>
    </g>
   </g>
   <g id="line2d_33">
    <path d="M 225.552816 127.010772 
L 278.992405 106.073605 
L 332.431993 84.953113 
L 385.871582 64.118889 
" clip-path="url(#p1a8c7118d9)" style="fill: none; stroke: #1c5ad6; stroke-width: 0.75; stroke-linecap: round"/>
    <g clip-path="url(#p1a8c7118d9)">
     <use xlink:href="#mf7443014f3" x="225.552816" y="127.010772" style="fill: #8dacea; stroke: #1c5ad6; stroke-width: 0.5"/>
     <use xlink:href="#mf7443014f3" x="278.992405" y="106.073605" style="fill: #8dacea; stroke: #1c5ad6; stroke-width: 0.5"/>
     <use xlink:href="#mf7443014f3" x="332.431993" y="84.953113" style="fill: #8dacea; stroke: #1c5ad6; stroke-width: 0.5"/>
     <use xlink:href="#mf7443014f3" x="385.871582" y="64.118889" style="fill: #8dacea; stroke: #1c5ad6; stroke-width: 0.5"/>
    </g>
   </g>
   <g id="line2d_34">
    <path d="M 225.552816 142.555623 
L 278.992405 137.19798 
L 332.431993 131.83896 
L 385.871582 126.252516 
" clip-path="url(#p1a8c7118d9)" style="fill: none; stroke: #216bff; stroke-width: 0.75; stroke-linecap: round"/>
    <g clip-path="url(#p1a8c7118d9)">
     <use xlink:href="#mce08275587" x="225.552816" y="142.555623" style="fill: #8fb4fe; stroke: #216bff; stroke-width: 0.5; stroke-linejoin: bevel"/>
     <use xlink:href="#mce08275587" x="278.992405" y="137.19798" style="fill: #8fb4fe; stroke: #216bff; stroke-width: 0.5; stroke-linejoin: bevel"/>
     <use xlink:href="#mce08275587" x="332.431993" y="131.83896" style="fill: #8fb4fe; stroke: #216bff; stroke-width: 0.5; stroke-linejoin: bevel"/>
     <use xlink:href="#mce08275587" x="385.871582" y="126.252516" style="fill: #8fb4fe; stroke: #216bff; stroke-width: 0.5; stroke-linejoin: bevel"/>
    </g>
   </g>
  </g>
 </g>
 <defs>
  <clipPath id="p2be533654a">
   <rect x="33.185756" y="3.6" width="176.350642" height="145.572557"/>
  </clipPath>
  <clipPath id="p1a8c7118d9">
   <rect x="217.536878" y="3.6" width="176.350642" height="145.572557"/>
  </clipPath>
 </defs>
</svg>
