<?xml version="1.0" encoding="utf-8" standalone="no"?>
<!DOCTYPE svg PUBLIC "-//W3C//DTD SVG 1.1//EN"
  "http://www.w3.org/Graphics/SVG/1.1/DTD/svg11.dtd">
<svg xmlns:xlink="http://www.w3.org/1999/xlink" width="397.48752pt" height="178.48391pt" viewBox="0 0 397.48752 178.48391" xmlns="http://www.w3.org/2000/svg" version="1.1">
 <metadata>
  <rdf:RDF xmlns:dc="http://purl.org/dc/elements/1.1/" xmlns:cc="http://creativecommons.org/ns#" xmlns:rdf="http://www.w3.org/1999/02/22-rdf-syntax-ns#">
   <cc:Work>
    <dc:type rdf:resource="http://purl.org/dc/dcmitype/StillImage"/>
    <dc:date>2023-01-16T20:02:58.082564</dc:date>
    <dc:format>image/svg+xml</dc:format>
    <dc:creator>
     <cc:Agent>
      <dc:title>Matplotlib v3.5.2, https://matplotlib.org/</dc:title>
     </cc:Agent>
    </dc:creator>
   </cc:Work>
  </rdf:RDF>
 </metadata>
 <defs>
  <style type="text/css">*{stroke-linejoin: round; stroke-linecap: butt}</style>
 </defs>
 <g id="figure_1">
  <g id="patch_1">
   <path d="M 0 178.48391 
L 397.48752 178.48391 
L 397.48752 0 
L 0 0 
L 0 178.48391 
z
" style="fill: none"/>
  </g>
  <g id="axes_1">
   <g id="patch_2">
    <path d="M 37.003258 149.172557 
L 203.108559 149.172557 
L 203.108559 3.6 
L 37.003258 3.6 
L 37.003258 149.172557 
z
" style="fill: none"/>
   </g>
   <g id="matplotlib.axis_1">
    <g id="xtick_1">
     <g id="line2d_1">
      <defs>
       <path id="m00970f3a86" d="M 0 0 
L 0 2 
" style="stroke: #000000; stroke-width: 0.8"/>
      </defs>
      <g>
       <use xlink:href="#m00970f3a86" x="45.308523" y="149.172557" style="stroke: #000000; stroke-width: 0.8"/>
      </g>
     </g>
     <g id="text_1">
      <!-- $\mathdefault{5}$ -->
      <g transform="translate(42.817855 160.091055)scale(0.1 -0.1)">
       <defs>
        <path id="CMR17-35" d="M 730 3750 
C 794 3724 1056 3641 1325 3641 
C 1920 3641 2246 3961 2432 4140 
C 2432 4191 2432 4224 2394 4224 
C 2387 4224 2374 4224 2323 4198 
C 2099 4102 1837 4032 1517 4032 
C 1325 4032 1037 4055 723 4191 
C 653 4224 640 4224 634 4224 
C 602 4224 595 4217 595 4090 
L 595 2231 
C 595 2113 595 2080 659 2080 
C 691 2080 704 2093 736 2139 
C 941 2435 1222 2560 1542 2560 
C 1766 2560 2246 2415 2246 1293 
C 2246 1087 2246 716 2054 422 
C 1894 159 1645 25 1370 25 
C 947 25 518 319 403 812 
C 429 806 480 793 506 793 
C 589 793 749 838 749 1036 
C 749 1209 627 1280 506 1280 
C 358 1280 262 1190 262 1011 
C 262 454 704 -128 1382 -128 
C 2042 -128 2669 441 2669 1267 
C 2669 2054 2170 2662 1549 2662 
C 1222 2662 947 2540 730 2304 
L 730 3750 
z
" transform="scale(0.015625)"/>
       </defs>
       <use xlink:href="#CMR17-35" transform="scale(0.996264)"/>
      </g>
     </g>
    </g>
    <g id="xtick_2">
     <g id="line2d_2">
      <g>
       <use xlink:href="#m00970f3a86" x="86.834848" y="149.172557" style="stroke: #000000; stroke-width: 0.8"/>
      </g>
     </g>
     <g id="text_2">
      <!-- $\mathdefault{10}$ -->
      <g transform="translate(81.853513 160.091055)scale(0.1 -0.1)">
       <defs>
        <path id="CMR17-31" d="M 1702 4083 
C 1702 4217 1696 4224 1606 4224 
C 1357 3927 979 3833 621 3820 
C 602 3820 570 3820 563 3808 
C 557 3795 557 3782 557 3648 
C 755 3648 1088 3686 1344 3839 
L 1344 467 
C 1344 243 1331 166 781 166 
L 589 166 
L 589 0 
C 896 6 1216 12 1523 12 
C 1830 12 2150 6 2458 0 
L 2458 166 
L 2266 166 
C 1715 166 1702 236 1702 467 
L 1702 4083 
z
" transform="scale(0.015625)"/>
        <path id="CMR17-30" d="M 2688 2038 
C 2688 2430 2682 3099 2413 3613 
C 2176 4063 1798 4224 1466 4224 
C 1158 4224 768 4082 525 3620 
C 269 3137 243 2539 243 2038 
C 243 1671 250 1112 448 623 
C 723 -39 1216 -128 1466 -128 
C 1760 -128 2208 -7 2470 604 
C 2662 1048 2688 1568 2688 2038 
z
M 1466 -26 
C 1056 -26 813 328 723 816 
C 653 1196 653 1749 653 2109 
C 653 2604 653 3015 736 3407 
C 858 3954 1216 4121 1466 4121 
C 1728 4121 2067 3947 2189 3420 
C 2272 3054 2278 2623 2278 2109 
C 2278 1691 2278 1176 2202 797 
C 2067 96 1690 -26 1466 -26 
z
" transform="scale(0.015625)"/>
       </defs>
       <use xlink:href="#CMR17-31" transform="scale(0.996264)"/>
       <use xlink:href="#CMR17-30" transform="translate(45.690477 0)scale(0.996264)"/>
      </g>
     </g>
    </g>
    <g id="xtick_3">
     <g id="line2d_3">
      <g>
       <use xlink:href="#m00970f3a86" x="128.361174" y="149.172557" style="stroke: #000000; stroke-width: 0.8"/>
      </g>
     </g>
     <g id="text_3">
      <!-- $\mathdefault{15}$ -->
      <g transform="translate(123.379838 160.091055)scale(0.1 -0.1)">
       <use xlink:href="#CMR17-31" transform="scale(0.996264)"/>
       <use xlink:href="#CMR17-35" transform="translate(45.690477 0)scale(0.996264)"/>
      </g>
     </g>
    </g>
    <g id="xtick_4">
     <g id="line2d_4">
      <g>
       <use xlink:href="#m00970f3a86" x="169.887499" y="149.172557" style="stroke: #000000; stroke-width: 0.8"/>
      </g>
     </g>
     <g id="text_4">
      <!-- $\mathdefault{20}$ -->
      <g transform="translate(164.906164 160.091055)scale(0.1 -0.1)">
       <defs>
        <path id="CMR17-32" d="M 2669 990 
L 2554 990 
C 2490 537 2438 460 2413 422 
C 2381 371 1920 371 1830 371 
L 602 371 
C 832 620 1280 1073 1824 1596 
C 2214 1966 2669 2400 2669 3033 
C 2669 3788 2067 4224 1395 4224 
C 691 4224 262 3603 262 3027 
C 262 2777 448 2745 525 2745 
C 589 2745 781 2783 781 3007 
C 781 3206 614 3264 525 3264 
C 486 3264 448 3257 422 3244 
C 544 3788 915 4057 1306 4057 
C 1862 4057 2227 3616 2227 3033 
C 2227 2477 1901 1998 1536 1583 
L 262 147 
L 262 0 
L 2515 0 
L 2669 990 
z
" transform="scale(0.015625)"/>
       </defs>
       <use xlink:href="#CMR17-32" transform="scale(0.996264)"/>
       <use xlink:href="#CMR17-30" transform="translate(45.690477 0)scale(0.996264)"/>
      </g>
     </g>
    </g>
    <g id="text_5">
     <!-- $N$ -->
     <g transform="translate(116.053561 172.946732)scale(0.1 -0.1)">
      <defs>
       <path id="CMMI12-4e" d="M 4736 3682 
C 4806 3956 4909 4147 5395 4166 
C 5414 4166 5491 4172 5491 4281 
C 5491 4352 5434 4352 5408 4352 
C 5280 4352 4954 4339 4826 4339 
L 4518 4339 
C 4429 4339 4314 4352 4224 4352 
C 4186 4352 4109 4352 4109 4230 
C 4109 4166 4160 4166 4205 4166 
C 4589 4153 4614 4007 4614 3892 
C 4614 3835 4608 3816 4589 3726 
L 3866 854 
L 2496 4243 
C 2451 4345 2445 4352 2304 4352 
L 1523 4352 
C 1395 4352 1338 4352 1338 4230 
C 1338 4166 1382 4166 1504 4166 
C 1536 4166 1914 4166 1914 4109 
C 1914 4096 1901 4045 1894 4026 
L 1043 650 
C 966 338 813 204 390 185 
C 358 185 294 179 294 64 
C 294 0 358 0 378 0 
C 506 0 832 12 960 12 
L 1267 12 
C 1357 12 1466 0 1555 0 
C 1600 0 1670 0 1670 121 
C 1670 179 1606 185 1581 185 
C 1370 191 1165 230 1165 459 
C 1165 510 1178 567 1190 618 
L 2054 4026 
C 2093 3962 2093 3949 2118 3892 
L 3642 115 
C 3674 38 3686 0 3744 0 
C 3808 0 3814 19 3840 128 
L 4736 3682 
z
" transform="scale(0.015625)"/>
      </defs>
      <use xlink:href="#CMMI12-4e" transform="scale(0.996264)"/>
     </g>
    </g>
   </g>
   <g id="matplotlib.axis_2">
    <g id="ytick_1">
     <g id="line2d_5">
      <defs>
       <path id="med97d3cb07" d="M 0 0 
L -2 0 
" style="stroke: #000000; stroke-width: 0.8"/>
      </defs>
      <g>
       <use xlink:href="#med97d3cb07" x="37.003258" y="112.386937" style="stroke: #000000; stroke-width: 0.8"/>
      </g>
     </g>
     <g id="text_6">
      <!-- $\mathdefault{0.5}$ -->
      <g transform="translate(20.273179 115.846186)scale(0.1 -0.1)">
       <defs>
        <path id="CMMI12-3a" d="M 1178 307 
C 1178 492 1024 620 870 620 
C 685 620 557 467 557 313 
C 557 128 710 0 864 0 
C 1050 0 1178 153 1178 307 
z
" transform="scale(0.015625)"/>
       </defs>
       <use xlink:href="#CMR17-30" transform="scale(0.996264)"/>
       <use xlink:href="#CMMI12-3a" transform="translate(45.690477 0)scale(0.996264)"/>
       <use xlink:href="#CMR17-35" transform="translate(72.787654 0)scale(0.996264)"/>
      </g>
     </g>
    </g>
    <g id="ytick_2">
     <g id="line2d_6">
      <g>
       <use xlink:href="#med97d3cb07" x="37.003258" y="73.473264" style="stroke: #000000; stroke-width: 0.8"/>
      </g>
     </g>
     <g id="text_7">
      <!-- $\mathdefault{1.0}$ -->
      <g transform="translate(20.273179 76.932514)scale(0.1 -0.1)">
       <use xlink:href="#CMR17-31" transform="scale(0.996264)"/>
       <use xlink:href="#CMMI12-3a" transform="translate(45.690477 0)scale(0.996264)"/>
       <use xlink:href="#CMR17-30" transform="translate(72.787654 0)scale(0.996264)"/>
      </g>
     </g>
    </g>
    <g id="ytick_3">
     <g id="line2d_7">
      <g>
       <use xlink:href="#med97d3cb07" x="37.003258" y="34.559592" style="stroke: #000000; stroke-width: 0.8"/>
      </g>
     </g>
     <g id="text_8">
      <!-- $\mathdefault{1.5}$ -->
      <g transform="translate(20.273179 38.018842)scale(0.1 -0.1)">
       <use xlink:href="#CMR17-31" transform="scale(0.996264)"/>
       <use xlink:href="#CMMI12-3a" transform="translate(45.690477 0)scale(0.996264)"/>
       <use xlink:href="#CMR17-35" transform="translate(72.787654 0)scale(0.996264)"/>
      </g>
     </g>
    </g>
    <g id="text_9">
     <!-- $S_1(n)$$-\ln{N \choose n}$ -->
     <g transform="translate(12.786194 106.321066)rotate(-90)scale(0.1 -0.1)">
      <defs>
       <path id="CMMI12-53" d="M 4064 4422 
C 4064 4480 4019 4480 4006 4480 
C 3981 4480 3974 4473 3898 4377 
C 3859 4332 3597 4002 3590 3996 
C 3379 4409 2957 4480 2688 4480 
C 1875 4480 1139 3742 1139 3024 
C 1139 2547 1427 2268 1741 2160 
C 1811 2134 2189 2033 2381 1988 
C 2707 1899 2790 1874 2925 1734 
C 2950 1702 3078 1556 3078 1258 
C 3078 667 2528 57 1888 57 
C 1363 57 781 279 781 991 
C 781 1112 806 1264 826 1328 
C 826 1347 832 1378 832 1391 
C 832 1417 819 1448 768 1448 
C 710 1448 704 1436 678 1328 
L 352 25 
C 352 19 326 -64 326 -71 
C 326 -128 378 -128 390 -128 
C 416 -128 422 -122 499 -26 
L 794 356 
C 947 127 1280 -128 1875 -128 
C 2701 -128 3456 667 3456 1461 
C 3456 1728 3392 1963 3149 2198 
C 3014 2331 2899 2363 2310 2516 
C 1882 2630 1824 2649 1709 2751 
C 1600 2859 1517 3011 1517 3227 
C 1517 3761 2061 4307 2669 4307 
C 3296 4307 3590 3926 3590 3322 
C 3590 3157 3558 2986 3558 2960 
C 3558 2903 3610 2903 3629 2903 
C 3686 2903 3693 2922 3718 3024 
L 4064 4422 
z
" transform="scale(0.015625)"/>
       <path id="CMR17-28" d="M 1958 -1562 
C 1958 -1556 1958 -1543 1939 -1524 
C 1645 -1223 858 -403 858 1596 
C 858 3595 1632 4408 1946 4729 
C 1946 4735 1958 4748 1958 4767 
C 1958 4787 1939 4800 1914 4800 
C 1843 4800 1299 4325 986 3620 
C 666 2909 576 2218 576 1603 
C 576 1141 621 360 1005 -467 
C 1312 -1133 1837 -1600 1914 -1600 
C 1946 -1600 1958 -1588 1958 -1562 
z
" transform="scale(0.015625)"/>
       <path id="CMMI12-6e" d="M 1318 1870 
C 1331 1909 1491 2228 1728 2432 
C 1894 2585 2112 2687 2362 2687 
C 2618 2687 2707 2496 2707 2241 
C 2707 1877 2445 1149 2317 804 
C 2259 651 2227 568 2227 453 
C 2227 166 2426 -64 2733 -64 
C 3328 -64 3552 874 3552 913 
C 3552 945 3526 970 3488 970 
C 3430 970 3424 951 3392 842 
C 3245 319 3002 64 2752 64 
C 2688 64 2586 70 2586 274 
C 2586 434 2656 625 2694 715 
C 2822 1066 3091 1781 3091 2145 
C 3091 2528 2867 2816 2381 2816 
C 1811 2816 1510 2413 1395 2253 
C 1376 2617 1114 2816 832 2816 
C 627 2816 486 2694 378 2477 
C 262 2247 173 1864 173 1838 
C 173 1813 198 1781 243 1781 
C 294 1781 301 1787 339 1934 
C 442 2324 557 2687 813 2687 
C 960 2687 1011 2585 1011 2394 
C 1011 2253 947 2004 902 1807 
L 723 1117 
C 698 996 627 708 595 593 
C 550 427 480 127 480 95 
C 480 6 550 -64 646 -64 
C 723 -64 813 -26 864 70 
C 877 102 934 325 966 453 
L 1107 1028 
L 1318 1870 
z
" transform="scale(0.015625)"/>
       <path id="CMR17-29" d="M 1683 1596 
C 1683 2057 1638 2839 1254 3665 
C 947 4332 422 4800 346 4800 
C 326 4800 301 4793 301 4761 
C 301 4748 307 4742 314 4729 
C 621 4408 1402 3595 1402 1603 
C 1402 -396 627 -1210 314 -1530 
C 307 -1543 301 -1549 301 -1562 
C 301 -1594 326 -1600 346 -1600 
C 416 -1600 960 -1127 1274 -422 
C 1594 289 1683 981 1683 1596 
z
" transform="scale(0.015625)"/>
       <path id="CMSY10-0" d="M 4218 1472 
C 4326 1472 4442 1472 4442 1600 
C 4442 1728 4326 1728 4218 1728 
L 755 1728 
C 646 1728 531 1728 531 1600 
C 531 1472 646 1472 755 1472 
L 4218 1472 
z
" transform="scale(0.015625)"/>
       <path id="CMR17-6c" d="M 979 4416 
L 218 4345 
L 218 4179 
C 595 4179 653 4141 653 3835 
L 653 439 
C 653 198 627 166 218 166 
L 218 0 
C 371 12 653 12 813 12 
C 979 12 1261 12 1414 0 
L 1414 166 
C 1005 166 979 191 979 439 
L 979 4416 
z
" transform="scale(0.015625)"/>
       <path id="CMR17-6e" d="M 2656 1954 
C 2656 2282 2592 2816 1837 2816 
C 1331 2816 1069 2424 973 2166 
L 966 2166 
L 966 2816 
L 211 2745 
L 211 2578 
C 589 2578 646 2540 646 2231 
L 646 443 
C 646 198 621 166 211 166 
L 211 0 
C 365 12 646 12 813 12 
C 979 12 1267 12 1421 0 
L 1421 166 
C 1011 166 986 192 986 443 
L 986 1678 
C 986 2269 1344 2713 1792 2713 
C 2266 2713 2317 2289 2317 1980 
L 2317 443 
C 2317 198 2291 166 1882 166 
L 1882 0 
C 2035 12 2317 12 2483 12 
C 2650 12 2938 12 3091 0 
L 3091 166 
C 2682 166 2656 192 2656 443 
L 2656 1954 
z
" transform="scale(0.015625)"/>
       <path id="CMEX10-0" d="M 2643 -7360 
C 2643 -7335 2630 -7322 2618 -7303 
C 2323 -6989 1888 -6470 1619 -5426 
C 1472 -4843 1414 -4184 1414 -3588 
C 1414 -1903 1818 -725 2586 108 
C 2643 166 2643 179 2643 192 
C 2643 256 2592 256 2566 256 
C 2470 256 2125 -129 2042 -225 
C 1389 -1000 973 -2153 973 -3581 
C 973 -4491 1133 -5778 1971 -6861 
C 2035 -6938 2451 -7424 2566 -7424 
C 2592 -7424 2643 -7424 2643 -7360 
z
" transform="scale(0.015625)"/>
       <path id="CMEX10-1" d="M 1952 -3588 
C 1952 -2678 1792 -1391 954 -308 
C 890 -231 474 256 358 256 
C 326 256 282 243 282 192 
C 282 166 294 147 320 128 
C 627 -206 1043 -725 1306 -1743 
C 1453 -2326 1510 -2986 1510 -3581 
C 1510 -4228 1453 -4882 1286 -5509 
C 1043 -6406 666 -6919 339 -7277 
C 282 -7335 282 -7348 282 -7360 
C 282 -7412 326 -7424 358 -7424 
C 454 -7424 806 -7034 883 -6944 
C 1536 -6169 1952 -5016 1952 -3588 
z
" transform="scale(0.015625)"/>
      </defs>
      <use xlink:href="#CMMI12-53" transform="scale(0.996264)"/>
      <use xlink:href="#CMR17-31" transform="translate(59.994488 -14.943915)scale(0.697382)"/>
      <use xlink:href="#CMR17-28" transform="translate(92.475802 0)scale(0.996264)"/>
      <use xlink:href="#CMMI12-6e" transform="translate(127.75657 0)scale(0.996264)"/>
      <use xlink:href="#CMR17-29" transform="translate(185.986617 0)scale(0.996264)"/>
      <use xlink:href="#CMSY10-0" transform="translate(221.267385 0)scale(0.996264)"/>
      <use xlink:href="#CMR17-6c" transform="translate(315.359258 0)scale(0.996264)"/>
      <use xlink:href="#CMR17-6e" transform="translate(340.230316 0)scale(0.996264)"/>
      <use xlink:href="#CMEX10-0" transform="translate(407.730091 80.698084)scale(0.996264)"/>
      <use xlink:href="#CMMI12-4e" transform="translate(453.392445 44.207346)scale(0.697382)"/>
      <use xlink:href="#CMMI12-6e" transform="translate(463.994518 -34.355268)scale(0.697382)"/>
      <use xlink:href="#CMEX10-1" transform="translate(515.357418 80.698084)scale(0.996264)"/>
     </g>
    </g>
   </g>
   <g id="line2d_8">
    <path d="M 37.003258 129.296019 
L 45.745642 123.028698 
L 54.488026 116.761378 
L 63.230411 110.494058 
L 71.972795 104.226738 
L 80.715179 97.959418 
L 89.457564 91.692097 
L 98.199948 85.424777 
L 106.942332 79.157457 
L 115.684716 72.890137 
L 124.427101 66.622816 
L 133.169485 60.355496 
L 141.911869 54.088176 
L 150.654254 47.820856 
L 159.396638 41.553536 
L 168.139022 35.286215 
L 176.881407 29.018895 
L 185.623791 22.751575 
L 194.366175 16.484255 
L 203.108559 10.216934 
" clip-path="url(#pc39ab12771)" style="fill: none; stroke: #7ebce6; stroke-width: 0.75; stroke-linecap: round"/>
   </g>
   <g id="line2d_9">
    <path d="M 37.003258 132.019759 
L 45.745642 126.689626 
L 54.488026 121.359493 
L 63.230411 116.02936 
L 71.972795 110.699227 
L 80.715179 105.369094 
L 89.457564 100.038961 
L 98.199948 94.708828 
L 106.942332 89.378695 
L 115.684716 84.048562 
L 124.427101 78.718429 
L 133.169485 73.388296 
L 141.911869 68.058163 
L 150.654254 62.72803 
L 159.396638 57.397897 
L 168.139022 52.067764 
L 176.881407 46.737631 
L 185.623791 41.407498 
L 194.366175 36.077365 
L 203.108559 30.747232 
" clip-path="url(#pc39ab12771)" style="fill: none; stroke: #bdd73c; stroke-width: 0.75; stroke-linecap: round"/>
   </g>
   <g id="line2d_10">
    <path d="M 37.003258 136.088402 
L 45.745642 131.691199 
L 54.488026 127.293996 
L 63.230411 122.896793 
L 71.972795 118.49959 
L 80.715179 114.102387 
L 89.457564 109.705184 
L 98.199948 105.307981 
L 106.942332 100.910778 
L 115.684716 96.513575 
L 124.427101 92.116372 
L 133.169485 87.719169 
L 141.911869 83.321966 
L 150.654254 78.924763 
L 159.396638 74.52756 
L 168.139022 70.130357 
L 176.881407 65.733154 
L 185.623791 61.335951 
L 194.366175 56.938748 
L 203.108559 52.541545 
" clip-path="url(#pc39ab12771)" style="fill: none; stroke: #1a896f; stroke-width: 0.75; stroke-linecap: round"/>
   </g>
   <g id="line2d_11">
    <path d="M 37.003258 138.563817 
L 45.745642 134.906446 
L 54.488026 131.249075 
L 63.230411 127.591704 
L 71.972795 123.934333 
L 80.715179 120.276963 
L 89.457564 116.619592 
L 98.199948 112.962221 
L 106.942332 109.30485 
L 115.684716 105.64748 
L 124.427101 101.990109 
L 133.169485 98.332738 
L 141.911869 94.675367 
L 150.654254 91.017997 
L 159.396638 87.360626 
L 168.139022 83.703255 
L 176.881407 80.045884 
L 185.623791 76.388514 
L 194.366175 72.731143 
L 203.108559 69.073772 
" clip-path="url(#pc39ab12771)" style="fill: none; stroke: #0b2456; stroke-width: 0.75; stroke-linecap: round"/>
   </g>
   <g id="line2d_12">
    <path d="M 37.003258 140.210521 
L 45.745642 137.12597 
L 54.488026 134.041419 
L 63.230411 130.956868 
L 71.972795 127.872316 
L 80.715179 124.787765 
L 89.457564 121.703214 
L 98.199948 118.618663 
L 106.942332 115.534112 
L 115.684716 112.449561 
L 124.427101 109.36501 
L 133.169485 106.280458 
L 141.911869 103.195907 
L 150.654254 100.111356 
L 159.396638 97.026805 
L 168.139022 93.942254 
L 176.881407 90.857703 
L 185.623791 87.773152 
L 194.366175 84.6886 
L 203.108559 81.604049 
" clip-path="url(#pc39ab12771)" style="fill: none; stroke: #a40e4c; stroke-width: 0.75; stroke-linecap: round"/>
   </g>
   <g id="line2d_13">
    <path d="M 37.003258 141.535722 
L 45.745642 138.866172 
L 54.488026 136.196623 
L 63.230411 133.527073 
L 71.972795 130.857523 
L 80.715179 128.187974 
L 89.457564 125.518424 
L 98.199948 122.848874 
L 106.942332 120.179325 
L 115.684716 117.509775 
L 124.427101 114.840225 
L 133.169485 112.170675 
L 141.911869 109.501126 
L 150.654254 106.831576 
L 159.396638 104.162026 
L 168.139022 101.492477 
L 176.881407 98.822927 
L 185.623791 96.153377 
L 194.366175 93.483828 
L 203.108559 90.814278 
" clip-path="url(#pc39ab12771)" style="fill: none; stroke: #e71d36; stroke-width: 0.75; stroke-linecap: round"/>
   </g>
   <g id="line2d_14">
    <path d="M 37.003258 142.555623 
L 45.745642 140.204925 
L 54.488026 137.854227 
L 63.230411 135.503529 
L 71.972795 133.152831 
L 80.715179 130.802134 
L 89.457564 128.451436 
L 98.199948 126.100738 
L 106.942332 123.75004 
L 115.684716 121.399343 
L 124.427101 119.048645 
L 133.169485 116.697947 
L 141.911869 114.347249 
L 150.654254 111.996551 
L 159.396638 109.645854 
L 168.139022 107.295156 
L 176.881407 104.944458 
L 185.623791 102.59376 
L 194.366175 100.243062 
L 203.108559 97.892365 
" clip-path="url(#pc39ab12771)" style="fill: none; stroke: #ff9f1c; stroke-width: 0.75; stroke-linecap: round"/>
   </g>
   <g id="patch_3">
    <path d="M 37.003258 149.172557 
L 37.003258 3.6 
" style="fill: none; stroke: #000000; stroke-width: 0.8; stroke-linejoin: miter; stroke-linecap: square"/>
   </g>
   <g id="patch_4">
    <path d="M 203.108559 149.172557 
L 203.108559 3.6 
" style="fill: none; stroke: #000000; stroke-width: 0.8; stroke-linejoin: miter; stroke-linecap: square"/>
   </g>
   <g id="patch_5">
    <path d="M 37.003258 149.172557 
L 203.108559 149.172557 
" style="fill: none; stroke: #000000; stroke-width: 0.8; stroke-linejoin: miter; stroke-linecap: square"/>
   </g>
   <g id="patch_6">
    <path d="M 37.003258 3.6 
L 203.108559 3.6 
" style="fill: none; stroke: #000000; stroke-width: 0.8; stroke-linejoin: miter; stroke-linecap: square"/>
   </g>
   <g id="text_10">
    <!-- $V/J=-1.65$ -->
    <g transform="translate(45.308523 18.994124)scale(0.1 -0.1)">
     <defs>
      <path id="CMMI12-56" d="M 3962 3644 
C 4179 3987 4378 4140 4704 4166 
C 4768 4172 4819 4172 4819 4287 
C 4819 4313 4806 4352 4749 4352 
C 4634 4352 4358 4339 4243 4339 
C 4058 4339 3866 4352 3686 4352 
C 3635 4352 3571 4352 3571 4230 
C 3571 4172 3629 4166 3654 4166 
C 3891 4146 3917 4032 3917 3956 
C 3917 3860 3827 3714 3821 3708 
L 1811 540 
L 1363 3968 
C 1363 4153 1696 4166 1766 4166 
C 1862 4166 1920 4166 1920 4287 
C 1920 4352 1850 4352 1830 4352 
C 1722 4352 1594 4339 1485 4339 
L 1126 4339 
C 659 4339 467 4352 461 4352 
C 422 4352 346 4352 346 4236 
C 346 4166 390 4166 493 4166 
C 819 4166 838 4108 858 3949 
L 1370 25 
C 1389 -109 1389 -128 1478 -128 
C 1555 -128 1587 -109 1651 -7 
L 3962 3644 
z
" transform="scale(0.015625)"/>
      <path id="CMMI12-3d" d="M 2746 4563 
C 2746 4569 2784 4665 2784 4678 
C 2784 4755 2720 4800 2669 4800 
C 2637 4800 2579 4800 2528 4659 
L 384 -1364 
C 384 -1370 346 -1466 346 -1479 
C 346 -1556 410 -1600 461 -1600 
C 499 -1600 557 -1594 602 -1460 
L 2746 4563 
z
" transform="scale(0.015625)"/>
      <path id="CMMI12-4a" d="M 3418 3911 
C 3469 4102 3482 4166 3795 4166 
C 3898 4166 3962 4166 3962 4281 
C 3962 4352 3904 4352 3878 4352 
C 3770 4352 3648 4339 3533 4339 
L 3181 4339 
C 2912 4339 2630 4352 2362 4352 
C 2304 4352 2227 4352 2227 4236 
C 2227 4172 2278 4172 2278 4166 
L 2438 4166 
C 2950 4166 2950 4115 2950 4019 
C 2950 4013 2950 3968 2925 3866 
L 2189 953 
C 2022 304 1594 0 1286 0 
C 1069 0 762 99 685 428 
C 710 422 742 415 768 415 
C 979 415 1146 601 1146 787 
C 1146 889 1082 1024 890 1024 
C 774 1024 506 959 506 543 
C 506 149 838 -128 1299 -128 
C 1882 -128 2509 304 2662 908 
L 3418 3911 
z
" transform="scale(0.015625)"/>
      <path id="CMR17-3d" d="M 4115 2048 
C 4211 2048 4307 2048 4307 2156 
C 4307 2272 4198 2272 4090 2272 
L 512 2272 
C 403 2272 294 2272 294 2156 
C 294 2048 390 2048 486 2048 
L 4115 2048 
z
M 4090 927 
C 4198 927 4307 927 4307 1043 
C 4307 1152 4211 1152 4115 1152 
L 486 1152 
C 390 1152 294 1152 294 1043 
C 294 927 403 927 512 927 
L 4090 927 
z
" transform="scale(0.015625)"/>
      <path id="CMR17-36" d="M 678 2198 
C 678 3712 1395 4076 1811 4076 
C 1946 4076 2272 4049 2400 3782 
C 2298 3782 2106 3782 2106 3558 
C 2106 3385 2246 3328 2336 3328 
C 2394 3328 2566 3353 2566 3571 
C 2566 3987 2246 4224 1805 4224 
C 1043 4224 243 3411 243 2011 
C 243 257 966 -128 1478 -128 
C 2099 -128 2688 431 2688 1295 
C 2688 2101 2170 2688 1517 2688 
C 1126 2688 838 2430 678 1979 
L 678 2198 
z
M 1478 25 
C 691 25 691 1212 691 1450 
C 691 1914 909 2585 1504 2585 
C 1613 2585 1926 2585 2138 2140 
C 2253 1889 2253 1624 2253 1302 
C 2253 954 2253 696 2118 438 
C 1978 173 1773 25 1478 25 
z
" transform="scale(0.015625)"/>
     </defs>
     <use xlink:href="#CMMI12-56" transform="scale(0.996264)"/>
     <use xlink:href="#CMMI12-3d" transform="translate(67.70845 0)scale(0.996264)"/>
     <use xlink:href="#CMMI12-4a" transform="translate(116.483369 0)scale(0.996264)"/>
     <use xlink:href="#CMR17-3d" transform="translate(207.300048 0)scale(0.996264)"/>
     <use xlink:href="#CMSY10-0" transform="translate(306.688845 0)scale(0.996264)"/>
     <use xlink:href="#CMR17-31" transform="translate(384.176313 0)scale(0.996264)"/>
     <use xlink:href="#CMMI12-3a" transform="translate(429.86679 0)scale(0.996264)"/>
     <use xlink:href="#CMR17-36" transform="translate(456.963967 0)scale(0.996264)"/>
     <use xlink:href="#CMR17-35" transform="translate(502.654444 0)scale(0.996264)"/>
    </g>
   </g>
   <g id="PathCollection_1">
    <defs>
     <path id="mee77cad14f" d="M 0 1.581139 
C 0.419323 1.581139 0.821528 1.41454 1.118034 1.118034 
C 1.41454 0.821528 1.581139 0.419323 1.581139 0 
C 1.581139 -0.419323 1.41454 -0.821528 1.118034 -1.118034 
C 0.821528 -1.41454 0.419323 -1.581139 0 -1.581139 
C -0.419323 -1.581139 -0.821528 -1.41454 -1.118034 -1.118034 
C -1.41454 -0.821528 -1.581139 -0.419323 -1.581139 0 
C -1.581139 0.419323 -1.41454 0.821528 -1.118034 1.118034 
C -0.821528 1.41454 -0.419323 1.581139 0 1.581139 
z
" style="stroke: #7ebce6; stroke-width: 0.5"/>
    </defs>
    <g clip-path="url(#pc39ab12771)">
     <use xlink:href="#mee77cad14f" x="37.003258" y="129.833831" style="fill: #beddf2; stroke: #7ebce6; stroke-width: 0.5"/>
     <use xlink:href="#mee77cad14f" x="53.613788" y="117.152572" style="fill: #beddf2; stroke: #7ebce6; stroke-width: 0.5"/>
     <use xlink:href="#mee77cad14f" x="70.224318" y="105.081942" style="fill: #beddf2; stroke: #7ebce6; stroke-width: 0.5"/>
     <use xlink:href="#mee77cad14f" x="86.834848" y="93.296094" style="fill: #beddf2; stroke: #7ebce6; stroke-width: 0.5"/>
     <use xlink:href="#mee77cad14f" x="103.445378" y="81.664658" style="fill: #beddf2; stroke: #7ebce6; stroke-width: 0.5"/>
     <use xlink:href="#mee77cad14f" x="120.055909" y="70.12839" style="fill: #beddf2; stroke: #7ebce6; stroke-width: 0.5"/>
    </g>
   </g>
   <g id="PathCollection_2">
    <defs>
     <path id="m2793b193a9" d="M 0 1.581139 
C 0.419323 1.581139 0.821528 1.41454 1.118034 1.118034 
C 1.41454 0.821528 1.581139 0.419323 1.581139 0 
C 1.581139 -0.419323 1.41454 -0.821528 1.118034 -1.118034 
C 0.821528 -1.41454 0.419323 -1.581139 0 -1.581139 
C -0.419323 -1.581139 -0.821528 -1.41454 -1.118034 -1.118034 
C -1.41454 -0.821528 -1.581139 -0.419323 -1.581139 0 
C -1.581139 0.419323 -1.41454 0.821528 -1.118034 1.118034 
C -0.821528 1.41454 -0.419323 1.581139 0 1.581139 
z
" style="stroke: #bdd73c; stroke-width: 0.5"/>
    </defs>
    <g clip-path="url(#pc39ab12771)">
     <use xlink:href="#m2793b193a9" x="53.613788" y="122.048717" style="fill: #ddea9d; stroke: #bdd73c; stroke-width: 0.5"/>
     <use xlink:href="#m2793b193a9" x="78.529583" y="106.526497" style="fill: #ddea9d; stroke: #bdd73c; stroke-width: 0.5"/>
     <use xlink:href="#m2793b193a9" x="103.445378" y="91.392376" style="fill: #ddea9d; stroke: #bdd73c; stroke-width: 0.5"/>
     <use xlink:href="#m2793b193a9" x="128.361174" y="76.45716" style="fill: #ddea9d; stroke: #bdd73c; stroke-width: 0.5"/>
    </g>
   </g>
   <g id="PathCollection_3">
    <defs>
     <path id="m00994b9116" d="M 0 1.581139 
C 0.419323 1.581139 0.821528 1.41454 1.118034 1.118034 
C 1.41454 0.821528 1.581139 0.419323 1.581139 0 
C 1.581139 -0.419323 1.41454 -0.821528 1.118034 -1.118034 
C 0.821528 -1.41454 0.419323 -1.581139 0 -1.581139 
C -0.419323 -1.581139 -0.821528 -1.41454 -1.118034 -1.118034 
C -1.41454 -0.821528 -1.581139 -0.419323 -1.581139 0 
C -1.581139 0.419323 -1.41454 0.821528 -1.118034 1.118034 
C -0.821528 1.41454 -0.419323 1.581139 0 1.581139 
z
" style="stroke: #1a896f; stroke-width: 0.5"/>
    </defs>
    <g clip-path="url(#pc39ab12771)">
     <use xlink:href="#m00994b9116" x="37.003258" y="136.398915" style="fill: #8cc3b6; stroke: #1a896f; stroke-width: 0.5"/>
     <use xlink:href="#m00994b9116" x="70.224318" y="119.009372" style="fill: #8cc3b6; stroke: #1a896f; stroke-width: 0.5"/>
     <use xlink:href="#m00994b9116" x="103.445378" y="102.477439" style="fill: #8cc3b6; stroke: #1a896f; stroke-width: 0.5"/>
     <use xlink:href="#m00994b9116" x="136.666439" y="86.211654" style="fill: #8cc3b6; stroke: #1a896f; stroke-width: 0.5"/>
    </g>
   </g>
   <g id="PathCollection_4">
    <defs>
     <path id="m3393d87010" d="M 0 1.581139 
C 0.419323 1.581139 0.821528 1.41454 1.118034 1.118034 
C 1.41454 0.821528 1.581139 0.419323 1.581139 0 
C 1.581139 -0.419323 1.41454 -0.821528 1.118034 -1.118034 
C 0.821528 -1.41454 0.419323 -1.581139 0 -1.581139 
C -0.419323 -1.581139 -0.821528 -1.41454 -1.118034 -1.118034 
C -1.41454 -0.821528 -1.581139 -0.419323 -1.581139 0 
C -1.581139 0.419323 -1.41454 0.821528 -1.118034 1.118034 
C -0.821528 1.41454 -0.419323 1.581139 0 1.581139 
z
" style="stroke: #0b2456; stroke-width: 0.5"/>
    </defs>
    <g clip-path="url(#pc39ab12771)">
     <use xlink:href="#m3393d87010" x="45.308523" y="135.199334" style="fill: #8491aa; stroke: #0b2456; stroke-width: 0.5"/>
     <use xlink:href="#m3393d87010" x="86.834848" y="117.496763" style="fill: #8491aa; stroke: #0b2456; stroke-width: 0.5"/>
     <use xlink:href="#m3393d87010" x="128.361174" y="100.454312" style="fill: #8491aa; stroke: #0b2456; stroke-width: 0.5"/>
    </g>
   </g>
   <g id="PathCollection_5">
    <defs>
     <path id="m2be3e13c83" d="M 0 1.581139 
C 0.419323 1.581139 0.821528 1.41454 1.118034 1.118034 
C 1.41454 0.821528 1.581139 0.419323 1.581139 0 
C 1.581139 -0.419323 1.41454 -0.821528 1.118034 -1.118034 
C 0.821528 -1.41454 0.419323 -1.581139 0 -1.581139 
C -0.419323 -1.581139 -0.821528 -1.41454 -1.118034 -1.118034 
C -1.41454 -0.821528 -1.581139 -0.419323 -1.581139 0 
C -1.581139 0.419323 -1.41454 0.821528 -1.118034 1.118034 
C -0.821528 1.41454 -0.419323 1.581139 0 1.581139 
z
" style="stroke: #a40e4c; stroke-width: 0.5"/>
    </defs>
    <g clip-path="url(#pc39ab12771)">
     <use xlink:href="#m2be3e13c83" x="53.613788" y="134.42503" style="fill: #d186a5; stroke: #a40e4c; stroke-width: 0.5"/>
     <use xlink:href="#m2be3e13c83" x="103.445378" y="116.61762" style="fill: #d186a5; stroke: #a40e4c; stroke-width: 0.5"/>
     <use xlink:href="#m2be3e13c83" x="153.276969" y="99.261147" style="fill: #d186a5; stroke: #a40e4c; stroke-width: 0.5"/>
    </g>
   </g>
   <g id="PathCollection_6">
    <defs>
     <path id="m3dea5c784e" d="M 0 1.581139 
C 0.419323 1.581139 0.821528 1.41454 1.118034 1.118034 
C 1.41454 0.821528 1.581139 0.419323 1.581139 0 
C 1.581139 -0.419323 1.41454 -0.821528 1.118034 -1.118034 
C 0.821528 -1.41454 0.419323 -1.581139 0 -1.581139 
C -0.419323 -1.581139 -0.821528 -1.41454 -1.118034 -1.118034 
C -1.41454 -0.821528 -1.581139 -0.419323 -1.581139 0 
C -1.581139 0.419323 -1.41454 0.821528 -1.118034 1.118034 
C -0.821528 1.41454 -0.419323 1.581139 0 1.581139 
z
" style="stroke: #e71d36; stroke-width: 0.5"/>
    </defs>
    <g clip-path="url(#pc39ab12771)">
     <use xlink:href="#m3dea5c784e" x="61.919053" y="133.988732" style="fill: #f28d9a; stroke: #e71d36; stroke-width: 0.5"/>
     <use xlink:href="#m3dea5c784e" x="120.055909" y="116.052546" style="fill: #f28d9a; stroke: #e71d36; stroke-width: 0.5"/>
     <use xlink:href="#m3dea5c784e" x="178.192764" y="98.483722" style="fill: #f28d9a; stroke: #e71d36; stroke-width: 0.5"/>
    </g>
   </g>
   <g id="PathCollection_7">
    <defs>
     <path id="m9bd0e8cc9a" d="M 0 1.581139 
C 0.419323 1.581139 0.821528 1.41454 1.118034 1.118034 
C 1.41454 0.821528 1.581139 0.419323 1.581139 0 
C 1.581139 -0.419323 1.41454 -0.821528 1.118034 -1.118034 
C 0.821528 -1.41454 0.419323 -1.581139 0 -1.581139 
C -0.419323 -1.581139 -0.821528 -1.41454 -1.118034 -1.118034 
C -1.41454 -0.821528 -1.581139 -0.419323 -1.581139 0 
C -1.581139 0.419323 -1.41454 0.821528 -1.118034 1.118034 
C -0.821528 1.41454 -0.419323 1.581139 0 1.581139 
z
" style="stroke: #ff9f1c; stroke-width: 0.5"/>
    </defs>
    <g clip-path="url(#pc39ab12771)">
     <use xlink:href="#m9bd0e8cc9a" x="70.224318" y="133.670281" style="fill: #fece8d; stroke: #ff9f1c; stroke-width: 0.5"/>
     <use xlink:href="#m9bd0e8cc9a" x="136.666439" y="115.663049" style="fill: #fece8d; stroke: #ff9f1c; stroke-width: 0.5"/>
     <use xlink:href="#m9bd0e8cc9a" x="203.108559" y="97.939674" style="fill: #fece8d; stroke: #ff9f1c; stroke-width: 0.5"/>
    </g>
   </g>
  </g>
  <g id="axes_2">
   <g id="patch_7">
    <path d="M 227.782218 149.172557 
L 393.88752 149.172557 
L 393.88752 3.6 
L 227.782218 3.6 
L 227.782218 149.172557 
z
" style="fill: none"/>
   </g>
   <g id="matplotlib.axis_3">
    <g id="xtick_5">
     <g id="line2d_15">
      <g>
       <use xlink:href="#m00970f3a86" x="236.087483" y="149.172557" style="stroke: #000000; stroke-width: 0.8"/>
      </g>
     </g>
     <g id="text_11">
      <!-- $\mathdefault{5}$ -->
      <g transform="translate(233.596816 160.091055)scale(0.1 -0.1)">
       <use xlink:href="#CMR17-35" transform="scale(0.996264)"/>
      </g>
     </g>
    </g>
    <g id="xtick_6">
     <g id="line2d_16">
      <g>
       <use xlink:href="#m00970f3a86" x="277.613809" y="149.172557" style="stroke: #000000; stroke-width: 0.8"/>
      </g>
     </g>
     <g id="text_12">
      <!-- $\mathdefault{10}$ -->
      <g transform="translate(272.632473 160.091055)scale(0.1 -0.1)">
       <use xlink:href="#CMR17-31" transform="scale(0.996264)"/>
       <use xlink:href="#CMR17-30" transform="translate(45.690477 0)scale(0.996264)"/>
      </g>
     </g>
    </g>
    <g id="xtick_7">
     <g id="line2d_17">
      <g>
       <use xlink:href="#m00970f3a86" x="319.140134" y="149.172557" style="stroke: #000000; stroke-width: 0.8"/>
      </g>
     </g>
     <g id="text_13">
      <!-- $\mathdefault{15}$ -->
      <g transform="translate(314.158799 160.091055)scale(0.1 -0.1)">
       <use xlink:href="#CMR17-31" transform="scale(0.996264)"/>
       <use xlink:href="#CMR17-35" transform="translate(45.690477 0)scale(0.996264)"/>
      </g>
     </g>
    </g>
    <g id="xtick_8">
     <g id="line2d_18">
      <g>
       <use xlink:href="#m00970f3a86" x="360.66646" y="149.172557" style="stroke: #000000; stroke-width: 0.8"/>
      </g>
     </g>
     <g id="text_14">
      <!-- $\mathdefault{20}$ -->
      <g transform="translate(355.685124 160.091055)scale(0.1 -0.1)">
       <use xlink:href="#CMR17-32" transform="scale(0.996264)"/>
       <use xlink:href="#CMR17-30" transform="translate(45.690477 0)scale(0.996264)"/>
      </g>
     </g>
    </g>
    <g id="text_15">
     <!-- $N$ -->
     <g transform="translate(306.832521 172.946732)scale(0.1 -0.1)">
      <use xlink:href="#CMMI12-4e" transform="scale(0.996264)"/>
     </g>
    </g>
   </g>
   <g id="matplotlib.axis_4">
    <g id="ytick_4">
     <g id="line2d_19">
      <g>
       <use xlink:href="#med97d3cb07" x="227.782218" y="112.386937" style="stroke: #000000; stroke-width: 0.8"/>
      </g>
     </g>
    </g>
    <g id="ytick_5">
     <g id="line2d_20">
      <g>
       <use xlink:href="#med97d3cb07" x="227.782218" y="73.473264" style="stroke: #000000; stroke-width: 0.8"/>
      </g>
     </g>
    </g>
    <g id="ytick_6">
     <g id="line2d_21">
      <g>
       <use xlink:href="#med97d3cb07" x="227.782218" y="34.559592" style="stroke: #000000; stroke-width: 0.8"/>
      </g>
     </g>
    </g>
    <g id="text_16">
     <!-- $[S_1(n)$$-\ln{N \choose n}]/\sin{(\pi n/N)}$ -->
     <g transform="translate(218.295233 135.997415)rotate(-90)scale(0.1 -0.1)">
      <defs>
       <path id="CMR17-5b" d="M 1504 -1600 
L 1504 -1376 
L 902 -1376 
L 902 4575 
L 1504 4575 
L 1504 4800 
L 678 4800 
L 678 -1600 
L 1504 -1600 
z
" transform="scale(0.015625)"/>
       <path id="CMR17-5d" d="M 915 4800 
L 90 4800 
L 90 4575 
L 691 4575 
L 691 -1376 
L 90 -1376 
L 90 -1600 
L 915 -1600 
L 915 4800 
z
" transform="scale(0.015625)"/>
       <path id="CMR17-73" d="M 1978 2688 
C 1978 2803 1971 2809 1933 2809 
C 1907 2809 1901 2803 1824 2707 
C 1805 2681 1747 2617 1728 2592 
C 1523 2809 1235 2816 1126 2816 
C 416 2816 160 2444 160 2073 
C 160 1497 813 1363 998 1324 
C 1402 1241 1542 1216 1677 1100 
C 1760 1024 1901 883 1901 652 
C 1901 384 1747 38 1158 38 
C 602 38 403 460 288 1024 
C 269 1113 269 1120 218 1120 
C 166 1120 160 1113 160 985 
L 160 64 
C 160 -52 166 -58 205 -58 
C 237 -58 243 -52 275 0 
C 314 57 410 211 448 275 
C 576 102 800 -64 1158 -64 
C 1792 -64 2131 281 2131 780 
C 2131 1107 1958 1280 1875 1356 
C 1683 1555 1459 1600 1190 1651 
C 838 1728 390 1817 390 2208 
C 390 2374 480 2726 1126 2726 
C 1811 2726 1850 2086 1862 1881 
C 1869 1849 1901 1843 1920 1843 
C 1978 1843 1978 1862 1978 1971 
L 1978 2688 
z
" transform="scale(0.015625)"/>
       <path id="CMR17-69" d="M 992 3961 
C 992 4102 877 4224 730 4224 
C 589 4224 467 4108 467 3961 
C 467 3820 582 3699 730 3699 
C 870 3699 992 3814 992 3961 
z
M 243 2745 
L 243 2579 
C 602 2579 653 2540 653 2231 
L 653 443 
C 653 198 627 166 218 166 
L 218 0 
C 371 12 646 12 806 12 
C 960 12 1222 12 1370 0 
L 1370 166 
C 992 166 979 205 979 436 
L 979 2816 
L 243 2745 
z
" transform="scale(0.015625)"/>
       <path id="CMMI12-19" d="M 1658 2406 
L 2381 2406 
C 2208 1691 2099 1225 2099 715 
C 2099 625 2099 -64 2362 -64 
C 2496 -64 2611 57 2611 166 
C 2611 198 2611 210 2566 306 
C 2394 746 2394 1295 2394 1340 
C 2394 1378 2394 1832 2528 2406 
L 3245 2406 
C 3328 2406 3539 2406 3539 2611 
C 3539 2752 3418 2752 3302 2752 
L 1197 2752 
C 1050 2752 832 2752 538 2438 
C 371 2253 166 1915 166 1876 
C 166 1838 198 1825 237 1825 
C 282 1825 288 1844 320 1883 
C 653 2406 986 2406 1146 2406 
L 1510 2406 
C 1370 1927 1210 1372 685 255 
C 634 153 634 140 634 102 
C 634 -32 749 -64 806 -64 
C 992 -64 1043 102 1120 370 
C 1222 695 1222 708 1286 964 
L 1658 2406 
z
" transform="scale(0.015625)"/>
      </defs>
      <use xlink:href="#CMR17-5b" transform="scale(0.996264)"/>
      <use xlink:href="#CMMI12-53" transform="translate(24.871058 0)scale(0.996264)"/>
      <use xlink:href="#CMR17-31" transform="translate(84.865546 -14.943915)scale(0.697382)"/>
      <use xlink:href="#CMR17-28" transform="translate(117.34686 0)scale(0.996264)"/>
      <use xlink:href="#CMMI12-6e" transform="translate(152.627628 0)scale(0.996264)"/>
      <use xlink:href="#CMR17-29" transform="translate(210.857675 0)scale(0.996264)"/>
      <use xlink:href="#CMSY10-0" transform="translate(246.138443 0)scale(0.996264)"/>
      <use xlink:href="#CMR17-6c" transform="translate(340.230316 0)scale(0.996264)"/>
      <use xlink:href="#CMR17-6e" transform="translate(365.101375 0)scale(0.996264)"/>
      <use xlink:href="#CMEX10-0" transform="translate(432.60115 80.698084)scale(0.996264)"/>
      <use xlink:href="#CMMI12-4e" transform="translate(478.263503 44.207346)scale(0.697382)"/>
      <use xlink:href="#CMMI12-6e" transform="translate(488.865576 -34.355268)scale(0.697382)"/>
      <use xlink:href="#CMEX10-1" transform="translate(540.228477 80.698084)scale(0.996264)"/>
      <use xlink:href="#CMR17-5d" transform="translate(585.890831 0)scale(0.996264)"/>
      <use xlink:href="#CMMI12-3d" transform="translate(610.761889 0)scale(0.996264)"/>
      <use xlink:href="#CMR17-73" transform="translate(676.141213 0)scale(0.996264)"/>
      <use xlink:href="#CMR17-69" transform="translate(711.942551 0)scale(0.996264)"/>
      <use xlink:href="#CMR17-6e" transform="translate(736.813609 0)scale(0.996264)"/>
      <use xlink:href="#CMR17-28" transform="translate(804.313384 0)scale(0.996264)"/>
      <use xlink:href="#CMMI12-19" transform="translate(839.594152 0)scale(0.996264)"/>
      <use xlink:href="#CMMI12-6e" transform="translate(898.504753 0)scale(0.996264)"/>
      <use xlink:href="#CMMI12-3d" transform="translate(956.7348 0)scale(0.996264)"/>
      <use xlink:href="#CMMI12-4e" transform="translate(1000.090283 0)scale(0.996264)"/>
      <use xlink:href="#CMR17-29" transform="translate(1088.612056 0)scale(0.996264)"/>
     </g>
    </g>
   </g>
   <g id="patch_8">
    <path d="M 227.782218 149.172557 
L 227.782218 3.6 
" style="fill: none; stroke: #000000; stroke-width: 0.8; stroke-linejoin: miter; stroke-linecap: square"/>
   </g>
   <g id="patch_9">
    <path d="M 393.88752 149.172557 
L 393.88752 3.6 
" style="fill: none; stroke: #000000; stroke-width: 0.8; stroke-linejoin: miter; stroke-linecap: square"/>
   </g>
   <g id="patch_10">
    <path d="M 227.782218 149.172557 
L 393.88752 149.172557 
" style="fill: none; stroke: #000000; stroke-width: 0.8; stroke-linejoin: miter; stroke-linecap: square"/>
   </g>
   <g id="patch_11">
    <path d="M 227.782218 3.6 
L 393.88752 3.6 
" style="fill: none; stroke: #000000; stroke-width: 0.8; stroke-linejoin: miter; stroke-linecap: square"/>
   </g>
   <g id="text_17">
    <!-- $n/N$ -->
    <g transform="translate(339.762405 87.638026)scale(0.1 -0.1)">
     <use xlink:href="#CMMI12-6e" transform="scale(0.996264)"/>
     <use xlink:href="#CMMI12-3d" transform="translate(58.230047 0)scale(0.996264)"/>
     <use xlink:href="#CMMI12-4e" transform="translate(101.585531 0)scale(0.996264)"/>
    </g>
   </g>
   <g id="legend_1">
    <g id="PathCollection_8">
     <g>
      <use xlink:href="#mee77cad14f" x="316.068551" y="96.14679" style="fill: #beddf2; stroke: #7ebce6; stroke-width: 0.5"/>
     </g>
    </g>
    <g id="text_18">
     <!-- 1/2 -->
     <g transform="translate(328.068551 98.24679)scale(0.08 -0.08)">
      <defs>
       <path id="CMR17-2f" d="M 2605 4575 
C 2637 4658 2637 4671 2637 4684 
C 2637 4761 2579 4800 2528 4800 
C 2451 4800 2426 4748 2400 4671 
L 326 -1376 
C 294 -1460 294 -1472 294 -1485 
C 294 -1562 352 -1600 403 -1600 
C 480 -1600 506 -1549 531 -1472 
L 2605 4575 
z
" transform="scale(0.015625)"/>
      </defs>
      <use xlink:href="#CMR17-31" transform="scale(0.996264)"/>
      <use xlink:href="#CMR17-2f" transform="translate(45.690477 0)scale(0.996264)"/>
      <use xlink:href="#CMR17-32" transform="translate(91.380954 0)scale(0.996264)"/>
     </g>
    </g>
    <g id="PathCollection_9">
     <g>
      <use xlink:href="#m2793b193a9" x="316.068551" y="108.116903" style="fill: #ddea9d; stroke: #bdd73c; stroke-width: 0.5"/>
     </g>
    </g>
    <g id="text_19">
     <!-- 1/3 -->
     <g transform="translate(328.068551 110.216903)scale(0.08 -0.08)">
      <defs>
       <path id="CMR17-33" d="M 1414 2176 
C 1984 2176 2234 1673 2234 1094 
C 2234 322 1824 25 1453 25 
C 1114 25 563 193 390 691 
C 422 678 454 678 486 678 
C 640 678 755 780 755 947 
C 755 1132 614 1216 486 1216 
C 378 1216 211 1164 211 927 
C 211 335 787 -128 1466 -128 
C 2176 -128 2720 432 2720 1087 
C 2720 1718 2208 2176 1600 2246 
C 2086 2347 2554 2776 2554 3353 
C 2554 3856 2048 4224 1472 4224 
C 890 4224 378 3862 378 3347 
C 378 3123 544 3084 627 3084 
C 762 3084 877 3167 877 3334 
C 877 3500 762 3584 627 3584 
C 602 3584 570 3584 544 3571 
C 730 3999 1235 4076 1459 4076 
C 1683 4076 2106 3966 2106 3347 
C 2106 3167 2080 2851 1862 2574 
C 1670 2329 1453 2316 1242 2297 
C 1210 2297 1062 2284 1037 2284 
C 992 2278 966 2272 966 2227 
C 966 2182 973 2176 1101 2176 
L 1414 2176 
z
" transform="scale(0.015625)"/>
      </defs>
      <use xlink:href="#CMR17-31" transform="scale(0.996264)"/>
      <use xlink:href="#CMR17-2f" transform="translate(45.690477 0)scale(0.996264)"/>
      <use xlink:href="#CMR17-33" transform="translate(91.380954 0)scale(0.996264)"/>
     </g>
    </g>
    <g id="PathCollection_10">
     <g>
      <use xlink:href="#m00994b9116" x="316.068551" y="120.087015" style="fill: #8cc3b6; stroke: #1a896f; stroke-width: 0.5"/>
     </g>
    </g>
    <g id="text_20">
     <!-- 1/4 -->
     <g transform="translate(328.068551 122.187015)scale(0.08 -0.08)">
      <defs>
       <path id="CMR17-34" d="M 2150 4147 
C 2150 4281 2144 4288 2029 4288 
L 128 1254 
L 128 1088 
L 1779 1088 
L 1779 460 
C 1779 230 1766 166 1318 166 
L 1197 166 
L 1197 0 
C 1402 12 1747 12 1965 12 
C 2182 12 2528 12 2733 0 
L 2733 166 
L 2611 166 
C 2163 166 2150 230 2150 460 
L 2150 1088 
L 2803 1088 
L 2803 1254 
L 2150 1254 
L 2150 4147 
z
M 1798 3723 
L 1798 1254 
L 256 1254 
L 1798 3723 
z
" transform="scale(0.015625)"/>
      </defs>
      <use xlink:href="#CMR17-31" transform="scale(0.996264)"/>
      <use xlink:href="#CMR17-2f" transform="translate(45.690477 0)scale(0.996264)"/>
      <use xlink:href="#CMR17-34" transform="translate(91.380954 0)scale(0.996264)"/>
     </g>
    </g>
    <g id="PathCollection_11">
     <g>
      <use xlink:href="#m3393d87010" x="316.068551" y="132.057127" style="fill: #8491aa; stroke: #0b2456; stroke-width: 0.5"/>
     </g>
    </g>
    <g id="text_21">
     <!-- 1/5 -->
     <g transform="translate(328.068551 134.157127)scale(0.08 -0.08)">
      <use xlink:href="#CMR17-31" transform="scale(0.996264)"/>
      <use xlink:href="#CMR17-2f" transform="translate(45.690477 0)scale(0.996264)"/>
      <use xlink:href="#CMR17-35" transform="translate(91.380954 0)scale(0.996264)"/>
     </g>
    </g>
    <g id="PathCollection_12">
     <g>
      <use xlink:href="#m2be3e13c83" x="351.9711" y="96.14679" style="fill: #d186a5; stroke: #a40e4c; stroke-width: 0.5"/>
     </g>
    </g>
    <g id="text_22">
     <!-- 1/6 -->
     <g transform="translate(363.9711 98.24679)scale(0.08 -0.08)">
      <use xlink:href="#CMR17-31" transform="scale(0.996264)"/>
      <use xlink:href="#CMR17-2f" transform="translate(45.690477 0)scale(0.996264)"/>
      <use xlink:href="#CMR17-36" transform="translate(91.380954 0)scale(0.996264)"/>
     </g>
    </g>
    <g id="PathCollection_13">
     <g>
      <use xlink:href="#m3dea5c784e" x="351.9711" y="108.116903" style="fill: #f28d9a; stroke: #e71d36; stroke-width: 0.5"/>
     </g>
    </g>
    <g id="text_23">
     <!-- 1/7 -->
     <g transform="translate(363.9711 110.216903)scale(0.08 -0.08)">
      <defs>
       <path id="CMR17-37" d="M 2886 3955 
L 2886 4096 
L 1382 4096 
C 634 4096 621 4166 595 4288 
L 480 4288 
L 294 3104 
L 410 3104 
C 429 3226 474 3552 550 3673 
C 589 3724 1062 3724 1171 3724 
L 2579 3724 
L 1869 2670 
C 1395 1961 1069 1003 1069 166 
C 1069 89 1069 -128 1299 -128 
C 1530 -128 1530 89 1530 172 
L 1530 466 
C 1530 1514 1709 2204 2003 2644 
L 2886 3955 
z
" transform="scale(0.015625)"/>
      </defs>
      <use xlink:href="#CMR17-31" transform="scale(0.996264)"/>
      <use xlink:href="#CMR17-2f" transform="translate(45.690477 0)scale(0.996264)"/>
      <use xlink:href="#CMR17-37" transform="translate(91.380954 0)scale(0.996264)"/>
     </g>
    </g>
    <g id="PathCollection_14">
     <g>
      <use xlink:href="#m9bd0e8cc9a" x="351.9711" y="120.087015" style="fill: #fece8d; stroke: #ff9f1c; stroke-width: 0.5"/>
     </g>
    </g>
    <g id="text_24">
     <!-- 1/8 -->
     <g transform="translate(363.9711 122.187015)scale(0.08 -0.08)">
      <defs>
       <path id="CMR17-38" d="M 1741 2289 
C 2144 2494 2554 2803 2554 3298 
C 2554 3884 1990 4224 1472 4224 
C 890 4224 378 3800 378 3215 
C 378 3054 416 2777 666 2533 
C 730 2469 998 2276 1171 2154 
C 883 2006 211 1652 211 945 
C 211 282 838 -128 1459 -128 
C 2144 -128 2720 366 2720 1022 
C 2720 1607 2330 1877 2074 2051 
L 1741 2289 
z
M 902 2855 
C 851 2887 595 3086 595 3388 
C 595 3781 998 4076 1459 4076 
C 1965 4076 2336 3716 2336 3298 
C 2336 2700 1670 2359 1638 2359 
C 1632 2359 1626 2359 1574 2398 
L 902 2855 
z
M 2080 1536 
C 2176 1466 2483 1253 2483 861 
C 2483 385 2010 25 1472 25 
C 890 25 448 443 448 951 
C 448 1459 838 1884 1280 2083 
L 2080 1536 
z
" transform="scale(0.015625)"/>
      </defs>
      <use xlink:href="#CMR17-31" transform="scale(0.996264)"/>
      <use xlink:href="#CMR17-2f" transform="translate(45.690477 0)scale(0.996264)"/>
      <use xlink:href="#CMR17-38" transform="translate(91.380954 0)scale(0.996264)"/>
     </g>
    </g>
   </g>
   <g id="PathCollection_15">
    <g clip-path="url(#p41d40a7c10)">
     <use xlink:href="#mee77cad14f" x="227.782218" y="129.833831" style="fill: #beddf2; stroke: #7ebce6; stroke-width: 0.5"/>
     <use xlink:href="#mee77cad14f" x="244.392748" y="117.152572" style="fill: #beddf2; stroke: #7ebce6; stroke-width: 0.5"/>
     <use xlink:href="#mee77cad14f" x="261.003279" y="105.081942" style="fill: #beddf2; stroke: #7ebce6; stroke-width: 0.5"/>
     <use xlink:href="#mee77cad14f" x="277.613809" y="93.296094" style="fill: #beddf2; stroke: #7ebce6; stroke-width: 0.5"/>
     <use xlink:href="#mee77cad14f" x="294.224339" y="81.664658" style="fill: #beddf2; stroke: #7ebce6; stroke-width: 0.5"/>
     <use xlink:href="#mee77cad14f" x="310.834869" y="70.12839" style="fill: #beddf2; stroke: #7ebce6; stroke-width: 0.5"/>
    </g>
   </g>
   <g id="PathCollection_16">
    <g clip-path="url(#p41d40a7c10)">
     <use xlink:href="#m2793b193a9" x="244.392748" y="117.523433" style="fill: #ddea9d; stroke: #bdd73c; stroke-width: 0.5"/>
     <use xlink:href="#m2793b193a9" x="269.308544" y="99.599918" style="fill: #ddea9d; stroke: #bdd73c; stroke-width: 0.5"/>
     <use xlink:href="#m2793b193a9" x="294.224339" y="82.12454" style="fill: #ddea9d; stroke: #bdd73c; stroke-width: 0.5"/>
     <use xlink:href="#m2793b193a9" x="319.140134" y="64.878839" style="fill: #ddea9d; stroke: #bdd73c; stroke-width: 0.5"/>
    </g>
   </g>
   <g id="PathCollection_17">
    <g clip-path="url(#p41d40a7c10)">
     <use xlink:href="#m00994b9116" x="227.782218" y="130.226431" style="fill: #8cc3b6; stroke: #1a896f; stroke-width: 0.5"/>
     <use xlink:href="#m00994b9116" x="261.003279" y="105.633904" style="fill: #8cc3b6; stroke: #1a896f; stroke-width: 0.5"/>
     <use xlink:href="#m00994b9116" x="294.224339" y="82.254219" style="fill: #8cc3b6; stroke: #1a896f; stroke-width: 0.5"/>
     <use xlink:href="#m00994b9116" x="327.445399" y="59.250926" style="fill: #8cc3b6; stroke: #1a896f; stroke-width: 0.5"/>
    </g>
   </g>
   <g id="PathCollection_18">
    <g clip-path="url(#p41d40a7c10)">
     <use xlink:href="#m3393d87010" x="236.087483" y="123.907485" style="fill: #8491aa; stroke: #0b2456; stroke-width: 0.5"/>
     <use xlink:href="#m3393d87010" x="277.613809" y="93.790072" style="fill: #8491aa; stroke: #0b2456; stroke-width: 0.5"/>
     <use xlink:href="#m3393d87010" x="319.140134" y="64.795722" style="fill: #8491aa; stroke: #0b2456; stroke-width: 0.5"/>
    </g>
   </g>
   <g id="PathCollection_19">
    <g clip-path="url(#p41d40a7c10)">
     <use xlink:href="#m2be3e13c83" x="244.392748" y="117.549451" style="fill: #d186a5; stroke: #a40e4c; stroke-width: 0.5"/>
     <use xlink:href="#m2be3e13c83" x="294.224339" y="81.934632" style="fill: #d186a5; stroke: #a40e4c; stroke-width: 0.5"/>
     <use xlink:href="#m2be3e13c83" x="344.055929" y="47.221685" style="fill: #d186a5; stroke: #a40e4c; stroke-width: 0.5"/>
    </g>
   </g>
   <g id="PathCollection_20">
    <g clip-path="url(#p41d40a7c10)">
     <use xlink:href="#m3dea5c784e" x="252.698013" y="111.400804" style="fill: #f28d9a; stroke: #e71d36; stroke-width: 0.5"/>
     <use xlink:href="#m3dea5c784e" x="310.834869" y="70.062113" style="fill: #f28d9a; stroke: #e71d36; stroke-width: 0.5"/>
     <use xlink:href="#m3dea5c784e" x="368.971725" y="29.570103" style="fill: #f28d9a; stroke: #e71d36; stroke-width: 0.5"/>
    </g>
   </g>
   <g id="PathCollection_21">
    <g clip-path="url(#p41d40a7c10)">
     <use xlink:href="#m9bd0e8cc9a" x="261.003279" y="105.230341" style="fill: #fece8d; stroke: #ff9f1c; stroke-width: 0.5"/>
     <use xlink:href="#m9bd0e8cc9a" x="327.445399" y="58.175177" style="fill: #fece8d; stroke: #ff9f1c; stroke-width: 0.5"/>
     <use xlink:href="#m9bd0e8cc9a" x="393.88752" y="11.861767" style="fill: #fece8d; stroke: #ff9f1c; stroke-width: 0.5"/>
    </g>
   </g>
  </g>
 </g>
 <defs>
  <clipPath id="pc39ab12771">
   <rect x="37.003258" y="3.6" width="166.105302" height="145.572557"/>
  </clipPath>
  <clipPath id="p41d40a7c10">
   <rect x="227.782218" y="3.6" width="166.105302" height="145.572557"/>
  </clipPath>
 </defs>
</svg>
