<?xml version="1.0" encoding="utf-8" standalone="no"?>
<!DOCTYPE svg PUBLIC "-//W3C//DTD SVG 1.1//EN"
  "http://www.w3.org/Graphics/SVG/1.1/DTD/svg11.dtd">
<svg xmlns:xlink="http://www.w3.org/1999/xlink" width="348.021869pt" height="170.527297pt" viewBox="0 0 348.021869 170.527297" xmlns="http://www.w3.org/2000/svg" version="1.1">
 <metadata>
  <rdf:RDF xmlns:dc="http://purl.org/dc/elements/1.1/" xmlns:cc="http://creativecommons.org/ns#" xmlns:rdf="http://www.w3.org/1999/02/22-rdf-syntax-ns#">
   <cc:Work>
    <dc:type rdf:resource="http://purl.org/dc/dcmitype/StillImage"/>
    <dc:date>2023-01-18T16:16:16.920194</dc:date>
    <dc:format>image/svg+xml</dc:format>
    <dc:creator>
     <cc:Agent>
      <dc:title>Matplotlib v3.5.2, https://matplotlib.org/</dc:title>
     </cc:Agent>
    </dc:creator>
   </cc:Work>
  </rdf:RDF>
 </metadata>
 <defs>
  <style type="text/css">*{stroke-linejoin: round; stroke-linecap: butt}</style>
 </defs>
 <g id="figure_1">
  <g id="patch_1">
   <path d="M 0 170.527297 
L 348.021869 170.527297 
L 348.021869 0 
L 0 0 
L 0 170.527297 
z
" style="fill: none"/>
  </g>
  <g id="axes_1">
   <g id="patch_2">
    <path d="M 37.003258 140.108981 
L 170.535084 140.108981 
L 170.535084 3.6 
L 37.003258 3.6 
L 37.003258 140.108981 
z
" style="fill: none"/>
   </g>
   <g id="matplotlib.axis_1">
    <g id="xtick_1">
     <g id="line2d_1">
      <defs>
       <path id="m58d61f6420" d="M 0 0 
L 0 2 
" style="stroke: #000000; stroke-width: 0.8"/>
      </defs>
      <g>
       <use xlink:href="#m58d61f6420" x="43.679849" y="140.108981" style="stroke: #000000; stroke-width: 0.8"/>
      </g>
     </g>
     <g id="text_1">
      <!-- $\mathdefault{5}$ -->
      <g transform="translate(41.189181 151.027479)scale(0.1 -0.1)">
       <defs>
        <path id="CMR17-35" d="M 730 3750 
C 794 3724 1056 3641 1325 3641 
C 1920 3641 2246 3961 2432 4140 
C 2432 4191 2432 4224 2394 4224 
C 2387 4224 2374 4224 2323 4198 
C 2099 4102 1837 4032 1517 4032 
C 1325 4032 1037 4055 723 4191 
C 653 4224 640 4224 634 4224 
C 602 4224 595 4217 595 4090 
L 595 2231 
C 595 2113 595 2080 659 2080 
C 691 2080 704 2093 736 2139 
C 941 2435 1222 2560 1542 2560 
C 1766 2560 2246 2415 2246 1293 
C 2246 1087 2246 716 2054 422 
C 1894 159 1645 25 1370 25 
C 947 25 518 319 403 812 
C 429 806 480 793 506 793 
C 589 793 749 838 749 1036 
C 749 1209 627 1280 506 1280 
C 358 1280 262 1190 262 1011 
C 262 454 704 -128 1382 -128 
C 2042 -128 2669 441 2669 1267 
C 2669 2054 2170 2662 1549 2662 
C 1222 2662 947 2540 730 2304 
L 730 3750 
z
" transform="scale(0.015625)"/>
       </defs>
       <use xlink:href="#CMR17-35" transform="scale(0.996264)"/>
      </g>
     </g>
    </g>
    <g id="xtick_2">
     <g id="line2d_2">
      <g>
       <use xlink:href="#m58d61f6420" x="77.062806" y="140.108981" style="stroke: #000000; stroke-width: 0.8"/>
      </g>
     </g>
     <g id="text_2">
      <!-- $\mathdefault{10}$ -->
      <g transform="translate(72.08147 151.027479)scale(0.1 -0.1)">
       <defs>
        <path id="CMR17-31" d="M 1702 4083 
C 1702 4217 1696 4224 1606 4224 
C 1357 3927 979 3833 621 3820 
C 602 3820 570 3820 563 3808 
C 557 3795 557 3782 557 3648 
C 755 3648 1088 3686 1344 3839 
L 1344 467 
C 1344 243 1331 166 781 166 
L 589 166 
L 589 0 
C 896 6 1216 12 1523 12 
C 1830 12 2150 6 2458 0 
L 2458 166 
L 2266 166 
C 1715 166 1702 236 1702 467 
L 1702 4083 
z
" transform="scale(0.015625)"/>
        <path id="CMR17-30" d="M 2688 2038 
C 2688 2430 2682 3099 2413 3613 
C 2176 4063 1798 4224 1466 4224 
C 1158 4224 768 4082 525 3620 
C 269 3137 243 2539 243 2038 
C 243 1671 250 1112 448 623 
C 723 -39 1216 -128 1466 -128 
C 1760 -128 2208 -7 2470 604 
C 2662 1048 2688 1568 2688 2038 
z
M 1466 -26 
C 1056 -26 813 328 723 816 
C 653 1196 653 1749 653 2109 
C 653 2604 653 3015 736 3407 
C 858 3954 1216 4121 1466 4121 
C 1728 4121 2067 3947 2189 3420 
C 2272 3054 2278 2623 2278 2109 
C 2278 1691 2278 1176 2202 797 
C 2067 96 1690 -26 1466 -26 
z
" transform="scale(0.015625)"/>
       </defs>
       <use xlink:href="#CMR17-31" transform="scale(0.996264)"/>
       <use xlink:href="#CMR17-30" transform="translate(45.690477 0)scale(0.996264)"/>
      </g>
     </g>
    </g>
    <g id="xtick_3">
     <g id="line2d_3">
      <g>
       <use xlink:href="#m58d61f6420" x="110.445762" y="140.108981" style="stroke: #000000; stroke-width: 0.8"/>
      </g>
     </g>
     <g id="text_3">
      <!-- $\mathdefault{15}$ -->
      <g transform="translate(105.464427 151.027479)scale(0.1 -0.1)">
       <use xlink:href="#CMR17-31" transform="scale(0.996264)"/>
       <use xlink:href="#CMR17-35" transform="translate(45.690477 0)scale(0.996264)"/>
      </g>
     </g>
    </g>
    <g id="xtick_4">
     <g id="line2d_4">
      <g>
       <use xlink:href="#m58d61f6420" x="143.828719" y="140.108981" style="stroke: #000000; stroke-width: 0.8"/>
      </g>
     </g>
     <g id="text_4">
      <!-- $\mathdefault{20}$ -->
      <g transform="translate(138.847383 151.027479)scale(0.1 -0.1)">
       <defs>
        <path id="CMR17-32" d="M 2669 990 
L 2554 990 
C 2490 537 2438 460 2413 422 
C 2381 371 1920 371 1830 371 
L 602 371 
C 832 620 1280 1073 1824 1596 
C 2214 1966 2669 2400 2669 3033 
C 2669 3788 2067 4224 1395 4224 
C 691 4224 262 3603 262 3027 
C 262 2777 448 2745 525 2745 
C 589 2745 781 2783 781 3007 
C 781 3206 614 3264 525 3264 
C 486 3264 448 3257 422 3244 
C 544 3788 915 4057 1306 4057 
C 1862 4057 2227 3616 2227 3033 
C 2227 2477 1901 1998 1536 1583 
L 262 147 
L 262 0 
L 2515 0 
L 2669 990 
z
" transform="scale(0.015625)"/>
       </defs>
       <use xlink:href="#CMR17-32" transform="scale(0.996264)"/>
       <use xlink:href="#CMR17-30" transform="translate(45.690477 0)scale(0.996264)"/>
      </g>
     </g>
    </g>
    <g id="text_5">
     <!-- $N$ -->
     <g transform="translate(99.766823 163.883156)scale(0.1 -0.1)">
      <defs>
       <path id="CMMI12-4e" d="M 4736 3682 
C 4806 3956 4909 4147 5395 4166 
C 5414 4166 5491 4172 5491 4281 
C 5491 4352 5434 4352 5408 4352 
C 5280 4352 4954 4339 4826 4339 
L 4518 4339 
C 4429 4339 4314 4352 4224 4352 
C 4186 4352 4109 4352 4109 4230 
C 4109 4166 4160 4166 4205 4166 
C 4589 4153 4614 4007 4614 3892 
C 4614 3835 4608 3816 4589 3726 
L 3866 854 
L 2496 4243 
C 2451 4345 2445 4352 2304 4352 
L 1523 4352 
C 1395 4352 1338 4352 1338 4230 
C 1338 4166 1382 4166 1504 4166 
C 1536 4166 1914 4166 1914 4109 
C 1914 4096 1901 4045 1894 4026 
L 1043 650 
C 966 338 813 204 390 185 
C 358 185 294 179 294 64 
C 294 0 358 0 378 0 
C 506 0 832 12 960 12 
L 1267 12 
C 1357 12 1466 0 1555 0 
C 1600 0 1670 0 1670 121 
C 1670 179 1606 185 1581 185 
C 1370 191 1165 230 1165 459 
C 1165 510 1178 567 1190 618 
L 2054 4026 
C 2093 3962 2093 3949 2118 3892 
L 3642 115 
C 3674 38 3686 0 3744 0 
C 3808 0 3814 19 3840 128 
L 4736 3682 
z
" transform="scale(0.015625)"/>
      </defs>
      <use xlink:href="#CMMI12-4e" transform="scale(0.996264)"/>
     </g>
    </g>
   </g>
   <g id="matplotlib.axis_2">
    <g id="ytick_1">
     <g id="line2d_5">
      <defs>
       <path id="m26200727ed" d="M 0 0 
L -2 0 
" style="stroke: #000000; stroke-width: 0.8"/>
      </defs>
      <g>
       <use xlink:href="#m26200727ed" x="37.003258" y="118.950852" style="stroke: #000000; stroke-width: 0.8"/>
      </g>
     </g>
     <g id="text_6">
      <!-- $\mathdefault{0.2}$ -->
      <g transform="translate(20.273179 122.410102)scale(0.1 -0.1)">
       <defs>
        <path id="CMMI12-3a" d="M 1178 307 
C 1178 492 1024 620 870 620 
C 685 620 557 467 557 313 
C 557 128 710 0 864 0 
C 1050 0 1178 153 1178 307 
z
" transform="scale(0.015625)"/>
       </defs>
       <use xlink:href="#CMR17-30" transform="scale(0.996264)"/>
       <use xlink:href="#CMMI12-3a" transform="translate(45.690477 0)scale(0.996264)"/>
       <use xlink:href="#CMR17-32" transform="translate(72.787654 0)scale(0.996264)"/>
      </g>
     </g>
    </g>
    <g id="ytick_2">
     <g id="line2d_6">
      <g>
       <use xlink:href="#m26200727ed" x="37.003258" y="93.27103" style="stroke: #000000; stroke-width: 0.8"/>
      </g>
     </g>
     <g id="text_7">
      <!-- $\mathdefault{0.4}$ -->
      <g transform="translate(20.273179 96.730279)scale(0.1 -0.1)">
       <defs>
        <path id="CMR17-34" d="M 2150 4147 
C 2150 4281 2144 4288 2029 4288 
L 128 1254 
L 128 1088 
L 1779 1088 
L 1779 460 
C 1779 230 1766 166 1318 166 
L 1197 166 
L 1197 0 
C 1402 12 1747 12 1965 12 
C 2182 12 2528 12 2733 0 
L 2733 166 
L 2611 166 
C 2163 166 2150 230 2150 460 
L 2150 1088 
L 2803 1088 
L 2803 1254 
L 2150 1254 
L 2150 4147 
z
M 1798 3723 
L 1798 1254 
L 256 1254 
L 1798 3723 
z
" transform="scale(0.015625)"/>
       </defs>
       <use xlink:href="#CMR17-30" transform="scale(0.996264)"/>
       <use xlink:href="#CMMI12-3a" transform="translate(45.690477 0)scale(0.996264)"/>
       <use xlink:href="#CMR17-34" transform="translate(72.787654 0)scale(0.996264)"/>
      </g>
     </g>
    </g>
    <g id="ytick_3">
     <g id="line2d_7">
      <g>
       <use xlink:href="#m26200727ed" x="37.003258" y="67.591207" style="stroke: #000000; stroke-width: 0.8"/>
      </g>
     </g>
     <g id="text_8">
      <!-- $\mathdefault{0.6}$ -->
      <g transform="translate(20.273179 71.050456)scale(0.1 -0.1)">
       <defs>
        <path id="CMR17-36" d="M 678 2198 
C 678 3712 1395 4076 1811 4076 
C 1946 4076 2272 4049 2400 3782 
C 2298 3782 2106 3782 2106 3558 
C 2106 3385 2246 3328 2336 3328 
C 2394 3328 2566 3353 2566 3571 
C 2566 3987 2246 4224 1805 4224 
C 1043 4224 243 3411 243 2011 
C 243 257 966 -128 1478 -128 
C 2099 -128 2688 431 2688 1295 
C 2688 2101 2170 2688 1517 2688 
C 1126 2688 838 2430 678 1979 
L 678 2198 
z
M 1478 25 
C 691 25 691 1212 691 1450 
C 691 1914 909 2585 1504 2585 
C 1613 2585 1926 2585 2138 2140 
C 2253 1889 2253 1624 2253 1302 
C 2253 954 2253 696 2118 438 
C 1978 173 1773 25 1478 25 
z
" transform="scale(0.015625)"/>
       </defs>
       <use xlink:href="#CMR17-30" transform="scale(0.996264)"/>
       <use xlink:href="#CMMI12-3a" transform="translate(45.690477 0)scale(0.996264)"/>
       <use xlink:href="#CMR17-36" transform="translate(72.787654 0)scale(0.996264)"/>
      </g>
     </g>
    </g>
    <g id="ytick_4">
     <g id="line2d_8">
      <g>
       <use xlink:href="#m26200727ed" x="37.003258" y="41.911384" style="stroke: #000000; stroke-width: 0.8"/>
      </g>
     </g>
     <g id="text_9">
      <!-- $\mathdefault{0.8}$ -->
      <g transform="translate(20.273179 45.370633)scale(0.1 -0.1)">
       <defs>
        <path id="CMR17-38" d="M 1741 2289 
C 2144 2494 2554 2803 2554 3298 
C 2554 3884 1990 4224 1472 4224 
C 890 4224 378 3800 378 3215 
C 378 3054 416 2777 666 2533 
C 730 2469 998 2276 1171 2154 
C 883 2006 211 1652 211 945 
C 211 282 838 -128 1459 -128 
C 2144 -128 2720 366 2720 1022 
C 2720 1607 2330 1877 2074 2051 
L 1741 2289 
z
M 902 2855 
C 851 2887 595 3086 595 3388 
C 595 3781 998 4076 1459 4076 
C 1965 4076 2336 3716 2336 3298 
C 2336 2700 1670 2359 1638 2359 
C 1632 2359 1626 2359 1574 2398 
L 902 2855 
z
M 2080 1536 
C 2176 1466 2483 1253 2483 861 
C 2483 385 2010 25 1472 25 
C 890 25 448 443 448 951 
C 448 1459 838 1884 1280 2083 
L 2080 1536 
z
" transform="scale(0.015625)"/>
       </defs>
       <use xlink:href="#CMR17-30" transform="scale(0.996264)"/>
       <use xlink:href="#CMMI12-3a" transform="translate(45.690477 0)scale(0.996264)"/>
       <use xlink:href="#CMR17-38" transform="translate(72.787654 0)scale(0.996264)"/>
      </g>
     </g>
    </g>
    <g id="ytick_5">
     <g id="line2d_9">
      <g>
       <use xlink:href="#m26200727ed" x="37.003258" y="16.231562" style="stroke: #000000; stroke-width: 0.8"/>
      </g>
     </g>
     <g id="text_10">
      <!-- $\mathdefault{1.0}$ -->
      <g transform="translate(20.273179 19.690811)scale(0.1 -0.1)">
       <use xlink:href="#CMR17-31" transform="scale(0.996264)"/>
       <use xlink:href="#CMMI12-3a" transform="translate(45.690477 0)scale(0.996264)"/>
       <use xlink:href="#CMR17-30" transform="translate(72.787654 0)scale(0.996264)"/>
      </g>
     </g>
    </g>
    <g id="text_11">
     <!-- $S_1(n)$$-\ln{N \choose n}$ -->
     <g transform="translate(12.786194 101.789278)rotate(-90)scale(0.1 -0.1)">
      <defs>
       <path id="CMMI12-53" d="M 4064 4422 
C 4064 4480 4019 4480 4006 4480 
C 3981 4480 3974 4473 3898 4377 
C 3859 4332 3597 4002 3590 3996 
C 3379 4409 2957 4480 2688 4480 
C 1875 4480 1139 3742 1139 3024 
C 1139 2547 1427 2268 1741 2160 
C 1811 2134 2189 2033 2381 1988 
C 2707 1899 2790 1874 2925 1734 
C 2950 1702 3078 1556 3078 1258 
C 3078 667 2528 57 1888 57 
C 1363 57 781 279 781 991 
C 781 1112 806 1264 826 1328 
C 826 1347 832 1378 832 1391 
C 832 1417 819 1448 768 1448 
C 710 1448 704 1436 678 1328 
L 352 25 
C 352 19 326 -64 326 -71 
C 326 -128 378 -128 390 -128 
C 416 -128 422 -122 499 -26 
L 794 356 
C 947 127 1280 -128 1875 -128 
C 2701 -128 3456 667 3456 1461 
C 3456 1728 3392 1963 3149 2198 
C 3014 2331 2899 2363 2310 2516 
C 1882 2630 1824 2649 1709 2751 
C 1600 2859 1517 3011 1517 3227 
C 1517 3761 2061 4307 2669 4307 
C 3296 4307 3590 3926 3590 3322 
C 3590 3157 3558 2986 3558 2960 
C 3558 2903 3610 2903 3629 2903 
C 3686 2903 3693 2922 3718 3024 
L 4064 4422 
z
" transform="scale(0.015625)"/>
       <path id="CMR17-28" d="M 1958 -1562 
C 1958 -1556 1958 -1543 1939 -1524 
C 1645 -1223 858 -403 858 1596 
C 858 3595 1632 4408 1946 4729 
C 1946 4735 1958 4748 1958 4767 
C 1958 4787 1939 4800 1914 4800 
C 1843 4800 1299 4325 986 3620 
C 666 2909 576 2218 576 1603 
C 576 1141 621 360 1005 -467 
C 1312 -1133 1837 -1600 1914 -1600 
C 1946 -1600 1958 -1588 1958 -1562 
z
" transform="scale(0.015625)"/>
       <path id="CMMI12-6e" d="M 1318 1870 
C 1331 1909 1491 2228 1728 2432 
C 1894 2585 2112 2687 2362 2687 
C 2618 2687 2707 2496 2707 2241 
C 2707 1877 2445 1149 2317 804 
C 2259 651 2227 568 2227 453 
C 2227 166 2426 -64 2733 -64 
C 3328 -64 3552 874 3552 913 
C 3552 945 3526 970 3488 970 
C 3430 970 3424 951 3392 842 
C 3245 319 3002 64 2752 64 
C 2688 64 2586 70 2586 274 
C 2586 434 2656 625 2694 715 
C 2822 1066 3091 1781 3091 2145 
C 3091 2528 2867 2816 2381 2816 
C 1811 2816 1510 2413 1395 2253 
C 1376 2617 1114 2816 832 2816 
C 627 2816 486 2694 378 2477 
C 262 2247 173 1864 173 1838 
C 173 1813 198 1781 243 1781 
C 294 1781 301 1787 339 1934 
C 442 2324 557 2687 813 2687 
C 960 2687 1011 2585 1011 2394 
C 1011 2253 947 2004 902 1807 
L 723 1117 
C 698 996 627 708 595 593 
C 550 427 480 127 480 95 
C 480 6 550 -64 646 -64 
C 723 -64 813 -26 864 70 
C 877 102 934 325 966 453 
L 1107 1028 
L 1318 1870 
z
" transform="scale(0.015625)"/>
       <path id="CMR17-29" d="M 1683 1596 
C 1683 2057 1638 2839 1254 3665 
C 947 4332 422 4800 346 4800 
C 326 4800 301 4793 301 4761 
C 301 4748 307 4742 314 4729 
C 621 4408 1402 3595 1402 1603 
C 1402 -396 627 -1210 314 -1530 
C 307 -1543 301 -1549 301 -1562 
C 301 -1594 326 -1600 346 -1600 
C 416 -1600 960 -1127 1274 -422 
C 1594 289 1683 981 1683 1596 
z
" transform="scale(0.015625)"/>
       <path id="CMSY10-0" d="M 4218 1472 
C 4326 1472 4442 1472 4442 1600 
C 4442 1728 4326 1728 4218 1728 
L 755 1728 
C 646 1728 531 1728 531 1600 
C 531 1472 646 1472 755 1472 
L 4218 1472 
z
" transform="scale(0.015625)"/>
       <path id="CMR17-6c" d="M 979 4416 
L 218 4345 
L 218 4179 
C 595 4179 653 4141 653 3835 
L 653 439 
C 653 198 627 166 218 166 
L 218 0 
C 371 12 653 12 813 12 
C 979 12 1261 12 1414 0 
L 1414 166 
C 1005 166 979 191 979 439 
L 979 4416 
z
" transform="scale(0.015625)"/>
       <path id="CMR17-6e" d="M 2656 1954 
C 2656 2282 2592 2816 1837 2816 
C 1331 2816 1069 2424 973 2166 
L 966 2166 
L 966 2816 
L 211 2745 
L 211 2578 
C 589 2578 646 2540 646 2231 
L 646 443 
C 646 198 621 166 211 166 
L 211 0 
C 365 12 646 12 813 12 
C 979 12 1267 12 1421 0 
L 1421 166 
C 1011 166 986 192 986 443 
L 986 1678 
C 986 2269 1344 2713 1792 2713 
C 2266 2713 2317 2289 2317 1980 
L 2317 443 
C 2317 198 2291 166 1882 166 
L 1882 0 
C 2035 12 2317 12 2483 12 
C 2650 12 2938 12 3091 0 
L 3091 166 
C 2682 166 2656 192 2656 443 
L 2656 1954 
z
" transform="scale(0.015625)"/>
       <path id="CMEX10-0" d="M 2643 -7360 
C 2643 -7335 2630 -7322 2618 -7303 
C 2323 -6989 1888 -6470 1619 -5426 
C 1472 -4843 1414 -4184 1414 -3588 
C 1414 -1903 1818 -725 2586 108 
C 2643 166 2643 179 2643 192 
C 2643 256 2592 256 2566 256 
C 2470 256 2125 -129 2042 -225 
C 1389 -1000 973 -2153 973 -3581 
C 973 -4491 1133 -5778 1971 -6861 
C 2035 -6938 2451 -7424 2566 -7424 
C 2592 -7424 2643 -7424 2643 -7360 
z
" transform="scale(0.015625)"/>
       <path id="CMEX10-1" d="M 1952 -3588 
C 1952 -2678 1792 -1391 954 -308 
C 890 -231 474 256 358 256 
C 326 256 282 243 282 192 
C 282 166 294 147 320 128 
C 627 -206 1043 -725 1306 -1743 
C 1453 -2326 1510 -2986 1510 -3581 
C 1510 -4228 1453 -4882 1286 -5509 
C 1043 -6406 666 -6919 339 -7277 
C 282 -7335 282 -7348 282 -7360 
C 282 -7412 326 -7424 358 -7424 
C 454 -7424 806 -7034 883 -6944 
C 1536 -6169 1952 -5016 1952 -3588 
z
" transform="scale(0.015625)"/>
      </defs>
      <use xlink:href="#CMMI12-53" transform="scale(0.996264)"/>
      <use xlink:href="#CMR17-31" transform="translate(59.994488 -14.943915)scale(0.697382)"/>
      <use xlink:href="#CMR17-28" transform="translate(92.475802 0)scale(0.996264)"/>
      <use xlink:href="#CMMI12-6e" transform="translate(127.75657 0)scale(0.996264)"/>
      <use xlink:href="#CMR17-29" transform="translate(185.986617 0)scale(0.996264)"/>
      <use xlink:href="#CMSY10-0" transform="translate(221.267385 0)scale(0.996264)"/>
      <use xlink:href="#CMR17-6c" transform="translate(315.359258 0)scale(0.996264)"/>
      <use xlink:href="#CMR17-6e" transform="translate(340.230316 0)scale(0.996264)"/>
      <use xlink:href="#CMEX10-0" transform="translate(407.730091 80.698084)scale(0.996264)"/>
      <use xlink:href="#CMMI12-4e" transform="translate(453.392445 44.207346)scale(0.697382)"/>
      <use xlink:href="#CMMI12-6e" transform="translate(463.994518 -34.355268)scale(0.697382)"/>
      <use xlink:href="#CMEX10-1" transform="translate(515.357418 80.698084)scale(0.996264)"/>
     </g>
    </g>
   </g>
   <g id="line2d_10">
    <path d="M 37.003258 120.329391 
L 44.031249 114.512315 
L 51.059239 108.695239 
L 58.08723 102.878164 
L 65.115221 97.061088 
L 72.143212 91.244012 
L 79.171203 85.426937 
L 86.199194 79.609861 
L 93.227184 73.792786 
L 100.255175 67.97571 
L 107.283166 62.158634 
L 114.311157 56.341559 
L 121.339148 50.524483 
L 128.367139 44.707407 
L 135.39513 38.890332 
L 142.42312 33.073256 
L 149.451111 27.256181 
L 156.479102 21.439105 
L 163.507093 15.622029 
L 170.535084 9.804954 
" clip-path="url(#pc149f21eb3)" style="fill: none; stroke: #7ebce6; stroke-width: 0.75; stroke-linecap: round"/>
   </g>
   <g id="line2d_11">
    <path d="M 37.003258 123.057419 
L 44.031249 117.89304 
L 51.059239 112.728661 
L 58.08723 107.564281 
L 65.115221 102.399902 
L 72.143212 97.235523 
L 79.171203 92.071144 
L 86.199194 86.906765 
L 93.227184 81.742386 
L 100.255175 76.578007 
L 107.283166 71.413628 
L 114.311157 66.249249 
L 121.339148 61.08487 
L 128.367139 55.92049 
L 135.39513 50.756111 
L 142.42312 45.591732 
L 149.451111 40.427353 
L 156.479102 35.262974 
L 163.507093 30.098595 
L 170.535084 24.934216 
" clip-path="url(#pc149f21eb3)" style="fill: none; stroke: #bdd73c; stroke-width: 0.75; stroke-linecap: round"/>
   </g>
   <g id="line2d_12">
    <path d="M 37.003258 126.335907 
L 44.031249 121.997423 
L 51.059239 117.658938 
L 58.08723 113.320454 
L 65.115221 108.98197 
L 72.143212 104.643485 
L 79.171203 100.305001 
L 86.199194 95.966517 
L 93.227184 91.628032 
L 100.255175 87.289548 
L 107.283166 82.951064 
L 114.311157 78.612579 
L 121.339148 74.274095 
L 128.367139 69.935611 
L 135.39513 65.597126 
L 142.42312 61.258642 
L 149.451111 56.920157 
L 156.479102 52.581673 
L 163.507093 48.243189 
L 170.535084 43.904704 
" clip-path="url(#pc149f21eb3)" style="fill: none; stroke: #1a896f; stroke-width: 0.75; stroke-linecap: round"/>
   </g>
   <g id="line2d_13">
    <path d="M 37.003258 128.99562 
L 44.031249 125.30013 
L 51.059239 121.604639 
L 58.08723 117.909148 
L 65.115221 114.213658 
L 72.143212 110.518167 
L 79.171203 106.822677 
L 86.199194 103.127186 
L 93.227184 99.431695 
L 100.255175 95.736205 
L 107.283166 92.040714 
L 114.311157 88.345224 
L 121.339148 84.649733 
L 128.367139 80.954242 
L 135.39513 77.258752 
L 142.42312 73.563261 
L 149.451111 69.867771 
L 156.479102 66.17228 
L 163.507093 62.476789 
L 170.535084 58.781299 
" clip-path="url(#pc149f21eb3)" style="fill: none; stroke: #0b2456; stroke-width: 0.75; stroke-linecap: round"/>
   </g>
   <g id="line2d_14">
    <path d="M 37.003258 131.044124 
L 44.031249 127.838378 
L 51.059239 124.632632 
L 58.08723 121.426886 
L 65.115221 118.221139 
L 72.143212 115.015393 
L 79.171203 111.809647 
L 86.199194 108.6039 
L 93.227184 105.398154 
L 100.255175 102.192408 
L 107.283166 98.986661 
L 114.311157 95.780915 
L 121.339148 92.575169 
L 128.367139 89.369422 
L 135.39513 86.163676 
L 142.42312 82.95793 
L 149.451111 79.752183 
L 156.479102 76.546437 
L 163.507093 73.340691 
L 170.535084 70.134944 
" clip-path="url(#pc149f21eb3)" style="fill: none; stroke: #a40e4c; stroke-width: 0.75; stroke-linecap: round"/>
   </g>
   <g id="line2d_15">
    <path d="M 37.003258 132.637456 
L 44.031249 129.81311 
L 51.059239 126.988764 
L 58.08723 124.164419 
L 65.115221 121.340073 
L 72.143212 118.515727 
L 79.171203 115.691382 
L 86.199194 112.867036 
L 93.227184 110.04269 
L 100.255175 107.218345 
L 107.283166 104.393999 
L 114.311157 101.569653 
L 121.339148 98.745307 
L 128.367139 95.920962 
L 135.39513 93.096616 
L 142.42312 90.27227 
L 149.451111 87.447925 
L 156.479102 84.623579 
L 163.507093 81.799233 
L 170.535084 78.974888 
" clip-path="url(#pc149f21eb3)" style="fill: none; stroke: #e71d36; stroke-width: 0.75; stroke-linecap: round"/>
   </g>
   <g id="line2d_16">
    <path d="M 37.003258 133.904027 
L 44.031249 131.382833 
L 51.059239 128.86164 
L 58.08723 126.340446 
L 65.115221 123.819253 
L 72.143212 121.298059 
L 79.171203 118.776866 
L 86.199194 116.255672 
L 93.227184 113.734478 
L 100.255175 111.213285 
L 107.283166 108.692091 
L 114.311157 106.170898 
L 121.339148 103.649704 
L 128.367139 101.128511 
L 135.39513 98.607317 
L 142.42312 96.086123 
L 149.451111 93.56493 
L 156.479102 91.043736 
L 163.507093 88.522543 
L 170.535084 86.001349 
" clip-path="url(#pc149f21eb3)" style="fill: none; stroke: #ff9f1c; stroke-width: 0.75; stroke-linecap: round"/>
   </g>
   <g id="patch_3">
    <path d="M 37.003258 140.108981 
L 37.003258 3.6 
" style="fill: none; stroke: #000000; stroke-width: 0.8; stroke-linejoin: miter; stroke-linecap: square"/>
   </g>
   <g id="patch_4">
    <path d="M 170.535084 140.108981 
L 170.535084 3.6 
" style="fill: none; stroke: #000000; stroke-width: 0.8; stroke-linejoin: miter; stroke-linecap: square"/>
   </g>
   <g id="patch_5">
    <path d="M 37.003258 140.108981 
L 170.535084 140.108981 
" style="fill: none; stroke: #000000; stroke-width: 0.8; stroke-linejoin: miter; stroke-linecap: square"/>
   </g>
   <g id="patch_6">
    <path d="M 37.003258 3.6 
L 170.535084 3.6 
" style="fill: none; stroke: #000000; stroke-width: 0.8; stroke-linejoin: miter; stroke-linecap: square"/>
   </g>
   <g id="text_12">
    <!-- $V/J=1.75$ -->
    <g transform="translate(117.122353 131.790764)scale(0.1 -0.1)">
     <defs>
      <path id="CMMI12-56" d="M 3962 3644 
C 4179 3987 4378 4140 4704 4166 
C 4768 4172 4819 4172 4819 4287 
C 4819 4313 4806 4352 4749 4352 
C 4634 4352 4358 4339 4243 4339 
C 4058 4339 3866 4352 3686 4352 
C 3635 4352 3571 4352 3571 4230 
C 3571 4172 3629 4166 3654 4166 
C 3891 4146 3917 4032 3917 3956 
C 3917 3860 3827 3714 3821 3708 
L 1811 540 
L 1363 3968 
C 1363 4153 1696 4166 1766 4166 
C 1862 4166 1920 4166 1920 4287 
C 1920 4352 1850 4352 1830 4352 
C 1722 4352 1594 4339 1485 4339 
L 1126 4339 
C 659 4339 467 4352 461 4352 
C 422 4352 346 4352 346 4236 
C 346 4166 390 4166 493 4166 
C 819 4166 838 4108 858 3949 
L 1370 25 
C 1389 -109 1389 -128 1478 -128 
C 1555 -128 1587 -109 1651 -7 
L 3962 3644 
z
" transform="scale(0.015625)"/>
      <path id="CMMI12-3d" d="M 2746 4563 
C 2746 4569 2784 4665 2784 4678 
C 2784 4755 2720 4800 2669 4800 
C 2637 4800 2579 4800 2528 4659 
L 384 -1364 
C 384 -1370 346 -1466 346 -1479 
C 346 -1556 410 -1600 461 -1600 
C 499 -1600 557 -1594 602 -1460 
L 2746 4563 
z
" transform="scale(0.015625)"/>
      <path id="CMMI12-4a" d="M 3418 3911 
C 3469 4102 3482 4166 3795 4166 
C 3898 4166 3962 4166 3962 4281 
C 3962 4352 3904 4352 3878 4352 
C 3770 4352 3648 4339 3533 4339 
L 3181 4339 
C 2912 4339 2630 4352 2362 4352 
C 2304 4352 2227 4352 2227 4236 
C 2227 4172 2278 4172 2278 4166 
L 2438 4166 
C 2950 4166 2950 4115 2950 4019 
C 2950 4013 2950 3968 2925 3866 
L 2189 953 
C 2022 304 1594 0 1286 0 
C 1069 0 762 99 685 428 
C 710 422 742 415 768 415 
C 979 415 1146 601 1146 787 
C 1146 889 1082 1024 890 1024 
C 774 1024 506 959 506 543 
C 506 149 838 -128 1299 -128 
C 1882 -128 2509 304 2662 908 
L 3418 3911 
z
" transform="scale(0.015625)"/>
      <path id="CMR17-3d" d="M 4115 2048 
C 4211 2048 4307 2048 4307 2156 
C 4307 2272 4198 2272 4090 2272 
L 512 2272 
C 403 2272 294 2272 294 2156 
C 294 2048 390 2048 486 2048 
L 4115 2048 
z
M 4090 927 
C 4198 927 4307 927 4307 1043 
C 4307 1152 4211 1152 4115 1152 
L 486 1152 
C 390 1152 294 1152 294 1043 
C 294 927 403 927 512 927 
L 4090 927 
z
" transform="scale(0.015625)"/>
      <path id="CMR17-37" d="M 2886 3955 
L 2886 4096 
L 1382 4096 
C 634 4096 621 4166 595 4288 
L 480 4288 
L 294 3104 
L 410 3104 
C 429 3226 474 3552 550 3673 
C 589 3724 1062 3724 1171 3724 
L 2579 3724 
L 1869 2670 
C 1395 1961 1069 1003 1069 166 
C 1069 89 1069 -128 1299 -128 
C 1530 -128 1530 89 1530 172 
L 1530 466 
C 1530 1514 1709 2204 2003 2644 
L 2886 3955 
z
" transform="scale(0.015625)"/>
     </defs>
     <use xlink:href="#CMMI12-56" transform="scale(0.996264)"/>
     <use xlink:href="#CMMI12-3d" transform="translate(67.70845 0)scale(0.996264)"/>
     <use xlink:href="#CMMI12-4a" transform="translate(116.483369 0)scale(0.996264)"/>
     <use xlink:href="#CMR17-3d" transform="translate(207.300048 0)scale(0.996264)"/>
     <use xlink:href="#CMR17-31" transform="translate(306.688845 0)scale(0.996264)"/>
     <use xlink:href="#CMMI12-3a" transform="translate(352.379322 0)scale(0.996264)"/>
     <use xlink:href="#CMR17-37" transform="translate(379.476499 0)scale(0.996264)"/>
     <use xlink:href="#CMR17-35" transform="translate(425.166976 0)scale(0.996264)"/>
    </g>
   </g>
   <g id="text_13">
    <!-- $n/N$ -->
    <g transform="translate(70.386214 13.663579)scale(0.08 -0.08)">
     <use xlink:href="#CMMI12-6e" transform="scale(0.996264)"/>
     <use xlink:href="#CMMI12-3d" transform="translate(58.230047 0)scale(0.996264)"/>
     <use xlink:href="#CMMI12-4e" transform="translate(101.585531 0)scale(0.996264)"/>
    </g>
   </g>
   <g id="legend_1">
    <g id="PathCollection_1">
     <defs>
      <path id="m2cb21b3428" d="M 0 1.581139 
C 0.419323 1.581139 0.821528 1.41454 1.118034 1.118034 
C 1.41454 0.821528 1.581139 0.419323 1.581139 0 
C 1.581139 -0.419323 1.41454 -0.821528 1.118034 -1.118034 
C 0.821528 -1.41454 0.419323 -1.581139 0 -1.581139 
C -0.419323 -1.581139 -0.821528 -1.41454 -1.118034 -1.118034 
C -1.41454 -0.821528 -1.581139 -0.419323 -1.581139 0 
C -1.581139 0.419323 -1.41454 0.821528 -1.118034 1.118034 
C -0.821528 1.41454 -0.419323 1.581139 0 1.581139 
z
" style="stroke: #7ebce6; stroke-width: 0.5"/>
     </defs>
     <g>
      <use xlink:href="#m2cb21b3428" x="46.861985" y="21.503033" style="fill: #beddf2; stroke: #7ebce6; stroke-width: 0.5"/>
     </g>
    </g>
    <g id="text_14">
     <!-- 1/2 -->
     <g transform="translate(58.861985 23.603033)scale(0.08 -0.08)">
      <defs>
       <path id="CMR17-2f" d="M 2605 4575 
C 2637 4658 2637 4671 2637 4684 
C 2637 4761 2579 4800 2528 4800 
C 2451 4800 2426 4748 2400 4671 
L 326 -1376 
C 294 -1460 294 -1472 294 -1485 
C 294 -1562 352 -1600 403 -1600 
C 480 -1600 506 -1549 531 -1472 
L 2605 4575 
z
" transform="scale(0.015625)"/>
      </defs>
      <use xlink:href="#CMR17-31" transform="scale(0.996264)"/>
      <use xlink:href="#CMR17-2f" transform="translate(45.690477 0)scale(0.996264)"/>
      <use xlink:href="#CMR17-32" transform="translate(91.380954 0)scale(0.996264)"/>
     </g>
    </g>
    <g id="PathCollection_2">
     <defs>
      <path id="m23017940d5" d="M 0 1.581139 
C 0.419323 1.581139 0.821528 1.41454 1.118034 1.118034 
C 1.41454 0.821528 1.581139 0.419323 1.581139 0 
C 1.581139 -0.419323 1.41454 -0.821528 1.118034 -1.118034 
C 0.821528 -1.41454 0.419323 -1.581139 0 -1.581139 
C -0.419323 -1.581139 -0.821528 -1.41454 -1.118034 -1.118034 
C -1.41454 -0.821528 -1.581139 -0.419323 -1.581139 0 
C -1.581139 0.419323 -1.41454 0.821528 -1.118034 1.118034 
C -0.821528 1.41454 -0.419323 1.581139 0 1.581139 
z
" style="stroke: #bdd73c; stroke-width: 0.5"/>
     </defs>
     <g>
      <use xlink:href="#m23017940d5" x="46.861985" y="33.473145" style="fill: #ddea9d; stroke: #bdd73c; stroke-width: 0.5"/>
     </g>
    </g>
    <g id="text_15">
     <!-- 1/3 -->
     <g transform="translate(58.861985 35.573145)scale(0.08 -0.08)">
      <defs>
       <path id="CMR17-33" d="M 1414 2176 
C 1984 2176 2234 1673 2234 1094 
C 2234 322 1824 25 1453 25 
C 1114 25 563 193 390 691 
C 422 678 454 678 486 678 
C 640 678 755 780 755 947 
C 755 1132 614 1216 486 1216 
C 378 1216 211 1164 211 927 
C 211 335 787 -128 1466 -128 
C 2176 -128 2720 432 2720 1087 
C 2720 1718 2208 2176 1600 2246 
C 2086 2347 2554 2776 2554 3353 
C 2554 3856 2048 4224 1472 4224 
C 890 4224 378 3862 378 3347 
C 378 3123 544 3084 627 3084 
C 762 3084 877 3167 877 3334 
C 877 3500 762 3584 627 3584 
C 602 3584 570 3584 544 3571 
C 730 3999 1235 4076 1459 4076 
C 1683 4076 2106 3966 2106 3347 
C 2106 3167 2080 2851 1862 2574 
C 1670 2329 1453 2316 1242 2297 
C 1210 2297 1062 2284 1037 2284 
C 992 2278 966 2272 966 2227 
C 966 2182 973 2176 1101 2176 
L 1414 2176 
z
" transform="scale(0.015625)"/>
      </defs>
      <use xlink:href="#CMR17-31" transform="scale(0.996264)"/>
      <use xlink:href="#CMR17-2f" transform="translate(45.690477 0)scale(0.996264)"/>
      <use xlink:href="#CMR17-33" transform="translate(91.380954 0)scale(0.996264)"/>
     </g>
    </g>
    <g id="PathCollection_3">
     <defs>
      <path id="m59ad240428" d="M 0 1.581139 
C 0.419323 1.581139 0.821528 1.41454 1.118034 1.118034 
C 1.41454 0.821528 1.581139 0.419323 1.581139 0 
C 1.581139 -0.419323 1.41454 -0.821528 1.118034 -1.118034 
C 0.821528 -1.41454 0.419323 -1.581139 0 -1.581139 
C -0.419323 -1.581139 -0.821528 -1.41454 -1.118034 -1.118034 
C -1.41454 -0.821528 -1.581139 -0.419323 -1.581139 0 
C -1.581139 0.419323 -1.41454 0.821528 -1.118034 1.118034 
C -0.821528 1.41454 -0.419323 1.581139 0 1.581139 
z
" style="stroke: #1a896f; stroke-width: 0.5"/>
     </defs>
     <g>
      <use xlink:href="#m59ad240428" x="46.861985" y="45.443257" style="fill: #8cc3b6; stroke: #1a896f; stroke-width: 0.5"/>
     </g>
    </g>
    <g id="text_16">
     <!-- 1/4 -->
     <g transform="translate(58.861985 47.543257)scale(0.08 -0.08)">
      <use xlink:href="#CMR17-31" transform="scale(0.996264)"/>
      <use xlink:href="#CMR17-2f" transform="translate(45.690477 0)scale(0.996264)"/>
      <use xlink:href="#CMR17-34" transform="translate(91.380954 0)scale(0.996264)"/>
     </g>
    </g>
    <g id="PathCollection_4">
     <defs>
      <path id="mce9853b415" d="M 0 1.581139 
C 0.419323 1.581139 0.821528 1.41454 1.118034 1.118034 
C 1.41454 0.821528 1.581139 0.419323 1.581139 0 
C 1.581139 -0.419323 1.41454 -0.821528 1.118034 -1.118034 
C 0.821528 -1.41454 0.419323 -1.581139 0 -1.581139 
C -0.419323 -1.581139 -0.821528 -1.41454 -1.118034 -1.118034 
C -1.41454 -0.821528 -1.581139 -0.419323 -1.581139 0 
C -1.581139 0.419323 -1.41454 0.821528 -1.118034 1.118034 
C -0.821528 1.41454 -0.419323 1.581139 0 1.581139 
z
" style="stroke: #0b2456; stroke-width: 0.5"/>
     </defs>
     <g>
      <use xlink:href="#mce9853b415" x="46.861985" y="57.413369" style="fill: #8491aa; stroke: #0b2456; stroke-width: 0.5"/>
     </g>
    </g>
    <g id="text_17">
     <!-- 1/5 -->
     <g transform="translate(58.861985 59.513369)scale(0.08 -0.08)">
      <use xlink:href="#CMR17-31" transform="scale(0.996264)"/>
      <use xlink:href="#CMR17-2f" transform="translate(45.690477 0)scale(0.996264)"/>
      <use xlink:href="#CMR17-35" transform="translate(91.380954 0)scale(0.996264)"/>
     </g>
    </g>
    <g id="PathCollection_5">
     <defs>
      <path id="mc70cb18928" d="M 0 1.581139 
C 0.419323 1.581139 0.821528 1.41454 1.118034 1.118034 
C 1.41454 0.821528 1.581139 0.419323 1.581139 0 
C 1.581139 -0.419323 1.41454 -0.821528 1.118034 -1.118034 
C 0.821528 -1.41454 0.419323 -1.581139 0 -1.581139 
C -0.419323 -1.581139 -0.821528 -1.41454 -1.118034 -1.118034 
C -1.41454 -0.821528 -1.581139 -0.419323 -1.581139 0 
C -1.581139 0.419323 -1.41454 0.821528 -1.118034 1.118034 
C -0.821528 1.41454 -0.419323 1.581139 0 1.581139 
z
" style="stroke: #a40e4c; stroke-width: 0.5"/>
     </defs>
     <g>
      <use xlink:href="#mc70cb18928" x="82.764533" y="21.503033" style="fill: #d186a5; stroke: #a40e4c; stroke-width: 0.5"/>
     </g>
    </g>
    <g id="text_18">
     <!-- 1/6 -->
     <g transform="translate(94.764533 23.603033)scale(0.08 -0.08)">
      <use xlink:href="#CMR17-31" transform="scale(0.996264)"/>
      <use xlink:href="#CMR17-2f" transform="translate(45.690477 0)scale(0.996264)"/>
      <use xlink:href="#CMR17-36" transform="translate(91.380954 0)scale(0.996264)"/>
     </g>
    </g>
    <g id="PathCollection_6">
     <defs>
      <path id="m8d02f6fdbb" d="M 0 1.581139 
C 0.419323 1.581139 0.821528 1.41454 1.118034 1.118034 
C 1.41454 0.821528 1.581139 0.419323 1.581139 0 
C 1.581139 -0.419323 1.41454 -0.821528 1.118034 -1.118034 
C 0.821528 -1.41454 0.419323 -1.581139 0 -1.581139 
C -0.419323 -1.581139 -0.821528 -1.41454 -1.118034 -1.118034 
C -1.41454 -0.821528 -1.581139 -0.419323 -1.581139 0 
C -1.581139 0.419323 -1.41454 0.821528 -1.118034 1.118034 
C -0.821528 1.41454 -0.419323 1.581139 0 1.581139 
z
" style="stroke: #e71d36; stroke-width: 0.5"/>
     </defs>
     <g>
      <use xlink:href="#m8d02f6fdbb" x="82.764533" y="33.473145" style="fill: #f28d9a; stroke: #e71d36; stroke-width: 0.5"/>
     </g>
    </g>
    <g id="text_19">
     <!-- 1/7 -->
     <g transform="translate(94.764533 35.573145)scale(0.08 -0.08)">
      <use xlink:href="#CMR17-31" transform="scale(0.996264)"/>
      <use xlink:href="#CMR17-2f" transform="translate(45.690477 0)scale(0.996264)"/>
      <use xlink:href="#CMR17-37" transform="translate(91.380954 0)scale(0.996264)"/>
     </g>
    </g>
    <g id="PathCollection_7">
     <defs>
      <path id="mc1a558a615" d="M 0 1.581139 
C 0.419323 1.581139 0.821528 1.41454 1.118034 1.118034 
C 1.41454 0.821528 1.581139 0.419323 1.581139 0 
C 1.581139 -0.419323 1.41454 -0.821528 1.118034 -1.118034 
C 0.821528 -1.41454 0.419323 -1.581139 0 -1.581139 
C -0.419323 -1.581139 -0.821528 -1.41454 -1.118034 -1.118034 
C -1.41454 -0.821528 -1.581139 -0.419323 -1.581139 0 
C -1.581139 0.419323 -1.41454 0.821528 -1.118034 1.118034 
C -0.821528 1.41454 -0.419323 1.581139 0 1.581139 
z
" style="stroke: #ff9f1c; stroke-width: 0.5"/>
     </defs>
     <g>
      <use xlink:href="#mc1a558a615" x="82.764533" y="45.443257" style="fill: #fece8d; stroke: #ff9f1c; stroke-width: 0.5"/>
     </g>
    </g>
    <g id="text_20">
     <!-- 1/8 -->
     <g transform="translate(94.764533 47.543257)scale(0.08 -0.08)">
      <use xlink:href="#CMR17-31" transform="scale(0.996264)"/>
      <use xlink:href="#CMR17-2f" transform="translate(45.690477 0)scale(0.996264)"/>
      <use xlink:href="#CMR17-38" transform="translate(91.380954 0)scale(0.996264)"/>
     </g>
    </g>
   </g>
   <g id="PathCollection_8">
    <g clip-path="url(#pc149f21eb3)">
     <use xlink:href="#m2cb21b3428" x="37.003258" y="120.29294" style="fill: #beddf2; stroke: #7ebce6; stroke-width: 0.5"/>
     <use xlink:href="#m2cb21b3428" x="50.35644" y="109.290304" style="fill: #beddf2; stroke: #7ebce6; stroke-width: 0.5"/>
     <use xlink:href="#m2cb21b3428" x="63.709623" y="98.2536" style="fill: #beddf2; stroke: #7ebce6; stroke-width: 0.5"/>
     <use xlink:href="#m2cb21b3428" x="77.062806" y="87.192708" style="fill: #beddf2; stroke: #7ebce6; stroke-width: 0.5"/>
     <use xlink:href="#m2cb21b3428" x="90.415988" y="76.119853" style="fill: #beddf2; stroke: #7ebce6; stroke-width: 0.5"/>
     <use xlink:href="#m2cb21b3428" x="103.769171" y="65.040283" style="fill: #beddf2; stroke: #7ebce6; stroke-width: 0.5"/>
    </g>
   </g>
   <g id="PathCollection_9">
    <g clip-path="url(#pc149f21eb3)">
     <use xlink:href="#m23017940d5" x="50.35644" y="113.234351" style="fill: #ddea9d; stroke: #bdd73c; stroke-width: 0.5"/>
     <use xlink:href="#m23017940d5" x="70.386214" y="98.539027" style="fill: #ddea9d; stroke: #bdd73c; stroke-width: 0.5"/>
     <use xlink:href="#m23017940d5" x="90.415988" y="83.815561" style="fill: #ddea9d; stroke: #bdd73c; stroke-width: 0.5"/>
     <use xlink:href="#m23017940d5" x="110.445762" y="69.080572" style="fill: #ddea9d; stroke: #bdd73c; stroke-width: 0.5"/>
    </g>
   </g>
   <g id="PathCollection_10">
    <g clip-path="url(#pc149f21eb3)">
     <use xlink:href="#m59ad240428" x="37.003258" y="126.303343" style="fill: #8cc3b6; stroke: #1a896f; stroke-width: 0.5"/>
     <use xlink:href="#m59ad240428" x="63.709623" y="109.890559" style="fill: #8cc3b6; stroke: #1a896f; stroke-width: 0.5"/>
     <use xlink:href="#m59ad240428" x="90.415988" y="93.379334" style="fill: #8cc3b6; stroke: #1a896f; stroke-width: 0.5"/>
     <use xlink:href="#m59ad240428" x="117.122353" y="76.852949" style="fill: #8cc3b6; stroke: #1a896f; stroke-width: 0.5"/>
    </g>
   </g>
   <g id="PathCollection_11">
    <g clip-path="url(#pc149f21eb3)">
     <use xlink:href="#mce9853b415" x="43.679849" y="125.474617" style="fill: #8491aa; stroke: #0b2456; stroke-width: 0.5"/>
     <use xlink:href="#mce9853b415" x="77.062806" y="107.951898" style="fill: #8491aa; stroke: #0b2456; stroke-width: 0.5"/>
     <use xlink:href="#mce9853b415" x="110.445762" y="90.367457" style="fill: #8491aa; stroke: #0b2456; stroke-width: 0.5"/>
    </g>
   </g>
   <g id="PathCollection_12">
    <g clip-path="url(#pc149f21eb3)">
     <use xlink:href="#mc70cb18928" x="50.35644" y="124.946666" style="fill: #d186a5; stroke: #a40e4c; stroke-width: 0.5"/>
     <use xlink:href="#mc70cb18928" x="90.415988" y="106.693534" style="fill: #d186a5; stroke: #a40e4c; stroke-width: 0.5"/>
     <use xlink:href="#mc70cb18928" x="130.475536" y="88.401158" style="fill: #d186a5; stroke: #a40e4c; stroke-width: 0.5"/>
    </g>
   </g>
   <g id="PathCollection_13">
    <g clip-path="url(#pc149f21eb3)">
     <use xlink:href="#m8d02f6fdbb" x="57.033032" y="124.583977" style="fill: #f28d9a; stroke: #e71d36; stroke-width: 0.5"/>
     <use xlink:href="#m8d02f6fdbb" x="103.769171" y="105.814359" style="fill: #f28d9a; stroke: #e71d36; stroke-width: 0.5"/>
     <use xlink:href="#m8d02f6fdbb" x="150.50531" y="87.020179" style="fill: #f28d9a; stroke: #e71d36; stroke-width: 0.5"/>
    </g>
   </g>
   <g id="PathCollection_14">
    <g clip-path="url(#pc149f21eb3)">
     <use xlink:href="#mc1a558a615" x="63.709623" y="124.321051" style="fill: #fece8d; stroke: #ff9f1c; stroke-width: 0.5"/>
     <use xlink:href="#mc1a558a615" x="117.122353" y="105.167301" style="fill: #fece8d; stroke: #ff9f1c; stroke-width: 0.5"/>
     <use xlink:href="#mc1a558a615" x="170.535084" y="85.998909" style="fill: #fece8d; stroke: #ff9f1c; stroke-width: 0.5"/>
    </g>
   </g>
  </g>
  <g id="axes_2">
   <g id="patch_7">
    <path d="M 210.594632 68.604276 
L 344.126458 68.604276 
L 344.126458 3.6 
L 210.594632 3.6 
L 210.594632 68.604276 
z
" style="fill: none"/>
   </g>
   <g id="matplotlib.axis_3">
    <g id="xtick_5">
     <g id="line2d_17">
      <g>
       <use xlink:href="#m58d61f6420" x="216.66426" y="68.604276" style="stroke: #000000; stroke-width: 0.8"/>
      </g>
     </g>
    </g>
    <g id="xtick_6">
     <g id="line2d_18">
      <g>
       <use xlink:href="#m58d61f6420" x="277.360545" y="68.604276" style="stroke: #000000; stroke-width: 0.8"/>
      </g>
     </g>
    </g>
    <g id="xtick_7">
     <g id="line2d_19">
      <g>
       <use xlink:href="#m58d61f6420" x="338.056829" y="68.604276" style="stroke: #000000; stroke-width: 0.8"/>
      </g>
     </g>
    </g>
   </g>
   <g id="matplotlib.axis_4">
    <g id="ytick_6">
     <g id="line2d_20">
      <g>
       <use xlink:href="#m26200727ed" x="210.594632" y="65.649537" style="stroke: #000000; stroke-width: 0.8"/>
      </g>
     </g>
     <g id="text_21">
      <!-- $\mathdefault{0.00}$ -->
      <g transform="translate(188.883217 69.108786)scale(0.1 -0.1)">
       <use xlink:href="#CMR17-30" transform="scale(0.996264)"/>
       <use xlink:href="#CMMI12-3a" transform="translate(45.690477 0)scale(0.996264)"/>
       <use xlink:href="#CMR17-30" transform="translate(72.787654 0)scale(0.996264)"/>
       <use xlink:href="#CMR17-30" transform="translate(118.478131 0)scale(0.996264)"/>
      </g>
     </g>
    </g>
    <g id="ytick_7">
     <g id="line2d_21">
      <g>
       <use xlink:href="#m26200727ed" x="210.594632" y="38.206317" style="stroke: #000000; stroke-width: 0.8"/>
      </g>
     </g>
     <g id="text_22">
      <!-- $\mathdefault{0.02}$ -->
      <g transform="translate(188.883217 41.665566)scale(0.1 -0.1)">
       <use xlink:href="#CMR17-30" transform="scale(0.996264)"/>
       <use xlink:href="#CMMI12-3a" transform="translate(45.690477 0)scale(0.996264)"/>
       <use xlink:href="#CMR17-30" transform="translate(72.787654 0)scale(0.996264)"/>
       <use xlink:href="#CMR17-32" transform="translate(118.478131 0)scale(0.996264)"/>
      </g>
     </g>
    </g>
    <g id="ytick_8">
     <g id="line2d_22">
      <g>
       <use xlink:href="#m26200727ed" x="210.594632" y="10.763097" style="stroke: #000000; stroke-width: 0.8"/>
      </g>
     </g>
     <g id="text_23">
      <!-- $\mathdefault{0.04}$ -->
      <g transform="translate(188.883217 14.222346)scale(0.1 -0.1)">
       <use xlink:href="#CMR17-30" transform="scale(0.996264)"/>
       <use xlink:href="#CMMI12-3a" transform="translate(45.690477 0)scale(0.996264)"/>
       <use xlink:href="#CMR17-30" transform="translate(72.787654 0)scale(0.996264)"/>
       <use xlink:href="#CMR17-34" transform="translate(118.478131 0)scale(0.996264)"/>
      </g>
     </g>
    </g>
    <g id="text_24">
     <!-- $\Phi_0$ -->
     <g transform="translate(182.946039 41.68538)rotate(-90)scale(0.1 -0.1)">
      <defs>
       <path id="CMR17-8" d="M 2330 851 
C 3366 940 3974 1569 3974 2172 
C 3974 2801 3341 3411 2330 3500 
L 2330 3879 
C 2330 4118 2342 4185 2829 4185 
L 2970 4185 
L 2970 4352 
C 2707 4339 2400 4339 2131 4339 
C 1862 4339 1549 4339 1286 4352 
L 1286 4185 
L 1427 4185 
C 1914 4185 1926 4118 1926 3879 
L 1926 3500 
C 922 3411 294 2794 294 2179 
C 294 1538 947 940 1926 851 
L 1926 472 
C 1926 232 1914 166 1427 166 
L 1286 166 
L 1286 0 
C 1549 12 1862 12 2131 12 
C 2400 12 2707 12 2970 0 
L 2970 166 
L 2829 166 
C 2342 166 2330 232 2330 472 
L 2330 851 
z
M 1926 960 
C 1350 1022 768 1345 768 2172 
C 768 3024 1370 3335 1926 3392 
L 1926 960 
z
M 2330 3392 
C 2835 3348 3501 3068 3501 2179 
C 3501 1264 2810 1003 2330 960 
L 2330 3392 
z
" transform="scale(0.015625)"/>
      </defs>
      <use xlink:href="#CMR17-8" transform="scale(0.996264)"/>
      <use xlink:href="#CMR17-30" transform="translate(66.509881 -14.943915)scale(0.697382)"/>
     </g>
    </g>
   </g>
   <g id="line2d_23">
    <path d="M 216.66426 65.649537 
L 220.188168 58.992703 
L 223.833591 52.58128 
L 227.479013 46.618601 
L 231.124436 41.076799 
L 234.769858 35.937557 
L 238.293767 31.344454 
L 241.696161 27.259632 
L 244.977041 23.651251 
L 248.136408 20.490052 
L 251.295774 17.643562 
L 254.333626 15.209201 
L 257.249964 13.155365 
L 260.044788 11.449528 
L 262.839612 10.00127 
L 265.512922 8.85669 
L 268.186231 7.946499 
L 270.859541 7.269407 
L 273.532851 6.824111 
L 276.206161 6.609583 
L 278.879471 6.625274 
L 281.552781 6.871226 
L 284.22609 7.348061 
L 286.8994 8.05686 
L 289.57271 8.998941 
L 292.24602 10.175569 
L 295.040844 11.657424 
L 297.835668 13.396831 
L 300.752006 15.485499 
L 303.668344 17.851198 
L 306.706196 20.605861 
L 309.865562 23.779026 
L 313.146442 27.399549 
L 316.548836 31.496718 
L 320.072745 36.102493 
L 323.596653 41.076799 
L 327.242076 46.618601 
L 330.887498 52.58128 
L 334.411407 58.771404 
L 337.935315 65.412107 
L 338.056829 65.649537 
L 338.056829 65.649537 
" clip-path="url(#pff68d6f0a9)" style="fill: none; stroke: #0b2456; stroke-width: 0.5; stroke-linecap: round"/>
   </g>
   <g id="LineCollection_1">
    <path d="M 277.360545 6.630339 
L 277.360545 6.55474 
" clip-path="url(#pff68d6f0a9)" style="fill: none; stroke: #0b2456; stroke-width: 0.75"/>
    <path d="M 277.360545 6.630339 
L 277.360545 6.55474 
" clip-path="url(#pff68d6f0a9)" style="fill: none; stroke: #0b2456; stroke-width: 0.75"/>
    <path d="M 257.12845 13.241674 
L 257.12845 13.196214 
" clip-path="url(#pff68d6f0a9)" style="fill: none; stroke: #0b2456; stroke-width: 0.75"/>
    <path d="M 297.592639 13.241674 
L 297.592639 13.196214 
" clip-path="url(#pff68d6f0a9)" style="fill: none; stroke: #0b2456; stroke-width: 0.75"/>
    <path d="M 247.012402 21.654219 
L 247.012402 21.553217 
" clip-path="url(#pff68d6f0a9)" style="fill: none; stroke: #0b2456; stroke-width: 0.75"/>
    <path d="M 307.708687 21.654219 
L 307.708687 21.553217 
" clip-path="url(#pff68d6f0a9)" style="fill: none; stroke: #0b2456; stroke-width: 0.75"/>
    <path d="M 240.942774 28.169699 
L 240.942774 28.093535 
" clip-path="url(#pff68d6f0a9)" style="fill: none; stroke: #0b2456; stroke-width: 0.75"/>
    <path d="M 313.778315 28.169699 
L 313.778315 28.093535 
" clip-path="url(#pff68d6f0a9)" style="fill: none; stroke: #0b2456; stroke-width: 0.75"/>
    <path d="M 236.896355 33.123851 
L 236.896355 33.083495 
" clip-path="url(#pff68d6f0a9)" style="fill: none; stroke: #0b2456; stroke-width: 0.75"/>
    <path d="M 317.824734 33.123851 
L 317.824734 33.083495 
" clip-path="url(#pff68d6f0a9)" style="fill: none; stroke: #0b2456; stroke-width: 0.75"/>
    <path d="M 234.006056 36.98661 
L 234.006056 36.964962 
" clip-path="url(#pff68d6f0a9)" style="fill: none; stroke: #0b2456; stroke-width: 0.75"/>
    <path d="M 320.715034 36.98661 
L 320.715034 36.964962 
" clip-path="url(#pff68d6f0a9)" style="fill: none; stroke: #0b2456; stroke-width: 0.75"/>
    <path d="M 231.838331 40.05914 
L 231.838331 40.047846 
" clip-path="url(#pff68d6f0a9)" style="fill: none; stroke: #0b2456; stroke-width: 0.75"/>
    <path d="M 322.882758 40.05914 
L 322.882758 40.047846 
" clip-path="url(#pff68d6f0a9)" style="fill: none; stroke: #0b2456; stroke-width: 0.75"/>
   </g>
   <g id="line2d_24">
    <defs>
     <path id="med282fe7c7" d="M 0 1.5 
C 0.397805 1.5 0.77937 1.341951 1.06066 1.06066 
C 1.341951 0.77937 1.5 0.397805 1.5 0 
C 1.5 -0.397805 1.341951 -0.77937 1.06066 -1.06066 
C 0.77937 -1.341951 0.397805 -1.5 0 -1.5 
C -0.397805 -1.5 -0.77937 -1.341951 -1.06066 -1.06066 
C -1.341951 -0.77937 -1.5 -0.397805 -1.5 0 
C -1.5 0.397805 -1.341951 0.77937 -1.06066 1.06066 
C -0.77937 1.341951 -0.397805 1.5 0 1.5 
z
" style="stroke: #8491aa"/>
    </defs>
    <g clip-path="url(#pff68d6f0a9)">
     <use xlink:href="#med282fe7c7" x="277.360545" y="6.59254" style="fill: #8491aa; stroke: #8491aa"/>
     <use xlink:href="#med282fe7c7" x="277.360545" y="6.59254" style="fill: #8491aa; stroke: #8491aa"/>
     <use xlink:href="#med282fe7c7" x="257.12845" y="13.218944" style="fill: #8491aa; stroke: #8491aa"/>
     <use xlink:href="#med282fe7c7" x="297.592639" y="13.218944" style="fill: #8491aa; stroke: #8491aa"/>
     <use xlink:href="#med282fe7c7" x="247.012402" y="21.603718" style="fill: #8491aa; stroke: #8491aa"/>
     <use xlink:href="#med282fe7c7" x="307.708687" y="21.603718" style="fill: #8491aa; stroke: #8491aa"/>
     <use xlink:href="#med282fe7c7" x="240.942774" y="28.131617" style="fill: #8491aa; stroke: #8491aa"/>
     <use xlink:href="#med282fe7c7" x="313.778315" y="28.131617" style="fill: #8491aa; stroke: #8491aa"/>
     <use xlink:href="#med282fe7c7" x="236.896355" y="33.103673" style="fill: #8491aa; stroke: #8491aa"/>
     <use xlink:href="#med282fe7c7" x="317.824734" y="33.103673" style="fill: #8491aa; stroke: #8491aa"/>
     <use xlink:href="#med282fe7c7" x="234.006056" y="36.975786" style="fill: #8491aa; stroke: #8491aa"/>
     <use xlink:href="#med282fe7c7" x="320.715034" y="36.975786" style="fill: #8491aa; stroke: #8491aa"/>
     <use xlink:href="#med282fe7c7" x="231.838331" y="40.053493" style="fill: #8491aa; stroke: #8491aa"/>
     <use xlink:href="#med282fe7c7" x="322.882758" y="40.053493" style="fill: #8491aa; stroke: #8491aa"/>
    </g>
   </g>
   <g id="patch_8">
    <path d="M 210.594632 68.604276 
L 210.594632 3.6 
" style="fill: none; stroke: #000000; stroke-width: 0.8; stroke-linejoin: miter; stroke-linecap: square"/>
   </g>
   <g id="patch_9">
    <path d="M 344.126458 68.604276 
L 344.126458 3.6 
" style="fill: none; stroke: #000000; stroke-width: 0.8; stroke-linejoin: miter; stroke-linecap: square"/>
   </g>
   <g id="patch_10">
    <path d="M 210.594632 68.604276 
L 344.126458 68.604276 
" style="fill: none; stroke: #000000; stroke-width: 0.8; stroke-linejoin: miter; stroke-linecap: square"/>
   </g>
   <g id="patch_11">
    <path d="M 210.594632 3.6 
L 344.126458 3.6 
" style="fill: none; stroke: #000000; stroke-width: 0.8; stroke-linejoin: miter; stroke-linecap: square"/>
   </g>
  </g>
  <g id="axes_3">
   <g id="patch_12">
    <path d="M 210.594632 140.108981 
L 344.126458 140.108981 
L 344.126458 75.104704 
L 210.594632 75.104704 
L 210.594632 140.108981 
z
" style="fill: none"/>
   </g>
   <g id="matplotlib.axis_5">
    <g id="xtick_8">
     <g id="line2d_25">
      <g>
       <use xlink:href="#m58d61f6420" x="216.66426" y="140.108981" style="stroke: #000000; stroke-width: 0.8"/>
      </g>
     </g>
     <g id="text_25">
      <!-- $\mathdefault{0.0}$ -->
      <g transform="translate(210.299221 151.027479)scale(0.1 -0.1)">
       <use xlink:href="#CMR17-30" transform="scale(0.996264)"/>
       <use xlink:href="#CMMI12-3a" transform="translate(45.690477 0)scale(0.996264)"/>
       <use xlink:href="#CMR17-30" transform="translate(72.787654 0)scale(0.996264)"/>
      </g>
     </g>
    </g>
    <g id="xtick_9">
     <g id="line2d_26">
      <g>
       <use xlink:href="#m58d61f6420" x="277.360545" y="140.108981" style="stroke: #000000; stroke-width: 0.8"/>
      </g>
     </g>
     <g id="text_26">
      <!-- $\mathdefault{0.5}$ -->
      <g transform="translate(270.995505 151.027479)scale(0.1 -0.1)">
       <use xlink:href="#CMR17-30" transform="scale(0.996264)"/>
       <use xlink:href="#CMMI12-3a" transform="translate(45.690477 0)scale(0.996264)"/>
       <use xlink:href="#CMR17-35" transform="translate(72.787654 0)scale(0.996264)"/>
      </g>
     </g>
    </g>
    <g id="xtick_10">
     <g id="line2d_27">
      <g>
       <use xlink:href="#m58d61f6420" x="338.056829" y="140.108981" style="stroke: #000000; stroke-width: 0.8"/>
      </g>
     </g>
     <g id="text_27">
      <!-- $\mathdefault{1.0}$ -->
      <g transform="translate(331.69179 151.027479)scale(0.1 -0.1)">
       <use xlink:href="#CMR17-31" transform="scale(0.996264)"/>
       <use xlink:href="#CMMI12-3a" transform="translate(45.690477 0)scale(0.996264)"/>
       <use xlink:href="#CMR17-30" transform="translate(72.787654 0)scale(0.996264)"/>
      </g>
     </g>
    </g>
    <g id="text_28">
     <!-- $n/N$ -->
     <g transform="translate(268.154307 164.436637)scale(0.1 -0.1)">
      <use xlink:href="#CMMI12-6e" transform="scale(0.996264)"/>
      <use xlink:href="#CMMI12-3d" transform="translate(58.230047 0)scale(0.996264)"/>
      <use xlink:href="#CMMI12-4e" transform="translate(101.585531 0)scale(0.996264)"/>
     </g>
    </g>
   </g>
   <g id="matplotlib.axis_6">
    <g id="ytick_9">
     <g id="line2d_28">
      <g>
       <use xlink:href="#m26200727ed" x="210.594632" y="137.154241" style="stroke: #000000; stroke-width: 0.8"/>
      </g>
     </g>
     <g id="text_29">
      <!-- $\mathdefault{0.00}$ -->
      <g transform="translate(188.883217 140.61349)scale(0.1 -0.1)">
       <use xlink:href="#CMR17-30" transform="scale(0.996264)"/>
       <use xlink:href="#CMMI12-3a" transform="translate(45.690477 0)scale(0.996264)"/>
       <use xlink:href="#CMR17-30" transform="translate(72.787654 0)scale(0.996264)"/>
       <use xlink:href="#CMR17-30" transform="translate(118.478131 0)scale(0.996264)"/>
      </g>
     </g>
    </g>
    <g id="ytick_10">
     <g id="line2d_29">
      <g>
       <use xlink:href="#m26200727ed" x="210.594632" y="109.711021" style="stroke: #000000; stroke-width: 0.8"/>
      </g>
     </g>
     <g id="text_30">
      <!-- $\mathdefault{0.02}$ -->
      <g transform="translate(188.883217 113.17027)scale(0.1 -0.1)">
       <use xlink:href="#CMR17-30" transform="scale(0.996264)"/>
       <use xlink:href="#CMMI12-3a" transform="translate(45.690477 0)scale(0.996264)"/>
       <use xlink:href="#CMR17-30" transform="translate(72.787654 0)scale(0.996264)"/>
       <use xlink:href="#CMR17-32" transform="translate(118.478131 0)scale(0.996264)"/>
      </g>
     </g>
    </g>
    <g id="ytick_11">
     <g id="line2d_30">
      <g>
       <use xlink:href="#m26200727ed" x="210.594632" y="82.267801" style="stroke: #000000; stroke-width: 0.8"/>
      </g>
     </g>
     <g id="text_31">
      <!-- $\mathdefault{0.04}$ -->
      <g transform="translate(188.883217 85.72705)scale(0.1 -0.1)">
       <use xlink:href="#CMR17-30" transform="scale(0.996264)"/>
       <use xlink:href="#CMMI12-3a" transform="translate(45.690477 0)scale(0.996264)"/>
       <use xlink:href="#CMR17-30" transform="translate(72.787654 0)scale(0.996264)"/>
       <use xlink:href="#CMR17-34" transform="translate(118.478131 0)scale(0.996264)"/>
      </g>
     </g>
    </g>
    <g id="text_32">
     <!-- $\Phi_1$ -->
     <g transform="translate(182.946039 113.190085)rotate(-90)scale(0.1 -0.1)">
      <use xlink:href="#CMR17-8" transform="scale(0.996264)"/>
      <use xlink:href="#CMR17-31" transform="translate(66.509881 -14.943915)scale(0.697382)"/>
     </g>
    </g>
   </g>
   <g id="line2d_31">
    <path d="M 216.66426 137.154241 
L 218.608485 135.88646 
L 221.038767 134.007998 
L 225.170246 130.470716 
L 229.666267 126.715325 
L 232.704119 124.47595 
L 235.377429 122.775522 
L 238.050739 121.341064 
L 240.724049 120.158262 
L 243.640387 119.116515 
L 246.921267 118.186546 
L 251.17426 117.230896 
L 258.100562 115.941559 
L 266.36352 114.598819 
L 271.224083 114.026399 
L 275.234048 113.775142 
L 279.000985 113.760831 
L 282.889435 113.973859 
L 287.263942 114.449517 
L 292.975104 115.316309 
L 302.210175 116.965891 
L 307.313766 118.065647 
L 310.837675 119.039777 
L 313.875527 120.110004 
L 316.548836 121.282031 
L 319.100632 122.634179 
L 321.773942 124.31046 
L 324.568766 126.337082 
L 327.849646 129.007746 
L 335.99109 135.799171 
L 338.056829 137.154241 
L 338.056829 137.154241 
" clip-path="url(#p76c40e09cf)" style="fill: none; stroke: #0b2456; stroke-width: 0.5; stroke-linecap: round"/>
   </g>
   <g id="LineCollection_2">
    <path d="M 277.360545 114.045909 
L 277.360545 113.318162 
" clip-path="url(#p76c40e09cf)" style="fill: none; stroke: #0b2456; stroke-width: 0.75"/>
    <path d="M 277.360545 114.045909 
L 277.360545 113.318162 
" clip-path="url(#p76c40e09cf)" style="fill: none; stroke: #0b2456; stroke-width: 0.75"/>
    <path d="M 257.12845 116.580542 
L 257.12845 116.07945 
" clip-path="url(#p76c40e09cf)" style="fill: none; stroke: #0b2456; stroke-width: 0.75"/>
    <path d="M 297.592639 116.580542 
L 297.592639 116.07945 
" clip-path="url(#p76c40e09cf)" style="fill: none; stroke: #0b2456; stroke-width: 0.75"/>
    <path d="M 247.012402 118.380288 
L 247.012402 117.273862 
" clip-path="url(#p76c40e09cf)" style="fill: none; stroke: #0b2456; stroke-width: 0.75"/>
    <path d="M 307.708687 118.380288 
L 307.708687 117.273862 
" clip-path="url(#p76c40e09cf)" style="fill: none; stroke: #0b2456; stroke-width: 0.75"/>
    <path d="M 240.942774 120.550329 
L 240.942774 119.72767 
" clip-path="url(#p76c40e09cf)" style="fill: none; stroke: #0b2456; stroke-width: 0.75"/>
    <path d="M 313.778315 120.550329 
L 313.778315 119.72767 
" clip-path="url(#p76c40e09cf)" style="fill: none; stroke: #0b2456; stroke-width: 0.75"/>
    <path d="M 236.896355 122.404038 
L 236.896355 121.880957 
" clip-path="url(#p76c40e09cf)" style="fill: none; stroke: #0b2456; stroke-width: 0.75"/>
    <path d="M 317.824734 122.404038 
L 317.824734 121.880957 
" clip-path="url(#p76c40e09cf)" style="fill: none; stroke: #0b2456; stroke-width: 0.75"/>
    <path d="M 234.006056 123.845156 
L 234.006056 123.517796 
" clip-path="url(#p76c40e09cf)" style="fill: none; stroke: #0b2456; stroke-width: 0.75"/>
    <path d="M 320.715034 123.845156 
L 320.715034 123.517796 
" clip-path="url(#p76c40e09cf)" style="fill: none; stroke: #0b2456; stroke-width: 0.75"/>
    <path d="M 231.838331 125.003682 
L 231.838331 124.80851 
" clip-path="url(#p76c40e09cf)" style="fill: none; stroke: #0b2456; stroke-width: 0.75"/>
    <path d="M 322.882758 125.003682 
L 322.882758 124.80851 
" clip-path="url(#p76c40e09cf)" style="fill: none; stroke: #0b2456; stroke-width: 0.75"/>
   </g>
   <g id="line2d_32">
    <g clip-path="url(#p76c40e09cf)">
     <use xlink:href="#med282fe7c7" x="277.360545" y="113.682035" style="fill: #8491aa; stroke: #8491aa"/>
     <use xlink:href="#med282fe7c7" x="277.360545" y="113.682035" style="fill: #8491aa; stroke: #8491aa"/>
     <use xlink:href="#med282fe7c7" x="257.12845" y="116.329996" style="fill: #8491aa; stroke: #8491aa"/>
     <use xlink:href="#med282fe7c7" x="297.592639" y="116.329996" style="fill: #8491aa; stroke: #8491aa"/>
     <use xlink:href="#med282fe7c7" x="247.012402" y="117.827075" style="fill: #8491aa; stroke: #8491aa"/>
     <use xlink:href="#med282fe7c7" x="307.708687" y="117.827075" style="fill: #8491aa; stroke: #8491aa"/>
     <use xlink:href="#med282fe7c7" x="240.942774" y="120.139" style="fill: #8491aa; stroke: #8491aa"/>
     <use xlink:href="#med282fe7c7" x="313.778315" y="120.139" style="fill: #8491aa; stroke: #8491aa"/>
     <use xlink:href="#med282fe7c7" x="236.896355" y="122.142498" style="fill: #8491aa; stroke: #8491aa"/>
     <use xlink:href="#med282fe7c7" x="317.824734" y="122.142498" style="fill: #8491aa; stroke: #8491aa"/>
     <use xlink:href="#med282fe7c7" x="234.006056" y="123.681476" style="fill: #8491aa; stroke: #8491aa"/>
     <use xlink:href="#med282fe7c7" x="320.715034" y="123.681476" style="fill: #8491aa; stroke: #8491aa"/>
     <use xlink:href="#med282fe7c7" x="231.838331" y="124.906096" style="fill: #8491aa; stroke: #8491aa"/>
     <use xlink:href="#med282fe7c7" x="322.882758" y="124.906096" style="fill: #8491aa; stroke: #8491aa"/>
    </g>
   </g>
   <g id="patch_13">
    <path d="M 210.594632 140.108981 
L 210.594632 75.104704 
" style="fill: none; stroke: #000000; stroke-width: 0.8; stroke-linejoin: miter; stroke-linecap: square"/>
   </g>
   <g id="patch_14">
    <path d="M 344.126458 140.108981 
L 344.126458 75.104704 
" style="fill: none; stroke: #000000; stroke-width: 0.8; stroke-linejoin: miter; stroke-linecap: square"/>
   </g>
   <g id="patch_15">
    <path d="M 210.594632 140.108981 
L 344.126458 140.108981 
" style="fill: none; stroke: #000000; stroke-width: 0.8; stroke-linejoin: miter; stroke-linecap: square"/>
   </g>
   <g id="patch_16">
    <path d="M 210.594632 75.104704 
L 344.126458 75.104704 
" style="fill: none; stroke: #000000; stroke-width: 0.8; stroke-linejoin: miter; stroke-linecap: square"/>
   </g>
  </g>
 </g>
 <defs>
  <clipPath id="pc149f21eb3">
   <rect x="37.003258" y="3.6" width="133.531826" height="136.508981"/>
  </clipPath>
  <clipPath id="pff68d6f0a9">
   <rect x="210.594632" y="3.6" width="133.531826" height="65.004276"/>
  </clipPath>
  <clipPath id="p76c40e09cf">
   <rect x="210.594632" y="75.104704" width="133.531826" height="65.004276"/>
  </clipPath>
 </defs>
</svg>
